%TF.GenerationSoftware,KiCad,Pcbnew,(5.1.6)-1*%
%TF.CreationDate,2021-02-04T11:12:43-05:00*%
%TF.ProjectId,DMB Wemos D1 Breakout,444d4220-5765-46d6-9f73-204431204272,rev?*%
%TF.SameCoordinates,Original*%
%TF.FileFunction,Legend,Top*%
%TF.FilePolarity,Positive*%
%FSLAX46Y46*%
G04 Gerber Fmt 4.6, Leading zero omitted, Abs format (unit mm)*
G04 Created by KiCad (PCBNEW (5.1.6)-1) date 2021-02-04 11:12:43*
%MOMM*%
%LPD*%
G01*
G04 APERTURE LIST*
%ADD10C,0.150000*%
%ADD11C,0.010000*%
%ADD12C,0.120000*%
G04 APERTURE END LIST*
D10*
X250507523Y-93686380D02*
X250031333Y-93686380D01*
X249983714Y-94162571D01*
X250031333Y-94114952D01*
X250126571Y-94067333D01*
X250364666Y-94067333D01*
X250459904Y-94114952D01*
X250507523Y-94162571D01*
X250555142Y-94257809D01*
X250555142Y-94495904D01*
X250507523Y-94591142D01*
X250459904Y-94638761D01*
X250364666Y-94686380D01*
X250126571Y-94686380D01*
X250031333Y-94638761D01*
X249983714Y-94591142D01*
X250840857Y-93686380D02*
X251174190Y-94686380D01*
X251507523Y-93686380D01*
X249682095Y-87892000D02*
X249586857Y-87844380D01*
X249444000Y-87844380D01*
X249301142Y-87892000D01*
X249205904Y-87987238D01*
X249158285Y-88082476D01*
X249110666Y-88272952D01*
X249110666Y-88415809D01*
X249158285Y-88606285D01*
X249205904Y-88701523D01*
X249301142Y-88796761D01*
X249444000Y-88844380D01*
X249539238Y-88844380D01*
X249682095Y-88796761D01*
X249729714Y-88749142D01*
X249729714Y-88415809D01*
X249539238Y-88415809D01*
X250158285Y-88844380D02*
X250158285Y-87844380D01*
X250729714Y-88844380D01*
X250729714Y-87844380D01*
X251205904Y-88844380D02*
X251205904Y-87844380D01*
X251444000Y-87844380D01*
X251586857Y-87892000D01*
X251682095Y-87987238D01*
X251729714Y-88082476D01*
X251777333Y-88272952D01*
X251777333Y-88415809D01*
X251729714Y-88606285D01*
X251682095Y-88701523D01*
X251586857Y-88796761D01*
X251444000Y-88844380D01*
X251205904Y-88844380D01*
X227529619Y-137041380D02*
X227529619Y-136041380D01*
X227767714Y-136041380D01*
X227910571Y-136089000D01*
X228005809Y-136184238D01*
X228053428Y-136279476D01*
X228101047Y-136469952D01*
X228101047Y-136612809D01*
X228053428Y-136803285D01*
X228005809Y-136898523D01*
X227910571Y-136993761D01*
X227767714Y-137041380D01*
X227529619Y-137041380D01*
X228529619Y-137041380D02*
X228529619Y-136041380D01*
X228862952Y-136755666D01*
X229196285Y-136041380D01*
X229196285Y-137041380D01*
X230005809Y-136517571D02*
X230148666Y-136565190D01*
X230196285Y-136612809D01*
X230243904Y-136708047D01*
X230243904Y-136850904D01*
X230196285Y-136946142D01*
X230148666Y-136993761D01*
X230053428Y-137041380D01*
X229672476Y-137041380D01*
X229672476Y-136041380D01*
X230005809Y-136041380D01*
X230101047Y-136089000D01*
X230148666Y-136136619D01*
X230196285Y-136231857D01*
X230196285Y-136327095D01*
X230148666Y-136422333D01*
X230101047Y-136469952D01*
X230005809Y-136517571D01*
X229672476Y-136517571D01*
X230672476Y-136660428D02*
X231434380Y-136660428D01*
X232672476Y-137041380D02*
X232672476Y-136041380D01*
X232910571Y-136041380D01*
X233053428Y-136089000D01*
X233148666Y-136184238D01*
X233196285Y-136279476D01*
X233243904Y-136469952D01*
X233243904Y-136612809D01*
X233196285Y-136803285D01*
X233148666Y-136898523D01*
X233053428Y-136993761D01*
X232910571Y-137041380D01*
X232672476Y-137041380D01*
X234196285Y-137041380D02*
X233624857Y-137041380D01*
X233910571Y-137041380D02*
X233910571Y-136041380D01*
X233815333Y-136184238D01*
X233720095Y-136279476D01*
X233624857Y-136327095D01*
X235386761Y-137041380D02*
X235386761Y-136041380D01*
X235720095Y-136755666D01*
X236053428Y-136041380D01*
X236053428Y-137041380D01*
X236529619Y-137041380D02*
X236529619Y-136041380D01*
X237005809Y-137041380D02*
X237005809Y-136041380D01*
X237577238Y-137041380D01*
X237577238Y-136041380D01*
X238053428Y-137041380D02*
X238053428Y-136041380D01*
X239624857Y-136517571D02*
X239767714Y-136565190D01*
X239815333Y-136612809D01*
X239862952Y-136708047D01*
X239862952Y-136850904D01*
X239815333Y-136946142D01*
X239767714Y-136993761D01*
X239672476Y-137041380D01*
X239291523Y-137041380D01*
X239291523Y-136041380D01*
X239624857Y-136041380D01*
X239720095Y-136089000D01*
X239767714Y-136136619D01*
X239815333Y-136231857D01*
X239815333Y-136327095D01*
X239767714Y-136422333D01*
X239720095Y-136469952D01*
X239624857Y-136517571D01*
X239291523Y-136517571D01*
X240862952Y-137041380D02*
X240529619Y-136565190D01*
X240291523Y-137041380D02*
X240291523Y-136041380D01*
X240672476Y-136041380D01*
X240767714Y-136089000D01*
X240815333Y-136136619D01*
X240862952Y-136231857D01*
X240862952Y-136374714D01*
X240815333Y-136469952D01*
X240767714Y-136517571D01*
X240672476Y-136565190D01*
X240291523Y-136565190D01*
X241291523Y-136517571D02*
X241624857Y-136517571D01*
X241767714Y-137041380D02*
X241291523Y-137041380D01*
X241291523Y-136041380D01*
X241767714Y-136041380D01*
X242148666Y-136755666D02*
X242624857Y-136755666D01*
X242053428Y-137041380D02*
X242386761Y-136041380D01*
X242720095Y-137041380D01*
X243053428Y-137041380D02*
X243053428Y-136041380D01*
X243624857Y-137041380D02*
X243196285Y-136469952D01*
X243624857Y-136041380D02*
X243053428Y-136612809D01*
X244243904Y-136041380D02*
X244434380Y-136041380D01*
X244529619Y-136089000D01*
X244624857Y-136184238D01*
X244672476Y-136374714D01*
X244672476Y-136708047D01*
X244624857Y-136898523D01*
X244529619Y-136993761D01*
X244434380Y-137041380D01*
X244243904Y-137041380D01*
X244148666Y-136993761D01*
X244053428Y-136898523D01*
X244005809Y-136708047D01*
X244005809Y-136374714D01*
X244053428Y-136184238D01*
X244148666Y-136089000D01*
X244243904Y-136041380D01*
X245101047Y-136041380D02*
X245101047Y-136850904D01*
X245148666Y-136946142D01*
X245196285Y-136993761D01*
X245291523Y-137041380D01*
X245482000Y-137041380D01*
X245577238Y-136993761D01*
X245624857Y-136946142D01*
X245672476Y-136850904D01*
X245672476Y-136041380D01*
X246005809Y-136041380D02*
X246577238Y-136041380D01*
X246291523Y-137041380D02*
X246291523Y-136041380D01*
X231315333Y-137691380D02*
X231553428Y-138691380D01*
X231743904Y-137977095D01*
X231934380Y-138691380D01*
X232172476Y-137691380D01*
X232458190Y-137691380D02*
X232696285Y-138691380D01*
X232886761Y-137977095D01*
X233077238Y-138691380D01*
X233315333Y-137691380D01*
X233601047Y-137691380D02*
X233839142Y-138691380D01*
X234029619Y-137977095D01*
X234220095Y-138691380D01*
X234458190Y-137691380D01*
X234839142Y-138596142D02*
X234886761Y-138643761D01*
X234839142Y-138691380D01*
X234791523Y-138643761D01*
X234839142Y-138596142D01*
X234839142Y-138691380D01*
X235315333Y-138691380D02*
X235315333Y-137691380D01*
X235648666Y-138405666D01*
X235982000Y-137691380D01*
X235982000Y-138691380D01*
X236458190Y-138691380D02*
X236458190Y-137691380D01*
X237029619Y-138691380D02*
X236601047Y-138119952D01*
X237029619Y-137691380D02*
X236458190Y-138262809D01*
X237458190Y-138691380D02*
X237458190Y-137691380D01*
X237791523Y-138405666D01*
X238124857Y-137691380D01*
X238124857Y-138691380D01*
X238601047Y-138167571D02*
X238934380Y-138167571D01*
X239077238Y-138691380D02*
X238601047Y-138691380D01*
X238601047Y-137691380D01*
X239077238Y-137691380D01*
X239505809Y-138596142D02*
X239553428Y-138643761D01*
X239505809Y-138691380D01*
X239458190Y-138643761D01*
X239505809Y-138596142D01*
X239505809Y-138691380D01*
X240172476Y-137691380D02*
X240362952Y-137691380D01*
X240458190Y-137739000D01*
X240553428Y-137834238D01*
X240601047Y-138024714D01*
X240601047Y-138358047D01*
X240553428Y-138548523D01*
X240458190Y-138643761D01*
X240362952Y-138691380D01*
X240172476Y-138691380D01*
X240077238Y-138643761D01*
X239982000Y-138548523D01*
X239934380Y-138358047D01*
X239934380Y-138024714D01*
X239982000Y-137834238D01*
X240077238Y-137739000D01*
X240172476Y-137691380D01*
X241601047Y-138691380D02*
X241267714Y-138215190D01*
X241029619Y-138691380D02*
X241029619Y-137691380D01*
X241410571Y-137691380D01*
X241505809Y-137739000D01*
X241553428Y-137786619D01*
X241601047Y-137881857D01*
X241601047Y-138024714D01*
X241553428Y-138119952D01*
X241505809Y-138167571D01*
X241410571Y-138215190D01*
X241029619Y-138215190D01*
X242553428Y-137739000D02*
X242458190Y-137691380D01*
X242315333Y-137691380D01*
X242172476Y-137739000D01*
X242077238Y-137834238D01*
X242029619Y-137929476D01*
X241982000Y-138119952D01*
X241982000Y-138262809D01*
X242029619Y-138453285D01*
X242077238Y-138548523D01*
X242172476Y-138643761D01*
X242315333Y-138691380D01*
X242410571Y-138691380D01*
X242553428Y-138643761D01*
X242601047Y-138596142D01*
X242601047Y-138262809D01*
X242410571Y-138262809D01*
X229569142Y-81732380D02*
X229569142Y-80732380D01*
X229950095Y-80732380D01*
X230045333Y-80780000D01*
X230092952Y-80827619D01*
X230140571Y-80922857D01*
X230140571Y-81065714D01*
X230092952Y-81160952D01*
X230045333Y-81208571D01*
X229950095Y-81256190D01*
X229569142Y-81256190D01*
X231140571Y-81732380D02*
X230807238Y-81256190D01*
X230569142Y-81732380D02*
X230569142Y-80732380D01*
X230950095Y-80732380D01*
X231045333Y-80780000D01*
X231092952Y-80827619D01*
X231140571Y-80922857D01*
X231140571Y-81065714D01*
X231092952Y-81160952D01*
X231045333Y-81208571D01*
X230950095Y-81256190D01*
X230569142Y-81256190D01*
X231759619Y-80732380D02*
X231950095Y-80732380D01*
X232045333Y-80780000D01*
X232140571Y-80875238D01*
X232188190Y-81065714D01*
X232188190Y-81399047D01*
X232140571Y-81589523D01*
X232045333Y-81684761D01*
X231950095Y-81732380D01*
X231759619Y-81732380D01*
X231664380Y-81684761D01*
X231569142Y-81589523D01*
X231521523Y-81399047D01*
X231521523Y-81065714D01*
X231569142Y-80875238D01*
X231664380Y-80780000D01*
X231759619Y-80732380D01*
X232473904Y-80732380D02*
X233045333Y-80732380D01*
X232759619Y-81732380D02*
X232759619Y-80732380D01*
X233569142Y-80732380D02*
X233759619Y-80732380D01*
X233854857Y-80780000D01*
X233950095Y-80875238D01*
X233997714Y-81065714D01*
X233997714Y-81399047D01*
X233950095Y-81589523D01*
X233854857Y-81684761D01*
X233759619Y-81732380D01*
X233569142Y-81732380D01*
X233473904Y-81684761D01*
X233378666Y-81589523D01*
X233331047Y-81399047D01*
X233331047Y-81065714D01*
X233378666Y-80875238D01*
X233473904Y-80780000D01*
X233569142Y-80732380D01*
X234283428Y-80732380D02*
X234854857Y-80732380D01*
X234569142Y-81732380D02*
X234569142Y-80732380D01*
X235378666Y-81256190D02*
X235378666Y-81732380D01*
X235045333Y-80732380D02*
X235378666Y-81256190D01*
X235712000Y-80732380D01*
X236045333Y-81732380D02*
X236045333Y-80732380D01*
X236426285Y-80732380D01*
X236521523Y-80780000D01*
X236569142Y-80827619D01*
X236616761Y-80922857D01*
X236616761Y-81065714D01*
X236569142Y-81160952D01*
X236521523Y-81208571D01*
X236426285Y-81256190D01*
X236045333Y-81256190D01*
X237045333Y-81208571D02*
X237378666Y-81208571D01*
X237521523Y-81732380D02*
X237045333Y-81732380D01*
X237045333Y-80732380D01*
X237521523Y-80732380D01*
X238664380Y-81446666D02*
X239140571Y-81446666D01*
X238569142Y-81732380D02*
X238902476Y-80732380D01*
X239235809Y-81732380D01*
X240140571Y-81732380D02*
X239807238Y-81256190D01*
X239569142Y-81732380D02*
X239569142Y-80732380D01*
X239950095Y-80732380D01*
X240045333Y-80780000D01*
X240092952Y-80827619D01*
X240140571Y-80922857D01*
X240140571Y-81065714D01*
X240092952Y-81160952D01*
X240045333Y-81208571D01*
X239950095Y-81256190D01*
X239569142Y-81256190D01*
X240569142Y-81208571D02*
X240902476Y-81208571D01*
X241045333Y-81732380D02*
X240569142Y-81732380D01*
X240569142Y-80732380D01*
X241045333Y-80732380D01*
X241426285Y-81446666D02*
X241902476Y-81446666D01*
X241331047Y-81732380D02*
X241664380Y-80732380D01*
X241997714Y-81732380D01*
X209550095Y-95512000D02*
X209454857Y-95464380D01*
X209312000Y-95464380D01*
X209169142Y-95512000D01*
X209073904Y-95607238D01*
X209026285Y-95702476D01*
X208978666Y-95892952D01*
X208978666Y-96035809D01*
X209026285Y-96226285D01*
X209073904Y-96321523D01*
X209169142Y-96416761D01*
X209312000Y-96464380D01*
X209407238Y-96464380D01*
X209550095Y-96416761D01*
X209597714Y-96369142D01*
X209597714Y-96035809D01*
X209407238Y-96035809D01*
X210026285Y-96464380D02*
X210026285Y-95464380D01*
X210597714Y-96464380D01*
X210597714Y-95464380D01*
X211073904Y-96464380D02*
X211073904Y-95464380D01*
X211312000Y-95464380D01*
X211454857Y-95512000D01*
X211550095Y-95607238D01*
X211597714Y-95702476D01*
X211645333Y-95892952D01*
X211645333Y-96035809D01*
X211597714Y-96226285D01*
X211550095Y-96321523D01*
X211454857Y-96416761D01*
X211312000Y-96464380D01*
X211073904Y-96464380D01*
X208994571Y-93670380D02*
X208994571Y-92670380D01*
X209327904Y-93384666D01*
X209661238Y-92670380D01*
X209661238Y-93670380D01*
X210137428Y-93670380D02*
X210137428Y-92670380D01*
X210566000Y-93622761D02*
X210708857Y-93670380D01*
X210946952Y-93670380D01*
X211042190Y-93622761D01*
X211089809Y-93575142D01*
X211137428Y-93479904D01*
X211137428Y-93384666D01*
X211089809Y-93289428D01*
X211042190Y-93241809D01*
X210946952Y-93194190D01*
X210756476Y-93146571D01*
X210661238Y-93098952D01*
X210613619Y-93051333D01*
X210566000Y-92956095D01*
X210566000Y-92860857D01*
X210613619Y-92765619D01*
X210661238Y-92718000D01*
X210756476Y-92670380D01*
X210994571Y-92670380D01*
X211137428Y-92718000D01*
X211756476Y-92670380D02*
X211946952Y-92670380D01*
X212042190Y-92718000D01*
X212137428Y-92813238D01*
X212185047Y-93003714D01*
X212185047Y-93337047D01*
X212137428Y-93527523D01*
X212042190Y-93622761D01*
X211946952Y-93670380D01*
X211756476Y-93670380D01*
X211661238Y-93622761D01*
X211566000Y-93527523D01*
X211518380Y-93337047D01*
X211518380Y-93003714D01*
X211566000Y-92813238D01*
X211661238Y-92718000D01*
X211756476Y-92670380D01*
X209026285Y-91082761D02*
X209169142Y-91130380D01*
X209407238Y-91130380D01*
X209502476Y-91082761D01*
X209550095Y-91035142D01*
X209597714Y-90939904D01*
X209597714Y-90844666D01*
X209550095Y-90749428D01*
X209502476Y-90701809D01*
X209407238Y-90654190D01*
X209216761Y-90606571D01*
X209121523Y-90558952D01*
X209073904Y-90511333D01*
X209026285Y-90416095D01*
X209026285Y-90320857D01*
X209073904Y-90225619D01*
X209121523Y-90178000D01*
X209216761Y-90130380D01*
X209454857Y-90130380D01*
X209597714Y-90178000D01*
X210597714Y-91035142D02*
X210550095Y-91082761D01*
X210407238Y-91130380D01*
X210312000Y-91130380D01*
X210169142Y-91082761D01*
X210073904Y-90987523D01*
X210026285Y-90892285D01*
X209978666Y-90701809D01*
X209978666Y-90558952D01*
X210026285Y-90368476D01*
X210073904Y-90273238D01*
X210169142Y-90178000D01*
X210312000Y-90130380D01*
X210407238Y-90130380D01*
X210550095Y-90178000D01*
X210597714Y-90225619D01*
X211026285Y-91130380D02*
X211026285Y-90130380D01*
X211597714Y-91130380D02*
X211169142Y-90558952D01*
X211597714Y-90130380D02*
X211026285Y-90701809D01*
X208994571Y-88590380D02*
X208994571Y-87590380D01*
X209327904Y-88304666D01*
X209661238Y-87590380D01*
X209661238Y-88590380D01*
X210327904Y-87590380D02*
X210518380Y-87590380D01*
X210613619Y-87638000D01*
X210708857Y-87733238D01*
X210756476Y-87923714D01*
X210756476Y-88257047D01*
X210708857Y-88447523D01*
X210613619Y-88542761D01*
X210518380Y-88590380D01*
X210327904Y-88590380D01*
X210232666Y-88542761D01*
X210137428Y-88447523D01*
X210089809Y-88257047D01*
X210089809Y-87923714D01*
X210137428Y-87733238D01*
X210232666Y-87638000D01*
X210327904Y-87590380D01*
X211137428Y-88542761D02*
X211280285Y-88590380D01*
X211518380Y-88590380D01*
X211613619Y-88542761D01*
X211661238Y-88495142D01*
X211708857Y-88399904D01*
X211708857Y-88304666D01*
X211661238Y-88209428D01*
X211613619Y-88161809D01*
X211518380Y-88114190D01*
X211327904Y-88066571D01*
X211232666Y-88018952D01*
X211185047Y-87971333D01*
X211137428Y-87876095D01*
X211137428Y-87780857D01*
X211185047Y-87685619D01*
X211232666Y-87638000D01*
X211327904Y-87590380D01*
X211566000Y-87590380D01*
X211708857Y-87638000D01*
X212137428Y-88590380D02*
X212137428Y-87590380D01*
X210145333Y-85955142D02*
X210097714Y-86002761D01*
X209954857Y-86050380D01*
X209859619Y-86050380D01*
X209716761Y-86002761D01*
X209621523Y-85907523D01*
X209573904Y-85812285D01*
X209526285Y-85621809D01*
X209526285Y-85478952D01*
X209573904Y-85288476D01*
X209621523Y-85193238D01*
X209716761Y-85098000D01*
X209859619Y-85050380D01*
X209954857Y-85050380D01*
X210097714Y-85098000D01*
X210145333Y-85145619D01*
X210526285Y-86002761D02*
X210669142Y-86050380D01*
X210907238Y-86050380D01*
X211002476Y-86002761D01*
X211050095Y-85955142D01*
X211097714Y-85859904D01*
X211097714Y-85764666D01*
X211050095Y-85669428D01*
X211002476Y-85621809D01*
X210907238Y-85574190D01*
X210716761Y-85526571D01*
X210621523Y-85478952D01*
X210573904Y-85431333D01*
X210526285Y-85336095D01*
X210526285Y-85240857D01*
X210573904Y-85145619D01*
X210621523Y-85098000D01*
X210716761Y-85050380D01*
X210954857Y-85050380D01*
X211097714Y-85098000D01*
X209121523Y-82510380D02*
X209740571Y-82510380D01*
X209407238Y-82891333D01*
X209550095Y-82891333D01*
X209645333Y-82938952D01*
X209692952Y-82986571D01*
X209740571Y-83081809D01*
X209740571Y-83319904D01*
X209692952Y-83415142D01*
X209645333Y-83462761D01*
X209550095Y-83510380D01*
X209264380Y-83510380D01*
X209169142Y-83462761D01*
X209121523Y-83415142D01*
X210073904Y-82843714D02*
X210312000Y-83510380D01*
X210550095Y-82843714D01*
X210835809Y-82510380D02*
X211454857Y-82510380D01*
X211121523Y-82891333D01*
X211264380Y-82891333D01*
X211359619Y-82938952D01*
X211407238Y-82986571D01*
X211454857Y-83081809D01*
X211454857Y-83319904D01*
X211407238Y-83415142D01*
X211359619Y-83462761D01*
X211264380Y-83510380D01*
X210978666Y-83510380D01*
X210883428Y-83462761D01*
X210835809Y-83415142D01*
X220273714Y-91336761D02*
X220416571Y-91384380D01*
X220654666Y-91384380D01*
X220749904Y-91336761D01*
X220797523Y-91289142D01*
X220845142Y-91193904D01*
X220845142Y-91098666D01*
X220797523Y-91003428D01*
X220749904Y-90955809D01*
X220654666Y-90908190D01*
X220464190Y-90860571D01*
X220368952Y-90812952D01*
X220321333Y-90765333D01*
X220273714Y-90670095D01*
X220273714Y-90574857D01*
X220321333Y-90479619D01*
X220368952Y-90432000D01*
X220464190Y-90384380D01*
X220702285Y-90384380D01*
X220845142Y-90432000D01*
X221273714Y-91384380D02*
X221273714Y-90384380D01*
X221511809Y-90384380D01*
X221654666Y-90432000D01*
X221749904Y-90527238D01*
X221797523Y-90622476D01*
X221845142Y-90812952D01*
X221845142Y-90955809D01*
X221797523Y-91146285D01*
X221749904Y-91241523D01*
X221654666Y-91336761D01*
X221511809Y-91384380D01*
X221273714Y-91384380D01*
X222226095Y-91098666D02*
X222702285Y-91098666D01*
X222130857Y-91384380D02*
X222464190Y-90384380D01*
X222797523Y-91384380D01*
X220297523Y-88796761D02*
X220440380Y-88844380D01*
X220678476Y-88844380D01*
X220773714Y-88796761D01*
X220821333Y-88749142D01*
X220868952Y-88653904D01*
X220868952Y-88558666D01*
X220821333Y-88463428D01*
X220773714Y-88415809D01*
X220678476Y-88368190D01*
X220488000Y-88320571D01*
X220392761Y-88272952D01*
X220345142Y-88225333D01*
X220297523Y-88130095D01*
X220297523Y-88034857D01*
X220345142Y-87939619D01*
X220392761Y-87892000D01*
X220488000Y-87844380D01*
X220726095Y-87844380D01*
X220868952Y-87892000D01*
X221868952Y-88749142D02*
X221821333Y-88796761D01*
X221678476Y-88844380D01*
X221583238Y-88844380D01*
X221440380Y-88796761D01*
X221345142Y-88701523D01*
X221297523Y-88606285D01*
X221249904Y-88415809D01*
X221249904Y-88272952D01*
X221297523Y-88082476D01*
X221345142Y-87987238D01*
X221440380Y-87892000D01*
X221583238Y-87844380D01*
X221678476Y-87844380D01*
X221821333Y-87892000D01*
X221868952Y-87939619D01*
X222773714Y-88844380D02*
X222297523Y-88844380D01*
X222297523Y-87844380D01*
X220249904Y-85558380D02*
X220868952Y-85558380D01*
X220535619Y-85939333D01*
X220678476Y-85939333D01*
X220773714Y-85986952D01*
X220821333Y-86034571D01*
X220868952Y-86129809D01*
X220868952Y-86367904D01*
X220821333Y-86463142D01*
X220773714Y-86510761D01*
X220678476Y-86558380D01*
X220392761Y-86558380D01*
X220297523Y-86510761D01*
X220249904Y-86463142D01*
X221154666Y-85558380D02*
X221488000Y-86558380D01*
X221821333Y-85558380D01*
X222059428Y-85558380D02*
X222678476Y-85558380D01*
X222345142Y-85939333D01*
X222488000Y-85939333D01*
X222583238Y-85986952D01*
X222630857Y-86034571D01*
X222678476Y-86129809D01*
X222678476Y-86367904D01*
X222630857Y-86463142D01*
X222583238Y-86510761D01*
X222488000Y-86558380D01*
X222202285Y-86558380D01*
X222107047Y-86510761D01*
X222059428Y-86463142D01*
X220726095Y-82558000D02*
X220630857Y-82510380D01*
X220488000Y-82510380D01*
X220345142Y-82558000D01*
X220249904Y-82653238D01*
X220202285Y-82748476D01*
X220154666Y-82938952D01*
X220154666Y-83081809D01*
X220202285Y-83272285D01*
X220249904Y-83367523D01*
X220345142Y-83462761D01*
X220488000Y-83510380D01*
X220583238Y-83510380D01*
X220726095Y-83462761D01*
X220773714Y-83415142D01*
X220773714Y-83081809D01*
X220583238Y-83081809D01*
X221202285Y-83510380D02*
X221202285Y-82510380D01*
X221773714Y-83510380D01*
X221773714Y-82510380D01*
X222249904Y-83510380D02*
X222249904Y-82510380D01*
X222488000Y-82510380D01*
X222630857Y-82558000D01*
X222726095Y-82653238D01*
X222773714Y-82748476D01*
X222821333Y-82938952D01*
X222821333Y-83081809D01*
X222773714Y-83272285D01*
X222726095Y-83367523D01*
X222630857Y-83462761D01*
X222488000Y-83510380D01*
X222249904Y-83510380D01*
D11*
%TO.C,REF\u002A\u002A*%
G36*
X236831910Y-128052348D02*
G01*
X236910454Y-128052778D01*
X236967298Y-128053942D01*
X237006105Y-128056207D01*
X237030538Y-128059940D01*
X237044262Y-128065506D01*
X237050940Y-128073273D01*
X237054236Y-128083605D01*
X237054556Y-128084943D01*
X237059562Y-128109079D01*
X237068829Y-128156701D01*
X237081392Y-128222741D01*
X237096287Y-128302128D01*
X237112551Y-128389796D01*
X237113119Y-128392875D01*
X237129410Y-128478789D01*
X237144652Y-128554696D01*
X237157861Y-128616045D01*
X237168054Y-128658282D01*
X237174248Y-128676855D01*
X237174543Y-128677184D01*
X237192788Y-128686253D01*
X237230405Y-128701367D01*
X237279271Y-128719262D01*
X237279543Y-128719358D01*
X237341093Y-128742493D01*
X237413657Y-128771965D01*
X237482057Y-128801597D01*
X237485294Y-128803062D01*
X237596702Y-128853626D01*
X237843399Y-128685160D01*
X237919077Y-128633803D01*
X237987631Y-128587889D01*
X238045088Y-128550030D01*
X238087476Y-128522837D01*
X238110825Y-128508921D01*
X238113042Y-128507889D01*
X238130010Y-128512484D01*
X238161701Y-128534655D01*
X238209352Y-128575447D01*
X238274198Y-128635905D01*
X238340397Y-128700227D01*
X238404214Y-128763612D01*
X238461329Y-128821451D01*
X238508305Y-128870175D01*
X238541703Y-128906210D01*
X238558085Y-128925984D01*
X238558694Y-128927002D01*
X238560505Y-128940572D01*
X238553683Y-128962733D01*
X238536540Y-128996478D01*
X238507393Y-129044800D01*
X238464555Y-129110692D01*
X238407448Y-129195517D01*
X238356766Y-129270177D01*
X238311461Y-129337140D01*
X238274150Y-129392516D01*
X238247452Y-129432420D01*
X238233985Y-129452962D01*
X238233137Y-129454356D01*
X238234781Y-129474038D01*
X238247245Y-129512293D01*
X238268048Y-129561889D01*
X238275462Y-129577728D01*
X238307814Y-129648290D01*
X238342328Y-129728353D01*
X238370365Y-129797629D01*
X238390568Y-129849045D01*
X238406615Y-129888119D01*
X238415888Y-129908541D01*
X238417041Y-129910114D01*
X238434096Y-129912721D01*
X238474298Y-129919863D01*
X238532302Y-129930523D01*
X238602763Y-129943685D01*
X238680335Y-129958333D01*
X238759672Y-129973449D01*
X238835431Y-129988018D01*
X238902264Y-130001022D01*
X238954828Y-130011445D01*
X238987776Y-130018270D01*
X238995857Y-130020199D01*
X239004205Y-130024962D01*
X239010506Y-130035718D01*
X239015045Y-130056098D01*
X239018104Y-130089734D01*
X239019967Y-130140255D01*
X239020918Y-130211292D01*
X239021240Y-130306476D01*
X239021257Y-130345492D01*
X239021257Y-130662799D01*
X238945057Y-130677839D01*
X238902663Y-130685995D01*
X238839400Y-130697899D01*
X238762962Y-130712116D01*
X238681043Y-130727210D01*
X238658400Y-130731355D01*
X238582806Y-130746053D01*
X238516953Y-130760505D01*
X238466366Y-130773375D01*
X238436574Y-130783322D01*
X238431612Y-130786287D01*
X238419426Y-130807283D01*
X238401953Y-130847967D01*
X238382577Y-130900322D01*
X238378734Y-130911600D01*
X238353339Y-130981523D01*
X238321817Y-131060418D01*
X238290969Y-131131266D01*
X238290817Y-131131595D01*
X238239447Y-131242733D01*
X238408399Y-131491253D01*
X238577352Y-131739772D01*
X238360429Y-131957058D01*
X238294819Y-132021726D01*
X238234979Y-132078733D01*
X238184267Y-132125033D01*
X238146046Y-132157584D01*
X238123675Y-132173343D01*
X238120466Y-132174343D01*
X238101626Y-132166469D01*
X238063180Y-132144578D01*
X238009330Y-132111267D01*
X237944276Y-132069131D01*
X237873940Y-132021943D01*
X237802555Y-131973810D01*
X237738908Y-131931928D01*
X237687041Y-131898871D01*
X237650995Y-131877218D01*
X237634867Y-131869543D01*
X237615189Y-131876037D01*
X237577875Y-131893150D01*
X237530621Y-131917326D01*
X237525612Y-131920013D01*
X237461977Y-131951927D01*
X237418341Y-131967579D01*
X237391202Y-131967745D01*
X237377057Y-131953204D01*
X237376975Y-131953000D01*
X237369905Y-131935779D01*
X237353042Y-131894899D01*
X237327695Y-131833525D01*
X237295171Y-131754819D01*
X237256778Y-131661947D01*
X237213822Y-131558072D01*
X237172222Y-131457502D01*
X237126504Y-131346516D01*
X237084526Y-131243703D01*
X237047548Y-131152215D01*
X237016827Y-131075201D01*
X236993622Y-131015815D01*
X236979190Y-130977209D01*
X236974743Y-130962800D01*
X236985896Y-130946272D01*
X237015069Y-130919930D01*
X237053971Y-130890887D01*
X237164757Y-130799039D01*
X237251351Y-130693759D01*
X237312716Y-130577266D01*
X237347815Y-130451776D01*
X237355608Y-130319507D01*
X237349943Y-130258457D01*
X237319078Y-130131795D01*
X237265920Y-130019941D01*
X237193767Y-129924001D01*
X237105917Y-129845076D01*
X237005665Y-129784270D01*
X236896310Y-129742687D01*
X236781147Y-129721428D01*
X236663475Y-129721599D01*
X236546590Y-129744301D01*
X236433789Y-129790638D01*
X236328369Y-129861713D01*
X236284368Y-129901911D01*
X236199979Y-130005129D01*
X236141222Y-130117925D01*
X236107704Y-130237010D01*
X236099035Y-130359095D01*
X236114823Y-130480893D01*
X236154678Y-130599116D01*
X236218207Y-130710475D01*
X236305021Y-130811684D01*
X236402029Y-130890887D01*
X236442437Y-130921162D01*
X236470982Y-130947219D01*
X236481257Y-130962825D01*
X236475877Y-130979843D01*
X236460575Y-131020500D01*
X236436612Y-131081642D01*
X236405244Y-131160119D01*
X236367732Y-131252780D01*
X236325333Y-131356472D01*
X236283663Y-131457526D01*
X236237690Y-131568607D01*
X236195107Y-131671541D01*
X236157221Y-131763165D01*
X236125340Y-131840316D01*
X236100771Y-131899831D01*
X236084820Y-131938544D01*
X236078910Y-131953000D01*
X236064948Y-131967685D01*
X236037940Y-131967642D01*
X235994413Y-131952099D01*
X235930890Y-131920284D01*
X235930388Y-131920013D01*
X235882560Y-131895323D01*
X235843897Y-131877338D01*
X235822095Y-131869614D01*
X235821133Y-131869543D01*
X235804721Y-131877378D01*
X235768487Y-131899165D01*
X235716474Y-131932328D01*
X235652725Y-131974291D01*
X235582060Y-132021943D01*
X235510116Y-132070191D01*
X235445274Y-132112151D01*
X235391735Y-132145227D01*
X235353697Y-132166821D01*
X235335533Y-132174343D01*
X235318808Y-132164457D01*
X235285180Y-132136826D01*
X235238010Y-132094495D01*
X235180658Y-132040505D01*
X235116484Y-131977899D01*
X235095497Y-131956983D01*
X234878499Y-131739623D01*
X235043668Y-131497220D01*
X235093864Y-131422781D01*
X235137919Y-131355972D01*
X235173362Y-131300665D01*
X235197719Y-131260729D01*
X235208522Y-131240036D01*
X235208838Y-131238563D01*
X235203143Y-131219058D01*
X235187826Y-131179822D01*
X235165537Y-131127430D01*
X235149893Y-131092355D01*
X235120641Y-131025201D01*
X235093094Y-130957358D01*
X235071737Y-130900034D01*
X235065935Y-130882572D01*
X235049452Y-130835938D01*
X235033340Y-130799905D01*
X235024490Y-130786287D01*
X235004960Y-130777952D01*
X234962334Y-130766137D01*
X234902145Y-130752181D01*
X234829922Y-130737422D01*
X234797600Y-130731355D01*
X234715522Y-130716273D01*
X234636795Y-130701669D01*
X234569109Y-130688980D01*
X234520160Y-130679642D01*
X234510943Y-130677839D01*
X234434743Y-130662799D01*
X234434743Y-130345492D01*
X234434914Y-130241154D01*
X234435616Y-130162213D01*
X234437134Y-130105038D01*
X234439749Y-130065999D01*
X234443746Y-130041465D01*
X234449409Y-130027805D01*
X234457020Y-130021389D01*
X234460143Y-130020199D01*
X234478978Y-130015980D01*
X234520588Y-130007562D01*
X234579630Y-129995961D01*
X234650757Y-129982195D01*
X234728625Y-129967280D01*
X234807887Y-129952232D01*
X234883198Y-129938069D01*
X234949213Y-129925806D01*
X235000587Y-129916461D01*
X235031975Y-129911050D01*
X235038959Y-129910114D01*
X235045285Y-129897596D01*
X235059290Y-129864246D01*
X235078355Y-129816377D01*
X235085634Y-129797629D01*
X235114996Y-129725195D01*
X235149571Y-129645170D01*
X235180537Y-129577728D01*
X235203323Y-129526159D01*
X235218482Y-129483785D01*
X235223542Y-129457834D01*
X235222736Y-129454356D01*
X235212041Y-129437936D01*
X235187620Y-129401417D01*
X235152095Y-129348687D01*
X235108087Y-129283635D01*
X235058217Y-129210151D01*
X235048356Y-129195645D01*
X234990492Y-129109704D01*
X234947956Y-129044261D01*
X234919054Y-128996304D01*
X234902090Y-128962820D01*
X234895367Y-128940795D01*
X234897190Y-128927217D01*
X234897236Y-128927131D01*
X234911586Y-128909297D01*
X234943323Y-128874817D01*
X234989010Y-128827268D01*
X235045204Y-128770222D01*
X235108468Y-128707255D01*
X235115602Y-128700227D01*
X235195330Y-128623020D01*
X235256857Y-128566330D01*
X235301421Y-128529110D01*
X235330257Y-128510315D01*
X235342958Y-128507889D01*
X235361494Y-128518471D01*
X235399961Y-128542916D01*
X235454386Y-128578612D01*
X235520798Y-128622947D01*
X235595225Y-128673311D01*
X235612601Y-128685160D01*
X235859297Y-128853626D01*
X235970706Y-128803062D01*
X236038457Y-128773595D01*
X236111183Y-128743959D01*
X236173703Y-128720330D01*
X236176457Y-128719358D01*
X236225360Y-128701457D01*
X236263057Y-128686320D01*
X236281425Y-128677210D01*
X236281456Y-128677184D01*
X236287285Y-128660717D01*
X236297192Y-128620219D01*
X236310195Y-128560242D01*
X236325309Y-128485340D01*
X236341552Y-128400064D01*
X236342881Y-128392875D01*
X236359175Y-128305014D01*
X236374133Y-128225260D01*
X236386791Y-128158681D01*
X236396186Y-128110347D01*
X236401354Y-128085325D01*
X236401444Y-128084943D01*
X236404589Y-128074299D01*
X236410704Y-128066262D01*
X236423453Y-128060467D01*
X236446500Y-128056547D01*
X236483509Y-128054135D01*
X236538144Y-128052865D01*
X236614067Y-128052371D01*
X236714944Y-128052286D01*
X236728000Y-128052286D01*
X236831910Y-128052348D01*
G37*
X236831910Y-128052348D02*
X236910454Y-128052778D01*
X236967298Y-128053942D01*
X237006105Y-128056207D01*
X237030538Y-128059940D01*
X237044262Y-128065506D01*
X237050940Y-128073273D01*
X237054236Y-128083605D01*
X237054556Y-128084943D01*
X237059562Y-128109079D01*
X237068829Y-128156701D01*
X237081392Y-128222741D01*
X237096287Y-128302128D01*
X237112551Y-128389796D01*
X237113119Y-128392875D01*
X237129410Y-128478789D01*
X237144652Y-128554696D01*
X237157861Y-128616045D01*
X237168054Y-128658282D01*
X237174248Y-128676855D01*
X237174543Y-128677184D01*
X237192788Y-128686253D01*
X237230405Y-128701367D01*
X237279271Y-128719262D01*
X237279543Y-128719358D01*
X237341093Y-128742493D01*
X237413657Y-128771965D01*
X237482057Y-128801597D01*
X237485294Y-128803062D01*
X237596702Y-128853626D01*
X237843399Y-128685160D01*
X237919077Y-128633803D01*
X237987631Y-128587889D01*
X238045088Y-128550030D01*
X238087476Y-128522837D01*
X238110825Y-128508921D01*
X238113042Y-128507889D01*
X238130010Y-128512484D01*
X238161701Y-128534655D01*
X238209352Y-128575447D01*
X238274198Y-128635905D01*
X238340397Y-128700227D01*
X238404214Y-128763612D01*
X238461329Y-128821451D01*
X238508305Y-128870175D01*
X238541703Y-128906210D01*
X238558085Y-128925984D01*
X238558694Y-128927002D01*
X238560505Y-128940572D01*
X238553683Y-128962733D01*
X238536540Y-128996478D01*
X238507393Y-129044800D01*
X238464555Y-129110692D01*
X238407448Y-129195517D01*
X238356766Y-129270177D01*
X238311461Y-129337140D01*
X238274150Y-129392516D01*
X238247452Y-129432420D01*
X238233985Y-129452962D01*
X238233137Y-129454356D01*
X238234781Y-129474038D01*
X238247245Y-129512293D01*
X238268048Y-129561889D01*
X238275462Y-129577728D01*
X238307814Y-129648290D01*
X238342328Y-129728353D01*
X238370365Y-129797629D01*
X238390568Y-129849045D01*
X238406615Y-129888119D01*
X238415888Y-129908541D01*
X238417041Y-129910114D01*
X238434096Y-129912721D01*
X238474298Y-129919863D01*
X238532302Y-129930523D01*
X238602763Y-129943685D01*
X238680335Y-129958333D01*
X238759672Y-129973449D01*
X238835431Y-129988018D01*
X238902264Y-130001022D01*
X238954828Y-130011445D01*
X238987776Y-130018270D01*
X238995857Y-130020199D01*
X239004205Y-130024962D01*
X239010506Y-130035718D01*
X239015045Y-130056098D01*
X239018104Y-130089734D01*
X239019967Y-130140255D01*
X239020918Y-130211292D01*
X239021240Y-130306476D01*
X239021257Y-130345492D01*
X239021257Y-130662799D01*
X238945057Y-130677839D01*
X238902663Y-130685995D01*
X238839400Y-130697899D01*
X238762962Y-130712116D01*
X238681043Y-130727210D01*
X238658400Y-130731355D01*
X238582806Y-130746053D01*
X238516953Y-130760505D01*
X238466366Y-130773375D01*
X238436574Y-130783322D01*
X238431612Y-130786287D01*
X238419426Y-130807283D01*
X238401953Y-130847967D01*
X238382577Y-130900322D01*
X238378734Y-130911600D01*
X238353339Y-130981523D01*
X238321817Y-131060418D01*
X238290969Y-131131266D01*
X238290817Y-131131595D01*
X238239447Y-131242733D01*
X238408399Y-131491253D01*
X238577352Y-131739772D01*
X238360429Y-131957058D01*
X238294819Y-132021726D01*
X238234979Y-132078733D01*
X238184267Y-132125033D01*
X238146046Y-132157584D01*
X238123675Y-132173343D01*
X238120466Y-132174343D01*
X238101626Y-132166469D01*
X238063180Y-132144578D01*
X238009330Y-132111267D01*
X237944276Y-132069131D01*
X237873940Y-132021943D01*
X237802555Y-131973810D01*
X237738908Y-131931928D01*
X237687041Y-131898871D01*
X237650995Y-131877218D01*
X237634867Y-131869543D01*
X237615189Y-131876037D01*
X237577875Y-131893150D01*
X237530621Y-131917326D01*
X237525612Y-131920013D01*
X237461977Y-131951927D01*
X237418341Y-131967579D01*
X237391202Y-131967745D01*
X237377057Y-131953204D01*
X237376975Y-131953000D01*
X237369905Y-131935779D01*
X237353042Y-131894899D01*
X237327695Y-131833525D01*
X237295171Y-131754819D01*
X237256778Y-131661947D01*
X237213822Y-131558072D01*
X237172222Y-131457502D01*
X237126504Y-131346516D01*
X237084526Y-131243703D01*
X237047548Y-131152215D01*
X237016827Y-131075201D01*
X236993622Y-131015815D01*
X236979190Y-130977209D01*
X236974743Y-130962800D01*
X236985896Y-130946272D01*
X237015069Y-130919930D01*
X237053971Y-130890887D01*
X237164757Y-130799039D01*
X237251351Y-130693759D01*
X237312716Y-130577266D01*
X237347815Y-130451776D01*
X237355608Y-130319507D01*
X237349943Y-130258457D01*
X237319078Y-130131795D01*
X237265920Y-130019941D01*
X237193767Y-129924001D01*
X237105917Y-129845076D01*
X237005665Y-129784270D01*
X236896310Y-129742687D01*
X236781147Y-129721428D01*
X236663475Y-129721599D01*
X236546590Y-129744301D01*
X236433789Y-129790638D01*
X236328369Y-129861713D01*
X236284368Y-129901911D01*
X236199979Y-130005129D01*
X236141222Y-130117925D01*
X236107704Y-130237010D01*
X236099035Y-130359095D01*
X236114823Y-130480893D01*
X236154678Y-130599116D01*
X236218207Y-130710475D01*
X236305021Y-130811684D01*
X236402029Y-130890887D01*
X236442437Y-130921162D01*
X236470982Y-130947219D01*
X236481257Y-130962825D01*
X236475877Y-130979843D01*
X236460575Y-131020500D01*
X236436612Y-131081642D01*
X236405244Y-131160119D01*
X236367732Y-131252780D01*
X236325333Y-131356472D01*
X236283663Y-131457526D01*
X236237690Y-131568607D01*
X236195107Y-131671541D01*
X236157221Y-131763165D01*
X236125340Y-131840316D01*
X236100771Y-131899831D01*
X236084820Y-131938544D01*
X236078910Y-131953000D01*
X236064948Y-131967685D01*
X236037940Y-131967642D01*
X235994413Y-131952099D01*
X235930890Y-131920284D01*
X235930388Y-131920013D01*
X235882560Y-131895323D01*
X235843897Y-131877338D01*
X235822095Y-131869614D01*
X235821133Y-131869543D01*
X235804721Y-131877378D01*
X235768487Y-131899165D01*
X235716474Y-131932328D01*
X235652725Y-131974291D01*
X235582060Y-132021943D01*
X235510116Y-132070191D01*
X235445274Y-132112151D01*
X235391735Y-132145227D01*
X235353697Y-132166821D01*
X235335533Y-132174343D01*
X235318808Y-132164457D01*
X235285180Y-132136826D01*
X235238010Y-132094495D01*
X235180658Y-132040505D01*
X235116484Y-131977899D01*
X235095497Y-131956983D01*
X234878499Y-131739623D01*
X235043668Y-131497220D01*
X235093864Y-131422781D01*
X235137919Y-131355972D01*
X235173362Y-131300665D01*
X235197719Y-131260729D01*
X235208522Y-131240036D01*
X235208838Y-131238563D01*
X235203143Y-131219058D01*
X235187826Y-131179822D01*
X235165537Y-131127430D01*
X235149893Y-131092355D01*
X235120641Y-131025201D01*
X235093094Y-130957358D01*
X235071737Y-130900034D01*
X235065935Y-130882572D01*
X235049452Y-130835938D01*
X235033340Y-130799905D01*
X235024490Y-130786287D01*
X235004960Y-130777952D01*
X234962334Y-130766137D01*
X234902145Y-130752181D01*
X234829922Y-130737422D01*
X234797600Y-130731355D01*
X234715522Y-130716273D01*
X234636795Y-130701669D01*
X234569109Y-130688980D01*
X234520160Y-130679642D01*
X234510943Y-130677839D01*
X234434743Y-130662799D01*
X234434743Y-130345492D01*
X234434914Y-130241154D01*
X234435616Y-130162213D01*
X234437134Y-130105038D01*
X234439749Y-130065999D01*
X234443746Y-130041465D01*
X234449409Y-130027805D01*
X234457020Y-130021389D01*
X234460143Y-130020199D01*
X234478978Y-130015980D01*
X234520588Y-130007562D01*
X234579630Y-129995961D01*
X234650757Y-129982195D01*
X234728625Y-129967280D01*
X234807887Y-129952232D01*
X234883198Y-129938069D01*
X234949213Y-129925806D01*
X235000587Y-129916461D01*
X235031975Y-129911050D01*
X235038959Y-129910114D01*
X235045285Y-129897596D01*
X235059290Y-129864246D01*
X235078355Y-129816377D01*
X235085634Y-129797629D01*
X235114996Y-129725195D01*
X235149571Y-129645170D01*
X235180537Y-129577728D01*
X235203323Y-129526159D01*
X235218482Y-129483785D01*
X235223542Y-129457834D01*
X235222736Y-129454356D01*
X235212041Y-129437936D01*
X235187620Y-129401417D01*
X235152095Y-129348687D01*
X235108087Y-129283635D01*
X235058217Y-129210151D01*
X235048356Y-129195645D01*
X234990492Y-129109704D01*
X234947956Y-129044261D01*
X234919054Y-128996304D01*
X234902090Y-128962820D01*
X234895367Y-128940795D01*
X234897190Y-128927217D01*
X234897236Y-128927131D01*
X234911586Y-128909297D01*
X234943323Y-128874817D01*
X234989010Y-128827268D01*
X235045204Y-128770222D01*
X235108468Y-128707255D01*
X235115602Y-128700227D01*
X235195330Y-128623020D01*
X235256857Y-128566330D01*
X235301421Y-128529110D01*
X235330257Y-128510315D01*
X235342958Y-128507889D01*
X235361494Y-128518471D01*
X235399961Y-128542916D01*
X235454386Y-128578612D01*
X235520798Y-128622947D01*
X235595225Y-128673311D01*
X235612601Y-128685160D01*
X235859297Y-128853626D01*
X235970706Y-128803062D01*
X236038457Y-128773595D01*
X236111183Y-128743959D01*
X236173703Y-128720330D01*
X236176457Y-128719358D01*
X236225360Y-128701457D01*
X236263057Y-128686320D01*
X236281425Y-128677210D01*
X236281456Y-128677184D01*
X236287285Y-128660717D01*
X236297192Y-128620219D01*
X236310195Y-128560242D01*
X236325309Y-128485340D01*
X236341552Y-128400064D01*
X236342881Y-128392875D01*
X236359175Y-128305014D01*
X236374133Y-128225260D01*
X236386791Y-128158681D01*
X236396186Y-128110347D01*
X236401354Y-128085325D01*
X236401444Y-128084943D01*
X236404589Y-128074299D01*
X236410704Y-128066262D01*
X236423453Y-128060467D01*
X236446500Y-128056547D01*
X236483509Y-128054135D01*
X236538144Y-128052865D01*
X236614067Y-128052371D01*
X236714944Y-128052286D01*
X236728000Y-128052286D01*
X236831910Y-128052348D01*
G36*
X239881595Y-132776966D02*
G01*
X239939021Y-132814497D01*
X239966719Y-132848096D01*
X239988662Y-132909064D01*
X239990405Y-132957308D01*
X239986457Y-133021816D01*
X239837686Y-133086934D01*
X239765349Y-133120202D01*
X239718084Y-133146964D01*
X239693507Y-133170144D01*
X239689237Y-133192667D01*
X239702889Y-133217455D01*
X239717943Y-133233886D01*
X239761746Y-133260235D01*
X239809389Y-133262081D01*
X239853145Y-133241546D01*
X239885289Y-133200752D01*
X239891038Y-133186347D01*
X239918576Y-133141356D01*
X239950258Y-133122182D01*
X239993714Y-133105779D01*
X239993714Y-133167966D01*
X239989872Y-133210283D01*
X239974823Y-133245969D01*
X239943280Y-133286943D01*
X239938592Y-133292267D01*
X239903506Y-133328720D01*
X239873347Y-133348283D01*
X239835615Y-133357283D01*
X239804335Y-133360230D01*
X239748385Y-133360965D01*
X239708555Y-133351660D01*
X239683708Y-133337846D01*
X239644656Y-133307467D01*
X239617625Y-133274613D01*
X239600517Y-133233294D01*
X239591238Y-133177521D01*
X239587693Y-133101305D01*
X239587410Y-133062622D01*
X239588372Y-133016247D01*
X239676007Y-133016247D01*
X239677023Y-133041126D01*
X239679556Y-133045200D01*
X239696274Y-133039665D01*
X239732249Y-133025017D01*
X239780331Y-133004190D01*
X239790386Y-132999714D01*
X239851152Y-132968814D01*
X239884632Y-132941657D01*
X239891990Y-132916220D01*
X239874391Y-132890481D01*
X239859856Y-132879109D01*
X239807410Y-132856364D01*
X239758322Y-132860122D01*
X239717227Y-132887884D01*
X239688758Y-132937152D01*
X239679631Y-132976257D01*
X239676007Y-133016247D01*
X239588372Y-133016247D01*
X239589285Y-132972249D01*
X239596196Y-132905384D01*
X239609884Y-132856695D01*
X239632096Y-132820849D01*
X239664574Y-132792513D01*
X239678733Y-132783355D01*
X239743053Y-132759507D01*
X239813473Y-132758006D01*
X239881595Y-132776966D01*
G37*
X239881595Y-132776966D02*
X239939021Y-132814497D01*
X239966719Y-132848096D01*
X239988662Y-132909064D01*
X239990405Y-132957308D01*
X239986457Y-133021816D01*
X239837686Y-133086934D01*
X239765349Y-133120202D01*
X239718084Y-133146964D01*
X239693507Y-133170144D01*
X239689237Y-133192667D01*
X239702889Y-133217455D01*
X239717943Y-133233886D01*
X239761746Y-133260235D01*
X239809389Y-133262081D01*
X239853145Y-133241546D01*
X239885289Y-133200752D01*
X239891038Y-133186347D01*
X239918576Y-133141356D01*
X239950258Y-133122182D01*
X239993714Y-133105779D01*
X239993714Y-133167966D01*
X239989872Y-133210283D01*
X239974823Y-133245969D01*
X239943280Y-133286943D01*
X239938592Y-133292267D01*
X239903506Y-133328720D01*
X239873347Y-133348283D01*
X239835615Y-133357283D01*
X239804335Y-133360230D01*
X239748385Y-133360965D01*
X239708555Y-133351660D01*
X239683708Y-133337846D01*
X239644656Y-133307467D01*
X239617625Y-133274613D01*
X239600517Y-133233294D01*
X239591238Y-133177521D01*
X239587693Y-133101305D01*
X239587410Y-133062622D01*
X239588372Y-133016247D01*
X239676007Y-133016247D01*
X239677023Y-133041126D01*
X239679556Y-133045200D01*
X239696274Y-133039665D01*
X239732249Y-133025017D01*
X239780331Y-133004190D01*
X239790386Y-132999714D01*
X239851152Y-132968814D01*
X239884632Y-132941657D01*
X239891990Y-132916220D01*
X239874391Y-132890481D01*
X239859856Y-132879109D01*
X239807410Y-132856364D01*
X239758322Y-132860122D01*
X239717227Y-132887884D01*
X239688758Y-132937152D01*
X239679631Y-132976257D01*
X239676007Y-133016247D01*
X239588372Y-133016247D01*
X239589285Y-132972249D01*
X239596196Y-132905384D01*
X239609884Y-132856695D01*
X239632096Y-132820849D01*
X239664574Y-132792513D01*
X239678733Y-132783355D01*
X239743053Y-132759507D01*
X239813473Y-132758006D01*
X239881595Y-132776966D01*
G36*
X239380600Y-132768752D02*
G01*
X239397948Y-132776334D01*
X239439356Y-132809128D01*
X239474765Y-132856547D01*
X239496664Y-132907151D01*
X239500229Y-132932098D01*
X239488279Y-132966927D01*
X239462067Y-132985357D01*
X239433964Y-132996516D01*
X239421095Y-132998572D01*
X239414829Y-132983649D01*
X239402456Y-132951175D01*
X239397028Y-132936502D01*
X239366590Y-132885744D01*
X239322520Y-132860427D01*
X239266010Y-132861206D01*
X239261825Y-132862203D01*
X239231655Y-132876507D01*
X239209476Y-132904393D01*
X239194327Y-132949287D01*
X239185250Y-133014615D01*
X239181286Y-133103804D01*
X239180914Y-133151261D01*
X239180730Y-133226071D01*
X239179522Y-133277069D01*
X239176309Y-133309471D01*
X239170109Y-133328495D01*
X239159940Y-133339356D01*
X239144819Y-133347272D01*
X239143946Y-133347670D01*
X239114828Y-133359981D01*
X239100403Y-133364514D01*
X239098186Y-133350809D01*
X239096289Y-133312925D01*
X239094847Y-133255715D01*
X239093998Y-133184027D01*
X239093829Y-133131565D01*
X239094692Y-133030047D01*
X239098070Y-132953032D01*
X239105142Y-132896023D01*
X239117088Y-132854526D01*
X239135090Y-132824043D01*
X239160327Y-132800080D01*
X239185247Y-132783355D01*
X239245171Y-132761097D01*
X239314911Y-132756076D01*
X239380600Y-132768752D01*
G37*
X239380600Y-132768752D02*
X239397948Y-132776334D01*
X239439356Y-132809128D01*
X239474765Y-132856547D01*
X239496664Y-132907151D01*
X239500229Y-132932098D01*
X239488279Y-132966927D01*
X239462067Y-132985357D01*
X239433964Y-132996516D01*
X239421095Y-132998572D01*
X239414829Y-132983649D01*
X239402456Y-132951175D01*
X239397028Y-132936502D01*
X239366590Y-132885744D01*
X239322520Y-132860427D01*
X239266010Y-132861206D01*
X239261825Y-132862203D01*
X239231655Y-132876507D01*
X239209476Y-132904393D01*
X239194327Y-132949287D01*
X239185250Y-133014615D01*
X239181286Y-133103804D01*
X239180914Y-133151261D01*
X239180730Y-133226071D01*
X239179522Y-133277069D01*
X239176309Y-133309471D01*
X239170109Y-133328495D01*
X239159940Y-133339356D01*
X239144819Y-133347272D01*
X239143946Y-133347670D01*
X239114828Y-133359981D01*
X239100403Y-133364514D01*
X239098186Y-133350809D01*
X239096289Y-133312925D01*
X239094847Y-133255715D01*
X239093998Y-133184027D01*
X239093829Y-133131565D01*
X239094692Y-133030047D01*
X239098070Y-132953032D01*
X239105142Y-132896023D01*
X239117088Y-132854526D01*
X239135090Y-132824043D01*
X239160327Y-132800080D01*
X239185247Y-132783355D01*
X239245171Y-132761097D01*
X239314911Y-132756076D01*
X239380600Y-132768752D01*
G36*
X238872876Y-132766335D02*
G01*
X238914667Y-132785344D01*
X238947469Y-132808378D01*
X238971503Y-132834133D01*
X238988097Y-132867358D01*
X238998577Y-132912800D01*
X239004271Y-132975207D01*
X239006507Y-133059327D01*
X239006743Y-133114721D01*
X239006743Y-133330826D01*
X238969774Y-133347670D01*
X238940656Y-133359981D01*
X238926231Y-133364514D01*
X238923472Y-133351025D01*
X238921282Y-133314653D01*
X238919942Y-133261542D01*
X238919657Y-133219372D01*
X238918434Y-133158447D01*
X238915136Y-133110115D01*
X238910321Y-133080518D01*
X238906496Y-133074229D01*
X238880783Y-133080652D01*
X238840418Y-133097125D01*
X238793679Y-133119458D01*
X238748845Y-133143457D01*
X238714193Y-133164930D01*
X238698002Y-133179685D01*
X238697938Y-133179845D01*
X238699330Y-133207152D01*
X238711818Y-133233219D01*
X238733743Y-133254392D01*
X238765743Y-133261474D01*
X238793092Y-133260649D01*
X238831826Y-133260042D01*
X238852158Y-133269116D01*
X238864369Y-133293092D01*
X238865909Y-133297613D01*
X238871203Y-133331806D01*
X238857047Y-133352568D01*
X238820148Y-133362462D01*
X238780289Y-133364292D01*
X238708562Y-133350727D01*
X238671432Y-133331355D01*
X238625576Y-133285845D01*
X238601256Y-133229983D01*
X238599073Y-133170957D01*
X238619629Y-133115953D01*
X238650549Y-133081486D01*
X238681420Y-133062189D01*
X238729942Y-133037759D01*
X238786485Y-133012985D01*
X238795910Y-133009199D01*
X238858019Y-132981791D01*
X238893822Y-132957634D01*
X238905337Y-132933619D01*
X238894580Y-132906635D01*
X238876114Y-132885543D01*
X238832469Y-132859572D01*
X238784446Y-132857624D01*
X238740406Y-132877637D01*
X238708709Y-132917551D01*
X238704549Y-132927848D01*
X238680327Y-132965724D01*
X238644965Y-132993842D01*
X238600343Y-133016917D01*
X238600343Y-132951485D01*
X238602969Y-132911506D01*
X238614230Y-132879997D01*
X238639199Y-132846378D01*
X238663169Y-132820484D01*
X238700441Y-132783817D01*
X238729401Y-132764121D01*
X238760505Y-132756220D01*
X238795713Y-132754914D01*
X238872876Y-132766335D01*
G37*
X238872876Y-132766335D02*
X238914667Y-132785344D01*
X238947469Y-132808378D01*
X238971503Y-132834133D01*
X238988097Y-132867358D01*
X238998577Y-132912800D01*
X239004271Y-132975207D01*
X239006507Y-133059327D01*
X239006743Y-133114721D01*
X239006743Y-133330826D01*
X238969774Y-133347670D01*
X238940656Y-133359981D01*
X238926231Y-133364514D01*
X238923472Y-133351025D01*
X238921282Y-133314653D01*
X238919942Y-133261542D01*
X238919657Y-133219372D01*
X238918434Y-133158447D01*
X238915136Y-133110115D01*
X238910321Y-133080518D01*
X238906496Y-133074229D01*
X238880783Y-133080652D01*
X238840418Y-133097125D01*
X238793679Y-133119458D01*
X238748845Y-133143457D01*
X238714193Y-133164930D01*
X238698002Y-133179685D01*
X238697938Y-133179845D01*
X238699330Y-133207152D01*
X238711818Y-133233219D01*
X238733743Y-133254392D01*
X238765743Y-133261474D01*
X238793092Y-133260649D01*
X238831826Y-133260042D01*
X238852158Y-133269116D01*
X238864369Y-133293092D01*
X238865909Y-133297613D01*
X238871203Y-133331806D01*
X238857047Y-133352568D01*
X238820148Y-133362462D01*
X238780289Y-133364292D01*
X238708562Y-133350727D01*
X238671432Y-133331355D01*
X238625576Y-133285845D01*
X238601256Y-133229983D01*
X238599073Y-133170957D01*
X238619629Y-133115953D01*
X238650549Y-133081486D01*
X238681420Y-133062189D01*
X238729942Y-133037759D01*
X238786485Y-133012985D01*
X238795910Y-133009199D01*
X238858019Y-132981791D01*
X238893822Y-132957634D01*
X238905337Y-132933619D01*
X238894580Y-132906635D01*
X238876114Y-132885543D01*
X238832469Y-132859572D01*
X238784446Y-132857624D01*
X238740406Y-132877637D01*
X238708709Y-132917551D01*
X238704549Y-132927848D01*
X238680327Y-132965724D01*
X238644965Y-132993842D01*
X238600343Y-133016917D01*
X238600343Y-132951485D01*
X238602969Y-132911506D01*
X238614230Y-132879997D01*
X238639199Y-132846378D01*
X238663169Y-132820484D01*
X238700441Y-132783817D01*
X238729401Y-132764121D01*
X238760505Y-132756220D01*
X238795713Y-132754914D01*
X238872876Y-132766335D01*
G36*
X238507833Y-132768663D02*
G01*
X238510048Y-132806850D01*
X238511784Y-132864886D01*
X238512899Y-132938180D01*
X238513257Y-133015055D01*
X238513257Y-133275196D01*
X238467326Y-133321127D01*
X238435675Y-133349429D01*
X238407890Y-133360893D01*
X238369915Y-133360168D01*
X238354840Y-133358321D01*
X238307726Y-133352948D01*
X238268756Y-133349869D01*
X238259257Y-133349585D01*
X238227233Y-133351445D01*
X238181432Y-133356114D01*
X238163674Y-133358321D01*
X238120057Y-133361735D01*
X238090745Y-133354320D01*
X238061680Y-133331427D01*
X238051188Y-133321127D01*
X238005257Y-133275196D01*
X238005257Y-132788602D01*
X238042226Y-132771758D01*
X238074059Y-132759282D01*
X238092683Y-132754914D01*
X238097458Y-132768718D01*
X238101921Y-132807286D01*
X238105775Y-132866356D01*
X238108722Y-132941663D01*
X238110143Y-133005286D01*
X238114114Y-133255657D01*
X238148759Y-133260556D01*
X238180268Y-133257131D01*
X238195708Y-133246041D01*
X238200023Y-133225308D01*
X238203708Y-133181145D01*
X238206469Y-133119146D01*
X238208012Y-133044909D01*
X238208235Y-133006706D01*
X238208457Y-132786783D01*
X238254166Y-132770849D01*
X238286518Y-132760015D01*
X238304115Y-132754962D01*
X238304623Y-132754914D01*
X238306388Y-132768648D01*
X238308329Y-132806730D01*
X238310282Y-132864482D01*
X238312084Y-132937227D01*
X238313343Y-133005286D01*
X238317314Y-133255657D01*
X238404400Y-133255657D01*
X238408396Y-133027240D01*
X238412392Y-132798822D01*
X238454847Y-132776868D01*
X238486192Y-132761793D01*
X238504744Y-132754951D01*
X238505279Y-132754914D01*
X238507833Y-132768663D01*
G37*
X238507833Y-132768663D02*
X238510048Y-132806850D01*
X238511784Y-132864886D01*
X238512899Y-132938180D01*
X238513257Y-133015055D01*
X238513257Y-133275196D01*
X238467326Y-133321127D01*
X238435675Y-133349429D01*
X238407890Y-133360893D01*
X238369915Y-133360168D01*
X238354840Y-133358321D01*
X238307726Y-133352948D01*
X238268756Y-133349869D01*
X238259257Y-133349585D01*
X238227233Y-133351445D01*
X238181432Y-133356114D01*
X238163674Y-133358321D01*
X238120057Y-133361735D01*
X238090745Y-133354320D01*
X238061680Y-133331427D01*
X238051188Y-133321127D01*
X238005257Y-133275196D01*
X238005257Y-132788602D01*
X238042226Y-132771758D01*
X238074059Y-132759282D01*
X238092683Y-132754914D01*
X238097458Y-132768718D01*
X238101921Y-132807286D01*
X238105775Y-132866356D01*
X238108722Y-132941663D01*
X238110143Y-133005286D01*
X238114114Y-133255657D01*
X238148759Y-133260556D01*
X238180268Y-133257131D01*
X238195708Y-133246041D01*
X238200023Y-133225308D01*
X238203708Y-133181145D01*
X238206469Y-133119146D01*
X238208012Y-133044909D01*
X238208235Y-133006706D01*
X238208457Y-132786783D01*
X238254166Y-132770849D01*
X238286518Y-132760015D01*
X238304115Y-132754962D01*
X238304623Y-132754914D01*
X238306388Y-132768648D01*
X238308329Y-132806730D01*
X238310282Y-132864482D01*
X238312084Y-132937227D01*
X238313343Y-133005286D01*
X238317314Y-133255657D01*
X238404400Y-133255657D01*
X238408396Y-133027240D01*
X238412392Y-132798822D01*
X238454847Y-132776868D01*
X238486192Y-132761793D01*
X238504744Y-132754951D01*
X238505279Y-132754914D01*
X238507833Y-132768663D01*
G36*
X237918117Y-132875358D02*
G01*
X237917933Y-132983837D01*
X237917219Y-133067287D01*
X237915675Y-133129704D01*
X237913001Y-133175085D01*
X237908894Y-133207429D01*
X237903055Y-133230733D01*
X237895182Y-133248995D01*
X237889221Y-133259418D01*
X237839855Y-133315945D01*
X237777264Y-133351377D01*
X237708013Y-133364090D01*
X237638668Y-133352463D01*
X237597375Y-133331568D01*
X237554025Y-133295422D01*
X237524481Y-133251276D01*
X237506655Y-133193462D01*
X237498463Y-133116313D01*
X237497302Y-133059714D01*
X237497458Y-133055647D01*
X237598857Y-133055647D01*
X237599476Y-133120550D01*
X237602314Y-133163514D01*
X237608840Y-133191622D01*
X237620523Y-133211953D01*
X237634483Y-133227288D01*
X237681365Y-133256890D01*
X237731701Y-133259419D01*
X237779276Y-133234705D01*
X237782979Y-133231356D01*
X237798783Y-133213935D01*
X237808693Y-133193209D01*
X237814058Y-133162362D01*
X237816228Y-133114577D01*
X237816571Y-133061748D01*
X237815827Y-132995381D01*
X237812748Y-132951106D01*
X237806061Y-132922009D01*
X237794496Y-132901173D01*
X237785013Y-132890107D01*
X237740960Y-132862198D01*
X237690224Y-132858843D01*
X237641796Y-132880159D01*
X237632450Y-132888073D01*
X237616540Y-132905647D01*
X237606610Y-132926587D01*
X237601278Y-132957782D01*
X237599163Y-133006122D01*
X237598857Y-133055647D01*
X237497458Y-133055647D01*
X237500810Y-132968568D01*
X237512726Y-132900086D01*
X237535135Y-132848600D01*
X237570124Y-132808443D01*
X237597375Y-132787861D01*
X237646907Y-132765625D01*
X237704316Y-132755304D01*
X237757682Y-132758067D01*
X237787543Y-132769212D01*
X237799261Y-132772383D01*
X237807037Y-132760557D01*
X237812465Y-132728866D01*
X237816571Y-132680593D01*
X237821067Y-132626829D01*
X237827313Y-132594482D01*
X237838676Y-132575985D01*
X237858528Y-132563770D01*
X237871000Y-132558362D01*
X237918171Y-132538601D01*
X237918117Y-132875358D01*
G37*
X237918117Y-132875358D02*
X237917933Y-132983837D01*
X237917219Y-133067287D01*
X237915675Y-133129704D01*
X237913001Y-133175085D01*
X237908894Y-133207429D01*
X237903055Y-133230733D01*
X237895182Y-133248995D01*
X237889221Y-133259418D01*
X237839855Y-133315945D01*
X237777264Y-133351377D01*
X237708013Y-133364090D01*
X237638668Y-133352463D01*
X237597375Y-133331568D01*
X237554025Y-133295422D01*
X237524481Y-133251276D01*
X237506655Y-133193462D01*
X237498463Y-133116313D01*
X237497302Y-133059714D01*
X237497458Y-133055647D01*
X237598857Y-133055647D01*
X237599476Y-133120550D01*
X237602314Y-133163514D01*
X237608840Y-133191622D01*
X237620523Y-133211953D01*
X237634483Y-133227288D01*
X237681365Y-133256890D01*
X237731701Y-133259419D01*
X237779276Y-133234705D01*
X237782979Y-133231356D01*
X237798783Y-133213935D01*
X237808693Y-133193209D01*
X237814058Y-133162362D01*
X237816228Y-133114577D01*
X237816571Y-133061748D01*
X237815827Y-132995381D01*
X237812748Y-132951106D01*
X237806061Y-132922009D01*
X237794496Y-132901173D01*
X237785013Y-132890107D01*
X237740960Y-132862198D01*
X237690224Y-132858843D01*
X237641796Y-132880159D01*
X237632450Y-132888073D01*
X237616540Y-132905647D01*
X237606610Y-132926587D01*
X237601278Y-132957782D01*
X237599163Y-133006122D01*
X237598857Y-133055647D01*
X237497458Y-133055647D01*
X237500810Y-132968568D01*
X237512726Y-132900086D01*
X237535135Y-132848600D01*
X237570124Y-132808443D01*
X237597375Y-132787861D01*
X237646907Y-132765625D01*
X237704316Y-132755304D01*
X237757682Y-132758067D01*
X237787543Y-132769212D01*
X237799261Y-132772383D01*
X237807037Y-132760557D01*
X237812465Y-132728866D01*
X237816571Y-132680593D01*
X237821067Y-132626829D01*
X237827313Y-132594482D01*
X237838676Y-132575985D01*
X237858528Y-132563770D01*
X237871000Y-132558362D01*
X237918171Y-132538601D01*
X237918117Y-132875358D01*
G36*
X237257926Y-132759755D02*
G01*
X237323858Y-132784084D01*
X237377273Y-132827117D01*
X237398164Y-132857409D01*
X237420939Y-132912994D01*
X237420466Y-132953186D01*
X237396562Y-132980217D01*
X237387717Y-132984813D01*
X237349530Y-132999144D01*
X237330028Y-132995472D01*
X237323422Y-132971407D01*
X237323086Y-132958114D01*
X237310992Y-132909210D01*
X237279471Y-132874999D01*
X237235659Y-132858476D01*
X237186695Y-132862634D01*
X237146894Y-132884227D01*
X237133450Y-132896544D01*
X237123921Y-132911487D01*
X237117485Y-132934075D01*
X237113317Y-132969328D01*
X237110597Y-133022266D01*
X237108502Y-133097907D01*
X237107960Y-133121857D01*
X237105981Y-133203790D01*
X237103731Y-133261455D01*
X237100357Y-133299608D01*
X237095006Y-133323004D01*
X237086824Y-133336398D01*
X237074959Y-133344545D01*
X237067362Y-133348144D01*
X237035102Y-133360452D01*
X237016111Y-133364514D01*
X237009836Y-133350948D01*
X237006006Y-133309934D01*
X237004600Y-133240999D01*
X237005598Y-133143669D01*
X237005908Y-133128657D01*
X237008101Y-133039859D01*
X237010693Y-132975019D01*
X237014382Y-132929067D01*
X237019864Y-132896935D01*
X237027835Y-132873553D01*
X237038993Y-132853852D01*
X237044830Y-132845410D01*
X237078296Y-132808057D01*
X237115727Y-132779003D01*
X237120309Y-132776467D01*
X237187426Y-132756443D01*
X237257926Y-132759755D01*
G37*
X237257926Y-132759755D02*
X237323858Y-132784084D01*
X237377273Y-132827117D01*
X237398164Y-132857409D01*
X237420939Y-132912994D01*
X237420466Y-132953186D01*
X237396562Y-132980217D01*
X237387717Y-132984813D01*
X237349530Y-132999144D01*
X237330028Y-132995472D01*
X237323422Y-132971407D01*
X237323086Y-132958114D01*
X237310992Y-132909210D01*
X237279471Y-132874999D01*
X237235659Y-132858476D01*
X237186695Y-132862634D01*
X237146894Y-132884227D01*
X237133450Y-132896544D01*
X237123921Y-132911487D01*
X237117485Y-132934075D01*
X237113317Y-132969328D01*
X237110597Y-133022266D01*
X237108502Y-133097907D01*
X237107960Y-133121857D01*
X237105981Y-133203790D01*
X237103731Y-133261455D01*
X237100357Y-133299608D01*
X237095006Y-133323004D01*
X237086824Y-133336398D01*
X237074959Y-133344545D01*
X237067362Y-133348144D01*
X237035102Y-133360452D01*
X237016111Y-133364514D01*
X237009836Y-133350948D01*
X237006006Y-133309934D01*
X237004600Y-133240999D01*
X237005598Y-133143669D01*
X237005908Y-133128657D01*
X237008101Y-133039859D01*
X237010693Y-132975019D01*
X237014382Y-132929067D01*
X237019864Y-132896935D01*
X237027835Y-132873553D01*
X237038993Y-132853852D01*
X237044830Y-132845410D01*
X237078296Y-132808057D01*
X237115727Y-132779003D01*
X237120309Y-132776467D01*
X237187426Y-132756443D01*
X237257926Y-132759755D01*
G36*
X236767744Y-132760968D02*
G01*
X236824616Y-132782087D01*
X236825267Y-132782493D01*
X236860440Y-132808380D01*
X236886407Y-132838633D01*
X236904670Y-132878058D01*
X236916732Y-132931462D01*
X236924096Y-133003651D01*
X236928264Y-133099432D01*
X236928629Y-133113078D01*
X236933876Y-133318842D01*
X236889716Y-133341678D01*
X236857763Y-133357110D01*
X236838470Y-133364423D01*
X236837578Y-133364514D01*
X236834239Y-133351022D01*
X236831587Y-133314626D01*
X236829956Y-133261452D01*
X236829600Y-133218393D01*
X236829592Y-133148641D01*
X236826403Y-133104837D01*
X236815288Y-133083944D01*
X236791501Y-133082925D01*
X236750296Y-133098741D01*
X236688086Y-133127815D01*
X236642341Y-133151963D01*
X236618813Y-133172913D01*
X236611896Y-133195747D01*
X236611886Y-133196877D01*
X236623299Y-133236212D01*
X236657092Y-133257462D01*
X236708809Y-133260539D01*
X236746061Y-133260006D01*
X236765703Y-133270735D01*
X236777952Y-133296505D01*
X236785002Y-133329337D01*
X236774842Y-133347966D01*
X236771017Y-133350632D01*
X236735001Y-133361340D01*
X236684566Y-133362856D01*
X236632626Y-133355759D01*
X236595822Y-133342788D01*
X236544938Y-133299585D01*
X236516014Y-133239446D01*
X236510286Y-133192462D01*
X236514657Y-133150082D01*
X236530475Y-133115488D01*
X236561797Y-133084763D01*
X236612678Y-133053990D01*
X236687176Y-133019252D01*
X236691714Y-133017288D01*
X236758821Y-132986287D01*
X236800232Y-132960862D01*
X236817981Y-132938014D01*
X236814107Y-132914745D01*
X236790643Y-132888056D01*
X236783627Y-132881914D01*
X236736630Y-132858100D01*
X236687933Y-132859103D01*
X236645522Y-132882451D01*
X236617384Y-132925675D01*
X236614769Y-132934160D01*
X236589308Y-132975308D01*
X236557001Y-132995128D01*
X236510286Y-133014770D01*
X236510286Y-132963950D01*
X236524496Y-132890082D01*
X236566675Y-132822327D01*
X236588624Y-132799661D01*
X236638517Y-132770569D01*
X236701967Y-132757400D01*
X236767744Y-132760968D01*
G37*
X236767744Y-132760968D02*
X236824616Y-132782087D01*
X236825267Y-132782493D01*
X236860440Y-132808380D01*
X236886407Y-132838633D01*
X236904670Y-132878058D01*
X236916732Y-132931462D01*
X236924096Y-133003651D01*
X236928264Y-133099432D01*
X236928629Y-133113078D01*
X236933876Y-133318842D01*
X236889716Y-133341678D01*
X236857763Y-133357110D01*
X236838470Y-133364423D01*
X236837578Y-133364514D01*
X236834239Y-133351022D01*
X236831587Y-133314626D01*
X236829956Y-133261452D01*
X236829600Y-133218393D01*
X236829592Y-133148641D01*
X236826403Y-133104837D01*
X236815288Y-133083944D01*
X236791501Y-133082925D01*
X236750296Y-133098741D01*
X236688086Y-133127815D01*
X236642341Y-133151963D01*
X236618813Y-133172913D01*
X236611896Y-133195747D01*
X236611886Y-133196877D01*
X236623299Y-133236212D01*
X236657092Y-133257462D01*
X236708809Y-133260539D01*
X236746061Y-133260006D01*
X236765703Y-133270735D01*
X236777952Y-133296505D01*
X236785002Y-133329337D01*
X236774842Y-133347966D01*
X236771017Y-133350632D01*
X236735001Y-133361340D01*
X236684566Y-133362856D01*
X236632626Y-133355759D01*
X236595822Y-133342788D01*
X236544938Y-133299585D01*
X236516014Y-133239446D01*
X236510286Y-133192462D01*
X236514657Y-133150082D01*
X236530475Y-133115488D01*
X236561797Y-133084763D01*
X236612678Y-133053990D01*
X236687176Y-133019252D01*
X236691714Y-133017288D01*
X236758821Y-132986287D01*
X236800232Y-132960862D01*
X236817981Y-132938014D01*
X236814107Y-132914745D01*
X236790643Y-132888056D01*
X236783627Y-132881914D01*
X236736630Y-132858100D01*
X236687933Y-132859103D01*
X236645522Y-132882451D01*
X236617384Y-132925675D01*
X236614769Y-132934160D01*
X236589308Y-132975308D01*
X236557001Y-132995128D01*
X236510286Y-133014770D01*
X236510286Y-132963950D01*
X236524496Y-132890082D01*
X236566675Y-132822327D01*
X236588624Y-132799661D01*
X236638517Y-132770569D01*
X236701967Y-132757400D01*
X236767744Y-132760968D01*
G36*
X236103886Y-132661289D02*
G01*
X236108139Y-132720613D01*
X236113025Y-132755572D01*
X236119795Y-132770820D01*
X236129702Y-132771015D01*
X236132914Y-132769195D01*
X236175644Y-132756015D01*
X236231227Y-132756785D01*
X236287737Y-132770333D01*
X236323082Y-132787861D01*
X236359321Y-132815861D01*
X236385813Y-132847549D01*
X236403999Y-132887813D01*
X236415322Y-132941543D01*
X236421222Y-133013626D01*
X236423143Y-133108951D01*
X236423177Y-133127237D01*
X236423200Y-133332646D01*
X236377491Y-133348580D01*
X236345027Y-133359420D01*
X236327215Y-133364468D01*
X236326691Y-133364514D01*
X236324937Y-133350828D01*
X236323444Y-133313076D01*
X236322326Y-133256224D01*
X236321697Y-133185234D01*
X236321600Y-133142073D01*
X236321398Y-133056973D01*
X236320358Y-132995981D01*
X236317831Y-132954177D01*
X236313164Y-132926642D01*
X236305707Y-132908456D01*
X236294811Y-132894698D01*
X236288007Y-132888073D01*
X236241272Y-132861375D01*
X236190272Y-132859375D01*
X236144001Y-132881955D01*
X236135444Y-132890107D01*
X236122893Y-132905436D01*
X236114188Y-132923618D01*
X236108631Y-132949909D01*
X236105526Y-132989562D01*
X236104176Y-133047832D01*
X236103886Y-133128173D01*
X236103886Y-133332646D01*
X236058177Y-133348580D01*
X236025713Y-133359420D01*
X236007901Y-133364468D01*
X236007377Y-133364514D01*
X236006037Y-133350623D01*
X236004828Y-133311439D01*
X236003801Y-133250700D01*
X236003002Y-133172141D01*
X236002481Y-133079498D01*
X236002286Y-132976509D01*
X236002286Y-132579342D01*
X236049457Y-132559444D01*
X236096629Y-132539547D01*
X236103886Y-132661289D01*
G37*
X236103886Y-132661289D02*
X236108139Y-132720613D01*
X236113025Y-132755572D01*
X236119795Y-132770820D01*
X236129702Y-132771015D01*
X236132914Y-132769195D01*
X236175644Y-132756015D01*
X236231227Y-132756785D01*
X236287737Y-132770333D01*
X236323082Y-132787861D01*
X236359321Y-132815861D01*
X236385813Y-132847549D01*
X236403999Y-132887813D01*
X236415322Y-132941543D01*
X236421222Y-133013626D01*
X236423143Y-133108951D01*
X236423177Y-133127237D01*
X236423200Y-133332646D01*
X236377491Y-133348580D01*
X236345027Y-133359420D01*
X236327215Y-133364468D01*
X236326691Y-133364514D01*
X236324937Y-133350828D01*
X236323444Y-133313076D01*
X236322326Y-133256224D01*
X236321697Y-133185234D01*
X236321600Y-133142073D01*
X236321398Y-133056973D01*
X236320358Y-132995981D01*
X236317831Y-132954177D01*
X236313164Y-132926642D01*
X236305707Y-132908456D01*
X236294811Y-132894698D01*
X236288007Y-132888073D01*
X236241272Y-132861375D01*
X236190272Y-132859375D01*
X236144001Y-132881955D01*
X236135444Y-132890107D01*
X236122893Y-132905436D01*
X236114188Y-132923618D01*
X236108631Y-132949909D01*
X236105526Y-132989562D01*
X236104176Y-133047832D01*
X236103886Y-133128173D01*
X236103886Y-133332646D01*
X236058177Y-133348580D01*
X236025713Y-133359420D01*
X236007901Y-133364468D01*
X236007377Y-133364514D01*
X236006037Y-133350623D01*
X236004828Y-133311439D01*
X236003801Y-133250700D01*
X236003002Y-133172141D01*
X236002481Y-133079498D01*
X236002286Y-132976509D01*
X236002286Y-132579342D01*
X236049457Y-132559444D01*
X236096629Y-132539547D01*
X236103886Y-132661289D01*
G36*
X234896303Y-132741239D02*
G01*
X234953527Y-132779735D01*
X234997749Y-132835335D01*
X235024167Y-132906086D01*
X235029510Y-132958162D01*
X235028903Y-132979893D01*
X235023822Y-132996531D01*
X235009855Y-133011437D01*
X234982589Y-133027973D01*
X234937612Y-133049498D01*
X234870511Y-133079374D01*
X234870171Y-133079524D01*
X234808407Y-133107813D01*
X234757759Y-133132933D01*
X234723404Y-133152179D01*
X234710518Y-133162848D01*
X234710514Y-133162934D01*
X234721872Y-133186166D01*
X234748431Y-133211774D01*
X234778923Y-133230221D01*
X234794370Y-133233886D01*
X234836515Y-133221212D01*
X234872808Y-133189471D01*
X234890517Y-133154572D01*
X234907552Y-133128845D01*
X234940922Y-133099546D01*
X234980149Y-133074235D01*
X235014756Y-133060471D01*
X235021993Y-133059714D01*
X235030139Y-133072160D01*
X235030630Y-133103972D01*
X235024643Y-133146866D01*
X235013357Y-133192558D01*
X234997950Y-133232761D01*
X234997171Y-133234322D01*
X234950804Y-133299062D01*
X234890711Y-133343097D01*
X234822465Y-133364711D01*
X234751638Y-133362185D01*
X234683804Y-133333804D01*
X234680788Y-133331808D01*
X234627427Y-133283448D01*
X234592340Y-133220352D01*
X234572922Y-133137387D01*
X234570316Y-133114078D01*
X234565701Y-133004055D01*
X234571233Y-132952748D01*
X234710514Y-132952748D01*
X234712324Y-132984753D01*
X234722222Y-132994093D01*
X234746898Y-132987105D01*
X234785795Y-132970587D01*
X234829275Y-132949881D01*
X234830356Y-132949333D01*
X234867209Y-132929949D01*
X234882000Y-132917013D01*
X234878353Y-132903451D01*
X234862995Y-132885632D01*
X234823923Y-132859845D01*
X234781846Y-132857950D01*
X234744103Y-132876717D01*
X234718034Y-132912915D01*
X234710514Y-132952748D01*
X234571233Y-132952748D01*
X234575194Y-132916027D01*
X234599550Y-132846212D01*
X234633456Y-132797302D01*
X234694653Y-132747878D01*
X234762063Y-132723359D01*
X234830880Y-132721797D01*
X234896303Y-132741239D01*
G37*
X234896303Y-132741239D02*
X234953527Y-132779735D01*
X234997749Y-132835335D01*
X235024167Y-132906086D01*
X235029510Y-132958162D01*
X235028903Y-132979893D01*
X235023822Y-132996531D01*
X235009855Y-133011437D01*
X234982589Y-133027973D01*
X234937612Y-133049498D01*
X234870511Y-133079374D01*
X234870171Y-133079524D01*
X234808407Y-133107813D01*
X234757759Y-133132933D01*
X234723404Y-133152179D01*
X234710518Y-133162848D01*
X234710514Y-133162934D01*
X234721872Y-133186166D01*
X234748431Y-133211774D01*
X234778923Y-133230221D01*
X234794370Y-133233886D01*
X234836515Y-133221212D01*
X234872808Y-133189471D01*
X234890517Y-133154572D01*
X234907552Y-133128845D01*
X234940922Y-133099546D01*
X234980149Y-133074235D01*
X235014756Y-133060471D01*
X235021993Y-133059714D01*
X235030139Y-133072160D01*
X235030630Y-133103972D01*
X235024643Y-133146866D01*
X235013357Y-133192558D01*
X234997950Y-133232761D01*
X234997171Y-133234322D01*
X234950804Y-133299062D01*
X234890711Y-133343097D01*
X234822465Y-133364711D01*
X234751638Y-133362185D01*
X234683804Y-133333804D01*
X234680788Y-133331808D01*
X234627427Y-133283448D01*
X234592340Y-133220352D01*
X234572922Y-133137387D01*
X234570316Y-133114078D01*
X234565701Y-133004055D01*
X234571233Y-132952748D01*
X234710514Y-132952748D01*
X234712324Y-132984753D01*
X234722222Y-132994093D01*
X234746898Y-132987105D01*
X234785795Y-132970587D01*
X234829275Y-132949881D01*
X234830356Y-132949333D01*
X234867209Y-132929949D01*
X234882000Y-132917013D01*
X234878353Y-132903451D01*
X234862995Y-132885632D01*
X234823923Y-132859845D01*
X234781846Y-132857950D01*
X234744103Y-132876717D01*
X234718034Y-132912915D01*
X234710514Y-132952748D01*
X234571233Y-132952748D01*
X234575194Y-132916027D01*
X234599550Y-132846212D01*
X234633456Y-132797302D01*
X234694653Y-132747878D01*
X234762063Y-132723359D01*
X234830880Y-132721797D01*
X234896303Y-132741239D01*
G36*
X233769115Y-132731962D02*
G01*
X233837145Y-132767733D01*
X233887351Y-132825301D01*
X233905185Y-132862312D01*
X233919063Y-132917882D01*
X233926167Y-132988096D01*
X233926840Y-133064727D01*
X233921427Y-133139552D01*
X233910270Y-133204342D01*
X233893714Y-133250873D01*
X233888626Y-133258887D01*
X233828355Y-133318707D01*
X233756769Y-133354535D01*
X233679092Y-133365020D01*
X233600548Y-133348810D01*
X233578689Y-133339092D01*
X233536122Y-133309143D01*
X233498763Y-133269433D01*
X233495232Y-133264397D01*
X233480881Y-133240124D01*
X233471394Y-133214178D01*
X233465790Y-133180022D01*
X233463086Y-133131119D01*
X233462299Y-133060935D01*
X233462286Y-133045200D01*
X233462322Y-133040192D01*
X233607429Y-133040192D01*
X233608273Y-133106430D01*
X233611596Y-133150386D01*
X233618583Y-133178779D01*
X233630416Y-133198325D01*
X233636457Y-133204857D01*
X233671186Y-133229680D01*
X233704903Y-133228548D01*
X233738995Y-133207016D01*
X233759329Y-133184029D01*
X233771371Y-133150478D01*
X233778134Y-133097569D01*
X233778598Y-133091399D01*
X233779752Y-132995513D01*
X233767688Y-132924299D01*
X233742570Y-132878194D01*
X233704560Y-132857635D01*
X233690992Y-132856514D01*
X233655364Y-132862152D01*
X233630994Y-132881686D01*
X233616093Y-132919042D01*
X233608875Y-132978150D01*
X233607429Y-133040192D01*
X233462322Y-133040192D01*
X233462826Y-132970413D01*
X233465096Y-132918159D01*
X233470068Y-132881949D01*
X233478713Y-132855299D01*
X233492005Y-132831722D01*
X233494943Y-132827338D01*
X233544313Y-132768249D01*
X233598109Y-132733947D01*
X233663602Y-132720331D01*
X233685842Y-132719665D01*
X233769115Y-132731962D01*
G37*
X233769115Y-132731962D02*
X233837145Y-132767733D01*
X233887351Y-132825301D01*
X233905185Y-132862312D01*
X233919063Y-132917882D01*
X233926167Y-132988096D01*
X233926840Y-133064727D01*
X233921427Y-133139552D01*
X233910270Y-133204342D01*
X233893714Y-133250873D01*
X233888626Y-133258887D01*
X233828355Y-133318707D01*
X233756769Y-133354535D01*
X233679092Y-133365020D01*
X233600548Y-133348810D01*
X233578689Y-133339092D01*
X233536122Y-133309143D01*
X233498763Y-133269433D01*
X233495232Y-133264397D01*
X233480881Y-133240124D01*
X233471394Y-133214178D01*
X233465790Y-133180022D01*
X233463086Y-133131119D01*
X233462299Y-133060935D01*
X233462286Y-133045200D01*
X233462322Y-133040192D01*
X233607429Y-133040192D01*
X233608273Y-133106430D01*
X233611596Y-133150386D01*
X233618583Y-133178779D01*
X233630416Y-133198325D01*
X233636457Y-133204857D01*
X233671186Y-133229680D01*
X233704903Y-133228548D01*
X233738995Y-133207016D01*
X233759329Y-133184029D01*
X233771371Y-133150478D01*
X233778134Y-133097569D01*
X233778598Y-133091399D01*
X233779752Y-132995513D01*
X233767688Y-132924299D01*
X233742570Y-132878194D01*
X233704560Y-132857635D01*
X233690992Y-132856514D01*
X233655364Y-132862152D01*
X233630994Y-132881686D01*
X233616093Y-132919042D01*
X233608875Y-132978150D01*
X233607429Y-133040192D01*
X233462322Y-133040192D01*
X233462826Y-132970413D01*
X233465096Y-132918159D01*
X233470068Y-132881949D01*
X233478713Y-132855299D01*
X233492005Y-132831722D01*
X233494943Y-132827338D01*
X233544313Y-132768249D01*
X233598109Y-132733947D01*
X233663602Y-132720331D01*
X233685842Y-132719665D01*
X233769115Y-132731962D01*
G36*
X235444093Y-132737780D02*
G01*
X235490672Y-132764723D01*
X235523057Y-132791466D01*
X235546742Y-132819484D01*
X235563059Y-132853748D01*
X235573339Y-132899227D01*
X235578914Y-132960892D01*
X235581116Y-133043711D01*
X235581371Y-133103246D01*
X235581371Y-133322391D01*
X235519686Y-133350044D01*
X235458000Y-133377697D01*
X235450743Y-133137670D01*
X235447744Y-133048028D01*
X235444598Y-132982962D01*
X235440701Y-132938026D01*
X235435447Y-132908770D01*
X235428231Y-132890748D01*
X235418450Y-132879511D01*
X235415312Y-132877079D01*
X235367761Y-132858083D01*
X235319697Y-132865600D01*
X235291086Y-132885543D01*
X235279447Y-132899675D01*
X235271391Y-132918220D01*
X235266271Y-132946334D01*
X235263441Y-132989173D01*
X235262256Y-133051895D01*
X235262057Y-133117261D01*
X235262018Y-133199268D01*
X235260614Y-133257316D01*
X235255914Y-133296465D01*
X235245987Y-133321780D01*
X235228903Y-133338323D01*
X235202732Y-133351156D01*
X235167775Y-133364491D01*
X235129596Y-133379007D01*
X235134141Y-133121389D01*
X235135971Y-133028519D01*
X235138112Y-132959889D01*
X235141181Y-132910711D01*
X235145794Y-132876198D01*
X235152568Y-132851562D01*
X235162119Y-132832016D01*
X235173634Y-132814770D01*
X235229190Y-132759680D01*
X235296980Y-132727822D01*
X235370713Y-132720191D01*
X235444093Y-132737780D01*
G37*
X235444093Y-132737780D02*
X235490672Y-132764723D01*
X235523057Y-132791466D01*
X235546742Y-132819484D01*
X235563059Y-132853748D01*
X235573339Y-132899227D01*
X235578914Y-132960892D01*
X235581116Y-133043711D01*
X235581371Y-133103246D01*
X235581371Y-133322391D01*
X235519686Y-133350044D01*
X235458000Y-133377697D01*
X235450743Y-133137670D01*
X235447744Y-133048028D01*
X235444598Y-132982962D01*
X235440701Y-132938026D01*
X235435447Y-132908770D01*
X235428231Y-132890748D01*
X235418450Y-132879511D01*
X235415312Y-132877079D01*
X235367761Y-132858083D01*
X235319697Y-132865600D01*
X235291086Y-132885543D01*
X235279447Y-132899675D01*
X235271391Y-132918220D01*
X235266271Y-132946334D01*
X235263441Y-132989173D01*
X235262256Y-133051895D01*
X235262057Y-133117261D01*
X235262018Y-133199268D01*
X235260614Y-133257316D01*
X235255914Y-133296465D01*
X235245987Y-133321780D01*
X235228903Y-133338323D01*
X235202732Y-133351156D01*
X235167775Y-133364491D01*
X235129596Y-133379007D01*
X235134141Y-133121389D01*
X235135971Y-133028519D01*
X235138112Y-132959889D01*
X235141181Y-132910711D01*
X235145794Y-132876198D01*
X235152568Y-132851562D01*
X235162119Y-132832016D01*
X235173634Y-132814770D01*
X235229190Y-132759680D01*
X235296980Y-132727822D01*
X235370713Y-132720191D01*
X235444093Y-132737780D01*
G36*
X234327744Y-132729918D02*
G01*
X234383201Y-132757568D01*
X234432148Y-132808480D01*
X234445629Y-132827338D01*
X234460314Y-132852015D01*
X234469842Y-132878816D01*
X234475293Y-132914587D01*
X234477747Y-132966169D01*
X234478286Y-133034267D01*
X234475852Y-133127588D01*
X234467394Y-133197657D01*
X234451174Y-133249931D01*
X234425454Y-133289869D01*
X234388497Y-133322929D01*
X234385782Y-133324886D01*
X234349360Y-133344908D01*
X234305502Y-133354815D01*
X234249724Y-133357257D01*
X234159048Y-133357257D01*
X234159010Y-133445283D01*
X234158166Y-133494308D01*
X234153024Y-133523065D01*
X234139587Y-133540311D01*
X234113858Y-133554808D01*
X234107679Y-133557769D01*
X234078764Y-133571648D01*
X234056376Y-133580414D01*
X234039729Y-133581171D01*
X234028036Y-133571023D01*
X234020510Y-133547073D01*
X234016366Y-133506426D01*
X234014815Y-133446186D01*
X234015071Y-133363455D01*
X234016349Y-133255339D01*
X234016748Y-133223000D01*
X234018185Y-133111524D01*
X234019472Y-133038603D01*
X234158971Y-133038603D01*
X234159755Y-133100499D01*
X234163240Y-133140997D01*
X234171124Y-133167708D01*
X234185105Y-133188244D01*
X234194597Y-133198260D01*
X234233404Y-133227567D01*
X234267763Y-133229952D01*
X234303216Y-133205750D01*
X234304114Y-133204857D01*
X234318539Y-133186153D01*
X234327313Y-133160732D01*
X234331739Y-133121584D01*
X234333118Y-133061697D01*
X234333143Y-133048430D01*
X234329812Y-132965901D01*
X234318969Y-132908691D01*
X234299340Y-132873766D01*
X234269650Y-132858094D01*
X234252491Y-132856514D01*
X234211766Y-132863926D01*
X234183832Y-132888330D01*
X234167017Y-132932980D01*
X234159650Y-133001130D01*
X234158971Y-133038603D01*
X234019472Y-133038603D01*
X234019708Y-133025245D01*
X234021677Y-132960333D01*
X234024450Y-132912958D01*
X234028388Y-132879290D01*
X234033849Y-132855498D01*
X234041192Y-132837753D01*
X234050777Y-132822224D01*
X234054887Y-132816381D01*
X234109405Y-132761185D01*
X234178336Y-132729890D01*
X234258072Y-132721165D01*
X234327744Y-132729918D01*
G37*
X234327744Y-132729918D02*
X234383201Y-132757568D01*
X234432148Y-132808480D01*
X234445629Y-132827338D01*
X234460314Y-132852015D01*
X234469842Y-132878816D01*
X234475293Y-132914587D01*
X234477747Y-132966169D01*
X234478286Y-133034267D01*
X234475852Y-133127588D01*
X234467394Y-133197657D01*
X234451174Y-133249931D01*
X234425454Y-133289869D01*
X234388497Y-133322929D01*
X234385782Y-133324886D01*
X234349360Y-133344908D01*
X234305502Y-133354815D01*
X234249724Y-133357257D01*
X234159048Y-133357257D01*
X234159010Y-133445283D01*
X234158166Y-133494308D01*
X234153024Y-133523065D01*
X234139587Y-133540311D01*
X234113858Y-133554808D01*
X234107679Y-133557769D01*
X234078764Y-133571648D01*
X234056376Y-133580414D01*
X234039729Y-133581171D01*
X234028036Y-133571023D01*
X234020510Y-133547073D01*
X234016366Y-133506426D01*
X234014815Y-133446186D01*
X234015071Y-133363455D01*
X234016349Y-133255339D01*
X234016748Y-133223000D01*
X234018185Y-133111524D01*
X234019472Y-133038603D01*
X234158971Y-133038603D01*
X234159755Y-133100499D01*
X234163240Y-133140997D01*
X234171124Y-133167708D01*
X234185105Y-133188244D01*
X234194597Y-133198260D01*
X234233404Y-133227567D01*
X234267763Y-133229952D01*
X234303216Y-133205750D01*
X234304114Y-133204857D01*
X234318539Y-133186153D01*
X234327313Y-133160732D01*
X234331739Y-133121584D01*
X234333118Y-133061697D01*
X234333143Y-133048430D01*
X234329812Y-132965901D01*
X234318969Y-132908691D01*
X234299340Y-132873766D01*
X234269650Y-132858094D01*
X234252491Y-132856514D01*
X234211766Y-132863926D01*
X234183832Y-132888330D01*
X234167017Y-132932980D01*
X234159650Y-133001130D01*
X234158971Y-133038603D01*
X234019472Y-133038603D01*
X234019708Y-133025245D01*
X234021677Y-132960333D01*
X234024450Y-132912958D01*
X234028388Y-132879290D01*
X234033849Y-132855498D01*
X234041192Y-132837753D01*
X234050777Y-132822224D01*
X234054887Y-132816381D01*
X234109405Y-132761185D01*
X234178336Y-132729890D01*
X234258072Y-132721165D01*
X234327744Y-132729918D01*
D12*
X249104000Y-102362000D02*
G75*
G03*
X249104000Y-102362000I-1200000J0D01*
G01*
X246564000Y-102362000D02*
G75*
G03*
X246564000Y-102362000I-1200000J0D01*
G01*
X244024000Y-102362000D02*
G75*
G03*
X244024000Y-102362000I-1200000J0D01*
G01*
X241484000Y-102362000D02*
G75*
G03*
X241484000Y-102362000I-1200000J0D01*
G01*
X238944000Y-102362000D02*
G75*
G03*
X238944000Y-102362000I-1200000J0D01*
G01*
X236404000Y-102362000D02*
G75*
G03*
X236404000Y-102362000I-1200000J0D01*
G01*
X233864000Y-102362000D02*
G75*
G03*
X233864000Y-102362000I-1200000J0D01*
G01*
X231324000Y-102362000D02*
G75*
G03*
X231324000Y-102362000I-1200000J0D01*
G01*
X228784000Y-102362000D02*
G75*
G03*
X228784000Y-102362000I-1200000J0D01*
G01*
X226244000Y-102362000D02*
G75*
G03*
X226244000Y-102362000I-1200000J0D01*
G01*
X249104000Y-99822000D02*
G75*
G03*
X249104000Y-99822000I-1200000J0D01*
G01*
X246564000Y-99822000D02*
G75*
G03*
X246564000Y-99822000I-1200000J0D01*
G01*
X244024000Y-99822000D02*
G75*
G03*
X244024000Y-99822000I-1200000J0D01*
G01*
X241484000Y-99822000D02*
G75*
G03*
X241484000Y-99822000I-1200000J0D01*
G01*
X238944000Y-99822000D02*
G75*
G03*
X238944000Y-99822000I-1200000J0D01*
G01*
X236404000Y-99822000D02*
G75*
G03*
X236404000Y-99822000I-1200000J0D01*
G01*
X233864000Y-99822000D02*
G75*
G03*
X233864000Y-99822000I-1200000J0D01*
G01*
X231324000Y-99822000D02*
G75*
G03*
X231324000Y-99822000I-1200000J0D01*
G01*
X228784000Y-99822000D02*
G75*
G03*
X228784000Y-99822000I-1200000J0D01*
G01*
X226244000Y-99822000D02*
G75*
G03*
X226244000Y-99822000I-1200000J0D01*
G01*
X249104000Y-97282000D02*
G75*
G03*
X249104000Y-97282000I-1200000J0D01*
G01*
X246564000Y-97282000D02*
G75*
G03*
X246564000Y-97282000I-1200000J0D01*
G01*
X244024000Y-97282000D02*
G75*
G03*
X244024000Y-97282000I-1200000J0D01*
G01*
X241484000Y-97282000D02*
G75*
G03*
X241484000Y-97282000I-1200000J0D01*
G01*
X238944000Y-97282000D02*
G75*
G03*
X238944000Y-97282000I-1200000J0D01*
G01*
X236404000Y-97282000D02*
G75*
G03*
X236404000Y-97282000I-1200000J0D01*
G01*
X233864000Y-97282000D02*
G75*
G03*
X233864000Y-97282000I-1200000J0D01*
G01*
X231324000Y-97282000D02*
G75*
G03*
X231324000Y-97282000I-1200000J0D01*
G01*
X228784000Y-97282000D02*
G75*
G03*
X228784000Y-97282000I-1200000J0D01*
G01*
X226244000Y-97282000D02*
G75*
G03*
X226244000Y-97282000I-1200000J0D01*
G01*
X249104000Y-94742000D02*
G75*
G03*
X249104000Y-94742000I-1200000J0D01*
G01*
X246564000Y-94742000D02*
G75*
G03*
X246564000Y-94742000I-1200000J0D01*
G01*
X244024000Y-94742000D02*
G75*
G03*
X244024000Y-94742000I-1200000J0D01*
G01*
X241484000Y-94742000D02*
G75*
G03*
X241484000Y-94742000I-1200000J0D01*
G01*
X238944000Y-94742000D02*
G75*
G03*
X238944000Y-94742000I-1200000J0D01*
G01*
X236404000Y-94742000D02*
G75*
G03*
X236404000Y-94742000I-1200000J0D01*
G01*
X233864000Y-94742000D02*
G75*
G03*
X233864000Y-94742000I-1200000J0D01*
G01*
X231324000Y-94742000D02*
G75*
G03*
X231324000Y-94742000I-1200000J0D01*
G01*
X228784000Y-94742000D02*
G75*
G03*
X228784000Y-94742000I-1200000J0D01*
G01*
X226244000Y-94742000D02*
G75*
G03*
X226244000Y-94742000I-1200000J0D01*
G01*
X249104000Y-92202000D02*
G75*
G03*
X249104000Y-92202000I-1200000J0D01*
G01*
X246564000Y-92202000D02*
G75*
G03*
X246564000Y-92202000I-1200000J0D01*
G01*
X244024000Y-92202000D02*
G75*
G03*
X244024000Y-92202000I-1200000J0D01*
G01*
X241484000Y-92202000D02*
G75*
G03*
X241484000Y-92202000I-1200000J0D01*
G01*
X238944000Y-92202000D02*
G75*
G03*
X238944000Y-92202000I-1200000J0D01*
G01*
X236404000Y-92202000D02*
G75*
G03*
X236404000Y-92202000I-1200000J0D01*
G01*
X233864000Y-92202000D02*
G75*
G03*
X233864000Y-92202000I-1200000J0D01*
G01*
X231324000Y-92202000D02*
G75*
G03*
X231324000Y-92202000I-1200000J0D01*
G01*
X228784000Y-92202000D02*
G75*
G03*
X228784000Y-92202000I-1200000J0D01*
G01*
X226244000Y-92202000D02*
G75*
G03*
X226244000Y-92202000I-1200000J0D01*
G01*
X249104000Y-89662000D02*
G75*
G03*
X249104000Y-89662000I-1200000J0D01*
G01*
X246564000Y-89662000D02*
G75*
G03*
X246564000Y-89662000I-1200000J0D01*
G01*
X244024000Y-89662000D02*
G75*
G03*
X244024000Y-89662000I-1200000J0D01*
G01*
X241484000Y-89662000D02*
G75*
G03*
X241484000Y-89662000I-1200000J0D01*
G01*
X238944000Y-89662000D02*
G75*
G03*
X238944000Y-89662000I-1200000J0D01*
G01*
X236404000Y-89662000D02*
G75*
G03*
X236404000Y-89662000I-1200000J0D01*
G01*
X233864000Y-89662000D02*
G75*
G03*
X233864000Y-89662000I-1200000J0D01*
G01*
X231324000Y-89662000D02*
G75*
G03*
X231324000Y-89662000I-1200000J0D01*
G01*
X228784000Y-89662000D02*
G75*
G03*
X228784000Y-89662000I-1200000J0D01*
G01*
X226244000Y-89662000D02*
G75*
G03*
X226244000Y-89662000I-1200000J0D01*
G01*
X249104000Y-87122000D02*
G75*
G03*
X249104000Y-87122000I-1200000J0D01*
G01*
X246564000Y-87122000D02*
G75*
G03*
X246564000Y-87122000I-1200000J0D01*
G01*
X244024000Y-87122000D02*
G75*
G03*
X244024000Y-87122000I-1200000J0D01*
G01*
X241484000Y-87122000D02*
G75*
G03*
X241484000Y-87122000I-1200000J0D01*
G01*
X238944000Y-87122000D02*
G75*
G03*
X238944000Y-87122000I-1200000J0D01*
G01*
X236404000Y-87122000D02*
G75*
G03*
X236404000Y-87122000I-1200000J0D01*
G01*
X233864000Y-87122000D02*
G75*
G03*
X233864000Y-87122000I-1200000J0D01*
G01*
X231324000Y-87122000D02*
G75*
G03*
X231324000Y-87122000I-1200000J0D01*
G01*
X228784000Y-87122000D02*
G75*
G03*
X228784000Y-87122000I-1200000J0D01*
G01*
X226244000Y-87122000D02*
G75*
G03*
X226244000Y-87122000I-1200000J0D01*
G01*
X249104000Y-84582000D02*
G75*
G03*
X249104000Y-84582000I-1200000J0D01*
G01*
X246564000Y-84582000D02*
G75*
G03*
X246564000Y-84582000I-1200000J0D01*
G01*
X244024000Y-84582000D02*
G75*
G03*
X244024000Y-84582000I-1200000J0D01*
G01*
X241484000Y-84582000D02*
G75*
G03*
X241484000Y-84582000I-1200000J0D01*
G01*
X238944000Y-84582000D02*
G75*
G03*
X238944000Y-84582000I-1200000J0D01*
G01*
X236404000Y-84582000D02*
G75*
G03*
X236404000Y-84582000I-1200000J0D01*
G01*
X233864000Y-84582000D02*
G75*
G03*
X233864000Y-84582000I-1200000J0D01*
G01*
X231324000Y-84582000D02*
G75*
G03*
X231324000Y-84582000I-1200000J0D01*
G01*
X228784000Y-84582000D02*
G75*
G03*
X228784000Y-84582000I-1200000J0D01*
G01*
X226244000Y-84582000D02*
G75*
G03*
X226244000Y-84582000I-1200000J0D01*
G01*
%TO.C,J1*%
X217834000Y-132588000D02*
G75*
G03*
X217834000Y-132588000I-1680000J0D01*
G01*
X217834000Y-127508000D02*
G75*
G03*
X217834000Y-127508000I-1680000J0D01*
G01*
X217834000Y-122428000D02*
G75*
G03*
X217834000Y-122428000I-1680000J0D01*
G01*
X217834000Y-117348000D02*
G75*
G03*
X217834000Y-117348000I-1680000J0D01*
G01*
X217834000Y-112268000D02*
G75*
G03*
X217834000Y-112268000I-1680000J0D01*
G01*
X217834000Y-107188000D02*
G75*
G03*
X217834000Y-107188000I-1680000J0D01*
G01*
X217834000Y-102108000D02*
G75*
G03*
X217834000Y-102108000I-1680000J0D01*
G01*
X220854000Y-140268000D02*
X220854000Y-99508000D01*
X218654000Y-140268000D02*
X218654000Y-99508000D01*
X212854000Y-140268000D02*
X212854000Y-99508000D01*
X210794000Y-140268000D02*
X210794000Y-99508000D01*
X221514000Y-140268000D02*
X221514000Y-99508000D01*
X210794000Y-140268000D02*
X221514000Y-140268000D01*
X210794000Y-99508000D02*
X221514000Y-99508000D01*
X211104000Y-138918000D02*
X211104000Y-136418000D01*
X211604000Y-138918000D02*
X211604000Y-136418000D01*
X211104000Y-138918000D02*
X211604000Y-138918000D01*
X211104000Y-136418000D02*
X211604000Y-136418000D01*
X215085000Y-131313000D02*
X215178000Y-131407000D01*
X217370000Y-133598000D02*
X217428000Y-133657000D01*
X214879000Y-131518000D02*
X214938000Y-131577000D01*
X217130000Y-133768000D02*
X217223000Y-133862000D01*
X211104000Y-133838000D02*
X211104000Y-131338000D01*
X211604000Y-133838000D02*
X211604000Y-131338000D01*
X211104000Y-133838000D02*
X211604000Y-133838000D01*
X211104000Y-131338000D02*
X211604000Y-131338000D01*
X215085000Y-126233000D02*
X215178000Y-126327000D01*
X217370000Y-128518000D02*
X217428000Y-128577000D01*
X214879000Y-126438000D02*
X214938000Y-126497000D01*
X217130000Y-128688000D02*
X217223000Y-128782000D01*
X211104000Y-128758000D02*
X211104000Y-126258000D01*
X211604000Y-128758000D02*
X211604000Y-126258000D01*
X211104000Y-128758000D02*
X211604000Y-128758000D01*
X211104000Y-126258000D02*
X211604000Y-126258000D01*
X215085000Y-121153000D02*
X215178000Y-121247000D01*
X217370000Y-123438000D02*
X217428000Y-123497000D01*
X214879000Y-121358000D02*
X214938000Y-121417000D01*
X217130000Y-123608000D02*
X217223000Y-123702000D01*
X211104000Y-123678000D02*
X211104000Y-121178000D01*
X211604000Y-123678000D02*
X211604000Y-121178000D01*
X211104000Y-123678000D02*
X211604000Y-123678000D01*
X211104000Y-121178000D02*
X211604000Y-121178000D01*
X215085000Y-116073000D02*
X215178000Y-116167000D01*
X217370000Y-118358000D02*
X217428000Y-118417000D01*
X214879000Y-116278000D02*
X214938000Y-116337000D01*
X217130000Y-118528000D02*
X217223000Y-118622000D01*
X211104000Y-118598000D02*
X211104000Y-116098000D01*
X211604000Y-118598000D02*
X211604000Y-116098000D01*
X211104000Y-118598000D02*
X211604000Y-118598000D01*
X211104000Y-116098000D02*
X211604000Y-116098000D01*
X215085000Y-110993000D02*
X215178000Y-111087000D01*
X217370000Y-113278000D02*
X217428000Y-113337000D01*
X214879000Y-111198000D02*
X214938000Y-111257000D01*
X217130000Y-113448000D02*
X217223000Y-113542000D01*
X211104000Y-113518000D02*
X211104000Y-111018000D01*
X211604000Y-113518000D02*
X211604000Y-111018000D01*
X211104000Y-113518000D02*
X211604000Y-113518000D01*
X211104000Y-111018000D02*
X211604000Y-111018000D01*
X215085000Y-105913000D02*
X215178000Y-106007000D01*
X217370000Y-108198000D02*
X217428000Y-108257000D01*
X214879000Y-106118000D02*
X214938000Y-106177000D01*
X217130000Y-108368000D02*
X217223000Y-108462000D01*
X211104000Y-108438000D02*
X211104000Y-105938000D01*
X211604000Y-108438000D02*
X211604000Y-105938000D01*
X211104000Y-108438000D02*
X211604000Y-108438000D01*
X211104000Y-105938000D02*
X211604000Y-105938000D01*
X215085000Y-100833000D02*
X215178000Y-100927000D01*
X217370000Y-103118000D02*
X217428000Y-103177000D01*
X214879000Y-101038000D02*
X214938000Y-101097000D01*
X217130000Y-103288000D02*
X217223000Y-103382000D01*
X211104000Y-103358000D02*
X211104000Y-100858000D01*
X211604000Y-103358000D02*
X211604000Y-100858000D01*
X211104000Y-103358000D02*
X211604000Y-103358000D01*
X211104000Y-100858000D02*
X211604000Y-100858000D01*
X220914000Y-140508000D02*
X221754000Y-140508000D01*
X221754000Y-140508000D02*
X221754000Y-139908000D01*
X217637352Y-136879288D02*
G75*
G02*
X217834000Y-137668000I-1483352J-788712D01*
G01*
X215364912Y-136184047D02*
G75*
G02*
X216943000Y-136184000I789088J-1483953D01*
G01*
X214670047Y-138457088D02*
G75*
G02*
X214670000Y-136879000I1483953J789088D01*
G01*
X216943088Y-139151953D02*
G75*
G02*
X215365000Y-139152000I-789088J1483953D01*
G01*
X217834450Y-137638617D02*
G75*
G02*
X217638000Y-138457000I-1680450J-29383D01*
G01*
%TO.C,J2*%
X228540000Y-133410000D02*
X231200000Y-133410000D01*
X228540000Y-115570000D02*
X228540000Y-133410000D01*
X231200000Y-115570000D02*
X231200000Y-133410000D01*
X228540000Y-115570000D02*
X231200000Y-115570000D01*
X228540000Y-114300000D02*
X228540000Y-112970000D01*
X228540000Y-112970000D02*
X229870000Y-112970000D01*
%TO.C,J3*%
X258982000Y-93980000D02*
G75*
G03*
X258982000Y-93980000I-1680000J0D01*
G01*
X252602000Y-86300000D02*
X252602000Y-96580000D01*
X254802000Y-86300000D02*
X254802000Y-96580000D01*
X260602000Y-86300000D02*
X260602000Y-96580000D01*
X262662000Y-86300000D02*
X262662000Y-96580000D01*
X251942000Y-86300000D02*
X251942000Y-96580000D01*
X262662000Y-86300000D02*
X251942000Y-86300000D01*
X262662000Y-96580000D02*
X251942000Y-96580000D01*
X262352000Y-87650000D02*
X262352000Y-90150000D01*
X261852000Y-87650000D02*
X261852000Y-90150000D01*
X262352000Y-87650000D02*
X261852000Y-87650000D01*
X262352000Y-90150000D02*
X261852000Y-90150000D01*
X258371000Y-95255000D02*
X258278000Y-95161000D01*
X256086000Y-92970000D02*
X256028000Y-92911000D01*
X258577000Y-95050000D02*
X258518000Y-94991000D01*
X256326000Y-92800000D02*
X256233000Y-92706000D01*
X262352000Y-92730000D02*
X262352000Y-95230000D01*
X261852000Y-92730000D02*
X261852000Y-95230000D01*
X262352000Y-92730000D02*
X261852000Y-92730000D01*
X262352000Y-95230000D02*
X261852000Y-95230000D01*
X252542000Y-86060000D02*
X251702000Y-86060000D01*
X251702000Y-86060000D02*
X251702000Y-86660000D01*
X255818648Y-89688712D02*
G75*
G02*
X255622000Y-88900000I1483352J788712D01*
G01*
X258091088Y-90383953D02*
G75*
G02*
X256513000Y-90384000I-789088J1483953D01*
G01*
X258785953Y-88110912D02*
G75*
G02*
X258786000Y-89689000I-1483953J-789088D01*
G01*
X256512912Y-87416047D02*
G75*
G02*
X258091000Y-87416000I789088J-1483953D01*
G01*
X255621550Y-88929383D02*
G75*
G02*
X255818000Y-88111000I1680450J29383D01*
G01*
%TO.C,J7*%
X242256000Y-112716000D02*
X243586000Y-112716000D01*
X242256000Y-114046000D02*
X242256000Y-112716000D01*
X242256000Y-115316000D02*
X244916000Y-115316000D01*
X244916000Y-115316000D02*
X244916000Y-133156000D01*
X242256000Y-115316000D02*
X242256000Y-133156000D01*
X242256000Y-133156000D02*
X244916000Y-133156000D01*
%TO.C,J9*%
X251448000Y-99014000D02*
X251448000Y-99614000D01*
X252288000Y-99014000D02*
X251448000Y-99014000D01*
X262098000Y-138664000D02*
X261598000Y-138664000D01*
X262098000Y-136164000D02*
X261598000Y-136164000D01*
X261598000Y-136164000D02*
X261598000Y-138664000D01*
X262098000Y-136164000D02*
X262098000Y-138664000D01*
X256072000Y-136234000D02*
X255979000Y-136140000D01*
X258323000Y-138484000D02*
X258264000Y-138425000D01*
X255832000Y-136404000D02*
X255774000Y-136345000D01*
X258117000Y-138689000D02*
X258024000Y-138595000D01*
X262098000Y-133584000D02*
X261598000Y-133584000D01*
X262098000Y-131084000D02*
X261598000Y-131084000D01*
X261598000Y-131084000D02*
X261598000Y-133584000D01*
X262098000Y-131084000D02*
X262098000Y-133584000D01*
X256072000Y-131154000D02*
X255979000Y-131060000D01*
X258323000Y-133404000D02*
X258264000Y-133345000D01*
X255832000Y-131324000D02*
X255774000Y-131265000D01*
X258117000Y-133609000D02*
X258024000Y-133515000D01*
X262098000Y-128504000D02*
X261598000Y-128504000D01*
X262098000Y-126004000D02*
X261598000Y-126004000D01*
X261598000Y-126004000D02*
X261598000Y-128504000D01*
X262098000Y-126004000D02*
X262098000Y-128504000D01*
X256072000Y-126074000D02*
X255979000Y-125980000D01*
X258323000Y-128324000D02*
X258264000Y-128265000D01*
X255832000Y-126244000D02*
X255774000Y-126185000D01*
X258117000Y-128529000D02*
X258024000Y-128435000D01*
X262098000Y-123424000D02*
X261598000Y-123424000D01*
X262098000Y-120924000D02*
X261598000Y-120924000D01*
X261598000Y-120924000D02*
X261598000Y-123424000D01*
X262098000Y-120924000D02*
X262098000Y-123424000D01*
X256072000Y-120994000D02*
X255979000Y-120900000D01*
X258323000Y-123244000D02*
X258264000Y-123185000D01*
X255832000Y-121164000D02*
X255774000Y-121105000D01*
X258117000Y-123449000D02*
X258024000Y-123355000D01*
X262098000Y-118344000D02*
X261598000Y-118344000D01*
X262098000Y-115844000D02*
X261598000Y-115844000D01*
X261598000Y-115844000D02*
X261598000Y-118344000D01*
X262098000Y-115844000D02*
X262098000Y-118344000D01*
X256072000Y-115914000D02*
X255979000Y-115820000D01*
X258323000Y-118164000D02*
X258264000Y-118105000D01*
X255832000Y-116084000D02*
X255774000Y-116025000D01*
X258117000Y-118369000D02*
X258024000Y-118275000D01*
X262098000Y-113264000D02*
X261598000Y-113264000D01*
X262098000Y-110764000D02*
X261598000Y-110764000D01*
X261598000Y-110764000D02*
X261598000Y-113264000D01*
X262098000Y-110764000D02*
X262098000Y-113264000D01*
X256072000Y-110834000D02*
X255979000Y-110740000D01*
X258323000Y-113084000D02*
X258264000Y-113025000D01*
X255832000Y-111004000D02*
X255774000Y-110945000D01*
X258117000Y-113289000D02*
X258024000Y-113195000D01*
X262098000Y-108184000D02*
X261598000Y-108184000D01*
X262098000Y-105684000D02*
X261598000Y-105684000D01*
X261598000Y-105684000D02*
X261598000Y-108184000D01*
X262098000Y-105684000D02*
X262098000Y-108184000D01*
X256072000Y-105754000D02*
X255979000Y-105660000D01*
X258323000Y-108004000D02*
X258264000Y-107945000D01*
X255832000Y-105924000D02*
X255774000Y-105865000D01*
X258117000Y-108209000D02*
X258024000Y-108115000D01*
X262098000Y-103104000D02*
X261598000Y-103104000D01*
X262098000Y-100604000D02*
X261598000Y-100604000D01*
X261598000Y-100604000D02*
X261598000Y-103104000D01*
X262098000Y-100604000D02*
X262098000Y-103104000D01*
X262408000Y-140014000D02*
X251688000Y-140014000D01*
X262408000Y-99254000D02*
X251688000Y-99254000D01*
X251688000Y-99254000D02*
X251688000Y-140014000D01*
X262408000Y-99254000D02*
X262408000Y-140014000D01*
X260348000Y-99254000D02*
X260348000Y-140014000D01*
X254548000Y-99254000D02*
X254548000Y-140014000D01*
X252348000Y-99254000D02*
X252348000Y-140014000D01*
X258728000Y-137414000D02*
G75*
G03*
X258728000Y-137414000I-1680000J0D01*
G01*
X258728000Y-132334000D02*
G75*
G03*
X258728000Y-132334000I-1680000J0D01*
G01*
X258728000Y-127254000D02*
G75*
G03*
X258728000Y-127254000I-1680000J0D01*
G01*
X258728000Y-122174000D02*
G75*
G03*
X258728000Y-122174000I-1680000J0D01*
G01*
X258728000Y-117094000D02*
G75*
G03*
X258728000Y-117094000I-1680000J0D01*
G01*
X258728000Y-112014000D02*
G75*
G03*
X258728000Y-112014000I-1680000J0D01*
G01*
X258728000Y-106934000D02*
G75*
G03*
X258728000Y-106934000I-1680000J0D01*
G01*
X255367550Y-101883383D02*
G75*
G02*
X255564000Y-101065000I1680450J29383D01*
G01*
X256258912Y-100370047D02*
G75*
G02*
X257837000Y-100370000I789088J-1483953D01*
G01*
X258531953Y-101064912D02*
G75*
G02*
X258532000Y-102643000I-1483953J-789088D01*
G01*
X257837088Y-103337953D02*
G75*
G02*
X256259000Y-103338000I-789088J1483953D01*
G01*
X255564648Y-102642712D02*
G75*
G02*
X255368000Y-101854000I1483352J788712D01*
G01*
%TO.C,U1*%
X226177001Y-140269001D02*
X249497001Y-140269001D01*
X223637001Y-133369001D02*
X223637001Y-107939001D01*
X249497001Y-140269001D02*
X249497001Y-107939001D01*
X247377001Y-105809001D02*
X225767001Y-105809001D01*
D10*
G36*
X222597001Y-113514001D02*
G01*
X222597001Y-114784001D01*
X223232001Y-114149001D01*
X222597001Y-113514001D01*
G37*
X222597001Y-113514001D02*
X222597001Y-114784001D01*
X223232001Y-114149001D01*
X222597001Y-113514001D01*
D12*
X223637001Y-133369001D02*
X226177001Y-133369001D01*
X226177001Y-133369001D02*
X226177001Y-140269001D01*
X223637001Y-107939001D02*
G75*
G02*
X225767001Y-105809001I2130000J0D01*
G01*
X247367001Y-105809001D02*
G75*
G02*
X249497001Y-107939001I0J-2130000D01*
G01*
%TO.C,I2C*%
X216856000Y-92262000D02*
X219516000Y-92262000D01*
X216856000Y-84582000D02*
X216856000Y-92262000D01*
X219516000Y-84582000D02*
X219516000Y-92262000D01*
X216856000Y-84582000D02*
X219516000Y-84582000D01*
X216856000Y-83312000D02*
X216856000Y-81982000D01*
X216856000Y-81982000D02*
X218186000Y-81982000D01*
%TO.C,SPI*%
X212189001Y-97097001D02*
X214849001Y-97097001D01*
X212189001Y-84337001D02*
X212189001Y-97097001D01*
X214849001Y-84337001D02*
X214849001Y-97097001D01*
X212189001Y-84337001D02*
X214849001Y-84337001D01*
X212189001Y-83067001D02*
X212189001Y-81737001D01*
X212189001Y-81737001D02*
X213519001Y-81737001D01*
%TO.C,J1*%
D10*
X217892380Y-98377333D02*
X218606666Y-98377333D01*
X218749523Y-98424952D01*
X218844761Y-98520190D01*
X218892380Y-98663047D01*
X218892380Y-98758285D01*
X218892380Y-97377333D02*
X218892380Y-97948761D01*
X218892380Y-97663047D02*
X217892380Y-97663047D01*
X218035238Y-97758285D01*
X218130476Y-97853523D01*
X218178095Y-97948761D01*
%TO.C,J2*%
X229536666Y-111422380D02*
X229536666Y-112136666D01*
X229489047Y-112279523D01*
X229393809Y-112374761D01*
X229250952Y-112422380D01*
X229155714Y-112422380D01*
X229965238Y-111517619D02*
X230012857Y-111470000D01*
X230108095Y-111422380D01*
X230346190Y-111422380D01*
X230441428Y-111470000D01*
X230489047Y-111517619D01*
X230536666Y-111612857D01*
X230536666Y-111708095D01*
X230489047Y-111850952D01*
X229917619Y-112422380D01*
X230536666Y-112422380D01*
%TO.C,J3*%
X253198380Y-91011333D02*
X253912666Y-91011333D01*
X254055523Y-91058952D01*
X254150761Y-91154190D01*
X254198380Y-91297047D01*
X254198380Y-91392285D01*
X253198380Y-90630380D02*
X253198380Y-90011333D01*
X253579333Y-90344666D01*
X253579333Y-90201809D01*
X253626952Y-90106571D01*
X253674571Y-90058952D01*
X253769809Y-90011333D01*
X254007904Y-90011333D01*
X254103142Y-90058952D01*
X254150761Y-90106571D01*
X254198380Y-90201809D01*
X254198380Y-90487523D01*
X254150761Y-90582761D01*
X254103142Y-90630380D01*
%TO.C,J7*%
X243252666Y-111168380D02*
X243252666Y-111882666D01*
X243205047Y-112025523D01*
X243109809Y-112120761D01*
X242966952Y-112168380D01*
X242871714Y-112168380D01*
X243633619Y-111168380D02*
X244300285Y-111168380D01*
X243871714Y-112168380D01*
%TO.C,J9*%
X252690380Y-101679333D02*
X253404666Y-101679333D01*
X253547523Y-101726952D01*
X253642761Y-101822190D01*
X253690380Y-101965047D01*
X253690380Y-102060285D01*
X253690380Y-101155523D02*
X253690380Y-100965047D01*
X253642761Y-100869809D01*
X253595142Y-100822190D01*
X253452285Y-100726952D01*
X253261809Y-100679333D01*
X252880857Y-100679333D01*
X252785619Y-100726952D01*
X252738000Y-100774571D01*
X252690380Y-100869809D01*
X252690380Y-101060285D01*
X252738000Y-101155523D01*
X252785619Y-101203142D01*
X252880857Y-101250761D01*
X253118952Y-101250761D01*
X253214190Y-101203142D01*
X253261809Y-101155523D01*
X253309428Y-101060285D01*
X253309428Y-100869809D01*
X253261809Y-100774571D01*
X253214190Y-100726952D01*
X253118952Y-100679333D01*
%TO.C,U1*%
X244856095Y-138644380D02*
X244856095Y-139453904D01*
X244903714Y-139549142D01*
X244951333Y-139596761D01*
X245046571Y-139644380D01*
X245237047Y-139644380D01*
X245332285Y-139596761D01*
X245379904Y-139549142D01*
X245427523Y-139453904D01*
X245427523Y-138644380D01*
X246427523Y-139644380D02*
X245856095Y-139644380D01*
X246141809Y-139644380D02*
X246141809Y-138644380D01*
X246046571Y-138787238D01*
X245951333Y-138882476D01*
X245856095Y-138930095D01*
%TO.C,I2C*%
X217209809Y-81434380D02*
X217209809Y-80434380D01*
X217638380Y-80529619D02*
X217686000Y-80482000D01*
X217781238Y-80434380D01*
X218019333Y-80434380D01*
X218114571Y-80482000D01*
X218162190Y-80529619D01*
X218209809Y-80624857D01*
X218209809Y-80720095D01*
X218162190Y-80862952D01*
X217590761Y-81434380D01*
X218209809Y-81434380D01*
X219209809Y-81339142D02*
X219162190Y-81386761D01*
X219019333Y-81434380D01*
X218924095Y-81434380D01*
X218781238Y-81386761D01*
X218686000Y-81291523D01*
X218638380Y-81196285D01*
X218590761Y-81005809D01*
X218590761Y-80862952D01*
X218638380Y-80672476D01*
X218686000Y-80577238D01*
X218781238Y-80482000D01*
X218924095Y-80434380D01*
X219019333Y-80434380D01*
X219162190Y-80482000D01*
X219209809Y-80529619D01*
%TO.C,SPI*%
X212495191Y-81141762D02*
X212638048Y-81189381D01*
X212876143Y-81189381D01*
X212971381Y-81141762D01*
X213019001Y-81094143D01*
X213066620Y-80998905D01*
X213066620Y-80903667D01*
X213019001Y-80808429D01*
X212971381Y-80760810D01*
X212876143Y-80713191D01*
X212685667Y-80665572D01*
X212590429Y-80617953D01*
X212542810Y-80570334D01*
X212495191Y-80475096D01*
X212495191Y-80379858D01*
X212542810Y-80284620D01*
X212590429Y-80237001D01*
X212685667Y-80189381D01*
X212923762Y-80189381D01*
X213066620Y-80237001D01*
X213495191Y-81189381D02*
X213495191Y-80189381D01*
X213876143Y-80189381D01*
X213971381Y-80237001D01*
X214019001Y-80284620D01*
X214066620Y-80379858D01*
X214066620Y-80522715D01*
X214019001Y-80617953D01*
X213971381Y-80665572D01*
X213876143Y-80713191D01*
X213495191Y-80713191D01*
X214495191Y-81189381D02*
X214495191Y-80189381D01*
%TD*%
M02*
