%TF.GenerationSoftware,KiCad,Pcbnew,(5.1.6)-1*%
%TF.CreationDate,2021-02-04T11:12:43-05:00*%
%TF.ProjectId,DMB Wemos D1 Breakout,444d4220-5765-46d6-9f73-204431204272,rev?*%
%TF.SameCoordinates,Original*%
%TF.FileFunction,Soldermask,Top*%
%TF.FilePolarity,Negative*%
%FSLAX46Y46*%
G04 Gerber Fmt 4.6, Leading zero omitted, Abs format (unit mm)*
G04 Created by KiCad (PCBNEW (5.1.6)-1) date 2021-02-04 11:12:43*
%MOMM*%
%LPD*%
G01*
G04 APERTURE LIST*
%ADD10C,2.100000*%
%ADD11R,2.600000X2.600000*%
%ADD12C,2.600000*%
%ADD13R,1.800000X1.800000*%
%ADD14O,1.800000X1.800000*%
%ADD15O,2.100000X1.700000*%
%ADD16R,2.100000X2.100000*%
G04 APERTURE END LIST*
D10*
%TO.C,REF\u002A\u002A*%
X247904000Y-102362000D03*
%TD*%
%TO.C,REF\u002A\u002A*%
X245364000Y-102362000D03*
%TD*%
%TO.C,REF\u002A\u002A*%
X242824000Y-102362000D03*
%TD*%
%TO.C,REF\u002A\u002A*%
X240284000Y-102362000D03*
%TD*%
%TO.C,REF\u002A\u002A*%
X237744000Y-102362000D03*
%TD*%
%TO.C,REF\u002A\u002A*%
X235204000Y-102362000D03*
%TD*%
%TO.C,REF\u002A\u002A*%
X232664000Y-102362000D03*
%TD*%
%TO.C,REF\u002A\u002A*%
X230124000Y-102362000D03*
%TD*%
%TO.C,REF\u002A\u002A*%
X227584000Y-102362000D03*
%TD*%
%TO.C,REF\u002A\u002A*%
X225044000Y-102362000D03*
%TD*%
%TO.C,REF\u002A\u002A*%
X247904000Y-99822000D03*
%TD*%
%TO.C,REF\u002A\u002A*%
X245364000Y-99822000D03*
%TD*%
%TO.C,REF\u002A\u002A*%
X242824000Y-99822000D03*
%TD*%
%TO.C,REF\u002A\u002A*%
X240284000Y-99822000D03*
%TD*%
%TO.C,REF\u002A\u002A*%
X237744000Y-99822000D03*
%TD*%
%TO.C,REF\u002A\u002A*%
X235204000Y-99822000D03*
%TD*%
%TO.C,REF\u002A\u002A*%
X232664000Y-99822000D03*
%TD*%
%TO.C,REF\u002A\u002A*%
X230124000Y-99822000D03*
%TD*%
%TO.C,REF\u002A\u002A*%
X227584000Y-99822000D03*
%TD*%
%TO.C,REF\u002A\u002A*%
X225044000Y-99822000D03*
%TD*%
%TO.C,REF\u002A\u002A*%
X247904000Y-97282000D03*
%TD*%
%TO.C,REF\u002A\u002A*%
X245364000Y-97282000D03*
%TD*%
%TO.C,REF\u002A\u002A*%
X242824000Y-97282000D03*
%TD*%
%TO.C,REF\u002A\u002A*%
X240284000Y-97282000D03*
%TD*%
%TO.C,REF\u002A\u002A*%
X237744000Y-97282000D03*
%TD*%
%TO.C,REF\u002A\u002A*%
X235204000Y-97282000D03*
%TD*%
%TO.C,REF\u002A\u002A*%
X232664000Y-97282000D03*
%TD*%
%TO.C,REF\u002A\u002A*%
X230124000Y-97282000D03*
%TD*%
%TO.C,REF\u002A\u002A*%
X227584000Y-97282000D03*
%TD*%
%TO.C,REF\u002A\u002A*%
X225044000Y-97282000D03*
%TD*%
%TO.C,REF\u002A\u002A*%
X247904000Y-94742000D03*
%TD*%
%TO.C,REF\u002A\u002A*%
X245364000Y-94742000D03*
%TD*%
%TO.C,REF\u002A\u002A*%
X242824000Y-94742000D03*
%TD*%
%TO.C,REF\u002A\u002A*%
X240284000Y-94742000D03*
%TD*%
%TO.C,REF\u002A\u002A*%
X237744000Y-94742000D03*
%TD*%
%TO.C,REF\u002A\u002A*%
X235204000Y-94742000D03*
%TD*%
%TO.C,REF\u002A\u002A*%
X232664000Y-94742000D03*
%TD*%
%TO.C,REF\u002A\u002A*%
X230124000Y-94742000D03*
%TD*%
%TO.C,REF\u002A\u002A*%
X227584000Y-94742000D03*
%TD*%
%TO.C,REF\u002A\u002A*%
X225044000Y-94742000D03*
%TD*%
%TO.C,REF\u002A\u002A*%
X247904000Y-92202000D03*
%TD*%
%TO.C,REF\u002A\u002A*%
X245364000Y-92202000D03*
%TD*%
%TO.C,REF\u002A\u002A*%
X242824000Y-92202000D03*
%TD*%
%TO.C,REF\u002A\u002A*%
X240284000Y-92202000D03*
%TD*%
%TO.C,REF\u002A\u002A*%
X237744000Y-92202000D03*
%TD*%
%TO.C,REF\u002A\u002A*%
X235204000Y-92202000D03*
%TD*%
%TO.C,REF\u002A\u002A*%
X232664000Y-92202000D03*
%TD*%
%TO.C,REF\u002A\u002A*%
X230124000Y-92202000D03*
%TD*%
%TO.C,REF\u002A\u002A*%
X227584000Y-92202000D03*
%TD*%
%TO.C,REF\u002A\u002A*%
X225044000Y-92202000D03*
%TD*%
%TO.C,REF\u002A\u002A*%
X247904000Y-89662000D03*
%TD*%
%TO.C,REF\u002A\u002A*%
X245364000Y-89662000D03*
%TD*%
%TO.C,REF\u002A\u002A*%
X242824000Y-89662000D03*
%TD*%
%TO.C,REF\u002A\u002A*%
X240284000Y-89662000D03*
%TD*%
%TO.C,REF\u002A\u002A*%
X237744000Y-89662000D03*
%TD*%
%TO.C,REF\u002A\u002A*%
X235204000Y-89662000D03*
%TD*%
%TO.C,REF\u002A\u002A*%
X232664000Y-89662000D03*
%TD*%
%TO.C,REF\u002A\u002A*%
X230124000Y-89662000D03*
%TD*%
%TO.C,REF\u002A\u002A*%
X227584000Y-89662000D03*
%TD*%
%TO.C,REF\u002A\u002A*%
X225044000Y-89662000D03*
%TD*%
%TO.C,REF\u002A\u002A*%
X247904000Y-87122000D03*
%TD*%
%TO.C,REF\u002A\u002A*%
X245364000Y-87122000D03*
%TD*%
%TO.C,REF\u002A\u002A*%
X242824000Y-87122000D03*
%TD*%
%TO.C,REF\u002A\u002A*%
X240284000Y-87122000D03*
%TD*%
%TO.C,REF\u002A\u002A*%
X237744000Y-87122000D03*
%TD*%
%TO.C,REF\u002A\u002A*%
X235204000Y-87122000D03*
%TD*%
%TO.C,REF\u002A\u002A*%
X232664000Y-87122000D03*
%TD*%
%TO.C,REF\u002A\u002A*%
X230124000Y-87122000D03*
%TD*%
%TO.C,REF\u002A\u002A*%
X227584000Y-87122000D03*
%TD*%
%TO.C,REF\u002A\u002A*%
X225044000Y-87122000D03*
%TD*%
%TO.C,REF\u002A\u002A*%
X247904000Y-84582000D03*
%TD*%
%TO.C,REF\u002A\u002A*%
X245364000Y-84582000D03*
%TD*%
%TO.C,REF\u002A\u002A*%
X242824000Y-84582000D03*
%TD*%
%TO.C,REF\u002A\u002A*%
X240284000Y-84582000D03*
%TD*%
%TO.C,REF\u002A\u002A*%
X237744000Y-84582000D03*
%TD*%
%TO.C,REF\u002A\u002A*%
X235204000Y-84582000D03*
%TD*%
%TO.C,REF\u002A\u002A*%
X232664000Y-84582000D03*
%TD*%
%TO.C,REF\u002A\u002A*%
X230124000Y-84582000D03*
%TD*%
%TO.C,REF\u002A\u002A*%
X227584000Y-84582000D03*
%TD*%
%TO.C,REF\u002A\u002A*%
X225044000Y-84582000D03*
%TD*%
D11*
%TO.C,J1*%
X216154000Y-137668000D03*
D12*
X216154000Y-132588000D03*
X216154000Y-127508000D03*
X216154000Y-122428000D03*
X216154000Y-117348000D03*
X216154000Y-112268000D03*
X216154000Y-107188000D03*
X216154000Y-102108000D03*
%TD*%
D13*
%TO.C,J2*%
X229870000Y-114300000D03*
D14*
X229870000Y-116840000D03*
X229870000Y-119380000D03*
X229870000Y-121920000D03*
X229870000Y-124460000D03*
X229870000Y-127000000D03*
X229870000Y-129540000D03*
X229870000Y-132080000D03*
%TD*%
D11*
%TO.C,J3*%
X257302000Y-88900000D03*
D12*
X257302000Y-93980000D03*
%TD*%
D14*
%TO.C,J7*%
X243586000Y-131826000D03*
X243586000Y-129286000D03*
X243586000Y-126746000D03*
X243586000Y-124206000D03*
X243586000Y-121666000D03*
X243586000Y-119126000D03*
X243586000Y-116586000D03*
D13*
X243586000Y-114046000D03*
%TD*%
D12*
%TO.C,J9*%
X257048000Y-137414000D03*
X257048000Y-132334000D03*
X257048000Y-127254000D03*
X257048000Y-122174000D03*
X257048000Y-117094000D03*
X257048000Y-112014000D03*
X257048000Y-106934000D03*
D11*
X257048000Y-101854000D03*
%TD*%
D15*
%TO.C,U1*%
X225137001Y-116689001D03*
D16*
X225137001Y-114149001D03*
D15*
X225137001Y-119229001D03*
X225137001Y-121769001D03*
X225137001Y-124309001D03*
X225137001Y-126849001D03*
X225137001Y-129389001D03*
X225137001Y-131929001D03*
X247997001Y-131929001D03*
X247997001Y-129389001D03*
X247997001Y-126849001D03*
X247997001Y-124309001D03*
X247997001Y-121769001D03*
X247997001Y-119229001D03*
X247997001Y-116689001D03*
X247997001Y-114149001D03*
%TD*%
D13*
%TO.C,I2C*%
X218186000Y-83312000D03*
D14*
X218186000Y-85852000D03*
X218186000Y-88392000D03*
X218186000Y-90932000D03*
%TD*%
D13*
%TO.C,SPI*%
X213519001Y-83067001D03*
D14*
X213519001Y-85607001D03*
X213519001Y-88147001D03*
X213519001Y-90687001D03*
X213519001Y-93227001D03*
X213519001Y-95767001D03*
%TD*%
M02*
