M48
INCH,TZ
T1C0.0394
T2C0.0512
%
G90
G05
T1
X96600Y-34300
X88600Y-36300
X88600Y-40300
X97600Y-39300
X92600Y-39300
X94600Y-40300
X95600Y-38300
X95600Y-40300
X93600Y-38300
X92600Y-33300
X90600Y-34300
X97600Y-36300
X94600Y-37300
X95900Y-44900
X95900Y-45900
X95900Y-46900
X95900Y-47900
X95900Y-48900
X95900Y-49900
X95900Y-50900
X95900Y-51900
X95600Y-37300
X90600Y-35300
X90600Y-36300
X89600Y-40300
X89600Y-38300
X96600Y-38300
X96600Y-40300
X94600Y-33300
X92600Y-34300
X88600Y-38300
X92600Y-36300
X88637Y-44941
X88637Y-45941
X88637Y-46941
X88637Y-47941
X88637Y-48941
X88637Y-49941
X88637Y-50941
X88637Y-51941
X97637Y-44941
X97637Y-45941
X97637Y-46941
X97637Y-47941
X97637Y-48941
X97637Y-49941
X97637Y-50941
X97637Y-51941
X96600Y-37300
X89600Y-35300
X93600Y-35300
X91600Y-39300
X97600Y-40300
X88600Y-39300
X96600Y-33300
X88600Y-34300
X94600Y-36300
X95600Y-36300
X97600Y-37300
X91600Y-35300
X97600Y-35300
X90600Y-38300
X89600Y-39300
X88600Y-33300
X95600Y-33300
X97600Y-33300
X91600Y-36300
X96600Y-36300
X85900Y-32800
X85900Y-33800
X85900Y-34800
X85900Y-35800
X93600Y-34300
X94600Y-34300
X92600Y-35300
X97600Y-38300
X90600Y-40300
X91600Y-38300
X93600Y-39300
X91600Y-33300
X91600Y-34300
X90600Y-37300
X84063Y-32704
X84063Y-33704
X84063Y-34704
X84063Y-35704
X84063Y-36704
X84063Y-37704
X91600Y-37300
X95600Y-34300
X95600Y-35300
X97600Y-34300
X89600Y-36300
X90600Y-39300
X91600Y-40300
X92600Y-38300
X95600Y-39300
X89600Y-33300
X89600Y-34300
X90500Y-45000
X90500Y-46000
X90500Y-47000
X90500Y-48000
X90500Y-49000
X90500Y-50000
X90500Y-51000
X90500Y-52000
X89600Y-37300
X92600Y-37300
X88600Y-35300
X94600Y-35300
X96600Y-35300
X94600Y-39300
X92600Y-40300
X94600Y-38300
X93600Y-40300
X96600Y-39300
X93600Y-33300
X90600Y-33300
X93600Y-36300
X93600Y-37300
X88600Y-37300
T2
X101200Y-40100
X101200Y-42100
X101200Y-44100
X101200Y-46100
X101200Y-48100
X101200Y-50100
X101200Y-52100
X101200Y-54100
X85100Y-40200
X85100Y-42200
X85100Y-44200
X85100Y-46200
X85100Y-48200
X85100Y-50200
X85100Y-52200
X85100Y-54200
X101300Y-35000
X101300Y-37000
T0
M30
