%TF.GenerationSoftware,KiCad,Pcbnew,(5.1.6)-1*%
%TF.CreationDate,2021-02-04T11:12:43-05:00*%
%TF.ProjectId,DMB Wemos D1 Breakout,444d4220-5765-46d6-9f73-204431204272,rev?*%
%TF.SameCoordinates,Original*%
%TF.FileFunction,Copper,L2,Bot*%
%TF.FilePolarity,Positive*%
%FSLAX46Y46*%
G04 Gerber Fmt 4.6, Leading zero omitted, Abs format (unit mm)*
G04 Created by KiCad (PCBNEW (5.1.6)-1) date 2021-02-04 11:12:43*
%MOMM*%
%LPD*%
G01*
G04 APERTURE LIST*
%TA.AperFunction,ComponentPad*%
%ADD10C,2.000000*%
%TD*%
%TA.AperFunction,ComponentPad*%
%ADD11R,2.500000X2.500000*%
%TD*%
%TA.AperFunction,ComponentPad*%
%ADD12C,2.500000*%
%TD*%
%TA.AperFunction,ComponentPad*%
%ADD13R,1.700000X1.700000*%
%TD*%
%TA.AperFunction,ComponentPad*%
%ADD14O,1.700000X1.700000*%
%TD*%
%TA.AperFunction,ComponentPad*%
%ADD15O,2.000000X1.600000*%
%TD*%
%TA.AperFunction,ComponentPad*%
%ADD16R,2.000000X2.000000*%
%TD*%
%TA.AperFunction,Conductor*%
%ADD17C,0.250000*%
%TD*%
%TA.AperFunction,Conductor*%
%ADD18C,0.254000*%
%TD*%
G04 APERTURE END LIST*
D10*
%TO.P,REF\u002A\u002A,*%
%TO.N,*%
X247904000Y-102362000D03*
%TD*%
%TO.P,REF\u002A\u002A,*%
%TO.N,*%
X245364000Y-102362000D03*
%TD*%
%TO.P,REF\u002A\u002A,*%
%TO.N,*%
X242824000Y-102362000D03*
%TD*%
%TO.P,REF\u002A\u002A,*%
%TO.N,*%
X240284000Y-102362000D03*
%TD*%
%TO.P,REF\u002A\u002A,*%
%TO.N,*%
X237744000Y-102362000D03*
%TD*%
%TO.P,REF\u002A\u002A,*%
%TO.N,*%
X235204000Y-102362000D03*
%TD*%
%TO.P,REF\u002A\u002A,*%
%TO.N,*%
X232664000Y-102362000D03*
%TD*%
%TO.P,REF\u002A\u002A,*%
%TO.N,*%
X230124000Y-102362000D03*
%TD*%
%TO.P,REF\u002A\u002A,*%
%TO.N,*%
X227584000Y-102362000D03*
%TD*%
%TO.P,REF\u002A\u002A,*%
%TO.N,*%
X225044000Y-102362000D03*
%TD*%
%TO.P,REF\u002A\u002A,*%
%TO.N,*%
X247904000Y-99822000D03*
%TD*%
%TO.P,REF\u002A\u002A,*%
%TO.N,*%
X245364000Y-99822000D03*
%TD*%
%TO.P,REF\u002A\u002A,*%
%TO.N,*%
X242824000Y-99822000D03*
%TD*%
%TO.P,REF\u002A\u002A,*%
%TO.N,*%
X240284000Y-99822000D03*
%TD*%
%TO.P,REF\u002A\u002A,*%
%TO.N,*%
X237744000Y-99822000D03*
%TD*%
%TO.P,REF\u002A\u002A,*%
%TO.N,*%
X235204000Y-99822000D03*
%TD*%
%TO.P,REF\u002A\u002A,*%
%TO.N,*%
X232664000Y-99822000D03*
%TD*%
%TO.P,REF\u002A\u002A,*%
%TO.N,*%
X230124000Y-99822000D03*
%TD*%
%TO.P,REF\u002A\u002A,*%
%TO.N,*%
X227584000Y-99822000D03*
%TD*%
%TO.P,REF\u002A\u002A,*%
%TO.N,*%
X225044000Y-99822000D03*
%TD*%
%TO.P,REF\u002A\u002A,*%
%TO.N,*%
X247904000Y-97282000D03*
%TD*%
%TO.P,REF\u002A\u002A,*%
%TO.N,*%
X245364000Y-97282000D03*
%TD*%
%TO.P,REF\u002A\u002A,*%
%TO.N,*%
X242824000Y-97282000D03*
%TD*%
%TO.P,REF\u002A\u002A,*%
%TO.N,*%
X240284000Y-97282000D03*
%TD*%
%TO.P,REF\u002A\u002A,*%
%TO.N,*%
X237744000Y-97282000D03*
%TD*%
%TO.P,REF\u002A\u002A,*%
%TO.N,*%
X235204000Y-97282000D03*
%TD*%
%TO.P,REF\u002A\u002A,*%
%TO.N,*%
X232664000Y-97282000D03*
%TD*%
%TO.P,REF\u002A\u002A,*%
%TO.N,*%
X230124000Y-97282000D03*
%TD*%
%TO.P,REF\u002A\u002A,*%
%TO.N,*%
X227584000Y-97282000D03*
%TD*%
%TO.P,REF\u002A\u002A,*%
%TO.N,*%
X225044000Y-97282000D03*
%TD*%
%TO.P,REF\u002A\u002A,*%
%TO.N,*%
X247904000Y-94742000D03*
%TD*%
%TO.P,REF\u002A\u002A,*%
%TO.N,*%
X245364000Y-94742000D03*
%TD*%
%TO.P,REF\u002A\u002A,*%
%TO.N,*%
X242824000Y-94742000D03*
%TD*%
%TO.P,REF\u002A\u002A,*%
%TO.N,*%
X240284000Y-94742000D03*
%TD*%
%TO.P,REF\u002A\u002A,*%
%TO.N,*%
X237744000Y-94742000D03*
%TD*%
%TO.P,REF\u002A\u002A,*%
%TO.N,*%
X235204000Y-94742000D03*
%TD*%
%TO.P,REF\u002A\u002A,*%
%TO.N,*%
X232664000Y-94742000D03*
%TD*%
%TO.P,REF\u002A\u002A,*%
%TO.N,*%
X230124000Y-94742000D03*
%TD*%
%TO.P,REF\u002A\u002A,*%
%TO.N,*%
X227584000Y-94742000D03*
%TD*%
%TO.P,REF\u002A\u002A,*%
%TO.N,*%
X225044000Y-94742000D03*
%TD*%
%TO.P,REF\u002A\u002A,*%
%TO.N,*%
X247904000Y-92202000D03*
%TD*%
%TO.P,REF\u002A\u002A,*%
%TO.N,*%
X245364000Y-92202000D03*
%TD*%
%TO.P,REF\u002A\u002A,*%
%TO.N,*%
X242824000Y-92202000D03*
%TD*%
%TO.P,REF\u002A\u002A,*%
%TO.N,*%
X240284000Y-92202000D03*
%TD*%
%TO.P,REF\u002A\u002A,*%
%TO.N,*%
X237744000Y-92202000D03*
%TD*%
%TO.P,REF\u002A\u002A,*%
%TO.N,*%
X235204000Y-92202000D03*
%TD*%
%TO.P,REF\u002A\u002A,*%
%TO.N,*%
X232664000Y-92202000D03*
%TD*%
%TO.P,REF\u002A\u002A,*%
%TO.N,*%
X230124000Y-92202000D03*
%TD*%
%TO.P,REF\u002A\u002A,*%
%TO.N,*%
X227584000Y-92202000D03*
%TD*%
%TO.P,REF\u002A\u002A,*%
%TO.N,*%
X225044000Y-92202000D03*
%TD*%
%TO.P,REF\u002A\u002A,*%
%TO.N,*%
X247904000Y-89662000D03*
%TD*%
%TO.P,REF\u002A\u002A,*%
%TO.N,*%
X245364000Y-89662000D03*
%TD*%
%TO.P,REF\u002A\u002A,*%
%TO.N,*%
X242824000Y-89662000D03*
%TD*%
%TO.P,REF\u002A\u002A,*%
%TO.N,*%
X240284000Y-89662000D03*
%TD*%
%TO.P,REF\u002A\u002A,*%
%TO.N,*%
X237744000Y-89662000D03*
%TD*%
%TO.P,REF\u002A\u002A,*%
%TO.N,*%
X235204000Y-89662000D03*
%TD*%
%TO.P,REF\u002A\u002A,*%
%TO.N,*%
X232664000Y-89662000D03*
%TD*%
%TO.P,REF\u002A\u002A,*%
%TO.N,*%
X230124000Y-89662000D03*
%TD*%
%TO.P,REF\u002A\u002A,*%
%TO.N,*%
X227584000Y-89662000D03*
%TD*%
%TO.P,REF\u002A\u002A,*%
%TO.N,*%
X225044000Y-89662000D03*
%TD*%
%TO.P,REF\u002A\u002A,*%
%TO.N,*%
X247904000Y-87122000D03*
%TD*%
%TO.P,REF\u002A\u002A,*%
%TO.N,*%
X245364000Y-87122000D03*
%TD*%
%TO.P,REF\u002A\u002A,*%
%TO.N,*%
X242824000Y-87122000D03*
%TD*%
%TO.P,REF\u002A\u002A,*%
%TO.N,*%
X240284000Y-87122000D03*
%TD*%
%TO.P,REF\u002A\u002A,*%
%TO.N,*%
X237744000Y-87122000D03*
%TD*%
%TO.P,REF\u002A\u002A,*%
%TO.N,*%
X235204000Y-87122000D03*
%TD*%
%TO.P,REF\u002A\u002A,*%
%TO.N,*%
X232664000Y-87122000D03*
%TD*%
%TO.P,REF\u002A\u002A,*%
%TO.N,*%
X230124000Y-87122000D03*
%TD*%
%TO.P,REF\u002A\u002A,*%
%TO.N,*%
X227584000Y-87122000D03*
%TD*%
%TO.P,REF\u002A\u002A,*%
%TO.N,*%
X225044000Y-87122000D03*
%TD*%
%TO.P,REF\u002A\u002A,*%
%TO.N,*%
X247904000Y-84582000D03*
%TD*%
%TO.P,REF\u002A\u002A,*%
%TO.N,*%
X245364000Y-84582000D03*
%TD*%
%TO.P,REF\u002A\u002A,*%
%TO.N,*%
X242824000Y-84582000D03*
%TD*%
%TO.P,REF\u002A\u002A,*%
%TO.N,*%
X240284000Y-84582000D03*
%TD*%
%TO.P,REF\u002A\u002A,*%
%TO.N,*%
X237744000Y-84582000D03*
%TD*%
%TO.P,REF\u002A\u002A,*%
%TO.N,*%
X235204000Y-84582000D03*
%TD*%
%TO.P,REF\u002A\u002A,*%
%TO.N,*%
X232664000Y-84582000D03*
%TD*%
%TO.P,REF\u002A\u002A,*%
%TO.N,*%
X230124000Y-84582000D03*
%TD*%
%TO.P,REF\u002A\u002A,*%
%TO.N,*%
X227584000Y-84582000D03*
%TD*%
%TO.P,REF\u002A\u002A,*%
%TO.N,*%
X225044000Y-84582000D03*
%TD*%
D11*
%TO.P,J1,1*%
%TO.N,3v3*%
X216154000Y-137668000D03*
D12*
%TO.P,J1,2*%
%TO.N,CS*%
X216154000Y-132588000D03*
%TO.P,J1,3*%
%TO.N,MOSI*%
X216154000Y-127508000D03*
%TO.P,J1,4*%
%TO.N,MISO*%
X216154000Y-122428000D03*
%TO.P,J1,5*%
%TO.N,SCK*%
X216154000Y-117348000D03*
%TO.P,J1,6*%
%TO.N,D0*%
X216154000Y-112268000D03*
%TO.P,J1,7*%
%TO.N,A0*%
X216154000Y-107188000D03*
%TO.P,J1,8*%
%TO.N,RST*%
X216154000Y-102108000D03*
%TD*%
D13*
%TO.P,J2,1*%
%TO.N,RST*%
X229870000Y-114300000D03*
D14*
%TO.P,J2,2*%
%TO.N,A0*%
X229870000Y-116840000D03*
%TO.P,J2,3*%
%TO.N,D0*%
X229870000Y-119380000D03*
%TO.P,J2,4*%
%TO.N,SCK*%
X229870000Y-121920000D03*
%TO.P,J2,5*%
%TO.N,MISO*%
X229870000Y-124460000D03*
%TO.P,J2,6*%
%TO.N,MOSI*%
X229870000Y-127000000D03*
%TO.P,J2,7*%
%TO.N,CS*%
X229870000Y-129540000D03*
%TO.P,J2,8*%
%TO.N,3v3*%
X229870000Y-132080000D03*
%TD*%
D11*
%TO.P,J3,1*%
%TO.N,GND*%
X257302000Y-88900000D03*
D12*
%TO.P,J3,2*%
%TO.N,5V*%
X257302000Y-93980000D03*
%TD*%
D14*
%TO.P,J7,8*%
%TO.N,5V*%
X243586000Y-131826000D03*
%TO.P,J7,7*%
%TO.N,GND*%
X243586000Y-129286000D03*
%TO.P,J7,6*%
%TO.N,D4*%
X243586000Y-126746000D03*
%TO.P,J7,5*%
%TO.N,D3*%
X243586000Y-124206000D03*
%TO.P,J7,4*%
%TO.N,SDA*%
X243586000Y-121666000D03*
%TO.P,J7,3*%
%TO.N,SCL*%
X243586000Y-119126000D03*
%TO.P,J7,2*%
%TO.N,RX*%
X243586000Y-116586000D03*
D13*
%TO.P,J7,1*%
%TO.N,TX*%
X243586000Y-114046000D03*
%TD*%
D12*
%TO.P,J9,8*%
%TO.N,5V*%
X257048000Y-137414000D03*
%TO.P,J9,7*%
%TO.N,GND*%
X257048000Y-132334000D03*
%TO.P,J9,6*%
%TO.N,D4*%
X257048000Y-127254000D03*
%TO.P,J9,5*%
%TO.N,D3*%
X257048000Y-122174000D03*
%TO.P,J9,4*%
%TO.N,SDA*%
X257048000Y-117094000D03*
%TO.P,J9,3*%
%TO.N,SCL*%
X257048000Y-112014000D03*
%TO.P,J9,2*%
%TO.N,RX*%
X257048000Y-106934000D03*
D11*
%TO.P,J9,1*%
%TO.N,TX*%
X257048000Y-101854000D03*
%TD*%
D15*
%TO.P,U1,2*%
%TO.N,A0*%
X225137001Y-116689001D03*
D16*
%TO.P,U1,1*%
%TO.N,RST*%
X225137001Y-114149001D03*
D15*
%TO.P,U1,3*%
%TO.N,D0*%
X225137001Y-119229001D03*
%TO.P,U1,4*%
%TO.N,SCK*%
X225137001Y-121769001D03*
%TO.P,U1,5*%
%TO.N,MISO*%
X225137001Y-124309001D03*
%TO.P,U1,6*%
%TO.N,MOSI*%
X225137001Y-126849001D03*
%TO.P,U1,7*%
%TO.N,CS*%
X225137001Y-129389001D03*
%TO.P,U1,8*%
%TO.N,3v3*%
X225137001Y-131929001D03*
%TO.P,U1,9*%
%TO.N,5V*%
X247997001Y-131929001D03*
%TO.P,U1,10*%
%TO.N,GND*%
X247997001Y-129389001D03*
%TO.P,U1,11*%
%TO.N,D4*%
X247997001Y-126849001D03*
%TO.P,U1,12*%
%TO.N,D3*%
X247997001Y-124309001D03*
%TO.P,U1,13*%
%TO.N,SDA*%
X247997001Y-121769001D03*
%TO.P,U1,14*%
%TO.N,SCL*%
X247997001Y-119229001D03*
%TO.P,U1,15*%
%TO.N,RX*%
X247997001Y-116689001D03*
%TO.P,U1,16*%
%TO.N,TX*%
X247997001Y-114149001D03*
%TD*%
D13*
%TO.P,I2C,1*%
%TO.N,GND*%
X218186000Y-83312000D03*
D14*
%TO.P,I2C,2*%
%TO.N,3v3*%
X218186000Y-85852000D03*
%TO.P,I2C,3*%
%TO.N,SCL*%
X218186000Y-88392000D03*
%TO.P,I2C,4*%
%TO.N,SDA*%
X218186000Y-90932000D03*
%TD*%
D13*
%TO.P,SPI,1*%
%TO.N,3v3*%
X213519001Y-83067001D03*
D14*
%TO.P,SPI,2*%
%TO.N,CS*%
X213519001Y-85607001D03*
%TO.P,SPI,3*%
%TO.N,MOSI*%
X213519001Y-88147001D03*
%TO.P,SPI,4*%
%TO.N,SCK*%
X213519001Y-90687001D03*
%TO.P,SPI,5*%
%TO.N,MISO*%
X213519001Y-93227001D03*
%TO.P,SPI,6*%
%TO.N,GND*%
X213519001Y-95767001D03*
%TD*%
D17*
%TO.N,3v3*%
X219361001Y-126153001D02*
X225137001Y-131929001D01*
X219361001Y-87027001D02*
X219361001Y-126153001D01*
X218186000Y-85852000D02*
X219361001Y-87027001D01*
%TO.N,GND*%
X218186000Y-83312000D02*
X215900000Y-85598000D01*
X215900000Y-93386002D02*
X213519001Y-95767001D01*
X215900000Y-85598000D02*
X215900000Y-93386002D01*
%TO.N,5V*%
X257048000Y-137414000D02*
X259842000Y-134620000D01*
X259842000Y-96520000D02*
X257302000Y-93980000D01*
X259842000Y-134620000D02*
X259842000Y-96520000D01*
%TD*%
D18*
%TO.N,GND*%
G36*
X263500000Y-141834000D02*
G01*
X209194000Y-141834000D01*
X209194000Y-136418000D01*
X214265928Y-136418000D01*
X214265928Y-138918000D01*
X214278188Y-139042482D01*
X214314498Y-139162180D01*
X214373463Y-139272494D01*
X214452815Y-139369185D01*
X214549506Y-139448537D01*
X214659820Y-139507502D01*
X214779518Y-139543812D01*
X214904000Y-139556072D01*
X217404000Y-139556072D01*
X217528482Y-139543812D01*
X217648180Y-139507502D01*
X217758494Y-139448537D01*
X217855185Y-139369185D01*
X217934537Y-139272494D01*
X217993502Y-139162180D01*
X218029812Y-139042482D01*
X218042072Y-138918000D01*
X218042072Y-137228344D01*
X255163000Y-137228344D01*
X255163000Y-137599656D01*
X255235439Y-137963834D01*
X255377534Y-138306882D01*
X255583825Y-138615618D01*
X255846382Y-138878175D01*
X256155118Y-139084466D01*
X256498166Y-139226561D01*
X256862344Y-139299000D01*
X257233656Y-139299000D01*
X257597834Y-139226561D01*
X257940882Y-139084466D01*
X258249618Y-138878175D01*
X258512175Y-138615618D01*
X258718466Y-138306882D01*
X258860561Y-137963834D01*
X258933000Y-137599656D01*
X258933000Y-137228344D01*
X258860561Y-136864166D01*
X258805519Y-136731283D01*
X260353004Y-135183798D01*
X260382001Y-135160001D01*
X260476974Y-135044276D01*
X260547546Y-134912247D01*
X260591003Y-134768986D01*
X260602000Y-134657333D01*
X260602000Y-134657325D01*
X260605676Y-134620000D01*
X260602000Y-134582675D01*
X260602000Y-96557322D01*
X260605676Y-96519999D01*
X260602000Y-96482676D01*
X260602000Y-96482667D01*
X260591003Y-96371014D01*
X260547546Y-96227753D01*
X260476974Y-96095724D01*
X260463811Y-96079685D01*
X260405799Y-96008996D01*
X260405795Y-96008992D01*
X260382001Y-95979999D01*
X260353008Y-95956205D01*
X259059519Y-94662717D01*
X259114561Y-94529834D01*
X259187000Y-94165656D01*
X259187000Y-93794344D01*
X259114561Y-93430166D01*
X258972466Y-93087118D01*
X258766175Y-92778382D01*
X258503618Y-92515825D01*
X258194882Y-92309534D01*
X257851834Y-92167439D01*
X257487656Y-92095000D01*
X257116344Y-92095000D01*
X256752166Y-92167439D01*
X256409118Y-92309534D01*
X256100382Y-92515825D01*
X255837825Y-92778382D01*
X255631534Y-93087118D01*
X255489439Y-93430166D01*
X255417000Y-93794344D01*
X255417000Y-94165656D01*
X255489439Y-94529834D01*
X255631534Y-94872882D01*
X255837825Y-95181618D01*
X256100382Y-95444175D01*
X256409118Y-95650466D01*
X256752166Y-95792561D01*
X257116344Y-95865000D01*
X257487656Y-95865000D01*
X257851834Y-95792561D01*
X257984717Y-95737519D01*
X259082001Y-96834804D01*
X259082000Y-134305198D01*
X257730717Y-135656481D01*
X257597834Y-135601439D01*
X257233656Y-135529000D01*
X256862344Y-135529000D01*
X256498166Y-135601439D01*
X256155118Y-135743534D01*
X255846382Y-135949825D01*
X255583825Y-136212382D01*
X255377534Y-136521118D01*
X255235439Y-136864166D01*
X255163000Y-137228344D01*
X218042072Y-137228344D01*
X218042072Y-136418000D01*
X218029812Y-136293518D01*
X217993502Y-136173820D01*
X217934537Y-136063506D01*
X217855185Y-135966815D01*
X217758494Y-135887463D01*
X217648180Y-135828498D01*
X217528482Y-135792188D01*
X217404000Y-135779928D01*
X214904000Y-135779928D01*
X214779518Y-135792188D01*
X214659820Y-135828498D01*
X214549506Y-135887463D01*
X214452815Y-135966815D01*
X214373463Y-136063506D01*
X214314498Y-136173820D01*
X214278188Y-136293518D01*
X214265928Y-136418000D01*
X209194000Y-136418000D01*
X209194000Y-132402344D01*
X214269000Y-132402344D01*
X214269000Y-132773656D01*
X214341439Y-133137834D01*
X214483534Y-133480882D01*
X214689825Y-133789618D01*
X214952382Y-134052175D01*
X215261118Y-134258466D01*
X215604166Y-134400561D01*
X215968344Y-134473000D01*
X216339656Y-134473000D01*
X216703834Y-134400561D01*
X217046882Y-134258466D01*
X217355618Y-134052175D01*
X217618175Y-133789618D01*
X217713065Y-133647605D01*
X255914000Y-133647605D01*
X256039914Y-133937577D01*
X256372126Y-134103433D01*
X256730312Y-134201290D01*
X257100706Y-134227389D01*
X257469075Y-134180725D01*
X257821262Y-134063094D01*
X258056086Y-133937577D01*
X258182000Y-133647605D01*
X257048000Y-132513605D01*
X255914000Y-133647605D01*
X217713065Y-133647605D01*
X217824466Y-133480882D01*
X217966561Y-133137834D01*
X218039000Y-132773656D01*
X218039000Y-132402344D01*
X217966561Y-132038166D01*
X217824466Y-131695118D01*
X217618175Y-131386382D01*
X217355618Y-131123825D01*
X217046882Y-130917534D01*
X216703834Y-130775439D01*
X216339656Y-130703000D01*
X215968344Y-130703000D01*
X215604166Y-130775439D01*
X215261118Y-130917534D01*
X214952382Y-131123825D01*
X214689825Y-131386382D01*
X214483534Y-131695118D01*
X214341439Y-132038166D01*
X214269000Y-132402344D01*
X209194000Y-132402344D01*
X209194000Y-127322344D01*
X214269000Y-127322344D01*
X214269000Y-127693656D01*
X214341439Y-128057834D01*
X214483534Y-128400882D01*
X214689825Y-128709618D01*
X214952382Y-128972175D01*
X215261118Y-129178466D01*
X215604166Y-129320561D01*
X215968344Y-129393000D01*
X216339656Y-129393000D01*
X216703834Y-129320561D01*
X217046882Y-129178466D01*
X217355618Y-128972175D01*
X217618175Y-128709618D01*
X217824466Y-128400882D01*
X217966561Y-128057834D01*
X218039000Y-127693656D01*
X218039000Y-127322344D01*
X217966561Y-126958166D01*
X217824466Y-126615118D01*
X217618175Y-126306382D01*
X217355618Y-126043825D01*
X217046882Y-125837534D01*
X216703834Y-125695439D01*
X216339656Y-125623000D01*
X215968344Y-125623000D01*
X215604166Y-125695439D01*
X215261118Y-125837534D01*
X214952382Y-126043825D01*
X214689825Y-126306382D01*
X214483534Y-126615118D01*
X214341439Y-126958166D01*
X214269000Y-127322344D01*
X209194000Y-127322344D01*
X209194000Y-122242344D01*
X214269000Y-122242344D01*
X214269000Y-122613656D01*
X214341439Y-122977834D01*
X214483534Y-123320882D01*
X214689825Y-123629618D01*
X214952382Y-123892175D01*
X215261118Y-124098466D01*
X215604166Y-124240561D01*
X215968344Y-124313000D01*
X216339656Y-124313000D01*
X216703834Y-124240561D01*
X217046882Y-124098466D01*
X217355618Y-123892175D01*
X217618175Y-123629618D01*
X217824466Y-123320882D01*
X217966561Y-122977834D01*
X218039000Y-122613656D01*
X218039000Y-122242344D01*
X217966561Y-121878166D01*
X217824466Y-121535118D01*
X217618175Y-121226382D01*
X217355618Y-120963825D01*
X217046882Y-120757534D01*
X216703834Y-120615439D01*
X216339656Y-120543000D01*
X215968344Y-120543000D01*
X215604166Y-120615439D01*
X215261118Y-120757534D01*
X214952382Y-120963825D01*
X214689825Y-121226382D01*
X214483534Y-121535118D01*
X214341439Y-121878166D01*
X214269000Y-122242344D01*
X209194000Y-122242344D01*
X209194000Y-117162344D01*
X214269000Y-117162344D01*
X214269000Y-117533656D01*
X214341439Y-117897834D01*
X214483534Y-118240882D01*
X214689825Y-118549618D01*
X214952382Y-118812175D01*
X215261118Y-119018466D01*
X215604166Y-119160561D01*
X215968344Y-119233000D01*
X216339656Y-119233000D01*
X216703834Y-119160561D01*
X217046882Y-119018466D01*
X217355618Y-118812175D01*
X217618175Y-118549618D01*
X217824466Y-118240882D01*
X217966561Y-117897834D01*
X218039000Y-117533656D01*
X218039000Y-117162344D01*
X217966561Y-116798166D01*
X217824466Y-116455118D01*
X217618175Y-116146382D01*
X217355618Y-115883825D01*
X217046882Y-115677534D01*
X216703834Y-115535439D01*
X216339656Y-115463000D01*
X215968344Y-115463000D01*
X215604166Y-115535439D01*
X215261118Y-115677534D01*
X214952382Y-115883825D01*
X214689825Y-116146382D01*
X214483534Y-116455118D01*
X214341439Y-116798166D01*
X214269000Y-117162344D01*
X209194000Y-117162344D01*
X209194000Y-112082344D01*
X214269000Y-112082344D01*
X214269000Y-112453656D01*
X214341439Y-112817834D01*
X214483534Y-113160882D01*
X214689825Y-113469618D01*
X214952382Y-113732175D01*
X215261118Y-113938466D01*
X215604166Y-114080561D01*
X215968344Y-114153000D01*
X216339656Y-114153000D01*
X216703834Y-114080561D01*
X217046882Y-113938466D01*
X217355618Y-113732175D01*
X217618175Y-113469618D01*
X217824466Y-113160882D01*
X217966561Y-112817834D01*
X218039000Y-112453656D01*
X218039000Y-112082344D01*
X217966561Y-111718166D01*
X217824466Y-111375118D01*
X217618175Y-111066382D01*
X217355618Y-110803825D01*
X217046882Y-110597534D01*
X216703834Y-110455439D01*
X216339656Y-110383000D01*
X215968344Y-110383000D01*
X215604166Y-110455439D01*
X215261118Y-110597534D01*
X214952382Y-110803825D01*
X214689825Y-111066382D01*
X214483534Y-111375118D01*
X214341439Y-111718166D01*
X214269000Y-112082344D01*
X209194000Y-112082344D01*
X209194000Y-107002344D01*
X214269000Y-107002344D01*
X214269000Y-107373656D01*
X214341439Y-107737834D01*
X214483534Y-108080882D01*
X214689825Y-108389618D01*
X214952382Y-108652175D01*
X215261118Y-108858466D01*
X215604166Y-109000561D01*
X215968344Y-109073000D01*
X216339656Y-109073000D01*
X216703834Y-109000561D01*
X217046882Y-108858466D01*
X217355618Y-108652175D01*
X217618175Y-108389618D01*
X217824466Y-108080882D01*
X217966561Y-107737834D01*
X218039000Y-107373656D01*
X218039000Y-107002344D01*
X217966561Y-106638166D01*
X217824466Y-106295118D01*
X217618175Y-105986382D01*
X217355618Y-105723825D01*
X217046882Y-105517534D01*
X216703834Y-105375439D01*
X216339656Y-105303000D01*
X215968344Y-105303000D01*
X215604166Y-105375439D01*
X215261118Y-105517534D01*
X214952382Y-105723825D01*
X214689825Y-105986382D01*
X214483534Y-106295118D01*
X214341439Y-106638166D01*
X214269000Y-107002344D01*
X209194000Y-107002344D01*
X209194000Y-101922344D01*
X214269000Y-101922344D01*
X214269000Y-102293656D01*
X214341439Y-102657834D01*
X214483534Y-103000882D01*
X214689825Y-103309618D01*
X214952382Y-103572175D01*
X215261118Y-103778466D01*
X215604166Y-103920561D01*
X215968344Y-103993000D01*
X216339656Y-103993000D01*
X216703834Y-103920561D01*
X217046882Y-103778466D01*
X217355618Y-103572175D01*
X217618175Y-103309618D01*
X217824466Y-103000882D01*
X217966561Y-102657834D01*
X218039000Y-102293656D01*
X218039000Y-101922344D01*
X217966561Y-101558166D01*
X217824466Y-101215118D01*
X217618175Y-100906382D01*
X217355618Y-100643825D01*
X217046882Y-100437534D01*
X216703834Y-100295439D01*
X216339656Y-100223000D01*
X215968344Y-100223000D01*
X215604166Y-100295439D01*
X215261118Y-100437534D01*
X214952382Y-100643825D01*
X214689825Y-100906382D01*
X214483534Y-101215118D01*
X214341439Y-101558166D01*
X214269000Y-101922344D01*
X209194000Y-101922344D01*
X209194000Y-96123891D01*
X212077525Y-96123891D01*
X212122176Y-96271100D01*
X212247360Y-96533921D01*
X212421413Y-96767270D01*
X212637646Y-96962179D01*
X212887749Y-97111158D01*
X213162110Y-97208482D01*
X213392001Y-97087815D01*
X213392001Y-95894001D01*
X213646001Y-95894001D01*
X213646001Y-97087815D01*
X213875892Y-97208482D01*
X214150253Y-97111158D01*
X214400356Y-96962179D01*
X214616589Y-96767270D01*
X214790642Y-96533921D01*
X214915826Y-96271100D01*
X214960477Y-96123891D01*
X214839156Y-95894001D01*
X213646001Y-95894001D01*
X213392001Y-95894001D01*
X212198846Y-95894001D01*
X212077525Y-96123891D01*
X209194000Y-96123891D01*
X209194000Y-82217001D01*
X212030929Y-82217001D01*
X212030929Y-83917001D01*
X212043189Y-84041483D01*
X212079499Y-84161181D01*
X212138464Y-84271495D01*
X212217816Y-84368186D01*
X212314507Y-84447538D01*
X212424821Y-84506503D01*
X212497381Y-84528514D01*
X212365526Y-84660369D01*
X212203011Y-84903590D01*
X212091069Y-85173843D01*
X212034001Y-85460741D01*
X212034001Y-85753261D01*
X212091069Y-86040159D01*
X212203011Y-86310412D01*
X212365526Y-86553633D01*
X212572369Y-86760476D01*
X212746761Y-86877001D01*
X212572369Y-86993526D01*
X212365526Y-87200369D01*
X212203011Y-87443590D01*
X212091069Y-87713843D01*
X212034001Y-88000741D01*
X212034001Y-88293261D01*
X212091069Y-88580159D01*
X212203011Y-88850412D01*
X212365526Y-89093633D01*
X212572369Y-89300476D01*
X212746761Y-89417001D01*
X212572369Y-89533526D01*
X212365526Y-89740369D01*
X212203011Y-89983590D01*
X212091069Y-90253843D01*
X212034001Y-90540741D01*
X212034001Y-90833261D01*
X212091069Y-91120159D01*
X212203011Y-91390412D01*
X212365526Y-91633633D01*
X212572369Y-91840476D01*
X212746761Y-91957001D01*
X212572369Y-92073526D01*
X212365526Y-92280369D01*
X212203011Y-92523590D01*
X212091069Y-92793843D01*
X212034001Y-93080741D01*
X212034001Y-93373261D01*
X212091069Y-93660159D01*
X212203011Y-93930412D01*
X212365526Y-94173633D01*
X212572369Y-94380476D01*
X212754535Y-94502196D01*
X212637646Y-94571823D01*
X212421413Y-94766732D01*
X212247360Y-95000081D01*
X212122176Y-95262902D01*
X212077525Y-95410111D01*
X212198846Y-95640001D01*
X213392001Y-95640001D01*
X213392001Y-95620001D01*
X213646001Y-95620001D01*
X213646001Y-95640001D01*
X214839156Y-95640001D01*
X214960477Y-95410111D01*
X214915826Y-95262902D01*
X214790642Y-95000081D01*
X214616589Y-94766732D01*
X214400356Y-94571823D01*
X214283467Y-94502196D01*
X214465633Y-94380476D01*
X214672476Y-94173633D01*
X214834991Y-93930412D01*
X214946933Y-93660159D01*
X215004001Y-93373261D01*
X215004001Y-93080741D01*
X214946933Y-92793843D01*
X214834991Y-92523590D01*
X214672476Y-92280369D01*
X214465633Y-92073526D01*
X214291241Y-91957001D01*
X214465633Y-91840476D01*
X214672476Y-91633633D01*
X214834991Y-91390412D01*
X214946933Y-91120159D01*
X215004001Y-90833261D01*
X215004001Y-90540741D01*
X214946933Y-90253843D01*
X214834991Y-89983590D01*
X214672476Y-89740369D01*
X214465633Y-89533526D01*
X214291241Y-89417001D01*
X214465633Y-89300476D01*
X214672476Y-89093633D01*
X214834991Y-88850412D01*
X214946933Y-88580159D01*
X215004001Y-88293261D01*
X215004001Y-88000741D01*
X214946933Y-87713843D01*
X214834991Y-87443590D01*
X214672476Y-87200369D01*
X214465633Y-86993526D01*
X214291241Y-86877001D01*
X214465633Y-86760476D01*
X214672476Y-86553633D01*
X214834991Y-86310412D01*
X214946933Y-86040159D01*
X215004001Y-85753261D01*
X215004001Y-85460741D01*
X214946933Y-85173843D01*
X214834991Y-84903590D01*
X214672476Y-84660369D01*
X214540621Y-84528514D01*
X214613181Y-84506503D01*
X214723495Y-84447538D01*
X214820186Y-84368186D01*
X214899538Y-84271495D01*
X214958065Y-84162000D01*
X216697928Y-84162000D01*
X216710188Y-84286482D01*
X216746498Y-84406180D01*
X216805463Y-84516494D01*
X216884815Y-84613185D01*
X216981506Y-84692537D01*
X217091820Y-84751502D01*
X217164380Y-84773513D01*
X217032525Y-84905368D01*
X216870010Y-85148589D01*
X216758068Y-85418842D01*
X216701000Y-85705740D01*
X216701000Y-85998260D01*
X216758068Y-86285158D01*
X216870010Y-86555411D01*
X217032525Y-86798632D01*
X217239368Y-87005475D01*
X217413760Y-87122000D01*
X217239368Y-87238525D01*
X217032525Y-87445368D01*
X216870010Y-87688589D01*
X216758068Y-87958842D01*
X216701000Y-88245740D01*
X216701000Y-88538260D01*
X216758068Y-88825158D01*
X216870010Y-89095411D01*
X217032525Y-89338632D01*
X217239368Y-89545475D01*
X217413760Y-89662000D01*
X217239368Y-89778525D01*
X217032525Y-89985368D01*
X216870010Y-90228589D01*
X216758068Y-90498842D01*
X216701000Y-90785740D01*
X216701000Y-91078260D01*
X216758068Y-91365158D01*
X216870010Y-91635411D01*
X217032525Y-91878632D01*
X217239368Y-92085475D01*
X217482589Y-92247990D01*
X217752842Y-92359932D01*
X218039740Y-92417000D01*
X218332260Y-92417000D01*
X218601001Y-92363544D01*
X218601002Y-126115668D01*
X218597325Y-126153001D01*
X218611999Y-126301986D01*
X218655455Y-126445247D01*
X218726027Y-126577277D01*
X218757083Y-126615118D01*
X218821001Y-126693002D01*
X218849999Y-126716800D01*
X223582842Y-131449643D01*
X223522765Y-131647692D01*
X223495058Y-131929001D01*
X223522765Y-132210310D01*
X223604819Y-132480809D01*
X223738069Y-132730102D01*
X223917393Y-132948609D01*
X224135900Y-133127933D01*
X224385193Y-133261183D01*
X224655692Y-133343237D01*
X224866509Y-133364001D01*
X225407493Y-133364001D01*
X225618310Y-133343237D01*
X225888809Y-133261183D01*
X226138102Y-133127933D01*
X226356609Y-132948609D01*
X226535933Y-132730102D01*
X226669183Y-132480809D01*
X226751237Y-132210310D01*
X226778944Y-131929001D01*
X226751237Y-131647692D01*
X226669183Y-131377193D01*
X226535933Y-131127900D01*
X226356609Y-130909393D01*
X226138102Y-130730069D01*
X226005143Y-130659001D01*
X226138102Y-130587933D01*
X226356609Y-130408609D01*
X226535933Y-130190102D01*
X226669183Y-129940809D01*
X226751237Y-129670310D01*
X226778944Y-129389001D01*
X226751237Y-129107692D01*
X226669183Y-128837193D01*
X226535933Y-128587900D01*
X226356609Y-128369393D01*
X226138102Y-128190069D01*
X226005143Y-128119001D01*
X226138102Y-128047933D01*
X226356609Y-127868609D01*
X226535933Y-127650102D01*
X226669183Y-127400809D01*
X226751237Y-127130310D01*
X226778944Y-126849001D01*
X226751237Y-126567692D01*
X226669183Y-126297193D01*
X226535933Y-126047900D01*
X226356609Y-125829393D01*
X226138102Y-125650069D01*
X226005143Y-125579001D01*
X226138102Y-125507933D01*
X226356609Y-125328609D01*
X226535933Y-125110102D01*
X226669183Y-124860809D01*
X226751237Y-124590310D01*
X226778944Y-124309001D01*
X226751237Y-124027692D01*
X226669183Y-123757193D01*
X226535933Y-123507900D01*
X226356609Y-123289393D01*
X226138102Y-123110069D01*
X226005143Y-123039001D01*
X226138102Y-122967933D01*
X226356609Y-122788609D01*
X226535933Y-122570102D01*
X226669183Y-122320809D01*
X226751237Y-122050310D01*
X226778944Y-121769001D01*
X226751237Y-121487692D01*
X226669183Y-121217193D01*
X226535933Y-120967900D01*
X226356609Y-120749393D01*
X226138102Y-120570069D01*
X226005143Y-120499001D01*
X226138102Y-120427933D01*
X226356609Y-120248609D01*
X226535933Y-120030102D01*
X226669183Y-119780809D01*
X226751237Y-119510310D01*
X226778944Y-119229001D01*
X226751237Y-118947692D01*
X226669183Y-118677193D01*
X226535933Y-118427900D01*
X226356609Y-118209393D01*
X226138102Y-118030069D01*
X226005143Y-117959001D01*
X226138102Y-117887933D01*
X226356609Y-117708609D01*
X226535933Y-117490102D01*
X226669183Y-117240809D01*
X226751237Y-116970310D01*
X226778944Y-116689001D01*
X226751237Y-116407692D01*
X226669183Y-116137193D01*
X226535933Y-115887900D01*
X226403525Y-115726560D01*
X226491495Y-115679538D01*
X226588186Y-115600186D01*
X226667538Y-115503495D01*
X226726503Y-115393181D01*
X226762813Y-115273483D01*
X226775073Y-115149001D01*
X226775073Y-113450000D01*
X228381928Y-113450000D01*
X228381928Y-115150000D01*
X228394188Y-115274482D01*
X228430498Y-115394180D01*
X228489463Y-115504494D01*
X228568815Y-115601185D01*
X228665506Y-115680537D01*
X228775820Y-115739502D01*
X228848380Y-115761513D01*
X228716525Y-115893368D01*
X228554010Y-116136589D01*
X228442068Y-116406842D01*
X228385000Y-116693740D01*
X228385000Y-116986260D01*
X228442068Y-117273158D01*
X228554010Y-117543411D01*
X228716525Y-117786632D01*
X228923368Y-117993475D01*
X229097760Y-118110000D01*
X228923368Y-118226525D01*
X228716525Y-118433368D01*
X228554010Y-118676589D01*
X228442068Y-118946842D01*
X228385000Y-119233740D01*
X228385000Y-119526260D01*
X228442068Y-119813158D01*
X228554010Y-120083411D01*
X228716525Y-120326632D01*
X228923368Y-120533475D01*
X229097760Y-120650000D01*
X228923368Y-120766525D01*
X228716525Y-120973368D01*
X228554010Y-121216589D01*
X228442068Y-121486842D01*
X228385000Y-121773740D01*
X228385000Y-122066260D01*
X228442068Y-122353158D01*
X228554010Y-122623411D01*
X228716525Y-122866632D01*
X228923368Y-123073475D01*
X229097760Y-123190000D01*
X228923368Y-123306525D01*
X228716525Y-123513368D01*
X228554010Y-123756589D01*
X228442068Y-124026842D01*
X228385000Y-124313740D01*
X228385000Y-124606260D01*
X228442068Y-124893158D01*
X228554010Y-125163411D01*
X228716525Y-125406632D01*
X228923368Y-125613475D01*
X229097760Y-125730000D01*
X228923368Y-125846525D01*
X228716525Y-126053368D01*
X228554010Y-126296589D01*
X228442068Y-126566842D01*
X228385000Y-126853740D01*
X228385000Y-127146260D01*
X228442068Y-127433158D01*
X228554010Y-127703411D01*
X228716525Y-127946632D01*
X228923368Y-128153475D01*
X229097760Y-128270000D01*
X228923368Y-128386525D01*
X228716525Y-128593368D01*
X228554010Y-128836589D01*
X228442068Y-129106842D01*
X228385000Y-129393740D01*
X228385000Y-129686260D01*
X228442068Y-129973158D01*
X228554010Y-130243411D01*
X228716525Y-130486632D01*
X228923368Y-130693475D01*
X229097760Y-130810000D01*
X228923368Y-130926525D01*
X228716525Y-131133368D01*
X228554010Y-131376589D01*
X228442068Y-131646842D01*
X228385000Y-131933740D01*
X228385000Y-132226260D01*
X228442068Y-132513158D01*
X228554010Y-132783411D01*
X228716525Y-133026632D01*
X228923368Y-133233475D01*
X229166589Y-133395990D01*
X229436842Y-133507932D01*
X229723740Y-133565000D01*
X230016260Y-133565000D01*
X230303158Y-133507932D01*
X230573411Y-133395990D01*
X230816632Y-133233475D01*
X231023475Y-133026632D01*
X231185990Y-132783411D01*
X231297932Y-132513158D01*
X231355000Y-132226260D01*
X231355000Y-131933740D01*
X231304476Y-131679740D01*
X242101000Y-131679740D01*
X242101000Y-131972260D01*
X242158068Y-132259158D01*
X242270010Y-132529411D01*
X242432525Y-132772632D01*
X242639368Y-132979475D01*
X242882589Y-133141990D01*
X243152842Y-133253932D01*
X243439740Y-133311000D01*
X243732260Y-133311000D01*
X244019158Y-133253932D01*
X244289411Y-133141990D01*
X244532632Y-132979475D01*
X244739475Y-132772632D01*
X244901990Y-132529411D01*
X245013932Y-132259158D01*
X245071000Y-131972260D01*
X245071000Y-131929001D01*
X246355058Y-131929001D01*
X246382765Y-132210310D01*
X246464819Y-132480809D01*
X246598069Y-132730102D01*
X246777393Y-132948609D01*
X246995900Y-133127933D01*
X247245193Y-133261183D01*
X247515692Y-133343237D01*
X247726509Y-133364001D01*
X248267493Y-133364001D01*
X248478310Y-133343237D01*
X248748809Y-133261183D01*
X248998102Y-133127933D01*
X249216609Y-132948609D01*
X249395933Y-132730102D01*
X249529183Y-132480809D01*
X249557728Y-132386706D01*
X255154611Y-132386706D01*
X255201275Y-132755075D01*
X255318906Y-133107262D01*
X255444423Y-133342086D01*
X255734395Y-133468000D01*
X256868395Y-132334000D01*
X257227605Y-132334000D01*
X258361605Y-133468000D01*
X258651577Y-133342086D01*
X258817433Y-133009874D01*
X258915290Y-132651688D01*
X258941389Y-132281294D01*
X258894725Y-131912925D01*
X258777094Y-131560738D01*
X258651577Y-131325914D01*
X258361605Y-131200000D01*
X257227605Y-132334000D01*
X256868395Y-132334000D01*
X255734395Y-131200000D01*
X255444423Y-131325914D01*
X255278567Y-131658126D01*
X255180710Y-132016312D01*
X255154611Y-132386706D01*
X249557728Y-132386706D01*
X249611237Y-132210310D01*
X249638944Y-131929001D01*
X249611237Y-131647692D01*
X249529183Y-131377193D01*
X249395933Y-131127900D01*
X249307706Y-131020395D01*
X255914000Y-131020395D01*
X257048000Y-132154395D01*
X258182000Y-131020395D01*
X258056086Y-130730423D01*
X257723874Y-130564567D01*
X257365688Y-130466710D01*
X256995294Y-130440611D01*
X256626925Y-130487275D01*
X256274738Y-130604906D01*
X256039914Y-130730423D01*
X255914000Y-131020395D01*
X249307706Y-131020395D01*
X249216609Y-130909393D01*
X248998102Y-130730069D01*
X248868656Y-130660879D01*
X248886228Y-130653431D01*
X249119663Y-130494674D01*
X249317640Y-130293426D01*
X249472552Y-130057422D01*
X249578445Y-129795731D01*
X249588905Y-129738040D01*
X249466916Y-129516001D01*
X248124001Y-129516001D01*
X248124001Y-129536001D01*
X247870001Y-129536001D01*
X247870001Y-129516001D01*
X246527086Y-129516001D01*
X246405097Y-129738040D01*
X246415557Y-129795731D01*
X246521450Y-130057422D01*
X246676362Y-130293426D01*
X246874339Y-130494674D01*
X247107774Y-130653431D01*
X247125346Y-130660879D01*
X246995900Y-130730069D01*
X246777393Y-130909393D01*
X246598069Y-131127900D01*
X246464819Y-131377193D01*
X246382765Y-131647692D01*
X246355058Y-131929001D01*
X245071000Y-131929001D01*
X245071000Y-131679740D01*
X245013932Y-131392842D01*
X244901990Y-131122589D01*
X244739475Y-130879368D01*
X244532632Y-130672525D01*
X244350466Y-130550805D01*
X244467355Y-130481178D01*
X244683588Y-130286269D01*
X244857641Y-130052920D01*
X244982825Y-129790099D01*
X245027476Y-129642890D01*
X244906155Y-129413000D01*
X243713000Y-129413000D01*
X243713000Y-129433000D01*
X243459000Y-129433000D01*
X243459000Y-129413000D01*
X242265845Y-129413000D01*
X242144524Y-129642890D01*
X242189175Y-129790099D01*
X242314359Y-130052920D01*
X242488412Y-130286269D01*
X242704645Y-130481178D01*
X242821534Y-130550805D01*
X242639368Y-130672525D01*
X242432525Y-130879368D01*
X242270010Y-131122589D01*
X242158068Y-131392842D01*
X242101000Y-131679740D01*
X231304476Y-131679740D01*
X231297932Y-131646842D01*
X231185990Y-131376589D01*
X231023475Y-131133368D01*
X230816632Y-130926525D01*
X230642240Y-130810000D01*
X230816632Y-130693475D01*
X231023475Y-130486632D01*
X231185990Y-130243411D01*
X231297932Y-129973158D01*
X231355000Y-129686260D01*
X231355000Y-129393740D01*
X231297932Y-129106842D01*
X231185990Y-128836589D01*
X231023475Y-128593368D01*
X230816632Y-128386525D01*
X230642240Y-128270000D01*
X230816632Y-128153475D01*
X231023475Y-127946632D01*
X231185990Y-127703411D01*
X231297932Y-127433158D01*
X231355000Y-127146260D01*
X231355000Y-126853740D01*
X231297932Y-126566842D01*
X231185990Y-126296589D01*
X231023475Y-126053368D01*
X230816632Y-125846525D01*
X230642240Y-125730000D01*
X230816632Y-125613475D01*
X231023475Y-125406632D01*
X231185990Y-125163411D01*
X231297932Y-124893158D01*
X231355000Y-124606260D01*
X231355000Y-124313740D01*
X231297932Y-124026842D01*
X231185990Y-123756589D01*
X231023475Y-123513368D01*
X230816632Y-123306525D01*
X230642240Y-123190000D01*
X230816632Y-123073475D01*
X231023475Y-122866632D01*
X231185990Y-122623411D01*
X231297932Y-122353158D01*
X231355000Y-122066260D01*
X231355000Y-121773740D01*
X231297932Y-121486842D01*
X231185990Y-121216589D01*
X231023475Y-120973368D01*
X230816632Y-120766525D01*
X230642240Y-120650000D01*
X230816632Y-120533475D01*
X231023475Y-120326632D01*
X231185990Y-120083411D01*
X231297932Y-119813158D01*
X231355000Y-119526260D01*
X231355000Y-119233740D01*
X231297932Y-118946842D01*
X231185990Y-118676589D01*
X231023475Y-118433368D01*
X230816632Y-118226525D01*
X230642240Y-118110000D01*
X230816632Y-117993475D01*
X231023475Y-117786632D01*
X231185990Y-117543411D01*
X231297932Y-117273158D01*
X231355000Y-116986260D01*
X231355000Y-116693740D01*
X231297932Y-116406842D01*
X231185990Y-116136589D01*
X231023475Y-115893368D01*
X230891620Y-115761513D01*
X230964180Y-115739502D01*
X231074494Y-115680537D01*
X231171185Y-115601185D01*
X231250537Y-115504494D01*
X231309502Y-115394180D01*
X231345812Y-115274482D01*
X231358072Y-115150000D01*
X231358072Y-113450000D01*
X231345812Y-113325518D01*
X231309502Y-113205820D01*
X231304254Y-113196000D01*
X242097928Y-113196000D01*
X242097928Y-114896000D01*
X242110188Y-115020482D01*
X242146498Y-115140180D01*
X242205463Y-115250494D01*
X242284815Y-115347185D01*
X242381506Y-115426537D01*
X242491820Y-115485502D01*
X242564380Y-115507513D01*
X242432525Y-115639368D01*
X242270010Y-115882589D01*
X242158068Y-116152842D01*
X242101000Y-116439740D01*
X242101000Y-116732260D01*
X242158068Y-117019158D01*
X242270010Y-117289411D01*
X242432525Y-117532632D01*
X242639368Y-117739475D01*
X242813760Y-117856000D01*
X242639368Y-117972525D01*
X242432525Y-118179368D01*
X242270010Y-118422589D01*
X242158068Y-118692842D01*
X242101000Y-118979740D01*
X242101000Y-119272260D01*
X242158068Y-119559158D01*
X242270010Y-119829411D01*
X242432525Y-120072632D01*
X242639368Y-120279475D01*
X242813760Y-120396000D01*
X242639368Y-120512525D01*
X242432525Y-120719368D01*
X242270010Y-120962589D01*
X242158068Y-121232842D01*
X242101000Y-121519740D01*
X242101000Y-121812260D01*
X242158068Y-122099158D01*
X242270010Y-122369411D01*
X242432525Y-122612632D01*
X242639368Y-122819475D01*
X242813760Y-122936000D01*
X242639368Y-123052525D01*
X242432525Y-123259368D01*
X242270010Y-123502589D01*
X242158068Y-123772842D01*
X242101000Y-124059740D01*
X242101000Y-124352260D01*
X242158068Y-124639158D01*
X242270010Y-124909411D01*
X242432525Y-125152632D01*
X242639368Y-125359475D01*
X242813760Y-125476000D01*
X242639368Y-125592525D01*
X242432525Y-125799368D01*
X242270010Y-126042589D01*
X242158068Y-126312842D01*
X242101000Y-126599740D01*
X242101000Y-126892260D01*
X242158068Y-127179158D01*
X242270010Y-127449411D01*
X242432525Y-127692632D01*
X242639368Y-127899475D01*
X242821534Y-128021195D01*
X242704645Y-128090822D01*
X242488412Y-128285731D01*
X242314359Y-128519080D01*
X242189175Y-128781901D01*
X242144524Y-128929110D01*
X242265845Y-129159000D01*
X243459000Y-129159000D01*
X243459000Y-129139000D01*
X243713000Y-129139000D01*
X243713000Y-129159000D01*
X244906155Y-129159000D01*
X245027476Y-128929110D01*
X244982825Y-128781901D01*
X244857641Y-128519080D01*
X244683588Y-128285731D01*
X244467355Y-128090822D01*
X244350466Y-128021195D01*
X244532632Y-127899475D01*
X244739475Y-127692632D01*
X244901990Y-127449411D01*
X245013932Y-127179158D01*
X245071000Y-126892260D01*
X245071000Y-126599740D01*
X245013932Y-126312842D01*
X244901990Y-126042589D01*
X244739475Y-125799368D01*
X244532632Y-125592525D01*
X244358240Y-125476000D01*
X244532632Y-125359475D01*
X244739475Y-125152632D01*
X244901990Y-124909411D01*
X245013932Y-124639158D01*
X245071000Y-124352260D01*
X245071000Y-124059740D01*
X245013932Y-123772842D01*
X244901990Y-123502589D01*
X244739475Y-123259368D01*
X244532632Y-123052525D01*
X244358240Y-122936000D01*
X244532632Y-122819475D01*
X244739475Y-122612632D01*
X244901990Y-122369411D01*
X245013932Y-122099158D01*
X245071000Y-121812260D01*
X245071000Y-121519740D01*
X245013932Y-121232842D01*
X244901990Y-120962589D01*
X244739475Y-120719368D01*
X244532632Y-120512525D01*
X244358240Y-120396000D01*
X244532632Y-120279475D01*
X244739475Y-120072632D01*
X244901990Y-119829411D01*
X245013932Y-119559158D01*
X245071000Y-119272260D01*
X245071000Y-118979740D01*
X245013932Y-118692842D01*
X244901990Y-118422589D01*
X244739475Y-118179368D01*
X244532632Y-117972525D01*
X244358240Y-117856000D01*
X244532632Y-117739475D01*
X244739475Y-117532632D01*
X244901990Y-117289411D01*
X245013932Y-117019158D01*
X245071000Y-116732260D01*
X245071000Y-116439740D01*
X245013932Y-116152842D01*
X244901990Y-115882589D01*
X244739475Y-115639368D01*
X244607620Y-115507513D01*
X244680180Y-115485502D01*
X244790494Y-115426537D01*
X244887185Y-115347185D01*
X244966537Y-115250494D01*
X245025502Y-115140180D01*
X245061812Y-115020482D01*
X245074072Y-114896000D01*
X245074072Y-114149001D01*
X246355058Y-114149001D01*
X246382765Y-114430310D01*
X246464819Y-114700809D01*
X246598069Y-114950102D01*
X246777393Y-115168609D01*
X246995900Y-115347933D01*
X247128859Y-115419001D01*
X246995900Y-115490069D01*
X246777393Y-115669393D01*
X246598069Y-115887900D01*
X246464819Y-116137193D01*
X246382765Y-116407692D01*
X246355058Y-116689001D01*
X246382765Y-116970310D01*
X246464819Y-117240809D01*
X246598069Y-117490102D01*
X246777393Y-117708609D01*
X246995900Y-117887933D01*
X247128859Y-117959001D01*
X246995900Y-118030069D01*
X246777393Y-118209393D01*
X246598069Y-118427900D01*
X246464819Y-118677193D01*
X246382765Y-118947692D01*
X246355058Y-119229001D01*
X246382765Y-119510310D01*
X246464819Y-119780809D01*
X246598069Y-120030102D01*
X246777393Y-120248609D01*
X246995900Y-120427933D01*
X247128859Y-120499001D01*
X246995900Y-120570069D01*
X246777393Y-120749393D01*
X246598069Y-120967900D01*
X246464819Y-121217193D01*
X246382765Y-121487692D01*
X246355058Y-121769001D01*
X246382765Y-122050310D01*
X246464819Y-122320809D01*
X246598069Y-122570102D01*
X246777393Y-122788609D01*
X246995900Y-122967933D01*
X247128859Y-123039001D01*
X246995900Y-123110069D01*
X246777393Y-123289393D01*
X246598069Y-123507900D01*
X246464819Y-123757193D01*
X246382765Y-124027692D01*
X246355058Y-124309001D01*
X246382765Y-124590310D01*
X246464819Y-124860809D01*
X246598069Y-125110102D01*
X246777393Y-125328609D01*
X246995900Y-125507933D01*
X247128859Y-125579001D01*
X246995900Y-125650069D01*
X246777393Y-125829393D01*
X246598069Y-126047900D01*
X246464819Y-126297193D01*
X246382765Y-126567692D01*
X246355058Y-126849001D01*
X246382765Y-127130310D01*
X246464819Y-127400809D01*
X246598069Y-127650102D01*
X246777393Y-127868609D01*
X246995900Y-128047933D01*
X247125346Y-128117123D01*
X247107774Y-128124571D01*
X246874339Y-128283328D01*
X246676362Y-128484576D01*
X246521450Y-128720580D01*
X246415557Y-128982271D01*
X246405097Y-129039962D01*
X246527086Y-129262001D01*
X247870001Y-129262001D01*
X247870001Y-129242001D01*
X248124001Y-129242001D01*
X248124001Y-129262001D01*
X249466916Y-129262001D01*
X249588905Y-129039962D01*
X249578445Y-128982271D01*
X249472552Y-128720580D01*
X249317640Y-128484576D01*
X249119663Y-128283328D01*
X248886228Y-128124571D01*
X248868656Y-128117123D01*
X248998102Y-128047933D01*
X249216609Y-127868609D01*
X249395933Y-127650102D01*
X249529183Y-127400809D01*
X249611237Y-127130310D01*
X249617340Y-127068344D01*
X255163000Y-127068344D01*
X255163000Y-127439656D01*
X255235439Y-127803834D01*
X255377534Y-128146882D01*
X255583825Y-128455618D01*
X255846382Y-128718175D01*
X256155118Y-128924466D01*
X256498166Y-129066561D01*
X256862344Y-129139000D01*
X257233656Y-129139000D01*
X257597834Y-129066561D01*
X257940882Y-128924466D01*
X258249618Y-128718175D01*
X258512175Y-128455618D01*
X258718466Y-128146882D01*
X258860561Y-127803834D01*
X258933000Y-127439656D01*
X258933000Y-127068344D01*
X258860561Y-126704166D01*
X258718466Y-126361118D01*
X258512175Y-126052382D01*
X258249618Y-125789825D01*
X257940882Y-125583534D01*
X257597834Y-125441439D01*
X257233656Y-125369000D01*
X256862344Y-125369000D01*
X256498166Y-125441439D01*
X256155118Y-125583534D01*
X255846382Y-125789825D01*
X255583825Y-126052382D01*
X255377534Y-126361118D01*
X255235439Y-126704166D01*
X255163000Y-127068344D01*
X249617340Y-127068344D01*
X249638944Y-126849001D01*
X249611237Y-126567692D01*
X249529183Y-126297193D01*
X249395933Y-126047900D01*
X249216609Y-125829393D01*
X248998102Y-125650069D01*
X248865143Y-125579001D01*
X248998102Y-125507933D01*
X249216609Y-125328609D01*
X249395933Y-125110102D01*
X249529183Y-124860809D01*
X249611237Y-124590310D01*
X249638944Y-124309001D01*
X249611237Y-124027692D01*
X249529183Y-123757193D01*
X249395933Y-123507900D01*
X249216609Y-123289393D01*
X248998102Y-123110069D01*
X248865143Y-123039001D01*
X248998102Y-122967933D01*
X249216609Y-122788609D01*
X249395933Y-122570102D01*
X249529183Y-122320809D01*
X249611237Y-122050310D01*
X249617340Y-121988344D01*
X255163000Y-121988344D01*
X255163000Y-122359656D01*
X255235439Y-122723834D01*
X255377534Y-123066882D01*
X255583825Y-123375618D01*
X255846382Y-123638175D01*
X256155118Y-123844466D01*
X256498166Y-123986561D01*
X256862344Y-124059000D01*
X257233656Y-124059000D01*
X257597834Y-123986561D01*
X257940882Y-123844466D01*
X258249618Y-123638175D01*
X258512175Y-123375618D01*
X258718466Y-123066882D01*
X258860561Y-122723834D01*
X258933000Y-122359656D01*
X258933000Y-121988344D01*
X258860561Y-121624166D01*
X258718466Y-121281118D01*
X258512175Y-120972382D01*
X258249618Y-120709825D01*
X257940882Y-120503534D01*
X257597834Y-120361439D01*
X257233656Y-120289000D01*
X256862344Y-120289000D01*
X256498166Y-120361439D01*
X256155118Y-120503534D01*
X255846382Y-120709825D01*
X255583825Y-120972382D01*
X255377534Y-121281118D01*
X255235439Y-121624166D01*
X255163000Y-121988344D01*
X249617340Y-121988344D01*
X249638944Y-121769001D01*
X249611237Y-121487692D01*
X249529183Y-121217193D01*
X249395933Y-120967900D01*
X249216609Y-120749393D01*
X248998102Y-120570069D01*
X248865143Y-120499001D01*
X248998102Y-120427933D01*
X249216609Y-120248609D01*
X249395933Y-120030102D01*
X249529183Y-119780809D01*
X249611237Y-119510310D01*
X249638944Y-119229001D01*
X249611237Y-118947692D01*
X249529183Y-118677193D01*
X249395933Y-118427900D01*
X249216609Y-118209393D01*
X248998102Y-118030069D01*
X248865143Y-117959001D01*
X248998102Y-117887933D01*
X249216609Y-117708609D01*
X249395933Y-117490102D01*
X249529183Y-117240809D01*
X249611237Y-116970310D01*
X249617340Y-116908344D01*
X255163000Y-116908344D01*
X255163000Y-117279656D01*
X255235439Y-117643834D01*
X255377534Y-117986882D01*
X255583825Y-118295618D01*
X255846382Y-118558175D01*
X256155118Y-118764466D01*
X256498166Y-118906561D01*
X256862344Y-118979000D01*
X257233656Y-118979000D01*
X257597834Y-118906561D01*
X257940882Y-118764466D01*
X258249618Y-118558175D01*
X258512175Y-118295618D01*
X258718466Y-117986882D01*
X258860561Y-117643834D01*
X258933000Y-117279656D01*
X258933000Y-116908344D01*
X258860561Y-116544166D01*
X258718466Y-116201118D01*
X258512175Y-115892382D01*
X258249618Y-115629825D01*
X257940882Y-115423534D01*
X257597834Y-115281439D01*
X257233656Y-115209000D01*
X256862344Y-115209000D01*
X256498166Y-115281439D01*
X256155118Y-115423534D01*
X255846382Y-115629825D01*
X255583825Y-115892382D01*
X255377534Y-116201118D01*
X255235439Y-116544166D01*
X255163000Y-116908344D01*
X249617340Y-116908344D01*
X249638944Y-116689001D01*
X249611237Y-116407692D01*
X249529183Y-116137193D01*
X249395933Y-115887900D01*
X249216609Y-115669393D01*
X248998102Y-115490069D01*
X248865143Y-115419001D01*
X248998102Y-115347933D01*
X249216609Y-115168609D01*
X249395933Y-114950102D01*
X249529183Y-114700809D01*
X249611237Y-114430310D01*
X249638944Y-114149001D01*
X249611237Y-113867692D01*
X249529183Y-113597193D01*
X249395933Y-113347900D01*
X249216609Y-113129393D01*
X248998102Y-112950069D01*
X248748809Y-112816819D01*
X248478310Y-112734765D01*
X248267493Y-112714001D01*
X247726509Y-112714001D01*
X247515692Y-112734765D01*
X247245193Y-112816819D01*
X246995900Y-112950069D01*
X246777393Y-113129393D01*
X246598069Y-113347900D01*
X246464819Y-113597193D01*
X246382765Y-113867692D01*
X246355058Y-114149001D01*
X245074072Y-114149001D01*
X245074072Y-113196000D01*
X245061812Y-113071518D01*
X245025502Y-112951820D01*
X244966537Y-112841506D01*
X244887185Y-112744815D01*
X244790494Y-112665463D01*
X244680180Y-112606498D01*
X244560482Y-112570188D01*
X244436000Y-112557928D01*
X242736000Y-112557928D01*
X242611518Y-112570188D01*
X242491820Y-112606498D01*
X242381506Y-112665463D01*
X242284815Y-112744815D01*
X242205463Y-112841506D01*
X242146498Y-112951820D01*
X242110188Y-113071518D01*
X242097928Y-113196000D01*
X231304254Y-113196000D01*
X231250537Y-113095506D01*
X231171185Y-112998815D01*
X231074494Y-112919463D01*
X230964180Y-112860498D01*
X230844482Y-112824188D01*
X230720000Y-112811928D01*
X229020000Y-112811928D01*
X228895518Y-112824188D01*
X228775820Y-112860498D01*
X228665506Y-112919463D01*
X228568815Y-112998815D01*
X228489463Y-113095506D01*
X228430498Y-113205820D01*
X228394188Y-113325518D01*
X228381928Y-113450000D01*
X226775073Y-113450000D01*
X226775073Y-113149001D01*
X226762813Y-113024519D01*
X226726503Y-112904821D01*
X226667538Y-112794507D01*
X226588186Y-112697816D01*
X226491495Y-112618464D01*
X226381181Y-112559499D01*
X226261483Y-112523189D01*
X226137001Y-112510929D01*
X224137001Y-112510929D01*
X224012519Y-112523189D01*
X223892821Y-112559499D01*
X223782507Y-112618464D01*
X223685816Y-112697816D01*
X223606464Y-112794507D01*
X223547499Y-112904821D01*
X223511189Y-113024519D01*
X223498929Y-113149001D01*
X223498929Y-115149001D01*
X223511189Y-115273483D01*
X223547499Y-115393181D01*
X223606464Y-115503495D01*
X223685816Y-115600186D01*
X223782507Y-115679538D01*
X223870477Y-115726560D01*
X223738069Y-115887900D01*
X223604819Y-116137193D01*
X223522765Y-116407692D01*
X223495058Y-116689001D01*
X223522765Y-116970310D01*
X223604819Y-117240809D01*
X223738069Y-117490102D01*
X223917393Y-117708609D01*
X224135900Y-117887933D01*
X224268859Y-117959001D01*
X224135900Y-118030069D01*
X223917393Y-118209393D01*
X223738069Y-118427900D01*
X223604819Y-118677193D01*
X223522765Y-118947692D01*
X223495058Y-119229001D01*
X223522765Y-119510310D01*
X223604819Y-119780809D01*
X223738069Y-120030102D01*
X223917393Y-120248609D01*
X224135900Y-120427933D01*
X224268859Y-120499001D01*
X224135900Y-120570069D01*
X223917393Y-120749393D01*
X223738069Y-120967900D01*
X223604819Y-121217193D01*
X223522765Y-121487692D01*
X223495058Y-121769001D01*
X223522765Y-122050310D01*
X223604819Y-122320809D01*
X223738069Y-122570102D01*
X223917393Y-122788609D01*
X224135900Y-122967933D01*
X224268859Y-123039001D01*
X224135900Y-123110069D01*
X223917393Y-123289393D01*
X223738069Y-123507900D01*
X223604819Y-123757193D01*
X223522765Y-124027692D01*
X223495058Y-124309001D01*
X223522765Y-124590310D01*
X223604819Y-124860809D01*
X223738069Y-125110102D01*
X223917393Y-125328609D01*
X224135900Y-125507933D01*
X224268859Y-125579001D01*
X224135900Y-125650069D01*
X223917393Y-125829393D01*
X223738069Y-126047900D01*
X223604819Y-126297193D01*
X223522765Y-126567692D01*
X223495058Y-126849001D01*
X223522765Y-127130310D01*
X223604819Y-127400809D01*
X223738069Y-127650102D01*
X223917393Y-127868609D01*
X224135900Y-128047933D01*
X224268859Y-128119001D01*
X224135900Y-128190069D01*
X223917393Y-128369393D01*
X223738069Y-128587900D01*
X223604819Y-128837193D01*
X223522765Y-129107692D01*
X223510905Y-129228104D01*
X220121001Y-125838200D01*
X220121001Y-111828344D01*
X255163000Y-111828344D01*
X255163000Y-112199656D01*
X255235439Y-112563834D01*
X255377534Y-112906882D01*
X255583825Y-113215618D01*
X255846382Y-113478175D01*
X256155118Y-113684466D01*
X256498166Y-113826561D01*
X256862344Y-113899000D01*
X257233656Y-113899000D01*
X257597834Y-113826561D01*
X257940882Y-113684466D01*
X258249618Y-113478175D01*
X258512175Y-113215618D01*
X258718466Y-112906882D01*
X258860561Y-112563834D01*
X258933000Y-112199656D01*
X258933000Y-111828344D01*
X258860561Y-111464166D01*
X258718466Y-111121118D01*
X258512175Y-110812382D01*
X258249618Y-110549825D01*
X257940882Y-110343534D01*
X257597834Y-110201439D01*
X257233656Y-110129000D01*
X256862344Y-110129000D01*
X256498166Y-110201439D01*
X256155118Y-110343534D01*
X255846382Y-110549825D01*
X255583825Y-110812382D01*
X255377534Y-111121118D01*
X255235439Y-111464166D01*
X255163000Y-111828344D01*
X220121001Y-111828344D01*
X220121001Y-106748344D01*
X255163000Y-106748344D01*
X255163000Y-107119656D01*
X255235439Y-107483834D01*
X255377534Y-107826882D01*
X255583825Y-108135618D01*
X255846382Y-108398175D01*
X256155118Y-108604466D01*
X256498166Y-108746561D01*
X256862344Y-108819000D01*
X257233656Y-108819000D01*
X257597834Y-108746561D01*
X257940882Y-108604466D01*
X258249618Y-108398175D01*
X258512175Y-108135618D01*
X258718466Y-107826882D01*
X258860561Y-107483834D01*
X258933000Y-107119656D01*
X258933000Y-106748344D01*
X258860561Y-106384166D01*
X258718466Y-106041118D01*
X258512175Y-105732382D01*
X258249618Y-105469825D01*
X257940882Y-105263534D01*
X257597834Y-105121439D01*
X257233656Y-105049000D01*
X256862344Y-105049000D01*
X256498166Y-105121439D01*
X256155118Y-105263534D01*
X255846382Y-105469825D01*
X255583825Y-105732382D01*
X255377534Y-106041118D01*
X255235439Y-106384166D01*
X255163000Y-106748344D01*
X220121001Y-106748344D01*
X220121001Y-87064323D01*
X220124677Y-87027000D01*
X220121001Y-86989677D01*
X220121001Y-86989668D01*
X220110004Y-86878015D01*
X220066547Y-86734754D01*
X219995975Y-86602725D01*
X219901002Y-86487000D01*
X219872005Y-86463203D01*
X219627210Y-86218408D01*
X219671000Y-85998260D01*
X219671000Y-85705740D01*
X219613932Y-85418842D01*
X219501990Y-85148589D01*
X219339475Y-84905368D01*
X219207620Y-84773513D01*
X219280180Y-84751502D01*
X219390494Y-84692537D01*
X219487185Y-84613185D01*
X219566537Y-84516494D01*
X219617598Y-84420967D01*
X223409000Y-84420967D01*
X223409000Y-84743033D01*
X223471832Y-85058912D01*
X223595082Y-85356463D01*
X223774013Y-85624252D01*
X224001748Y-85851987D01*
X224001767Y-85852000D01*
X224001748Y-85852013D01*
X223774013Y-86079748D01*
X223595082Y-86347537D01*
X223471832Y-86645088D01*
X223409000Y-86960967D01*
X223409000Y-87283033D01*
X223471832Y-87598912D01*
X223595082Y-87896463D01*
X223774013Y-88164252D01*
X224001748Y-88391987D01*
X224001767Y-88392000D01*
X224001748Y-88392013D01*
X223774013Y-88619748D01*
X223595082Y-88887537D01*
X223471832Y-89185088D01*
X223409000Y-89500967D01*
X223409000Y-89823033D01*
X223471832Y-90138912D01*
X223595082Y-90436463D01*
X223774013Y-90704252D01*
X224001748Y-90931987D01*
X224001767Y-90932000D01*
X224001748Y-90932013D01*
X223774013Y-91159748D01*
X223595082Y-91427537D01*
X223471832Y-91725088D01*
X223409000Y-92040967D01*
X223409000Y-92363033D01*
X223471832Y-92678912D01*
X223595082Y-92976463D01*
X223774013Y-93244252D01*
X224001748Y-93471987D01*
X224001767Y-93472000D01*
X224001748Y-93472013D01*
X223774013Y-93699748D01*
X223595082Y-93967537D01*
X223471832Y-94265088D01*
X223409000Y-94580967D01*
X223409000Y-94903033D01*
X223471832Y-95218912D01*
X223595082Y-95516463D01*
X223774013Y-95784252D01*
X224001748Y-96011987D01*
X224001767Y-96012000D01*
X224001748Y-96012013D01*
X223774013Y-96239748D01*
X223595082Y-96507537D01*
X223471832Y-96805088D01*
X223409000Y-97120967D01*
X223409000Y-97443033D01*
X223471832Y-97758912D01*
X223595082Y-98056463D01*
X223774013Y-98324252D01*
X224001748Y-98551987D01*
X224001767Y-98552000D01*
X224001748Y-98552013D01*
X223774013Y-98779748D01*
X223595082Y-99047537D01*
X223471832Y-99345088D01*
X223409000Y-99660967D01*
X223409000Y-99983033D01*
X223471832Y-100298912D01*
X223595082Y-100596463D01*
X223774013Y-100864252D01*
X224001748Y-101091987D01*
X224001767Y-101092000D01*
X224001748Y-101092013D01*
X223774013Y-101319748D01*
X223595082Y-101587537D01*
X223471832Y-101885088D01*
X223409000Y-102200967D01*
X223409000Y-102523033D01*
X223471832Y-102838912D01*
X223595082Y-103136463D01*
X223774013Y-103404252D01*
X224001748Y-103631987D01*
X224269537Y-103810918D01*
X224567088Y-103934168D01*
X224882967Y-103997000D01*
X225205033Y-103997000D01*
X225520912Y-103934168D01*
X225818463Y-103810918D01*
X226086252Y-103631987D01*
X226313987Y-103404252D01*
X226314000Y-103404233D01*
X226314013Y-103404252D01*
X226541748Y-103631987D01*
X226809537Y-103810918D01*
X227107088Y-103934168D01*
X227422967Y-103997000D01*
X227745033Y-103997000D01*
X228060912Y-103934168D01*
X228358463Y-103810918D01*
X228626252Y-103631987D01*
X228853987Y-103404252D01*
X228854000Y-103404233D01*
X228854013Y-103404252D01*
X229081748Y-103631987D01*
X229349537Y-103810918D01*
X229647088Y-103934168D01*
X229962967Y-103997000D01*
X230285033Y-103997000D01*
X230600912Y-103934168D01*
X230898463Y-103810918D01*
X231166252Y-103631987D01*
X231393987Y-103404252D01*
X231394000Y-103404233D01*
X231394013Y-103404252D01*
X231621748Y-103631987D01*
X231889537Y-103810918D01*
X232187088Y-103934168D01*
X232502967Y-103997000D01*
X232825033Y-103997000D01*
X233140912Y-103934168D01*
X233438463Y-103810918D01*
X233706252Y-103631987D01*
X233933987Y-103404252D01*
X233934000Y-103404233D01*
X233934013Y-103404252D01*
X234161748Y-103631987D01*
X234429537Y-103810918D01*
X234727088Y-103934168D01*
X235042967Y-103997000D01*
X235365033Y-103997000D01*
X235680912Y-103934168D01*
X235978463Y-103810918D01*
X236246252Y-103631987D01*
X236473987Y-103404252D01*
X236474000Y-103404233D01*
X236474013Y-103404252D01*
X236701748Y-103631987D01*
X236969537Y-103810918D01*
X237267088Y-103934168D01*
X237582967Y-103997000D01*
X237905033Y-103997000D01*
X238220912Y-103934168D01*
X238518463Y-103810918D01*
X238786252Y-103631987D01*
X239013987Y-103404252D01*
X239014000Y-103404233D01*
X239014013Y-103404252D01*
X239241748Y-103631987D01*
X239509537Y-103810918D01*
X239807088Y-103934168D01*
X240122967Y-103997000D01*
X240445033Y-103997000D01*
X240760912Y-103934168D01*
X241058463Y-103810918D01*
X241326252Y-103631987D01*
X241553987Y-103404252D01*
X241554000Y-103404233D01*
X241554013Y-103404252D01*
X241781748Y-103631987D01*
X242049537Y-103810918D01*
X242347088Y-103934168D01*
X242662967Y-103997000D01*
X242985033Y-103997000D01*
X243300912Y-103934168D01*
X243598463Y-103810918D01*
X243866252Y-103631987D01*
X244093987Y-103404252D01*
X244094000Y-103404233D01*
X244094013Y-103404252D01*
X244321748Y-103631987D01*
X244589537Y-103810918D01*
X244887088Y-103934168D01*
X245202967Y-103997000D01*
X245525033Y-103997000D01*
X245840912Y-103934168D01*
X246138463Y-103810918D01*
X246406252Y-103631987D01*
X246633987Y-103404252D01*
X246634000Y-103404233D01*
X246634013Y-103404252D01*
X246861748Y-103631987D01*
X247129537Y-103810918D01*
X247427088Y-103934168D01*
X247742967Y-103997000D01*
X248065033Y-103997000D01*
X248380912Y-103934168D01*
X248678463Y-103810918D01*
X248946252Y-103631987D01*
X249173987Y-103404252D01*
X249352918Y-103136463D01*
X249476168Y-102838912D01*
X249539000Y-102523033D01*
X249539000Y-102200967D01*
X249476168Y-101885088D01*
X249352918Y-101587537D01*
X249173987Y-101319748D01*
X248946252Y-101092013D01*
X248946233Y-101092000D01*
X248946252Y-101091987D01*
X249173987Y-100864252D01*
X249347881Y-100604000D01*
X255159928Y-100604000D01*
X255159928Y-103104000D01*
X255172188Y-103228482D01*
X255208498Y-103348180D01*
X255267463Y-103458494D01*
X255346815Y-103555185D01*
X255443506Y-103634537D01*
X255553820Y-103693502D01*
X255673518Y-103729812D01*
X255798000Y-103742072D01*
X258298000Y-103742072D01*
X258422482Y-103729812D01*
X258542180Y-103693502D01*
X258652494Y-103634537D01*
X258749185Y-103555185D01*
X258828537Y-103458494D01*
X258887502Y-103348180D01*
X258923812Y-103228482D01*
X258936072Y-103104000D01*
X258936072Y-100604000D01*
X258923812Y-100479518D01*
X258887502Y-100359820D01*
X258828537Y-100249506D01*
X258749185Y-100152815D01*
X258652494Y-100073463D01*
X258542180Y-100014498D01*
X258422482Y-99978188D01*
X258298000Y-99965928D01*
X255798000Y-99965928D01*
X255673518Y-99978188D01*
X255553820Y-100014498D01*
X255443506Y-100073463D01*
X255346815Y-100152815D01*
X255267463Y-100249506D01*
X255208498Y-100359820D01*
X255172188Y-100479518D01*
X255159928Y-100604000D01*
X249347881Y-100604000D01*
X249352918Y-100596463D01*
X249476168Y-100298912D01*
X249539000Y-99983033D01*
X249539000Y-99660967D01*
X249476168Y-99345088D01*
X249352918Y-99047537D01*
X249173987Y-98779748D01*
X248946252Y-98552013D01*
X248946233Y-98552000D01*
X248946252Y-98551987D01*
X249173987Y-98324252D01*
X249352918Y-98056463D01*
X249476168Y-97758912D01*
X249539000Y-97443033D01*
X249539000Y-97120967D01*
X249476168Y-96805088D01*
X249352918Y-96507537D01*
X249173987Y-96239748D01*
X248946252Y-96012013D01*
X248946233Y-96012000D01*
X248946252Y-96011987D01*
X249173987Y-95784252D01*
X249352918Y-95516463D01*
X249476168Y-95218912D01*
X249539000Y-94903033D01*
X249539000Y-94580967D01*
X249476168Y-94265088D01*
X249352918Y-93967537D01*
X249173987Y-93699748D01*
X248946252Y-93472013D01*
X248946233Y-93472000D01*
X248946252Y-93471987D01*
X249173987Y-93244252D01*
X249352918Y-92976463D01*
X249476168Y-92678912D01*
X249539000Y-92363033D01*
X249539000Y-92040967D01*
X249476168Y-91725088D01*
X249352918Y-91427537D01*
X249173987Y-91159748D01*
X248946252Y-90932013D01*
X248946233Y-90932000D01*
X248946252Y-90931987D01*
X249173987Y-90704252D01*
X249352918Y-90436463D01*
X249471575Y-90150000D01*
X255413928Y-90150000D01*
X255426188Y-90274482D01*
X255462498Y-90394180D01*
X255521463Y-90504494D01*
X255600815Y-90601185D01*
X255697506Y-90680537D01*
X255807820Y-90739502D01*
X255927518Y-90775812D01*
X256052000Y-90788072D01*
X257016250Y-90785000D01*
X257175000Y-90626250D01*
X257175000Y-89027000D01*
X257429000Y-89027000D01*
X257429000Y-90626250D01*
X257587750Y-90785000D01*
X258552000Y-90788072D01*
X258676482Y-90775812D01*
X258796180Y-90739502D01*
X258906494Y-90680537D01*
X259003185Y-90601185D01*
X259082537Y-90504494D01*
X259141502Y-90394180D01*
X259177812Y-90274482D01*
X259190072Y-90150000D01*
X259187000Y-89185750D01*
X259028250Y-89027000D01*
X257429000Y-89027000D01*
X257175000Y-89027000D01*
X255575750Y-89027000D01*
X255417000Y-89185750D01*
X255413928Y-90150000D01*
X249471575Y-90150000D01*
X249476168Y-90138912D01*
X249539000Y-89823033D01*
X249539000Y-89500967D01*
X249476168Y-89185088D01*
X249352918Y-88887537D01*
X249173987Y-88619748D01*
X248946252Y-88392013D01*
X248946233Y-88392000D01*
X248946252Y-88391987D01*
X249173987Y-88164252D01*
X249352918Y-87896463D01*
X249455006Y-87650000D01*
X255413928Y-87650000D01*
X255417000Y-88614250D01*
X255575750Y-88773000D01*
X257175000Y-88773000D01*
X257175000Y-87173750D01*
X257429000Y-87173750D01*
X257429000Y-88773000D01*
X259028250Y-88773000D01*
X259187000Y-88614250D01*
X259190072Y-87650000D01*
X259177812Y-87525518D01*
X259141502Y-87405820D01*
X259082537Y-87295506D01*
X259003185Y-87198815D01*
X258906494Y-87119463D01*
X258796180Y-87060498D01*
X258676482Y-87024188D01*
X258552000Y-87011928D01*
X257587750Y-87015000D01*
X257429000Y-87173750D01*
X257175000Y-87173750D01*
X257016250Y-87015000D01*
X256052000Y-87011928D01*
X255927518Y-87024188D01*
X255807820Y-87060498D01*
X255697506Y-87119463D01*
X255600815Y-87198815D01*
X255521463Y-87295506D01*
X255462498Y-87405820D01*
X255426188Y-87525518D01*
X255413928Y-87650000D01*
X249455006Y-87650000D01*
X249476168Y-87598912D01*
X249539000Y-87283033D01*
X249539000Y-86960967D01*
X249476168Y-86645088D01*
X249352918Y-86347537D01*
X249173987Y-86079748D01*
X248946252Y-85852013D01*
X248946233Y-85852000D01*
X248946252Y-85851987D01*
X249173987Y-85624252D01*
X249352918Y-85356463D01*
X249476168Y-85058912D01*
X249539000Y-84743033D01*
X249539000Y-84420967D01*
X249476168Y-84105088D01*
X249352918Y-83807537D01*
X249173987Y-83539748D01*
X248946252Y-83312013D01*
X248678463Y-83133082D01*
X248380912Y-83009832D01*
X248065033Y-82947000D01*
X247742967Y-82947000D01*
X247427088Y-83009832D01*
X247129537Y-83133082D01*
X246861748Y-83312013D01*
X246634013Y-83539748D01*
X246634000Y-83539767D01*
X246633987Y-83539748D01*
X246406252Y-83312013D01*
X246138463Y-83133082D01*
X245840912Y-83009832D01*
X245525033Y-82947000D01*
X245202967Y-82947000D01*
X244887088Y-83009832D01*
X244589537Y-83133082D01*
X244321748Y-83312013D01*
X244094013Y-83539748D01*
X244094000Y-83539767D01*
X244093987Y-83539748D01*
X243866252Y-83312013D01*
X243598463Y-83133082D01*
X243300912Y-83009832D01*
X242985033Y-82947000D01*
X242662967Y-82947000D01*
X242347088Y-83009832D01*
X242049537Y-83133082D01*
X241781748Y-83312013D01*
X241554013Y-83539748D01*
X241554000Y-83539767D01*
X241553987Y-83539748D01*
X241326252Y-83312013D01*
X241058463Y-83133082D01*
X240760912Y-83009832D01*
X240445033Y-82947000D01*
X240122967Y-82947000D01*
X239807088Y-83009832D01*
X239509537Y-83133082D01*
X239241748Y-83312013D01*
X239014013Y-83539748D01*
X239014000Y-83539767D01*
X239013987Y-83539748D01*
X238786252Y-83312013D01*
X238518463Y-83133082D01*
X238220912Y-83009832D01*
X237905033Y-82947000D01*
X237582967Y-82947000D01*
X237267088Y-83009832D01*
X236969537Y-83133082D01*
X236701748Y-83312013D01*
X236474013Y-83539748D01*
X236474000Y-83539767D01*
X236473987Y-83539748D01*
X236246252Y-83312013D01*
X235978463Y-83133082D01*
X235680912Y-83009832D01*
X235365033Y-82947000D01*
X235042967Y-82947000D01*
X234727088Y-83009832D01*
X234429537Y-83133082D01*
X234161748Y-83312013D01*
X233934013Y-83539748D01*
X233934000Y-83539767D01*
X233933987Y-83539748D01*
X233706252Y-83312013D01*
X233438463Y-83133082D01*
X233140912Y-83009832D01*
X232825033Y-82947000D01*
X232502967Y-82947000D01*
X232187088Y-83009832D01*
X231889537Y-83133082D01*
X231621748Y-83312013D01*
X231394013Y-83539748D01*
X231394000Y-83539767D01*
X231393987Y-83539748D01*
X231166252Y-83312013D01*
X230898463Y-83133082D01*
X230600912Y-83009832D01*
X230285033Y-82947000D01*
X229962967Y-82947000D01*
X229647088Y-83009832D01*
X229349537Y-83133082D01*
X229081748Y-83312013D01*
X228854013Y-83539748D01*
X228854000Y-83539767D01*
X228853987Y-83539748D01*
X228626252Y-83312013D01*
X228358463Y-83133082D01*
X228060912Y-83009832D01*
X227745033Y-82947000D01*
X227422967Y-82947000D01*
X227107088Y-83009832D01*
X226809537Y-83133082D01*
X226541748Y-83312013D01*
X226314013Y-83539748D01*
X226314000Y-83539767D01*
X226313987Y-83539748D01*
X226086252Y-83312013D01*
X225818463Y-83133082D01*
X225520912Y-83009832D01*
X225205033Y-82947000D01*
X224882967Y-82947000D01*
X224567088Y-83009832D01*
X224269537Y-83133082D01*
X224001748Y-83312013D01*
X223774013Y-83539748D01*
X223595082Y-83807537D01*
X223471832Y-84105088D01*
X223409000Y-84420967D01*
X219617598Y-84420967D01*
X219625502Y-84406180D01*
X219661812Y-84286482D01*
X219674072Y-84162000D01*
X219671000Y-83597750D01*
X219512250Y-83439000D01*
X218313000Y-83439000D01*
X218313000Y-83459000D01*
X218059000Y-83459000D01*
X218059000Y-83439000D01*
X216859750Y-83439000D01*
X216701000Y-83597750D01*
X216697928Y-84162000D01*
X214958065Y-84162000D01*
X214958503Y-84161181D01*
X214994813Y-84041483D01*
X215007073Y-83917001D01*
X215007073Y-82462000D01*
X216697928Y-82462000D01*
X216701000Y-83026250D01*
X216859750Y-83185000D01*
X218059000Y-83185000D01*
X218059000Y-81985750D01*
X218313000Y-81985750D01*
X218313000Y-83185000D01*
X219512250Y-83185000D01*
X219671000Y-83026250D01*
X219674072Y-82462000D01*
X219661812Y-82337518D01*
X219625502Y-82217820D01*
X219566537Y-82107506D01*
X219487185Y-82010815D01*
X219390494Y-81931463D01*
X219280180Y-81872498D01*
X219160482Y-81836188D01*
X219036000Y-81823928D01*
X218471750Y-81827000D01*
X218313000Y-81985750D01*
X218059000Y-81985750D01*
X217900250Y-81827000D01*
X217336000Y-81823928D01*
X217211518Y-81836188D01*
X217091820Y-81872498D01*
X216981506Y-81931463D01*
X216884815Y-82010815D01*
X216805463Y-82107506D01*
X216746498Y-82217820D01*
X216710188Y-82337518D01*
X216697928Y-82462000D01*
X215007073Y-82462000D01*
X215007073Y-82217001D01*
X214994813Y-82092519D01*
X214958503Y-81972821D01*
X214899538Y-81862507D01*
X214820186Y-81765816D01*
X214723495Y-81686464D01*
X214613181Y-81627499D01*
X214493483Y-81591189D01*
X214369001Y-81578929D01*
X212669001Y-81578929D01*
X212544519Y-81591189D01*
X212424821Y-81627499D01*
X212314507Y-81686464D01*
X212217816Y-81765816D01*
X212138464Y-81862507D01*
X212079499Y-81972821D01*
X212043189Y-82092519D01*
X212030929Y-82217001D01*
X209194000Y-82217001D01*
X209194000Y-79654000D01*
X263500001Y-79654000D01*
X263500000Y-141834000D01*
G37*
X263500000Y-141834000D02*
X209194000Y-141834000D01*
X209194000Y-136418000D01*
X214265928Y-136418000D01*
X214265928Y-138918000D01*
X214278188Y-139042482D01*
X214314498Y-139162180D01*
X214373463Y-139272494D01*
X214452815Y-139369185D01*
X214549506Y-139448537D01*
X214659820Y-139507502D01*
X214779518Y-139543812D01*
X214904000Y-139556072D01*
X217404000Y-139556072D01*
X217528482Y-139543812D01*
X217648180Y-139507502D01*
X217758494Y-139448537D01*
X217855185Y-139369185D01*
X217934537Y-139272494D01*
X217993502Y-139162180D01*
X218029812Y-139042482D01*
X218042072Y-138918000D01*
X218042072Y-137228344D01*
X255163000Y-137228344D01*
X255163000Y-137599656D01*
X255235439Y-137963834D01*
X255377534Y-138306882D01*
X255583825Y-138615618D01*
X255846382Y-138878175D01*
X256155118Y-139084466D01*
X256498166Y-139226561D01*
X256862344Y-139299000D01*
X257233656Y-139299000D01*
X257597834Y-139226561D01*
X257940882Y-139084466D01*
X258249618Y-138878175D01*
X258512175Y-138615618D01*
X258718466Y-138306882D01*
X258860561Y-137963834D01*
X258933000Y-137599656D01*
X258933000Y-137228344D01*
X258860561Y-136864166D01*
X258805519Y-136731283D01*
X260353004Y-135183798D01*
X260382001Y-135160001D01*
X260476974Y-135044276D01*
X260547546Y-134912247D01*
X260591003Y-134768986D01*
X260602000Y-134657333D01*
X260602000Y-134657325D01*
X260605676Y-134620000D01*
X260602000Y-134582675D01*
X260602000Y-96557322D01*
X260605676Y-96519999D01*
X260602000Y-96482676D01*
X260602000Y-96482667D01*
X260591003Y-96371014D01*
X260547546Y-96227753D01*
X260476974Y-96095724D01*
X260463811Y-96079685D01*
X260405799Y-96008996D01*
X260405795Y-96008992D01*
X260382001Y-95979999D01*
X260353008Y-95956205D01*
X259059519Y-94662717D01*
X259114561Y-94529834D01*
X259187000Y-94165656D01*
X259187000Y-93794344D01*
X259114561Y-93430166D01*
X258972466Y-93087118D01*
X258766175Y-92778382D01*
X258503618Y-92515825D01*
X258194882Y-92309534D01*
X257851834Y-92167439D01*
X257487656Y-92095000D01*
X257116344Y-92095000D01*
X256752166Y-92167439D01*
X256409118Y-92309534D01*
X256100382Y-92515825D01*
X255837825Y-92778382D01*
X255631534Y-93087118D01*
X255489439Y-93430166D01*
X255417000Y-93794344D01*
X255417000Y-94165656D01*
X255489439Y-94529834D01*
X255631534Y-94872882D01*
X255837825Y-95181618D01*
X256100382Y-95444175D01*
X256409118Y-95650466D01*
X256752166Y-95792561D01*
X257116344Y-95865000D01*
X257487656Y-95865000D01*
X257851834Y-95792561D01*
X257984717Y-95737519D01*
X259082001Y-96834804D01*
X259082000Y-134305198D01*
X257730717Y-135656481D01*
X257597834Y-135601439D01*
X257233656Y-135529000D01*
X256862344Y-135529000D01*
X256498166Y-135601439D01*
X256155118Y-135743534D01*
X255846382Y-135949825D01*
X255583825Y-136212382D01*
X255377534Y-136521118D01*
X255235439Y-136864166D01*
X255163000Y-137228344D01*
X218042072Y-137228344D01*
X218042072Y-136418000D01*
X218029812Y-136293518D01*
X217993502Y-136173820D01*
X217934537Y-136063506D01*
X217855185Y-135966815D01*
X217758494Y-135887463D01*
X217648180Y-135828498D01*
X217528482Y-135792188D01*
X217404000Y-135779928D01*
X214904000Y-135779928D01*
X214779518Y-135792188D01*
X214659820Y-135828498D01*
X214549506Y-135887463D01*
X214452815Y-135966815D01*
X214373463Y-136063506D01*
X214314498Y-136173820D01*
X214278188Y-136293518D01*
X214265928Y-136418000D01*
X209194000Y-136418000D01*
X209194000Y-132402344D01*
X214269000Y-132402344D01*
X214269000Y-132773656D01*
X214341439Y-133137834D01*
X214483534Y-133480882D01*
X214689825Y-133789618D01*
X214952382Y-134052175D01*
X215261118Y-134258466D01*
X215604166Y-134400561D01*
X215968344Y-134473000D01*
X216339656Y-134473000D01*
X216703834Y-134400561D01*
X217046882Y-134258466D01*
X217355618Y-134052175D01*
X217618175Y-133789618D01*
X217713065Y-133647605D01*
X255914000Y-133647605D01*
X256039914Y-133937577D01*
X256372126Y-134103433D01*
X256730312Y-134201290D01*
X257100706Y-134227389D01*
X257469075Y-134180725D01*
X257821262Y-134063094D01*
X258056086Y-133937577D01*
X258182000Y-133647605D01*
X257048000Y-132513605D01*
X255914000Y-133647605D01*
X217713065Y-133647605D01*
X217824466Y-133480882D01*
X217966561Y-133137834D01*
X218039000Y-132773656D01*
X218039000Y-132402344D01*
X217966561Y-132038166D01*
X217824466Y-131695118D01*
X217618175Y-131386382D01*
X217355618Y-131123825D01*
X217046882Y-130917534D01*
X216703834Y-130775439D01*
X216339656Y-130703000D01*
X215968344Y-130703000D01*
X215604166Y-130775439D01*
X215261118Y-130917534D01*
X214952382Y-131123825D01*
X214689825Y-131386382D01*
X214483534Y-131695118D01*
X214341439Y-132038166D01*
X214269000Y-132402344D01*
X209194000Y-132402344D01*
X209194000Y-127322344D01*
X214269000Y-127322344D01*
X214269000Y-127693656D01*
X214341439Y-128057834D01*
X214483534Y-128400882D01*
X214689825Y-128709618D01*
X214952382Y-128972175D01*
X215261118Y-129178466D01*
X215604166Y-129320561D01*
X215968344Y-129393000D01*
X216339656Y-129393000D01*
X216703834Y-129320561D01*
X217046882Y-129178466D01*
X217355618Y-128972175D01*
X217618175Y-128709618D01*
X217824466Y-128400882D01*
X217966561Y-128057834D01*
X218039000Y-127693656D01*
X218039000Y-127322344D01*
X217966561Y-126958166D01*
X217824466Y-126615118D01*
X217618175Y-126306382D01*
X217355618Y-126043825D01*
X217046882Y-125837534D01*
X216703834Y-125695439D01*
X216339656Y-125623000D01*
X215968344Y-125623000D01*
X215604166Y-125695439D01*
X215261118Y-125837534D01*
X214952382Y-126043825D01*
X214689825Y-126306382D01*
X214483534Y-126615118D01*
X214341439Y-126958166D01*
X214269000Y-127322344D01*
X209194000Y-127322344D01*
X209194000Y-122242344D01*
X214269000Y-122242344D01*
X214269000Y-122613656D01*
X214341439Y-122977834D01*
X214483534Y-123320882D01*
X214689825Y-123629618D01*
X214952382Y-123892175D01*
X215261118Y-124098466D01*
X215604166Y-124240561D01*
X215968344Y-124313000D01*
X216339656Y-124313000D01*
X216703834Y-124240561D01*
X217046882Y-124098466D01*
X217355618Y-123892175D01*
X217618175Y-123629618D01*
X217824466Y-123320882D01*
X217966561Y-122977834D01*
X218039000Y-122613656D01*
X218039000Y-122242344D01*
X217966561Y-121878166D01*
X217824466Y-121535118D01*
X217618175Y-121226382D01*
X217355618Y-120963825D01*
X217046882Y-120757534D01*
X216703834Y-120615439D01*
X216339656Y-120543000D01*
X215968344Y-120543000D01*
X215604166Y-120615439D01*
X215261118Y-120757534D01*
X214952382Y-120963825D01*
X214689825Y-121226382D01*
X214483534Y-121535118D01*
X214341439Y-121878166D01*
X214269000Y-122242344D01*
X209194000Y-122242344D01*
X209194000Y-117162344D01*
X214269000Y-117162344D01*
X214269000Y-117533656D01*
X214341439Y-117897834D01*
X214483534Y-118240882D01*
X214689825Y-118549618D01*
X214952382Y-118812175D01*
X215261118Y-119018466D01*
X215604166Y-119160561D01*
X215968344Y-119233000D01*
X216339656Y-119233000D01*
X216703834Y-119160561D01*
X217046882Y-119018466D01*
X217355618Y-118812175D01*
X217618175Y-118549618D01*
X217824466Y-118240882D01*
X217966561Y-117897834D01*
X218039000Y-117533656D01*
X218039000Y-117162344D01*
X217966561Y-116798166D01*
X217824466Y-116455118D01*
X217618175Y-116146382D01*
X217355618Y-115883825D01*
X217046882Y-115677534D01*
X216703834Y-115535439D01*
X216339656Y-115463000D01*
X215968344Y-115463000D01*
X215604166Y-115535439D01*
X215261118Y-115677534D01*
X214952382Y-115883825D01*
X214689825Y-116146382D01*
X214483534Y-116455118D01*
X214341439Y-116798166D01*
X214269000Y-117162344D01*
X209194000Y-117162344D01*
X209194000Y-112082344D01*
X214269000Y-112082344D01*
X214269000Y-112453656D01*
X214341439Y-112817834D01*
X214483534Y-113160882D01*
X214689825Y-113469618D01*
X214952382Y-113732175D01*
X215261118Y-113938466D01*
X215604166Y-114080561D01*
X215968344Y-114153000D01*
X216339656Y-114153000D01*
X216703834Y-114080561D01*
X217046882Y-113938466D01*
X217355618Y-113732175D01*
X217618175Y-113469618D01*
X217824466Y-113160882D01*
X217966561Y-112817834D01*
X218039000Y-112453656D01*
X218039000Y-112082344D01*
X217966561Y-111718166D01*
X217824466Y-111375118D01*
X217618175Y-111066382D01*
X217355618Y-110803825D01*
X217046882Y-110597534D01*
X216703834Y-110455439D01*
X216339656Y-110383000D01*
X215968344Y-110383000D01*
X215604166Y-110455439D01*
X215261118Y-110597534D01*
X214952382Y-110803825D01*
X214689825Y-111066382D01*
X214483534Y-111375118D01*
X214341439Y-111718166D01*
X214269000Y-112082344D01*
X209194000Y-112082344D01*
X209194000Y-107002344D01*
X214269000Y-107002344D01*
X214269000Y-107373656D01*
X214341439Y-107737834D01*
X214483534Y-108080882D01*
X214689825Y-108389618D01*
X214952382Y-108652175D01*
X215261118Y-108858466D01*
X215604166Y-109000561D01*
X215968344Y-109073000D01*
X216339656Y-109073000D01*
X216703834Y-109000561D01*
X217046882Y-108858466D01*
X217355618Y-108652175D01*
X217618175Y-108389618D01*
X217824466Y-108080882D01*
X217966561Y-107737834D01*
X218039000Y-107373656D01*
X218039000Y-107002344D01*
X217966561Y-106638166D01*
X217824466Y-106295118D01*
X217618175Y-105986382D01*
X217355618Y-105723825D01*
X217046882Y-105517534D01*
X216703834Y-105375439D01*
X216339656Y-105303000D01*
X215968344Y-105303000D01*
X215604166Y-105375439D01*
X215261118Y-105517534D01*
X214952382Y-105723825D01*
X214689825Y-105986382D01*
X214483534Y-106295118D01*
X214341439Y-106638166D01*
X214269000Y-107002344D01*
X209194000Y-107002344D01*
X209194000Y-101922344D01*
X214269000Y-101922344D01*
X214269000Y-102293656D01*
X214341439Y-102657834D01*
X214483534Y-103000882D01*
X214689825Y-103309618D01*
X214952382Y-103572175D01*
X215261118Y-103778466D01*
X215604166Y-103920561D01*
X215968344Y-103993000D01*
X216339656Y-103993000D01*
X216703834Y-103920561D01*
X217046882Y-103778466D01*
X217355618Y-103572175D01*
X217618175Y-103309618D01*
X217824466Y-103000882D01*
X217966561Y-102657834D01*
X218039000Y-102293656D01*
X218039000Y-101922344D01*
X217966561Y-101558166D01*
X217824466Y-101215118D01*
X217618175Y-100906382D01*
X217355618Y-100643825D01*
X217046882Y-100437534D01*
X216703834Y-100295439D01*
X216339656Y-100223000D01*
X215968344Y-100223000D01*
X215604166Y-100295439D01*
X215261118Y-100437534D01*
X214952382Y-100643825D01*
X214689825Y-100906382D01*
X214483534Y-101215118D01*
X214341439Y-101558166D01*
X214269000Y-101922344D01*
X209194000Y-101922344D01*
X209194000Y-96123891D01*
X212077525Y-96123891D01*
X212122176Y-96271100D01*
X212247360Y-96533921D01*
X212421413Y-96767270D01*
X212637646Y-96962179D01*
X212887749Y-97111158D01*
X213162110Y-97208482D01*
X213392001Y-97087815D01*
X213392001Y-95894001D01*
X213646001Y-95894001D01*
X213646001Y-97087815D01*
X213875892Y-97208482D01*
X214150253Y-97111158D01*
X214400356Y-96962179D01*
X214616589Y-96767270D01*
X214790642Y-96533921D01*
X214915826Y-96271100D01*
X214960477Y-96123891D01*
X214839156Y-95894001D01*
X213646001Y-95894001D01*
X213392001Y-95894001D01*
X212198846Y-95894001D01*
X212077525Y-96123891D01*
X209194000Y-96123891D01*
X209194000Y-82217001D01*
X212030929Y-82217001D01*
X212030929Y-83917001D01*
X212043189Y-84041483D01*
X212079499Y-84161181D01*
X212138464Y-84271495D01*
X212217816Y-84368186D01*
X212314507Y-84447538D01*
X212424821Y-84506503D01*
X212497381Y-84528514D01*
X212365526Y-84660369D01*
X212203011Y-84903590D01*
X212091069Y-85173843D01*
X212034001Y-85460741D01*
X212034001Y-85753261D01*
X212091069Y-86040159D01*
X212203011Y-86310412D01*
X212365526Y-86553633D01*
X212572369Y-86760476D01*
X212746761Y-86877001D01*
X212572369Y-86993526D01*
X212365526Y-87200369D01*
X212203011Y-87443590D01*
X212091069Y-87713843D01*
X212034001Y-88000741D01*
X212034001Y-88293261D01*
X212091069Y-88580159D01*
X212203011Y-88850412D01*
X212365526Y-89093633D01*
X212572369Y-89300476D01*
X212746761Y-89417001D01*
X212572369Y-89533526D01*
X212365526Y-89740369D01*
X212203011Y-89983590D01*
X212091069Y-90253843D01*
X212034001Y-90540741D01*
X212034001Y-90833261D01*
X212091069Y-91120159D01*
X212203011Y-91390412D01*
X212365526Y-91633633D01*
X212572369Y-91840476D01*
X212746761Y-91957001D01*
X212572369Y-92073526D01*
X212365526Y-92280369D01*
X212203011Y-92523590D01*
X212091069Y-92793843D01*
X212034001Y-93080741D01*
X212034001Y-93373261D01*
X212091069Y-93660159D01*
X212203011Y-93930412D01*
X212365526Y-94173633D01*
X212572369Y-94380476D01*
X212754535Y-94502196D01*
X212637646Y-94571823D01*
X212421413Y-94766732D01*
X212247360Y-95000081D01*
X212122176Y-95262902D01*
X212077525Y-95410111D01*
X212198846Y-95640001D01*
X213392001Y-95640001D01*
X213392001Y-95620001D01*
X213646001Y-95620001D01*
X213646001Y-95640001D01*
X214839156Y-95640001D01*
X214960477Y-95410111D01*
X214915826Y-95262902D01*
X214790642Y-95000081D01*
X214616589Y-94766732D01*
X214400356Y-94571823D01*
X214283467Y-94502196D01*
X214465633Y-94380476D01*
X214672476Y-94173633D01*
X214834991Y-93930412D01*
X214946933Y-93660159D01*
X215004001Y-93373261D01*
X215004001Y-93080741D01*
X214946933Y-92793843D01*
X214834991Y-92523590D01*
X214672476Y-92280369D01*
X214465633Y-92073526D01*
X214291241Y-91957001D01*
X214465633Y-91840476D01*
X214672476Y-91633633D01*
X214834991Y-91390412D01*
X214946933Y-91120159D01*
X215004001Y-90833261D01*
X215004001Y-90540741D01*
X214946933Y-90253843D01*
X214834991Y-89983590D01*
X214672476Y-89740369D01*
X214465633Y-89533526D01*
X214291241Y-89417001D01*
X214465633Y-89300476D01*
X214672476Y-89093633D01*
X214834991Y-88850412D01*
X214946933Y-88580159D01*
X215004001Y-88293261D01*
X215004001Y-88000741D01*
X214946933Y-87713843D01*
X214834991Y-87443590D01*
X214672476Y-87200369D01*
X214465633Y-86993526D01*
X214291241Y-86877001D01*
X214465633Y-86760476D01*
X214672476Y-86553633D01*
X214834991Y-86310412D01*
X214946933Y-86040159D01*
X215004001Y-85753261D01*
X215004001Y-85460741D01*
X214946933Y-85173843D01*
X214834991Y-84903590D01*
X214672476Y-84660369D01*
X214540621Y-84528514D01*
X214613181Y-84506503D01*
X214723495Y-84447538D01*
X214820186Y-84368186D01*
X214899538Y-84271495D01*
X214958065Y-84162000D01*
X216697928Y-84162000D01*
X216710188Y-84286482D01*
X216746498Y-84406180D01*
X216805463Y-84516494D01*
X216884815Y-84613185D01*
X216981506Y-84692537D01*
X217091820Y-84751502D01*
X217164380Y-84773513D01*
X217032525Y-84905368D01*
X216870010Y-85148589D01*
X216758068Y-85418842D01*
X216701000Y-85705740D01*
X216701000Y-85998260D01*
X216758068Y-86285158D01*
X216870010Y-86555411D01*
X217032525Y-86798632D01*
X217239368Y-87005475D01*
X217413760Y-87122000D01*
X217239368Y-87238525D01*
X217032525Y-87445368D01*
X216870010Y-87688589D01*
X216758068Y-87958842D01*
X216701000Y-88245740D01*
X216701000Y-88538260D01*
X216758068Y-88825158D01*
X216870010Y-89095411D01*
X217032525Y-89338632D01*
X217239368Y-89545475D01*
X217413760Y-89662000D01*
X217239368Y-89778525D01*
X217032525Y-89985368D01*
X216870010Y-90228589D01*
X216758068Y-90498842D01*
X216701000Y-90785740D01*
X216701000Y-91078260D01*
X216758068Y-91365158D01*
X216870010Y-91635411D01*
X217032525Y-91878632D01*
X217239368Y-92085475D01*
X217482589Y-92247990D01*
X217752842Y-92359932D01*
X218039740Y-92417000D01*
X218332260Y-92417000D01*
X218601001Y-92363544D01*
X218601002Y-126115668D01*
X218597325Y-126153001D01*
X218611999Y-126301986D01*
X218655455Y-126445247D01*
X218726027Y-126577277D01*
X218757083Y-126615118D01*
X218821001Y-126693002D01*
X218849999Y-126716800D01*
X223582842Y-131449643D01*
X223522765Y-131647692D01*
X223495058Y-131929001D01*
X223522765Y-132210310D01*
X223604819Y-132480809D01*
X223738069Y-132730102D01*
X223917393Y-132948609D01*
X224135900Y-133127933D01*
X224385193Y-133261183D01*
X224655692Y-133343237D01*
X224866509Y-133364001D01*
X225407493Y-133364001D01*
X225618310Y-133343237D01*
X225888809Y-133261183D01*
X226138102Y-133127933D01*
X226356609Y-132948609D01*
X226535933Y-132730102D01*
X226669183Y-132480809D01*
X226751237Y-132210310D01*
X226778944Y-131929001D01*
X226751237Y-131647692D01*
X226669183Y-131377193D01*
X226535933Y-131127900D01*
X226356609Y-130909393D01*
X226138102Y-130730069D01*
X226005143Y-130659001D01*
X226138102Y-130587933D01*
X226356609Y-130408609D01*
X226535933Y-130190102D01*
X226669183Y-129940809D01*
X226751237Y-129670310D01*
X226778944Y-129389001D01*
X226751237Y-129107692D01*
X226669183Y-128837193D01*
X226535933Y-128587900D01*
X226356609Y-128369393D01*
X226138102Y-128190069D01*
X226005143Y-128119001D01*
X226138102Y-128047933D01*
X226356609Y-127868609D01*
X226535933Y-127650102D01*
X226669183Y-127400809D01*
X226751237Y-127130310D01*
X226778944Y-126849001D01*
X226751237Y-126567692D01*
X226669183Y-126297193D01*
X226535933Y-126047900D01*
X226356609Y-125829393D01*
X226138102Y-125650069D01*
X226005143Y-125579001D01*
X226138102Y-125507933D01*
X226356609Y-125328609D01*
X226535933Y-125110102D01*
X226669183Y-124860809D01*
X226751237Y-124590310D01*
X226778944Y-124309001D01*
X226751237Y-124027692D01*
X226669183Y-123757193D01*
X226535933Y-123507900D01*
X226356609Y-123289393D01*
X226138102Y-123110069D01*
X226005143Y-123039001D01*
X226138102Y-122967933D01*
X226356609Y-122788609D01*
X226535933Y-122570102D01*
X226669183Y-122320809D01*
X226751237Y-122050310D01*
X226778944Y-121769001D01*
X226751237Y-121487692D01*
X226669183Y-121217193D01*
X226535933Y-120967900D01*
X226356609Y-120749393D01*
X226138102Y-120570069D01*
X226005143Y-120499001D01*
X226138102Y-120427933D01*
X226356609Y-120248609D01*
X226535933Y-120030102D01*
X226669183Y-119780809D01*
X226751237Y-119510310D01*
X226778944Y-119229001D01*
X226751237Y-118947692D01*
X226669183Y-118677193D01*
X226535933Y-118427900D01*
X226356609Y-118209393D01*
X226138102Y-118030069D01*
X226005143Y-117959001D01*
X226138102Y-117887933D01*
X226356609Y-117708609D01*
X226535933Y-117490102D01*
X226669183Y-117240809D01*
X226751237Y-116970310D01*
X226778944Y-116689001D01*
X226751237Y-116407692D01*
X226669183Y-116137193D01*
X226535933Y-115887900D01*
X226403525Y-115726560D01*
X226491495Y-115679538D01*
X226588186Y-115600186D01*
X226667538Y-115503495D01*
X226726503Y-115393181D01*
X226762813Y-115273483D01*
X226775073Y-115149001D01*
X226775073Y-113450000D01*
X228381928Y-113450000D01*
X228381928Y-115150000D01*
X228394188Y-115274482D01*
X228430498Y-115394180D01*
X228489463Y-115504494D01*
X228568815Y-115601185D01*
X228665506Y-115680537D01*
X228775820Y-115739502D01*
X228848380Y-115761513D01*
X228716525Y-115893368D01*
X228554010Y-116136589D01*
X228442068Y-116406842D01*
X228385000Y-116693740D01*
X228385000Y-116986260D01*
X228442068Y-117273158D01*
X228554010Y-117543411D01*
X228716525Y-117786632D01*
X228923368Y-117993475D01*
X229097760Y-118110000D01*
X228923368Y-118226525D01*
X228716525Y-118433368D01*
X228554010Y-118676589D01*
X228442068Y-118946842D01*
X228385000Y-119233740D01*
X228385000Y-119526260D01*
X228442068Y-119813158D01*
X228554010Y-120083411D01*
X228716525Y-120326632D01*
X228923368Y-120533475D01*
X229097760Y-120650000D01*
X228923368Y-120766525D01*
X228716525Y-120973368D01*
X228554010Y-121216589D01*
X228442068Y-121486842D01*
X228385000Y-121773740D01*
X228385000Y-122066260D01*
X228442068Y-122353158D01*
X228554010Y-122623411D01*
X228716525Y-122866632D01*
X228923368Y-123073475D01*
X229097760Y-123190000D01*
X228923368Y-123306525D01*
X228716525Y-123513368D01*
X228554010Y-123756589D01*
X228442068Y-124026842D01*
X228385000Y-124313740D01*
X228385000Y-124606260D01*
X228442068Y-124893158D01*
X228554010Y-125163411D01*
X228716525Y-125406632D01*
X228923368Y-125613475D01*
X229097760Y-125730000D01*
X228923368Y-125846525D01*
X228716525Y-126053368D01*
X228554010Y-126296589D01*
X228442068Y-126566842D01*
X228385000Y-126853740D01*
X228385000Y-127146260D01*
X228442068Y-127433158D01*
X228554010Y-127703411D01*
X228716525Y-127946632D01*
X228923368Y-128153475D01*
X229097760Y-128270000D01*
X228923368Y-128386525D01*
X228716525Y-128593368D01*
X228554010Y-128836589D01*
X228442068Y-129106842D01*
X228385000Y-129393740D01*
X228385000Y-129686260D01*
X228442068Y-129973158D01*
X228554010Y-130243411D01*
X228716525Y-130486632D01*
X228923368Y-130693475D01*
X229097760Y-130810000D01*
X228923368Y-130926525D01*
X228716525Y-131133368D01*
X228554010Y-131376589D01*
X228442068Y-131646842D01*
X228385000Y-131933740D01*
X228385000Y-132226260D01*
X228442068Y-132513158D01*
X228554010Y-132783411D01*
X228716525Y-133026632D01*
X228923368Y-133233475D01*
X229166589Y-133395990D01*
X229436842Y-133507932D01*
X229723740Y-133565000D01*
X230016260Y-133565000D01*
X230303158Y-133507932D01*
X230573411Y-133395990D01*
X230816632Y-133233475D01*
X231023475Y-133026632D01*
X231185990Y-132783411D01*
X231297932Y-132513158D01*
X231355000Y-132226260D01*
X231355000Y-131933740D01*
X231304476Y-131679740D01*
X242101000Y-131679740D01*
X242101000Y-131972260D01*
X242158068Y-132259158D01*
X242270010Y-132529411D01*
X242432525Y-132772632D01*
X242639368Y-132979475D01*
X242882589Y-133141990D01*
X243152842Y-133253932D01*
X243439740Y-133311000D01*
X243732260Y-133311000D01*
X244019158Y-133253932D01*
X244289411Y-133141990D01*
X244532632Y-132979475D01*
X244739475Y-132772632D01*
X244901990Y-132529411D01*
X245013932Y-132259158D01*
X245071000Y-131972260D01*
X245071000Y-131929001D01*
X246355058Y-131929001D01*
X246382765Y-132210310D01*
X246464819Y-132480809D01*
X246598069Y-132730102D01*
X246777393Y-132948609D01*
X246995900Y-133127933D01*
X247245193Y-133261183D01*
X247515692Y-133343237D01*
X247726509Y-133364001D01*
X248267493Y-133364001D01*
X248478310Y-133343237D01*
X248748809Y-133261183D01*
X248998102Y-133127933D01*
X249216609Y-132948609D01*
X249395933Y-132730102D01*
X249529183Y-132480809D01*
X249557728Y-132386706D01*
X255154611Y-132386706D01*
X255201275Y-132755075D01*
X255318906Y-133107262D01*
X255444423Y-133342086D01*
X255734395Y-133468000D01*
X256868395Y-132334000D01*
X257227605Y-132334000D01*
X258361605Y-133468000D01*
X258651577Y-133342086D01*
X258817433Y-133009874D01*
X258915290Y-132651688D01*
X258941389Y-132281294D01*
X258894725Y-131912925D01*
X258777094Y-131560738D01*
X258651577Y-131325914D01*
X258361605Y-131200000D01*
X257227605Y-132334000D01*
X256868395Y-132334000D01*
X255734395Y-131200000D01*
X255444423Y-131325914D01*
X255278567Y-131658126D01*
X255180710Y-132016312D01*
X255154611Y-132386706D01*
X249557728Y-132386706D01*
X249611237Y-132210310D01*
X249638944Y-131929001D01*
X249611237Y-131647692D01*
X249529183Y-131377193D01*
X249395933Y-131127900D01*
X249307706Y-131020395D01*
X255914000Y-131020395D01*
X257048000Y-132154395D01*
X258182000Y-131020395D01*
X258056086Y-130730423D01*
X257723874Y-130564567D01*
X257365688Y-130466710D01*
X256995294Y-130440611D01*
X256626925Y-130487275D01*
X256274738Y-130604906D01*
X256039914Y-130730423D01*
X255914000Y-131020395D01*
X249307706Y-131020395D01*
X249216609Y-130909393D01*
X248998102Y-130730069D01*
X248868656Y-130660879D01*
X248886228Y-130653431D01*
X249119663Y-130494674D01*
X249317640Y-130293426D01*
X249472552Y-130057422D01*
X249578445Y-129795731D01*
X249588905Y-129738040D01*
X249466916Y-129516001D01*
X248124001Y-129516001D01*
X248124001Y-129536001D01*
X247870001Y-129536001D01*
X247870001Y-129516001D01*
X246527086Y-129516001D01*
X246405097Y-129738040D01*
X246415557Y-129795731D01*
X246521450Y-130057422D01*
X246676362Y-130293426D01*
X246874339Y-130494674D01*
X247107774Y-130653431D01*
X247125346Y-130660879D01*
X246995900Y-130730069D01*
X246777393Y-130909393D01*
X246598069Y-131127900D01*
X246464819Y-131377193D01*
X246382765Y-131647692D01*
X246355058Y-131929001D01*
X245071000Y-131929001D01*
X245071000Y-131679740D01*
X245013932Y-131392842D01*
X244901990Y-131122589D01*
X244739475Y-130879368D01*
X244532632Y-130672525D01*
X244350466Y-130550805D01*
X244467355Y-130481178D01*
X244683588Y-130286269D01*
X244857641Y-130052920D01*
X244982825Y-129790099D01*
X245027476Y-129642890D01*
X244906155Y-129413000D01*
X243713000Y-129413000D01*
X243713000Y-129433000D01*
X243459000Y-129433000D01*
X243459000Y-129413000D01*
X242265845Y-129413000D01*
X242144524Y-129642890D01*
X242189175Y-129790099D01*
X242314359Y-130052920D01*
X242488412Y-130286269D01*
X242704645Y-130481178D01*
X242821534Y-130550805D01*
X242639368Y-130672525D01*
X242432525Y-130879368D01*
X242270010Y-131122589D01*
X242158068Y-131392842D01*
X242101000Y-131679740D01*
X231304476Y-131679740D01*
X231297932Y-131646842D01*
X231185990Y-131376589D01*
X231023475Y-131133368D01*
X230816632Y-130926525D01*
X230642240Y-130810000D01*
X230816632Y-130693475D01*
X231023475Y-130486632D01*
X231185990Y-130243411D01*
X231297932Y-129973158D01*
X231355000Y-129686260D01*
X231355000Y-129393740D01*
X231297932Y-129106842D01*
X231185990Y-128836589D01*
X231023475Y-128593368D01*
X230816632Y-128386525D01*
X230642240Y-128270000D01*
X230816632Y-128153475D01*
X231023475Y-127946632D01*
X231185990Y-127703411D01*
X231297932Y-127433158D01*
X231355000Y-127146260D01*
X231355000Y-126853740D01*
X231297932Y-126566842D01*
X231185990Y-126296589D01*
X231023475Y-126053368D01*
X230816632Y-125846525D01*
X230642240Y-125730000D01*
X230816632Y-125613475D01*
X231023475Y-125406632D01*
X231185990Y-125163411D01*
X231297932Y-124893158D01*
X231355000Y-124606260D01*
X231355000Y-124313740D01*
X231297932Y-124026842D01*
X231185990Y-123756589D01*
X231023475Y-123513368D01*
X230816632Y-123306525D01*
X230642240Y-123190000D01*
X230816632Y-123073475D01*
X231023475Y-122866632D01*
X231185990Y-122623411D01*
X231297932Y-122353158D01*
X231355000Y-122066260D01*
X231355000Y-121773740D01*
X231297932Y-121486842D01*
X231185990Y-121216589D01*
X231023475Y-120973368D01*
X230816632Y-120766525D01*
X230642240Y-120650000D01*
X230816632Y-120533475D01*
X231023475Y-120326632D01*
X231185990Y-120083411D01*
X231297932Y-119813158D01*
X231355000Y-119526260D01*
X231355000Y-119233740D01*
X231297932Y-118946842D01*
X231185990Y-118676589D01*
X231023475Y-118433368D01*
X230816632Y-118226525D01*
X230642240Y-118110000D01*
X230816632Y-117993475D01*
X231023475Y-117786632D01*
X231185990Y-117543411D01*
X231297932Y-117273158D01*
X231355000Y-116986260D01*
X231355000Y-116693740D01*
X231297932Y-116406842D01*
X231185990Y-116136589D01*
X231023475Y-115893368D01*
X230891620Y-115761513D01*
X230964180Y-115739502D01*
X231074494Y-115680537D01*
X231171185Y-115601185D01*
X231250537Y-115504494D01*
X231309502Y-115394180D01*
X231345812Y-115274482D01*
X231358072Y-115150000D01*
X231358072Y-113450000D01*
X231345812Y-113325518D01*
X231309502Y-113205820D01*
X231304254Y-113196000D01*
X242097928Y-113196000D01*
X242097928Y-114896000D01*
X242110188Y-115020482D01*
X242146498Y-115140180D01*
X242205463Y-115250494D01*
X242284815Y-115347185D01*
X242381506Y-115426537D01*
X242491820Y-115485502D01*
X242564380Y-115507513D01*
X242432525Y-115639368D01*
X242270010Y-115882589D01*
X242158068Y-116152842D01*
X242101000Y-116439740D01*
X242101000Y-116732260D01*
X242158068Y-117019158D01*
X242270010Y-117289411D01*
X242432525Y-117532632D01*
X242639368Y-117739475D01*
X242813760Y-117856000D01*
X242639368Y-117972525D01*
X242432525Y-118179368D01*
X242270010Y-118422589D01*
X242158068Y-118692842D01*
X242101000Y-118979740D01*
X242101000Y-119272260D01*
X242158068Y-119559158D01*
X242270010Y-119829411D01*
X242432525Y-120072632D01*
X242639368Y-120279475D01*
X242813760Y-120396000D01*
X242639368Y-120512525D01*
X242432525Y-120719368D01*
X242270010Y-120962589D01*
X242158068Y-121232842D01*
X242101000Y-121519740D01*
X242101000Y-121812260D01*
X242158068Y-122099158D01*
X242270010Y-122369411D01*
X242432525Y-122612632D01*
X242639368Y-122819475D01*
X242813760Y-122936000D01*
X242639368Y-123052525D01*
X242432525Y-123259368D01*
X242270010Y-123502589D01*
X242158068Y-123772842D01*
X242101000Y-124059740D01*
X242101000Y-124352260D01*
X242158068Y-124639158D01*
X242270010Y-124909411D01*
X242432525Y-125152632D01*
X242639368Y-125359475D01*
X242813760Y-125476000D01*
X242639368Y-125592525D01*
X242432525Y-125799368D01*
X242270010Y-126042589D01*
X242158068Y-126312842D01*
X242101000Y-126599740D01*
X242101000Y-126892260D01*
X242158068Y-127179158D01*
X242270010Y-127449411D01*
X242432525Y-127692632D01*
X242639368Y-127899475D01*
X242821534Y-128021195D01*
X242704645Y-128090822D01*
X242488412Y-128285731D01*
X242314359Y-128519080D01*
X242189175Y-128781901D01*
X242144524Y-128929110D01*
X242265845Y-129159000D01*
X243459000Y-129159000D01*
X243459000Y-129139000D01*
X243713000Y-129139000D01*
X243713000Y-129159000D01*
X244906155Y-129159000D01*
X245027476Y-128929110D01*
X244982825Y-128781901D01*
X244857641Y-128519080D01*
X244683588Y-128285731D01*
X244467355Y-128090822D01*
X244350466Y-128021195D01*
X244532632Y-127899475D01*
X244739475Y-127692632D01*
X244901990Y-127449411D01*
X245013932Y-127179158D01*
X245071000Y-126892260D01*
X245071000Y-126599740D01*
X245013932Y-126312842D01*
X244901990Y-126042589D01*
X244739475Y-125799368D01*
X244532632Y-125592525D01*
X244358240Y-125476000D01*
X244532632Y-125359475D01*
X244739475Y-125152632D01*
X244901990Y-124909411D01*
X245013932Y-124639158D01*
X245071000Y-124352260D01*
X245071000Y-124059740D01*
X245013932Y-123772842D01*
X244901990Y-123502589D01*
X244739475Y-123259368D01*
X244532632Y-123052525D01*
X244358240Y-122936000D01*
X244532632Y-122819475D01*
X244739475Y-122612632D01*
X244901990Y-122369411D01*
X245013932Y-122099158D01*
X245071000Y-121812260D01*
X245071000Y-121519740D01*
X245013932Y-121232842D01*
X244901990Y-120962589D01*
X244739475Y-120719368D01*
X244532632Y-120512525D01*
X244358240Y-120396000D01*
X244532632Y-120279475D01*
X244739475Y-120072632D01*
X244901990Y-119829411D01*
X245013932Y-119559158D01*
X245071000Y-119272260D01*
X245071000Y-118979740D01*
X245013932Y-118692842D01*
X244901990Y-118422589D01*
X244739475Y-118179368D01*
X244532632Y-117972525D01*
X244358240Y-117856000D01*
X244532632Y-117739475D01*
X244739475Y-117532632D01*
X244901990Y-117289411D01*
X245013932Y-117019158D01*
X245071000Y-116732260D01*
X245071000Y-116439740D01*
X245013932Y-116152842D01*
X244901990Y-115882589D01*
X244739475Y-115639368D01*
X244607620Y-115507513D01*
X244680180Y-115485502D01*
X244790494Y-115426537D01*
X244887185Y-115347185D01*
X244966537Y-115250494D01*
X245025502Y-115140180D01*
X245061812Y-115020482D01*
X245074072Y-114896000D01*
X245074072Y-114149001D01*
X246355058Y-114149001D01*
X246382765Y-114430310D01*
X246464819Y-114700809D01*
X246598069Y-114950102D01*
X246777393Y-115168609D01*
X246995900Y-115347933D01*
X247128859Y-115419001D01*
X246995900Y-115490069D01*
X246777393Y-115669393D01*
X246598069Y-115887900D01*
X246464819Y-116137193D01*
X246382765Y-116407692D01*
X246355058Y-116689001D01*
X246382765Y-116970310D01*
X246464819Y-117240809D01*
X246598069Y-117490102D01*
X246777393Y-117708609D01*
X246995900Y-117887933D01*
X247128859Y-117959001D01*
X246995900Y-118030069D01*
X246777393Y-118209393D01*
X246598069Y-118427900D01*
X246464819Y-118677193D01*
X246382765Y-118947692D01*
X246355058Y-119229001D01*
X246382765Y-119510310D01*
X246464819Y-119780809D01*
X246598069Y-120030102D01*
X246777393Y-120248609D01*
X246995900Y-120427933D01*
X247128859Y-120499001D01*
X246995900Y-120570069D01*
X246777393Y-120749393D01*
X246598069Y-120967900D01*
X246464819Y-121217193D01*
X246382765Y-121487692D01*
X246355058Y-121769001D01*
X246382765Y-122050310D01*
X246464819Y-122320809D01*
X246598069Y-122570102D01*
X246777393Y-122788609D01*
X246995900Y-122967933D01*
X247128859Y-123039001D01*
X246995900Y-123110069D01*
X246777393Y-123289393D01*
X246598069Y-123507900D01*
X246464819Y-123757193D01*
X246382765Y-124027692D01*
X246355058Y-124309001D01*
X246382765Y-124590310D01*
X246464819Y-124860809D01*
X246598069Y-125110102D01*
X246777393Y-125328609D01*
X246995900Y-125507933D01*
X247128859Y-125579001D01*
X246995900Y-125650069D01*
X246777393Y-125829393D01*
X246598069Y-126047900D01*
X246464819Y-126297193D01*
X246382765Y-126567692D01*
X246355058Y-126849001D01*
X246382765Y-127130310D01*
X246464819Y-127400809D01*
X246598069Y-127650102D01*
X246777393Y-127868609D01*
X246995900Y-128047933D01*
X247125346Y-128117123D01*
X247107774Y-128124571D01*
X246874339Y-128283328D01*
X246676362Y-128484576D01*
X246521450Y-128720580D01*
X246415557Y-128982271D01*
X246405097Y-129039962D01*
X246527086Y-129262001D01*
X247870001Y-129262001D01*
X247870001Y-129242001D01*
X248124001Y-129242001D01*
X248124001Y-129262001D01*
X249466916Y-129262001D01*
X249588905Y-129039962D01*
X249578445Y-128982271D01*
X249472552Y-128720580D01*
X249317640Y-128484576D01*
X249119663Y-128283328D01*
X248886228Y-128124571D01*
X248868656Y-128117123D01*
X248998102Y-128047933D01*
X249216609Y-127868609D01*
X249395933Y-127650102D01*
X249529183Y-127400809D01*
X249611237Y-127130310D01*
X249617340Y-127068344D01*
X255163000Y-127068344D01*
X255163000Y-127439656D01*
X255235439Y-127803834D01*
X255377534Y-128146882D01*
X255583825Y-128455618D01*
X255846382Y-128718175D01*
X256155118Y-128924466D01*
X256498166Y-129066561D01*
X256862344Y-129139000D01*
X257233656Y-129139000D01*
X257597834Y-129066561D01*
X257940882Y-128924466D01*
X258249618Y-128718175D01*
X258512175Y-128455618D01*
X258718466Y-128146882D01*
X258860561Y-127803834D01*
X258933000Y-127439656D01*
X258933000Y-127068344D01*
X258860561Y-126704166D01*
X258718466Y-126361118D01*
X258512175Y-126052382D01*
X258249618Y-125789825D01*
X257940882Y-125583534D01*
X257597834Y-125441439D01*
X257233656Y-125369000D01*
X256862344Y-125369000D01*
X256498166Y-125441439D01*
X256155118Y-125583534D01*
X255846382Y-125789825D01*
X255583825Y-126052382D01*
X255377534Y-126361118D01*
X255235439Y-126704166D01*
X255163000Y-127068344D01*
X249617340Y-127068344D01*
X249638944Y-126849001D01*
X249611237Y-126567692D01*
X249529183Y-126297193D01*
X249395933Y-126047900D01*
X249216609Y-125829393D01*
X248998102Y-125650069D01*
X248865143Y-125579001D01*
X248998102Y-125507933D01*
X249216609Y-125328609D01*
X249395933Y-125110102D01*
X249529183Y-124860809D01*
X249611237Y-124590310D01*
X249638944Y-124309001D01*
X249611237Y-124027692D01*
X249529183Y-123757193D01*
X249395933Y-123507900D01*
X249216609Y-123289393D01*
X248998102Y-123110069D01*
X248865143Y-123039001D01*
X248998102Y-122967933D01*
X249216609Y-122788609D01*
X249395933Y-122570102D01*
X249529183Y-122320809D01*
X249611237Y-122050310D01*
X249617340Y-121988344D01*
X255163000Y-121988344D01*
X255163000Y-122359656D01*
X255235439Y-122723834D01*
X255377534Y-123066882D01*
X255583825Y-123375618D01*
X255846382Y-123638175D01*
X256155118Y-123844466D01*
X256498166Y-123986561D01*
X256862344Y-124059000D01*
X257233656Y-124059000D01*
X257597834Y-123986561D01*
X257940882Y-123844466D01*
X258249618Y-123638175D01*
X258512175Y-123375618D01*
X258718466Y-123066882D01*
X258860561Y-122723834D01*
X258933000Y-122359656D01*
X258933000Y-121988344D01*
X258860561Y-121624166D01*
X258718466Y-121281118D01*
X258512175Y-120972382D01*
X258249618Y-120709825D01*
X257940882Y-120503534D01*
X257597834Y-120361439D01*
X257233656Y-120289000D01*
X256862344Y-120289000D01*
X256498166Y-120361439D01*
X256155118Y-120503534D01*
X255846382Y-120709825D01*
X255583825Y-120972382D01*
X255377534Y-121281118D01*
X255235439Y-121624166D01*
X255163000Y-121988344D01*
X249617340Y-121988344D01*
X249638944Y-121769001D01*
X249611237Y-121487692D01*
X249529183Y-121217193D01*
X249395933Y-120967900D01*
X249216609Y-120749393D01*
X248998102Y-120570069D01*
X248865143Y-120499001D01*
X248998102Y-120427933D01*
X249216609Y-120248609D01*
X249395933Y-120030102D01*
X249529183Y-119780809D01*
X249611237Y-119510310D01*
X249638944Y-119229001D01*
X249611237Y-118947692D01*
X249529183Y-118677193D01*
X249395933Y-118427900D01*
X249216609Y-118209393D01*
X248998102Y-118030069D01*
X248865143Y-117959001D01*
X248998102Y-117887933D01*
X249216609Y-117708609D01*
X249395933Y-117490102D01*
X249529183Y-117240809D01*
X249611237Y-116970310D01*
X249617340Y-116908344D01*
X255163000Y-116908344D01*
X255163000Y-117279656D01*
X255235439Y-117643834D01*
X255377534Y-117986882D01*
X255583825Y-118295618D01*
X255846382Y-118558175D01*
X256155118Y-118764466D01*
X256498166Y-118906561D01*
X256862344Y-118979000D01*
X257233656Y-118979000D01*
X257597834Y-118906561D01*
X257940882Y-118764466D01*
X258249618Y-118558175D01*
X258512175Y-118295618D01*
X258718466Y-117986882D01*
X258860561Y-117643834D01*
X258933000Y-117279656D01*
X258933000Y-116908344D01*
X258860561Y-116544166D01*
X258718466Y-116201118D01*
X258512175Y-115892382D01*
X258249618Y-115629825D01*
X257940882Y-115423534D01*
X257597834Y-115281439D01*
X257233656Y-115209000D01*
X256862344Y-115209000D01*
X256498166Y-115281439D01*
X256155118Y-115423534D01*
X255846382Y-115629825D01*
X255583825Y-115892382D01*
X255377534Y-116201118D01*
X255235439Y-116544166D01*
X255163000Y-116908344D01*
X249617340Y-116908344D01*
X249638944Y-116689001D01*
X249611237Y-116407692D01*
X249529183Y-116137193D01*
X249395933Y-115887900D01*
X249216609Y-115669393D01*
X248998102Y-115490069D01*
X248865143Y-115419001D01*
X248998102Y-115347933D01*
X249216609Y-115168609D01*
X249395933Y-114950102D01*
X249529183Y-114700809D01*
X249611237Y-114430310D01*
X249638944Y-114149001D01*
X249611237Y-113867692D01*
X249529183Y-113597193D01*
X249395933Y-113347900D01*
X249216609Y-113129393D01*
X248998102Y-112950069D01*
X248748809Y-112816819D01*
X248478310Y-112734765D01*
X248267493Y-112714001D01*
X247726509Y-112714001D01*
X247515692Y-112734765D01*
X247245193Y-112816819D01*
X246995900Y-112950069D01*
X246777393Y-113129393D01*
X246598069Y-113347900D01*
X246464819Y-113597193D01*
X246382765Y-113867692D01*
X246355058Y-114149001D01*
X245074072Y-114149001D01*
X245074072Y-113196000D01*
X245061812Y-113071518D01*
X245025502Y-112951820D01*
X244966537Y-112841506D01*
X244887185Y-112744815D01*
X244790494Y-112665463D01*
X244680180Y-112606498D01*
X244560482Y-112570188D01*
X244436000Y-112557928D01*
X242736000Y-112557928D01*
X242611518Y-112570188D01*
X242491820Y-112606498D01*
X242381506Y-112665463D01*
X242284815Y-112744815D01*
X242205463Y-112841506D01*
X242146498Y-112951820D01*
X242110188Y-113071518D01*
X242097928Y-113196000D01*
X231304254Y-113196000D01*
X231250537Y-113095506D01*
X231171185Y-112998815D01*
X231074494Y-112919463D01*
X230964180Y-112860498D01*
X230844482Y-112824188D01*
X230720000Y-112811928D01*
X229020000Y-112811928D01*
X228895518Y-112824188D01*
X228775820Y-112860498D01*
X228665506Y-112919463D01*
X228568815Y-112998815D01*
X228489463Y-113095506D01*
X228430498Y-113205820D01*
X228394188Y-113325518D01*
X228381928Y-113450000D01*
X226775073Y-113450000D01*
X226775073Y-113149001D01*
X226762813Y-113024519D01*
X226726503Y-112904821D01*
X226667538Y-112794507D01*
X226588186Y-112697816D01*
X226491495Y-112618464D01*
X226381181Y-112559499D01*
X226261483Y-112523189D01*
X226137001Y-112510929D01*
X224137001Y-112510929D01*
X224012519Y-112523189D01*
X223892821Y-112559499D01*
X223782507Y-112618464D01*
X223685816Y-112697816D01*
X223606464Y-112794507D01*
X223547499Y-112904821D01*
X223511189Y-113024519D01*
X223498929Y-113149001D01*
X223498929Y-115149001D01*
X223511189Y-115273483D01*
X223547499Y-115393181D01*
X223606464Y-115503495D01*
X223685816Y-115600186D01*
X223782507Y-115679538D01*
X223870477Y-115726560D01*
X223738069Y-115887900D01*
X223604819Y-116137193D01*
X223522765Y-116407692D01*
X223495058Y-116689001D01*
X223522765Y-116970310D01*
X223604819Y-117240809D01*
X223738069Y-117490102D01*
X223917393Y-117708609D01*
X224135900Y-117887933D01*
X224268859Y-117959001D01*
X224135900Y-118030069D01*
X223917393Y-118209393D01*
X223738069Y-118427900D01*
X223604819Y-118677193D01*
X223522765Y-118947692D01*
X223495058Y-119229001D01*
X223522765Y-119510310D01*
X223604819Y-119780809D01*
X223738069Y-120030102D01*
X223917393Y-120248609D01*
X224135900Y-120427933D01*
X224268859Y-120499001D01*
X224135900Y-120570069D01*
X223917393Y-120749393D01*
X223738069Y-120967900D01*
X223604819Y-121217193D01*
X223522765Y-121487692D01*
X223495058Y-121769001D01*
X223522765Y-122050310D01*
X223604819Y-122320809D01*
X223738069Y-122570102D01*
X223917393Y-122788609D01*
X224135900Y-122967933D01*
X224268859Y-123039001D01*
X224135900Y-123110069D01*
X223917393Y-123289393D01*
X223738069Y-123507900D01*
X223604819Y-123757193D01*
X223522765Y-124027692D01*
X223495058Y-124309001D01*
X223522765Y-124590310D01*
X223604819Y-124860809D01*
X223738069Y-125110102D01*
X223917393Y-125328609D01*
X224135900Y-125507933D01*
X224268859Y-125579001D01*
X224135900Y-125650069D01*
X223917393Y-125829393D01*
X223738069Y-126047900D01*
X223604819Y-126297193D01*
X223522765Y-126567692D01*
X223495058Y-126849001D01*
X223522765Y-127130310D01*
X223604819Y-127400809D01*
X223738069Y-127650102D01*
X223917393Y-127868609D01*
X224135900Y-128047933D01*
X224268859Y-128119001D01*
X224135900Y-128190069D01*
X223917393Y-128369393D01*
X223738069Y-128587900D01*
X223604819Y-128837193D01*
X223522765Y-129107692D01*
X223510905Y-129228104D01*
X220121001Y-125838200D01*
X220121001Y-111828344D01*
X255163000Y-111828344D01*
X255163000Y-112199656D01*
X255235439Y-112563834D01*
X255377534Y-112906882D01*
X255583825Y-113215618D01*
X255846382Y-113478175D01*
X256155118Y-113684466D01*
X256498166Y-113826561D01*
X256862344Y-113899000D01*
X257233656Y-113899000D01*
X257597834Y-113826561D01*
X257940882Y-113684466D01*
X258249618Y-113478175D01*
X258512175Y-113215618D01*
X258718466Y-112906882D01*
X258860561Y-112563834D01*
X258933000Y-112199656D01*
X258933000Y-111828344D01*
X258860561Y-111464166D01*
X258718466Y-111121118D01*
X258512175Y-110812382D01*
X258249618Y-110549825D01*
X257940882Y-110343534D01*
X257597834Y-110201439D01*
X257233656Y-110129000D01*
X256862344Y-110129000D01*
X256498166Y-110201439D01*
X256155118Y-110343534D01*
X255846382Y-110549825D01*
X255583825Y-110812382D01*
X255377534Y-111121118D01*
X255235439Y-111464166D01*
X255163000Y-111828344D01*
X220121001Y-111828344D01*
X220121001Y-106748344D01*
X255163000Y-106748344D01*
X255163000Y-107119656D01*
X255235439Y-107483834D01*
X255377534Y-107826882D01*
X255583825Y-108135618D01*
X255846382Y-108398175D01*
X256155118Y-108604466D01*
X256498166Y-108746561D01*
X256862344Y-108819000D01*
X257233656Y-108819000D01*
X257597834Y-108746561D01*
X257940882Y-108604466D01*
X258249618Y-108398175D01*
X258512175Y-108135618D01*
X258718466Y-107826882D01*
X258860561Y-107483834D01*
X258933000Y-107119656D01*
X258933000Y-106748344D01*
X258860561Y-106384166D01*
X258718466Y-106041118D01*
X258512175Y-105732382D01*
X258249618Y-105469825D01*
X257940882Y-105263534D01*
X257597834Y-105121439D01*
X257233656Y-105049000D01*
X256862344Y-105049000D01*
X256498166Y-105121439D01*
X256155118Y-105263534D01*
X255846382Y-105469825D01*
X255583825Y-105732382D01*
X255377534Y-106041118D01*
X255235439Y-106384166D01*
X255163000Y-106748344D01*
X220121001Y-106748344D01*
X220121001Y-87064323D01*
X220124677Y-87027000D01*
X220121001Y-86989677D01*
X220121001Y-86989668D01*
X220110004Y-86878015D01*
X220066547Y-86734754D01*
X219995975Y-86602725D01*
X219901002Y-86487000D01*
X219872005Y-86463203D01*
X219627210Y-86218408D01*
X219671000Y-85998260D01*
X219671000Y-85705740D01*
X219613932Y-85418842D01*
X219501990Y-85148589D01*
X219339475Y-84905368D01*
X219207620Y-84773513D01*
X219280180Y-84751502D01*
X219390494Y-84692537D01*
X219487185Y-84613185D01*
X219566537Y-84516494D01*
X219617598Y-84420967D01*
X223409000Y-84420967D01*
X223409000Y-84743033D01*
X223471832Y-85058912D01*
X223595082Y-85356463D01*
X223774013Y-85624252D01*
X224001748Y-85851987D01*
X224001767Y-85852000D01*
X224001748Y-85852013D01*
X223774013Y-86079748D01*
X223595082Y-86347537D01*
X223471832Y-86645088D01*
X223409000Y-86960967D01*
X223409000Y-87283033D01*
X223471832Y-87598912D01*
X223595082Y-87896463D01*
X223774013Y-88164252D01*
X224001748Y-88391987D01*
X224001767Y-88392000D01*
X224001748Y-88392013D01*
X223774013Y-88619748D01*
X223595082Y-88887537D01*
X223471832Y-89185088D01*
X223409000Y-89500967D01*
X223409000Y-89823033D01*
X223471832Y-90138912D01*
X223595082Y-90436463D01*
X223774013Y-90704252D01*
X224001748Y-90931987D01*
X224001767Y-90932000D01*
X224001748Y-90932013D01*
X223774013Y-91159748D01*
X223595082Y-91427537D01*
X223471832Y-91725088D01*
X223409000Y-92040967D01*
X223409000Y-92363033D01*
X223471832Y-92678912D01*
X223595082Y-92976463D01*
X223774013Y-93244252D01*
X224001748Y-93471987D01*
X224001767Y-93472000D01*
X224001748Y-93472013D01*
X223774013Y-93699748D01*
X223595082Y-93967537D01*
X223471832Y-94265088D01*
X223409000Y-94580967D01*
X223409000Y-94903033D01*
X223471832Y-95218912D01*
X223595082Y-95516463D01*
X223774013Y-95784252D01*
X224001748Y-96011987D01*
X224001767Y-96012000D01*
X224001748Y-96012013D01*
X223774013Y-96239748D01*
X223595082Y-96507537D01*
X223471832Y-96805088D01*
X223409000Y-97120967D01*
X223409000Y-97443033D01*
X223471832Y-97758912D01*
X223595082Y-98056463D01*
X223774013Y-98324252D01*
X224001748Y-98551987D01*
X224001767Y-98552000D01*
X224001748Y-98552013D01*
X223774013Y-98779748D01*
X223595082Y-99047537D01*
X223471832Y-99345088D01*
X223409000Y-99660967D01*
X223409000Y-99983033D01*
X223471832Y-100298912D01*
X223595082Y-100596463D01*
X223774013Y-100864252D01*
X224001748Y-101091987D01*
X224001767Y-101092000D01*
X224001748Y-101092013D01*
X223774013Y-101319748D01*
X223595082Y-101587537D01*
X223471832Y-101885088D01*
X223409000Y-102200967D01*
X223409000Y-102523033D01*
X223471832Y-102838912D01*
X223595082Y-103136463D01*
X223774013Y-103404252D01*
X224001748Y-103631987D01*
X224269537Y-103810918D01*
X224567088Y-103934168D01*
X224882967Y-103997000D01*
X225205033Y-103997000D01*
X225520912Y-103934168D01*
X225818463Y-103810918D01*
X226086252Y-103631987D01*
X226313987Y-103404252D01*
X226314000Y-103404233D01*
X226314013Y-103404252D01*
X226541748Y-103631987D01*
X226809537Y-103810918D01*
X227107088Y-103934168D01*
X227422967Y-103997000D01*
X227745033Y-103997000D01*
X228060912Y-103934168D01*
X228358463Y-103810918D01*
X228626252Y-103631987D01*
X228853987Y-103404252D01*
X228854000Y-103404233D01*
X228854013Y-103404252D01*
X229081748Y-103631987D01*
X229349537Y-103810918D01*
X229647088Y-103934168D01*
X229962967Y-103997000D01*
X230285033Y-103997000D01*
X230600912Y-103934168D01*
X230898463Y-103810918D01*
X231166252Y-103631987D01*
X231393987Y-103404252D01*
X231394000Y-103404233D01*
X231394013Y-103404252D01*
X231621748Y-103631987D01*
X231889537Y-103810918D01*
X232187088Y-103934168D01*
X232502967Y-103997000D01*
X232825033Y-103997000D01*
X233140912Y-103934168D01*
X233438463Y-103810918D01*
X233706252Y-103631987D01*
X233933987Y-103404252D01*
X233934000Y-103404233D01*
X233934013Y-103404252D01*
X234161748Y-103631987D01*
X234429537Y-103810918D01*
X234727088Y-103934168D01*
X235042967Y-103997000D01*
X235365033Y-103997000D01*
X235680912Y-103934168D01*
X235978463Y-103810918D01*
X236246252Y-103631987D01*
X236473987Y-103404252D01*
X236474000Y-103404233D01*
X236474013Y-103404252D01*
X236701748Y-103631987D01*
X236969537Y-103810918D01*
X237267088Y-103934168D01*
X237582967Y-103997000D01*
X237905033Y-103997000D01*
X238220912Y-103934168D01*
X238518463Y-103810918D01*
X238786252Y-103631987D01*
X239013987Y-103404252D01*
X239014000Y-103404233D01*
X239014013Y-103404252D01*
X239241748Y-103631987D01*
X239509537Y-103810918D01*
X239807088Y-103934168D01*
X240122967Y-103997000D01*
X240445033Y-103997000D01*
X240760912Y-103934168D01*
X241058463Y-103810918D01*
X241326252Y-103631987D01*
X241553987Y-103404252D01*
X241554000Y-103404233D01*
X241554013Y-103404252D01*
X241781748Y-103631987D01*
X242049537Y-103810918D01*
X242347088Y-103934168D01*
X242662967Y-103997000D01*
X242985033Y-103997000D01*
X243300912Y-103934168D01*
X243598463Y-103810918D01*
X243866252Y-103631987D01*
X244093987Y-103404252D01*
X244094000Y-103404233D01*
X244094013Y-103404252D01*
X244321748Y-103631987D01*
X244589537Y-103810918D01*
X244887088Y-103934168D01*
X245202967Y-103997000D01*
X245525033Y-103997000D01*
X245840912Y-103934168D01*
X246138463Y-103810918D01*
X246406252Y-103631987D01*
X246633987Y-103404252D01*
X246634000Y-103404233D01*
X246634013Y-103404252D01*
X246861748Y-103631987D01*
X247129537Y-103810918D01*
X247427088Y-103934168D01*
X247742967Y-103997000D01*
X248065033Y-103997000D01*
X248380912Y-103934168D01*
X248678463Y-103810918D01*
X248946252Y-103631987D01*
X249173987Y-103404252D01*
X249352918Y-103136463D01*
X249476168Y-102838912D01*
X249539000Y-102523033D01*
X249539000Y-102200967D01*
X249476168Y-101885088D01*
X249352918Y-101587537D01*
X249173987Y-101319748D01*
X248946252Y-101092013D01*
X248946233Y-101092000D01*
X248946252Y-101091987D01*
X249173987Y-100864252D01*
X249347881Y-100604000D01*
X255159928Y-100604000D01*
X255159928Y-103104000D01*
X255172188Y-103228482D01*
X255208498Y-103348180D01*
X255267463Y-103458494D01*
X255346815Y-103555185D01*
X255443506Y-103634537D01*
X255553820Y-103693502D01*
X255673518Y-103729812D01*
X255798000Y-103742072D01*
X258298000Y-103742072D01*
X258422482Y-103729812D01*
X258542180Y-103693502D01*
X258652494Y-103634537D01*
X258749185Y-103555185D01*
X258828537Y-103458494D01*
X258887502Y-103348180D01*
X258923812Y-103228482D01*
X258936072Y-103104000D01*
X258936072Y-100604000D01*
X258923812Y-100479518D01*
X258887502Y-100359820D01*
X258828537Y-100249506D01*
X258749185Y-100152815D01*
X258652494Y-100073463D01*
X258542180Y-100014498D01*
X258422482Y-99978188D01*
X258298000Y-99965928D01*
X255798000Y-99965928D01*
X255673518Y-99978188D01*
X255553820Y-100014498D01*
X255443506Y-100073463D01*
X255346815Y-100152815D01*
X255267463Y-100249506D01*
X255208498Y-100359820D01*
X255172188Y-100479518D01*
X255159928Y-100604000D01*
X249347881Y-100604000D01*
X249352918Y-100596463D01*
X249476168Y-100298912D01*
X249539000Y-99983033D01*
X249539000Y-99660967D01*
X249476168Y-99345088D01*
X249352918Y-99047537D01*
X249173987Y-98779748D01*
X248946252Y-98552013D01*
X248946233Y-98552000D01*
X248946252Y-98551987D01*
X249173987Y-98324252D01*
X249352918Y-98056463D01*
X249476168Y-97758912D01*
X249539000Y-97443033D01*
X249539000Y-97120967D01*
X249476168Y-96805088D01*
X249352918Y-96507537D01*
X249173987Y-96239748D01*
X248946252Y-96012013D01*
X248946233Y-96012000D01*
X248946252Y-96011987D01*
X249173987Y-95784252D01*
X249352918Y-95516463D01*
X249476168Y-95218912D01*
X249539000Y-94903033D01*
X249539000Y-94580967D01*
X249476168Y-94265088D01*
X249352918Y-93967537D01*
X249173987Y-93699748D01*
X248946252Y-93472013D01*
X248946233Y-93472000D01*
X248946252Y-93471987D01*
X249173987Y-93244252D01*
X249352918Y-92976463D01*
X249476168Y-92678912D01*
X249539000Y-92363033D01*
X249539000Y-92040967D01*
X249476168Y-91725088D01*
X249352918Y-91427537D01*
X249173987Y-91159748D01*
X248946252Y-90932013D01*
X248946233Y-90932000D01*
X248946252Y-90931987D01*
X249173987Y-90704252D01*
X249352918Y-90436463D01*
X249471575Y-90150000D01*
X255413928Y-90150000D01*
X255426188Y-90274482D01*
X255462498Y-90394180D01*
X255521463Y-90504494D01*
X255600815Y-90601185D01*
X255697506Y-90680537D01*
X255807820Y-90739502D01*
X255927518Y-90775812D01*
X256052000Y-90788072D01*
X257016250Y-90785000D01*
X257175000Y-90626250D01*
X257175000Y-89027000D01*
X257429000Y-89027000D01*
X257429000Y-90626250D01*
X257587750Y-90785000D01*
X258552000Y-90788072D01*
X258676482Y-90775812D01*
X258796180Y-90739502D01*
X258906494Y-90680537D01*
X259003185Y-90601185D01*
X259082537Y-90504494D01*
X259141502Y-90394180D01*
X259177812Y-90274482D01*
X259190072Y-90150000D01*
X259187000Y-89185750D01*
X259028250Y-89027000D01*
X257429000Y-89027000D01*
X257175000Y-89027000D01*
X255575750Y-89027000D01*
X255417000Y-89185750D01*
X255413928Y-90150000D01*
X249471575Y-90150000D01*
X249476168Y-90138912D01*
X249539000Y-89823033D01*
X249539000Y-89500967D01*
X249476168Y-89185088D01*
X249352918Y-88887537D01*
X249173987Y-88619748D01*
X248946252Y-88392013D01*
X248946233Y-88392000D01*
X248946252Y-88391987D01*
X249173987Y-88164252D01*
X249352918Y-87896463D01*
X249455006Y-87650000D01*
X255413928Y-87650000D01*
X255417000Y-88614250D01*
X255575750Y-88773000D01*
X257175000Y-88773000D01*
X257175000Y-87173750D01*
X257429000Y-87173750D01*
X257429000Y-88773000D01*
X259028250Y-88773000D01*
X259187000Y-88614250D01*
X259190072Y-87650000D01*
X259177812Y-87525518D01*
X259141502Y-87405820D01*
X259082537Y-87295506D01*
X259003185Y-87198815D01*
X258906494Y-87119463D01*
X258796180Y-87060498D01*
X258676482Y-87024188D01*
X258552000Y-87011928D01*
X257587750Y-87015000D01*
X257429000Y-87173750D01*
X257175000Y-87173750D01*
X257016250Y-87015000D01*
X256052000Y-87011928D01*
X255927518Y-87024188D01*
X255807820Y-87060498D01*
X255697506Y-87119463D01*
X255600815Y-87198815D01*
X255521463Y-87295506D01*
X255462498Y-87405820D01*
X255426188Y-87525518D01*
X255413928Y-87650000D01*
X249455006Y-87650000D01*
X249476168Y-87598912D01*
X249539000Y-87283033D01*
X249539000Y-86960967D01*
X249476168Y-86645088D01*
X249352918Y-86347537D01*
X249173987Y-86079748D01*
X248946252Y-85852013D01*
X248946233Y-85852000D01*
X248946252Y-85851987D01*
X249173987Y-85624252D01*
X249352918Y-85356463D01*
X249476168Y-85058912D01*
X249539000Y-84743033D01*
X249539000Y-84420967D01*
X249476168Y-84105088D01*
X249352918Y-83807537D01*
X249173987Y-83539748D01*
X248946252Y-83312013D01*
X248678463Y-83133082D01*
X248380912Y-83009832D01*
X248065033Y-82947000D01*
X247742967Y-82947000D01*
X247427088Y-83009832D01*
X247129537Y-83133082D01*
X246861748Y-83312013D01*
X246634013Y-83539748D01*
X246634000Y-83539767D01*
X246633987Y-83539748D01*
X246406252Y-83312013D01*
X246138463Y-83133082D01*
X245840912Y-83009832D01*
X245525033Y-82947000D01*
X245202967Y-82947000D01*
X244887088Y-83009832D01*
X244589537Y-83133082D01*
X244321748Y-83312013D01*
X244094013Y-83539748D01*
X244094000Y-83539767D01*
X244093987Y-83539748D01*
X243866252Y-83312013D01*
X243598463Y-83133082D01*
X243300912Y-83009832D01*
X242985033Y-82947000D01*
X242662967Y-82947000D01*
X242347088Y-83009832D01*
X242049537Y-83133082D01*
X241781748Y-83312013D01*
X241554013Y-83539748D01*
X241554000Y-83539767D01*
X241553987Y-83539748D01*
X241326252Y-83312013D01*
X241058463Y-83133082D01*
X240760912Y-83009832D01*
X240445033Y-82947000D01*
X240122967Y-82947000D01*
X239807088Y-83009832D01*
X239509537Y-83133082D01*
X239241748Y-83312013D01*
X239014013Y-83539748D01*
X239014000Y-83539767D01*
X239013987Y-83539748D01*
X238786252Y-83312013D01*
X238518463Y-83133082D01*
X238220912Y-83009832D01*
X237905033Y-82947000D01*
X237582967Y-82947000D01*
X237267088Y-83009832D01*
X236969537Y-83133082D01*
X236701748Y-83312013D01*
X236474013Y-83539748D01*
X236474000Y-83539767D01*
X236473987Y-83539748D01*
X236246252Y-83312013D01*
X235978463Y-83133082D01*
X235680912Y-83009832D01*
X235365033Y-82947000D01*
X235042967Y-82947000D01*
X234727088Y-83009832D01*
X234429537Y-83133082D01*
X234161748Y-83312013D01*
X233934013Y-83539748D01*
X233934000Y-83539767D01*
X233933987Y-83539748D01*
X233706252Y-83312013D01*
X233438463Y-83133082D01*
X233140912Y-83009832D01*
X232825033Y-82947000D01*
X232502967Y-82947000D01*
X232187088Y-83009832D01*
X231889537Y-83133082D01*
X231621748Y-83312013D01*
X231394013Y-83539748D01*
X231394000Y-83539767D01*
X231393987Y-83539748D01*
X231166252Y-83312013D01*
X230898463Y-83133082D01*
X230600912Y-83009832D01*
X230285033Y-82947000D01*
X229962967Y-82947000D01*
X229647088Y-83009832D01*
X229349537Y-83133082D01*
X229081748Y-83312013D01*
X228854013Y-83539748D01*
X228854000Y-83539767D01*
X228853987Y-83539748D01*
X228626252Y-83312013D01*
X228358463Y-83133082D01*
X228060912Y-83009832D01*
X227745033Y-82947000D01*
X227422967Y-82947000D01*
X227107088Y-83009832D01*
X226809537Y-83133082D01*
X226541748Y-83312013D01*
X226314013Y-83539748D01*
X226314000Y-83539767D01*
X226313987Y-83539748D01*
X226086252Y-83312013D01*
X225818463Y-83133082D01*
X225520912Y-83009832D01*
X225205033Y-82947000D01*
X224882967Y-82947000D01*
X224567088Y-83009832D01*
X224269537Y-83133082D01*
X224001748Y-83312013D01*
X223774013Y-83539748D01*
X223595082Y-83807537D01*
X223471832Y-84105088D01*
X223409000Y-84420967D01*
X219617598Y-84420967D01*
X219625502Y-84406180D01*
X219661812Y-84286482D01*
X219674072Y-84162000D01*
X219671000Y-83597750D01*
X219512250Y-83439000D01*
X218313000Y-83439000D01*
X218313000Y-83459000D01*
X218059000Y-83459000D01*
X218059000Y-83439000D01*
X216859750Y-83439000D01*
X216701000Y-83597750D01*
X216697928Y-84162000D01*
X214958065Y-84162000D01*
X214958503Y-84161181D01*
X214994813Y-84041483D01*
X215007073Y-83917001D01*
X215007073Y-82462000D01*
X216697928Y-82462000D01*
X216701000Y-83026250D01*
X216859750Y-83185000D01*
X218059000Y-83185000D01*
X218059000Y-81985750D01*
X218313000Y-81985750D01*
X218313000Y-83185000D01*
X219512250Y-83185000D01*
X219671000Y-83026250D01*
X219674072Y-82462000D01*
X219661812Y-82337518D01*
X219625502Y-82217820D01*
X219566537Y-82107506D01*
X219487185Y-82010815D01*
X219390494Y-81931463D01*
X219280180Y-81872498D01*
X219160482Y-81836188D01*
X219036000Y-81823928D01*
X218471750Y-81827000D01*
X218313000Y-81985750D01*
X218059000Y-81985750D01*
X217900250Y-81827000D01*
X217336000Y-81823928D01*
X217211518Y-81836188D01*
X217091820Y-81872498D01*
X216981506Y-81931463D01*
X216884815Y-82010815D01*
X216805463Y-82107506D01*
X216746498Y-82217820D01*
X216710188Y-82337518D01*
X216697928Y-82462000D01*
X215007073Y-82462000D01*
X215007073Y-82217001D01*
X214994813Y-82092519D01*
X214958503Y-81972821D01*
X214899538Y-81862507D01*
X214820186Y-81765816D01*
X214723495Y-81686464D01*
X214613181Y-81627499D01*
X214493483Y-81591189D01*
X214369001Y-81578929D01*
X212669001Y-81578929D01*
X212544519Y-81591189D01*
X212424821Y-81627499D01*
X212314507Y-81686464D01*
X212217816Y-81765816D01*
X212138464Y-81862507D01*
X212079499Y-81972821D01*
X212043189Y-82092519D01*
X212030929Y-82217001D01*
X209194000Y-82217001D01*
X209194000Y-79654000D01*
X263500001Y-79654000D01*
X263500000Y-141834000D01*
%TD*%
M02*
