<svg version="1.1" xmlns="http://www.w3.org/2000/svg" xmlns:xlink="http://www.w3.org/1999/xlink" stroke-linecap="round" stroke-linejoin="round" stroke-width="0" fill-rule="evenodd" width="1.769in" height="2.1949in" viewBox="8386.6 -5445.6 1769 2194.9" id="zw44pdmYMVUfzgqDvZjc"><defs><circle cx="0" cy="0" r="19.7" id="zw44pdmYMVUfzgqDvZjc_pad-1"/><circle cx="0" cy="0" r="25.6" id="zw44pdmYMVUfzgqDvZjc_pad-2"/></defs><g transform="translate(0,-8696.300000000001) scale(1,-1)" fill="currentColor" stroke="currentColor"><use xlink:href="#zw44pdmYMVUfzgqDvZjc_pad-1" x="9660" y="-3430"/><use xlink:href="#zw44pdmYMVUfzgqDvZjc_pad-1" x="8860" y="-3630"/><use xlink:href="#zw44pdmYMVUfzgqDvZjc_pad-1" x="8860" y="-4030"/><use xlink:href="#zw44pdmYMVUfzgqDvZjc_pad-1" x="9760" y="-3930"/><use xlink:href="#zw44pdmYMVUfzgqDvZjc_pad-1" x="9260" y="-3930"/><use xlink:href="#zw44pdmYMVUfzgqDvZjc_pad-1" x="9460" y="-4030"/><use xlink:href="#zw44pdmYMVUfzgqDvZjc_pad-1" x="9560" y="-3830"/><use xlink:href="#zw44pdmYMVUfzgqDvZjc_pad-1" x="9560" y="-4030"/><use xlink:href="#zw44pdmYMVUfzgqDvZjc_pad-1" x="9360" y="-3830"/><use xlink:href="#zw44pdmYMVUfzgqDvZjc_pad-1" x="9260" y="-3330"/><use xlink:href="#zw44pdmYMVUfzgqDvZjc_pad-1" x="9060" y="-3430"/><use xlink:href="#zw44pdmYMVUfzgqDvZjc_pad-1" x="9760" y="-3630"/><use xlink:href="#zw44pdmYMVUfzgqDvZjc_pad-1" x="9460" y="-3730"/><use xlink:href="#zw44pdmYMVUfzgqDvZjc_pad-1" x="9590" y="-4490"/><use xlink:href="#zw44pdmYMVUfzgqDvZjc_pad-1" x="9590" y="-4590"/><use xlink:href="#zw44pdmYMVUfzgqDvZjc_pad-1" x="9590" y="-4690"/><use xlink:href="#zw44pdmYMVUfzgqDvZjc_pad-1" x="9590" y="-4790"/><use xlink:href="#zw44pdmYMVUfzgqDvZjc_pad-1" x="9590" y="-4890"/><use xlink:href="#zw44pdmYMVUfzgqDvZjc_pad-1" x="9590" y="-4990"/><use xlink:href="#zw44pdmYMVUfzgqDvZjc_pad-1" x="9590" y="-5090"/><use xlink:href="#zw44pdmYMVUfzgqDvZjc_pad-1" x="9590" y="-5190"/><use xlink:href="#zw44pdmYMVUfzgqDvZjc_pad-1" x="9560" y="-3730"/><use xlink:href="#zw44pdmYMVUfzgqDvZjc_pad-1" x="9060" y="-3530"/><use xlink:href="#zw44pdmYMVUfzgqDvZjc_pad-1" x="9060" y="-3630"/><use xlink:href="#zw44pdmYMVUfzgqDvZjc_pad-1" x="8960" y="-4030"/><use xlink:href="#zw44pdmYMVUfzgqDvZjc_pad-1" x="8960" y="-3830"/><use xlink:href="#zw44pdmYMVUfzgqDvZjc_pad-1" x="9660" y="-3830"/><use xlink:href="#zw44pdmYMVUfzgqDvZjc_pad-1" x="9660" y="-4030"/><use xlink:href="#zw44pdmYMVUfzgqDvZjc_pad-1" x="9460" y="-3330"/><use xlink:href="#zw44pdmYMVUfzgqDvZjc_pad-1" x="9260" y="-3430"/><use xlink:href="#zw44pdmYMVUfzgqDvZjc_pad-1" x="8860" y="-3830"/><use xlink:href="#zw44pdmYMVUfzgqDvZjc_pad-1" x="9260" y="-3630"/><use xlink:href="#zw44pdmYMVUfzgqDvZjc_pad-1" x="8863.7" y="-4494.1"/><use xlink:href="#zw44pdmYMVUfzgqDvZjc_pad-1" x="8863.7" y="-4594.1"/><use xlink:href="#zw44pdmYMVUfzgqDvZjc_pad-1" x="8863.7" y="-4694.1"/><use xlink:href="#zw44pdmYMVUfzgqDvZjc_pad-1" x="8863.7" y="-4794.1"/><use xlink:href="#zw44pdmYMVUfzgqDvZjc_pad-1" x="8863.7" y="-4894.1"/><use xlink:href="#zw44pdmYMVUfzgqDvZjc_pad-1" x="8863.7" y="-4994.1"/><use xlink:href="#zw44pdmYMVUfzgqDvZjc_pad-1" x="8863.7" y="-5094.1"/><use xlink:href="#zw44pdmYMVUfzgqDvZjc_pad-1" x="8863.7" y="-5194.1"/><use xlink:href="#zw44pdmYMVUfzgqDvZjc_pad-1" x="9763.7" y="-4494.1"/><use xlink:href="#zw44pdmYMVUfzgqDvZjc_pad-1" x="9763.7" y="-4594.1"/><use xlink:href="#zw44pdmYMVUfzgqDvZjc_pad-1" x="9763.7" y="-4694.1"/><use xlink:href="#zw44pdmYMVUfzgqDvZjc_pad-1" x="9763.7" y="-4794.1"/><use xlink:href="#zw44pdmYMVUfzgqDvZjc_pad-1" x="9763.7" y="-4894.1"/><use xlink:href="#zw44pdmYMVUfzgqDvZjc_pad-1" x="9763.7" y="-4994.1"/><use xlink:href="#zw44pdmYMVUfzgqDvZjc_pad-1" x="9763.7" y="-5094.1"/><use xlink:href="#zw44pdmYMVUfzgqDvZjc_pad-1" x="9763.7" y="-5194.1"/><use xlink:href="#zw44pdmYMVUfzgqDvZjc_pad-1" x="9660" y="-3730"/><use xlink:href="#zw44pdmYMVUfzgqDvZjc_pad-1" x="8960" y="-3530"/><use xlink:href="#zw44pdmYMVUfzgqDvZjc_pad-1" x="9360" y="-3530"/><use xlink:href="#zw44pdmYMVUfzgqDvZjc_pad-1" x="9160" y="-3930"/><use xlink:href="#zw44pdmYMVUfzgqDvZjc_pad-1" x="9760" y="-4030"/><use xlink:href="#zw44pdmYMVUfzgqDvZjc_pad-1" x="8860" y="-3930"/><use xlink:href="#zw44pdmYMVUfzgqDvZjc_pad-1" x="9660" y="-3330"/><use xlink:href="#zw44pdmYMVUfzgqDvZjc_pad-1" x="8860" y="-3430"/><use xlink:href="#zw44pdmYMVUfzgqDvZjc_pad-1" x="9460" y="-3630"/><use xlink:href="#zw44pdmYMVUfzgqDvZjc_pad-1" x="9560" y="-3630"/><use xlink:href="#zw44pdmYMVUfzgqDvZjc_pad-1" x="9760" y="-3730"/><use xlink:href="#zw44pdmYMVUfzgqDvZjc_pad-1" x="9160" y="-3530"/><use xlink:href="#zw44pdmYMVUfzgqDvZjc_pad-1" x="9760" y="-3530"/><use xlink:href="#zw44pdmYMVUfzgqDvZjc_pad-1" x="9060" y="-3830"/><use xlink:href="#zw44pdmYMVUfzgqDvZjc_pad-1" x="8960" y="-3930"/><use xlink:href="#zw44pdmYMVUfzgqDvZjc_pad-1" x="8860" y="-3330"/><use xlink:href="#zw44pdmYMVUfzgqDvZjc_pad-1" x="9560" y="-3330"/><use xlink:href="#zw44pdmYMVUfzgqDvZjc_pad-1" x="9760" y="-3330"/><use xlink:href="#zw44pdmYMVUfzgqDvZjc_pad-1" x="9160" y="-3630"/><use xlink:href="#zw44pdmYMVUfzgqDvZjc_pad-1" x="9660" y="-3630"/><use xlink:href="#zw44pdmYMVUfzgqDvZjc_pad-1" x="8590" y="-3280"/><use xlink:href="#zw44pdmYMVUfzgqDvZjc_pad-1" x="8590" y="-3380"/><use xlink:href="#zw44pdmYMVUfzgqDvZjc_pad-1" x="8590" y="-3480"/><use xlink:href="#zw44pdmYMVUfzgqDvZjc_pad-1" x="8590" y="-3580"/><use xlink:href="#zw44pdmYMVUfzgqDvZjc_pad-1" x="9360" y="-3430"/><use xlink:href="#zw44pdmYMVUfzgqDvZjc_pad-1" x="9460" y="-3430"/><use xlink:href="#zw44pdmYMVUfzgqDvZjc_pad-1" x="9260" y="-3530"/><use xlink:href="#zw44pdmYMVUfzgqDvZjc_pad-1" x="9760" y="-3830"/><use xlink:href="#zw44pdmYMVUfzgqDvZjc_pad-1" x="9060" y="-4030"/><use xlink:href="#zw44pdmYMVUfzgqDvZjc_pad-1" x="9160" y="-3830"/><use xlink:href="#zw44pdmYMVUfzgqDvZjc_pad-1" x="9360" y="-3930"/><use xlink:href="#zw44pdmYMVUfzgqDvZjc_pad-1" x="9160" y="-3330"/><use xlink:href="#zw44pdmYMVUfzgqDvZjc_pad-1" x="9160" y="-3430"/><use xlink:href="#zw44pdmYMVUfzgqDvZjc_pad-1" x="9060" y="-3730"/><use xlink:href="#zw44pdmYMVUfzgqDvZjc_pad-1" x="8406.3" y="-3270.4"/><use xlink:href="#zw44pdmYMVUfzgqDvZjc_pad-1" x="8406.3" y="-3370.4"/><use xlink:href="#zw44pdmYMVUfzgqDvZjc_pad-1" x="8406.3" y="-3470.4"/><use xlink:href="#zw44pdmYMVUfzgqDvZjc_pad-1" x="8406.3" y="-3570.4"/><use xlink:href="#zw44pdmYMVUfzgqDvZjc_pad-1" x="8406.3" y="-3670.4"/><use xlink:href="#zw44pdmYMVUfzgqDvZjc_pad-1" x="8406.3" y="-3770.4"/><use xlink:href="#zw44pdmYMVUfzgqDvZjc_pad-1" x="9160" y="-3730"/><use xlink:href="#zw44pdmYMVUfzgqDvZjc_pad-1" x="9560" y="-3430"/><use xlink:href="#zw44pdmYMVUfzgqDvZjc_pad-1" x="9560" y="-3530"/><use xlink:href="#zw44pdmYMVUfzgqDvZjc_pad-1" x="9760" y="-3430"/><use xlink:href="#zw44pdmYMVUfzgqDvZjc_pad-1" x="8960" y="-3630"/><use xlink:href="#zw44pdmYMVUfzgqDvZjc_pad-1" x="9060" y="-3930"/><use xlink:href="#zw44pdmYMVUfzgqDvZjc_pad-1" x="9160" y="-4030"/><use xlink:href="#zw44pdmYMVUfzgqDvZjc_pad-1" x="9260" y="-3830"/><use xlink:href="#zw44pdmYMVUfzgqDvZjc_pad-1" x="9560" y="-3930"/><use xlink:href="#zw44pdmYMVUfzgqDvZjc_pad-1" x="8960" y="-3330"/><use xlink:href="#zw44pdmYMVUfzgqDvZjc_pad-1" x="8960" y="-3430"/><use xlink:href="#zw44pdmYMVUfzgqDvZjc_pad-1" x="9050" y="-4500"/><use xlink:href="#zw44pdmYMVUfzgqDvZjc_pad-1" x="9050" y="-4600"/><use xlink:href="#zw44pdmYMVUfzgqDvZjc_pad-1" x="9050" y="-4700"/><use xlink:href="#zw44pdmYMVUfzgqDvZjc_pad-1" x="9050" y="-4800"/><use xlink:href="#zw44pdmYMVUfzgqDvZjc_pad-1" x="9050" y="-4900"/><use xlink:href="#zw44pdmYMVUfzgqDvZjc_pad-1" x="9050" y="-5000"/><use xlink:href="#zw44pdmYMVUfzgqDvZjc_pad-1" x="9050" y="-5100"/><use xlink:href="#zw44pdmYMVUfzgqDvZjc_pad-1" x="9050" y="-5200"/><use xlink:href="#zw44pdmYMVUfzgqDvZjc_pad-1" x="8960" y="-3730"/><use xlink:href="#zw44pdmYMVUfzgqDvZjc_pad-1" x="9260" y="-3730"/><use xlink:href="#zw44pdmYMVUfzgqDvZjc_pad-1" x="8860" y="-3530"/><use xlink:href="#zw44pdmYMVUfzgqDvZjc_pad-1" x="9460" y="-3530"/><use xlink:href="#zw44pdmYMVUfzgqDvZjc_pad-1" x="9660" y="-3530"/><use xlink:href="#zw44pdmYMVUfzgqDvZjc_pad-1" x="9460" y="-3930"/><use xlink:href="#zw44pdmYMVUfzgqDvZjc_pad-1" x="9260" y="-4030"/><use xlink:href="#zw44pdmYMVUfzgqDvZjc_pad-1" x="9460" y="-3830"/><use xlink:href="#zw44pdmYMVUfzgqDvZjc_pad-1" x="9360" y="-4030"/><use xlink:href="#zw44pdmYMVUfzgqDvZjc_pad-1" x="9660" y="-3930"/><use xlink:href="#zw44pdmYMVUfzgqDvZjc_pad-1" x="9360" y="-3330"/><use xlink:href="#zw44pdmYMVUfzgqDvZjc_pad-1" x="9060" y="-3330"/><use xlink:href="#zw44pdmYMVUfzgqDvZjc_pad-1" x="9360" y="-3630"/><use xlink:href="#zw44pdmYMVUfzgqDvZjc_pad-1" x="9360" y="-3730"/><use xlink:href="#zw44pdmYMVUfzgqDvZjc_pad-1" x="8860" y="-3730"/><use xlink:href="#zw44pdmYMVUfzgqDvZjc_pad-2" x="10120" y="-4010"/><use xlink:href="#zw44pdmYMVUfzgqDvZjc_pad-2" x="10120" y="-4210"/><use xlink:href="#zw44pdmYMVUfzgqDvZjc_pad-2" x="10120" y="-4410"/><use xlink:href="#zw44pdmYMVUfzgqDvZjc_pad-2" x="10120" y="-4610"/><use xlink:href="#zw44pdmYMVUfzgqDvZjc_pad-2" x="10120" y="-4810"/><use xlink:href="#zw44pdmYMVUfzgqDvZjc_pad-2" x="10120" y="-5010"/><use xlink:href="#zw44pdmYMVUfzgqDvZjc_pad-2" x="10120" y="-5210"/><use xlink:href="#zw44pdmYMVUfzgqDvZjc_pad-2" x="10120" y="-5410"/><use xlink:href="#zw44pdmYMVUfzgqDvZjc_pad-2" x="8510" y="-4020"/><use xlink:href="#zw44pdmYMVUfzgqDvZjc_pad-2" x="8510" y="-4220"/><use xlink:href="#zw44pdmYMVUfzgqDvZjc_pad-2" x="8510" y="-4420"/><use xlink:href="#zw44pdmYMVUfzgqDvZjc_pad-2" x="8510" y="-4620"/><use xlink:href="#zw44pdmYMVUfzgqDvZjc_pad-2" x="8510" y="-4820"/><use xlink:href="#zw44pdmYMVUfzgqDvZjc_pad-2" x="8510" y="-5020"/><use xlink:href="#zw44pdmYMVUfzgqDvZjc_pad-2" x="8510" y="-5220"/><use xlink:href="#zw44pdmYMVUfzgqDvZjc_pad-2" x="8510" y="-5420"/><use xlink:href="#zw44pdmYMVUfzgqDvZjc_pad-2" x="10130" y="-3500"/><use xlink:href="#zw44pdmYMVUfzgqDvZjc_pad-2" x="10130" y="-3700"/></g></svg>