<svg version="1.1" xmlns="http://www.w3.org/2000/svg" xmlns:xlink="http://www.w3.org/1999/xlink" stroke-linecap="round" stroke-linejoin="round" stroke-width="0" fill-rule="evenodd" width="45.98299900000001mm" height="56.800999000000004mm" viewBox="212619.001 -138968 45982.999 56800.999" id="AES5Chbjx00WDquUJB7B"><defs><circle cx="0" cy="0" r="1050" id="AES5Chbjx00WDquUJB7B_pad-10"/><rect x="-1300" y="-1300" width="2600" height="2600" id="AES5Chbjx00WDquUJB7B_pad-11"/><circle cx="0" cy="0" r="1300" id="AES5Chbjx00WDquUJB7B_pad-12"/><rect x="-900" y="-900" width="1800" height="1800" id="AES5Chbjx00WDquUJB7B_pad-13"/><rect x="-900" y="-900" width="1800" height="1800" rx="900" ry="900" id="AES5Chbjx00WDquUJB7B_pad-14"/><rect x="-1050" y="-850" width="2100" height="1700" rx="850" ry="850" id="AES5Chbjx00WDquUJB7B_pad-15"/><rect x="-1050" y="-1050" width="2100" height="2100" id="AES5Chbjx00WDquUJB7B_pad-16"/></defs><g transform="translate(0,-221135.001) scale(1,-1)" fill="currentColor" stroke="currentColor"><use xlink:href="#AES5Chbjx00WDquUJB7B_pad-10" x="247904" y="-102362"/><use xlink:href="#AES5Chbjx00WDquUJB7B_pad-10" x="245364" y="-102362"/><use xlink:href="#AES5Chbjx00WDquUJB7B_pad-10" x="242824" y="-102362"/><use xlink:href="#AES5Chbjx00WDquUJB7B_pad-10" x="240284" y="-102362"/><use xlink:href="#AES5Chbjx00WDquUJB7B_pad-10" x="237744" y="-102362"/><use xlink:href="#AES5Chbjx00WDquUJB7B_pad-10" x="235204" y="-102362"/><use xlink:href="#AES5Chbjx00WDquUJB7B_pad-10" x="232664" y="-102362"/><use xlink:href="#AES5Chbjx00WDquUJB7B_pad-10" x="230124" y="-102362"/><use xlink:href="#AES5Chbjx00WDquUJB7B_pad-10" x="227584" y="-102362"/><use xlink:href="#AES5Chbjx00WDquUJB7B_pad-10" x="225044" y="-102362"/><use xlink:href="#AES5Chbjx00WDquUJB7B_pad-10" x="247904" y="-99822"/><use xlink:href="#AES5Chbjx00WDquUJB7B_pad-10" x="245364" y="-99822"/><use xlink:href="#AES5Chbjx00WDquUJB7B_pad-10" x="242824" y="-99822"/><use xlink:href="#AES5Chbjx00WDquUJB7B_pad-10" x="240284" y="-99822"/><use xlink:href="#AES5Chbjx00WDquUJB7B_pad-10" x="237744" y="-99822"/><use xlink:href="#AES5Chbjx00WDquUJB7B_pad-10" x="235204" y="-99822"/><use xlink:href="#AES5Chbjx00WDquUJB7B_pad-10" x="232664" y="-99822"/><use xlink:href="#AES5Chbjx00WDquUJB7B_pad-10" x="230124" y="-99822"/><use xlink:href="#AES5Chbjx00WDquUJB7B_pad-10" x="227584" y="-99822"/><use xlink:href="#AES5Chbjx00WDquUJB7B_pad-10" x="225044" y="-99822"/><use xlink:href="#AES5Chbjx00WDquUJB7B_pad-10" x="247904" y="-97282"/><use xlink:href="#AES5Chbjx00WDquUJB7B_pad-10" x="245364" y="-97282"/><use xlink:href="#AES5Chbjx00WDquUJB7B_pad-10" x="242824" y="-97282"/><use xlink:href="#AES5Chbjx00WDquUJB7B_pad-10" x="240284" y="-97282"/><use xlink:href="#AES5Chbjx00WDquUJB7B_pad-10" x="237744" y="-97282"/><use xlink:href="#AES5Chbjx00WDquUJB7B_pad-10" x="235204" y="-97282"/><use xlink:href="#AES5Chbjx00WDquUJB7B_pad-10" x="232664" y="-97282"/><use xlink:href="#AES5Chbjx00WDquUJB7B_pad-10" x="230124" y="-97282"/><use xlink:href="#AES5Chbjx00WDquUJB7B_pad-10" x="227584" y="-97282"/><use xlink:href="#AES5Chbjx00WDquUJB7B_pad-10" x="225044" y="-97282"/><use xlink:href="#AES5Chbjx00WDquUJB7B_pad-10" x="247904" y="-94742"/><use xlink:href="#AES5Chbjx00WDquUJB7B_pad-10" x="245364" y="-94742"/><use xlink:href="#AES5Chbjx00WDquUJB7B_pad-10" x="242824" y="-94742"/><use xlink:href="#AES5Chbjx00WDquUJB7B_pad-10" x="240284" y="-94742"/><use xlink:href="#AES5Chbjx00WDquUJB7B_pad-10" x="237744" y="-94742"/><use xlink:href="#AES5Chbjx00WDquUJB7B_pad-10" x="235204" y="-94742"/><use xlink:href="#AES5Chbjx00WDquUJB7B_pad-10" x="232664" y="-94742"/><use xlink:href="#AES5Chbjx00WDquUJB7B_pad-10" x="230124" y="-94742"/><use xlink:href="#AES5Chbjx00WDquUJB7B_pad-10" x="227584" y="-94742"/><use xlink:href="#AES5Chbjx00WDquUJB7B_pad-10" x="225044" y="-94742"/><use xlink:href="#AES5Chbjx00WDquUJB7B_pad-10" x="247904" y="-92202"/><use xlink:href="#AES5Chbjx00WDquUJB7B_pad-10" x="245364" y="-92202"/><use xlink:href="#AES5Chbjx00WDquUJB7B_pad-10" x="242824" y="-92202"/><use xlink:href="#AES5Chbjx00WDquUJB7B_pad-10" x="240284" y="-92202"/><use xlink:href="#AES5Chbjx00WDquUJB7B_pad-10" x="237744" y="-92202"/><use xlink:href="#AES5Chbjx00WDquUJB7B_pad-10" x="235204" y="-92202"/><use xlink:href="#AES5Chbjx00WDquUJB7B_pad-10" x="232664" y="-92202"/><use xlink:href="#AES5Chbjx00WDquUJB7B_pad-10" x="230124" y="-92202"/><use xlink:href="#AES5Chbjx00WDquUJB7B_pad-10" x="227584" y="-92202"/><use xlink:href="#AES5Chbjx00WDquUJB7B_pad-10" x="225044" y="-92202"/><use xlink:href="#AES5Chbjx00WDquUJB7B_pad-10" x="247904" y="-89662"/><use xlink:href="#AES5Chbjx00WDquUJB7B_pad-10" x="245364" y="-89662"/><use xlink:href="#AES5Chbjx00WDquUJB7B_pad-10" x="242824" y="-89662"/><use xlink:href="#AES5Chbjx00WDquUJB7B_pad-10" x="240284" y="-89662"/><use xlink:href="#AES5Chbjx00WDquUJB7B_pad-10" x="237744" y="-89662"/><use xlink:href="#AES5Chbjx00WDquUJB7B_pad-10" x="235204" y="-89662"/><use xlink:href="#AES5Chbjx00WDquUJB7B_pad-10" x="232664" y="-89662"/><use xlink:href="#AES5Chbjx00WDquUJB7B_pad-10" x="230124" y="-89662"/><use xlink:href="#AES5Chbjx00WDquUJB7B_pad-10" x="227584" y="-89662"/><use xlink:href="#AES5Chbjx00WDquUJB7B_pad-10" x="225044" y="-89662"/><use xlink:href="#AES5Chbjx00WDquUJB7B_pad-10" x="247904" y="-87122"/><use xlink:href="#AES5Chbjx00WDquUJB7B_pad-10" x="245364" y="-87122"/><use xlink:href="#AES5Chbjx00WDquUJB7B_pad-10" x="242824" y="-87122"/><use xlink:href="#AES5Chbjx00WDquUJB7B_pad-10" x="240284" y="-87122"/><use xlink:href="#AES5Chbjx00WDquUJB7B_pad-10" x="237744" y="-87122"/><use xlink:href="#AES5Chbjx00WDquUJB7B_pad-10" x="235204" y="-87122"/><use xlink:href="#AES5Chbjx00WDquUJB7B_pad-10" x="232664" y="-87122"/><use xlink:href="#AES5Chbjx00WDquUJB7B_pad-10" x="230124" y="-87122"/><use xlink:href="#AES5Chbjx00WDquUJB7B_pad-10" x="227584" y="-87122"/><use xlink:href="#AES5Chbjx00WDquUJB7B_pad-10" x="225044" y="-87122"/><use xlink:href="#AES5Chbjx00WDquUJB7B_pad-10" x="247904" y="-84582"/><use xlink:href="#AES5Chbjx00WDquUJB7B_pad-10" x="245364" y="-84582"/><use xlink:href="#AES5Chbjx00WDquUJB7B_pad-10" x="242824" y="-84582"/><use xlink:href="#AES5Chbjx00WDquUJB7B_pad-10" x="240284" y="-84582"/><use xlink:href="#AES5Chbjx00WDquUJB7B_pad-10" x="237744" y="-84582"/><use xlink:href="#AES5Chbjx00WDquUJB7B_pad-10" x="235204" y="-84582"/><use xlink:href="#AES5Chbjx00WDquUJB7B_pad-10" x="232664" y="-84582"/><use xlink:href="#AES5Chbjx00WDquUJB7B_pad-10" x="230124" y="-84582"/><use xlink:href="#AES5Chbjx00WDquUJB7B_pad-10" x="227584" y="-84582"/><use xlink:href="#AES5Chbjx00WDquUJB7B_pad-10" x="225044" y="-84582"/><use xlink:href="#AES5Chbjx00WDquUJB7B_pad-11" x="216154" y="-137668"/><use xlink:href="#AES5Chbjx00WDquUJB7B_pad-12" x="216154" y="-132588"/><use xlink:href="#AES5Chbjx00WDquUJB7B_pad-12" x="216154" y="-127508"/><use xlink:href="#AES5Chbjx00WDquUJB7B_pad-12" x="216154" y="-122428"/><use xlink:href="#AES5Chbjx00WDquUJB7B_pad-12" x="216154" y="-117348"/><use xlink:href="#AES5Chbjx00WDquUJB7B_pad-12" x="216154" y="-112268"/><use xlink:href="#AES5Chbjx00WDquUJB7B_pad-12" x="216154" y="-107188"/><use xlink:href="#AES5Chbjx00WDquUJB7B_pad-12" x="216154" y="-102108"/><use xlink:href="#AES5Chbjx00WDquUJB7B_pad-13" x="229870" y="-114300"/><use xlink:href="#AES5Chbjx00WDquUJB7B_pad-14" x="229870" y="-116840"/><use xlink:href="#AES5Chbjx00WDquUJB7B_pad-14" x="229870" y="-119380"/><use xlink:href="#AES5Chbjx00WDquUJB7B_pad-14" x="229870" y="-121920"/><use xlink:href="#AES5Chbjx00WDquUJB7B_pad-14" x="229870" y="-124460"/><use xlink:href="#AES5Chbjx00WDquUJB7B_pad-14" x="229870" y="-127000"/><use xlink:href="#AES5Chbjx00WDquUJB7B_pad-14" x="229870" y="-129540"/><use xlink:href="#AES5Chbjx00WDquUJB7B_pad-14" x="229870" y="-132080"/><use xlink:href="#AES5Chbjx00WDquUJB7B_pad-11" x="257302" y="-88900"/><use xlink:href="#AES5Chbjx00WDquUJB7B_pad-12" x="257302" y="-93980"/><use xlink:href="#AES5Chbjx00WDquUJB7B_pad-14" x="243586" y="-131826"/><use xlink:href="#AES5Chbjx00WDquUJB7B_pad-14" x="243586" y="-129286"/><use xlink:href="#AES5Chbjx00WDquUJB7B_pad-14" x="243586" y="-126746"/><use xlink:href="#AES5Chbjx00WDquUJB7B_pad-14" x="243586" y="-124206"/><use xlink:href="#AES5Chbjx00WDquUJB7B_pad-14" x="243586" y="-121666"/><use xlink:href="#AES5Chbjx00WDquUJB7B_pad-14" x="243586" y="-119126"/><use xlink:href="#AES5Chbjx00WDquUJB7B_pad-14" x="243586" y="-116586"/><use xlink:href="#AES5Chbjx00WDquUJB7B_pad-13" x="243586" y="-114046"/><use xlink:href="#AES5Chbjx00WDquUJB7B_pad-12" x="257048" y="-137414"/><use xlink:href="#AES5Chbjx00WDquUJB7B_pad-12" x="257048" y="-132334"/><use xlink:href="#AES5Chbjx00WDquUJB7B_pad-12" x="257048" y="-127254"/><use xlink:href="#AES5Chbjx00WDquUJB7B_pad-12" x="257048" y="-122174"/><use xlink:href="#AES5Chbjx00WDquUJB7B_pad-12" x="257048" y="-117094"/><use xlink:href="#AES5Chbjx00WDquUJB7B_pad-12" x="257048" y="-112014"/><use xlink:href="#AES5Chbjx00WDquUJB7B_pad-12" x="257048" y="-106934"/><use xlink:href="#AES5Chbjx00WDquUJB7B_pad-11" x="257048" y="-101854"/><use xlink:href="#AES5Chbjx00WDquUJB7B_pad-15" x="225137.001" y="-116689.001"/><use xlink:href="#AES5Chbjx00WDquUJB7B_pad-16" x="225137.001" y="-114149.001"/><use xlink:href="#AES5Chbjx00WDquUJB7B_pad-15" x="225137.001" y="-119229.001"/><use xlink:href="#AES5Chbjx00WDquUJB7B_pad-15" x="225137.001" y="-121769.001"/><use xlink:href="#AES5Chbjx00WDquUJB7B_pad-15" x="225137.001" y="-124309.001"/><use xlink:href="#AES5Chbjx00WDquUJB7B_pad-15" x="225137.001" y="-126849.001"/><use xlink:href="#AES5Chbjx00WDquUJB7B_pad-15" x="225137.001" y="-129389.001"/><use xlink:href="#AES5Chbjx00WDquUJB7B_pad-15" x="225137.001" y="-131929.001"/><use xlink:href="#AES5Chbjx00WDquUJB7B_pad-15" x="247997.001" y="-131929.001"/><use xlink:href="#AES5Chbjx00WDquUJB7B_pad-15" x="247997.001" y="-129389.001"/><use xlink:href="#AES5Chbjx00WDquUJB7B_pad-15" x="247997.001" y="-126849.001"/><use xlink:href="#AES5Chbjx00WDquUJB7B_pad-15" x="247997.001" y="-124309.001"/><use xlink:href="#AES5Chbjx00WDquUJB7B_pad-15" x="247997.001" y="-121769.001"/><use xlink:href="#AES5Chbjx00WDquUJB7B_pad-15" x="247997.001" y="-119229.001"/><use xlink:href="#AES5Chbjx00WDquUJB7B_pad-15" x="247997.001" y="-116689.001"/><use xlink:href="#AES5Chbjx00WDquUJB7B_pad-15" x="247997.001" y="-114149.001"/><use xlink:href="#AES5Chbjx00WDquUJB7B_pad-13" x="218186" y="-83312"/><use xlink:href="#AES5Chbjx00WDquUJB7B_pad-14" x="218186" y="-85852"/><use xlink:href="#AES5Chbjx00WDquUJB7B_pad-14" x="218186" y="-88392"/><use xlink:href="#AES5Chbjx00WDquUJB7B_pad-14" x="218186" y="-90932"/><use xlink:href="#AES5Chbjx00WDquUJB7B_pad-13" x="213519.001" y="-83067.001"/><use xlink:href="#AES5Chbjx00WDquUJB7B_pad-14" x="213519.001" y="-85607.001"/><use xlink:href="#AES5Chbjx00WDquUJB7B_pad-14" x="213519.001" y="-88147.001"/><use xlink:href="#AES5Chbjx00WDquUJB7B_pad-14" x="213519.001" y="-90687.001"/><use xlink:href="#AES5Chbjx00WDquUJB7B_pad-14" x="213519.001" y="-93227.001"/><use xlink:href="#AES5Chbjx00WDquUJB7B_pad-14" x="213519.001" y="-95767.001"/></g></svg>