<svg version="1.1" xmlns="http://www.w3.org/2000/svg" xmlns:xlink="http://www.w3.org/1999/xlink" stroke-linecap="round" stroke-linejoin="round" stroke-width="0" fill-rule="evenodd" width="19.197619mm" height="2.8mm" viewBox="227311.761 -138766.38 19197.619 2800" id="OTCC--SQzrSGs0g2Djtf"><g transform="translate(0,-274732.76) scale(1,-1)" fill="currentColor" stroke="currentColor"><path d="M 246434.38 -137041.38 246434.38 -136041.38 246196.285 -136041.38 246053.428 -136089 245958.19 -136184.238 245910.571 -136279.476 245862.952 -136469.952 245862.952 -136612.809 245910.571 -136803.285 245958.19 -136898.523 246053.428 -136993.761 246196.285 -137041.38 246434.38 -137041.38 M 245434.38 -137041.38 245434.38 -136041.38 245101.047 -136755.666 244767.714 -136041.38 244767.714 -137041.38 M 243958.19 -136517.571 243815.333 -136565.19 243767.714 -136612.809 243720.095 -136708.047 243720.095 -136850.904 243767.714 -136946.142 243815.333 -136993.761 243910.571 -137041.38 244291.523 -137041.38 244291.523 -136041.38 243958.19 -136041.38 243862.952 -136089 243815.333 -136136.619 243767.714 -136231.857 243767.714 -136327.095 243815.333 -136422.333 243862.952 -136469.952 243958.19 -136517.571 244291.523 -136517.571 M 243291.523 -136660.428 242529.619 -136660.428 M 241291.523 -137041.38 241291.523 -136041.38 241053.428 -136041.38 240910.571 -136089 240815.333 -136184.238 240767.714 -136279.476 240720.095 -136469.952 240720.095 -136612.809 240767.714 -136803.285 240815.333 -136898.523 240910.571 -136993.761 241053.428 -137041.38 241291.523 -137041.38 M 239767.714 -137041.38 240339.142 -137041.38 M 240053.428 -137041.38 240053.428 -136041.38 240148.666 -136184.238 240243.904 -136279.476 240339.142 -136327.095 M 238577.238 -137041.38 238577.238 -136041.38 238243.904 -136755.666 237910.571 -136041.38 237910.571 -137041.38 M 237434.38 -137041.38 237434.38 -136041.38 M 236958.19 -137041.38 236958.19 -136041.38 236386.761 -137041.38 236386.761 -136041.38 M 235910.571 -137041.38 235910.571 -136041.38 M 234339.142 -136517.571 234196.285 -136565.19 234148.666 -136612.809 234101.047 -136708.047 234101.047 -136850.904 234148.666 -136946.142 234196.285 -136993.761 234291.523 -137041.38 234672.476 -137041.38 234672.476 -136041.38 234339.142 -136041.38 234243.904 -136089 234196.285 -136136.619 234148.666 -136231.857 234148.666 -136327.095 234196.285 -136422.333 234243.904 -136469.952 234339.142 -136517.571 234672.476 -136517.571 M 233101.047 -137041.38 233434.38 -136565.19 M 233672.476 -137041.38 233672.476 -136041.38 233291.523 -136041.38 233196.285 -136089 233148.666 -136136.619 233101.047 -136231.857 233101.047 -136374.714 233148.666 -136469.952 233196.285 -136517.571 233291.523 -136565.19 233672.476 -136565.19 M 232672.476 -136517.571 232339.142 -136517.571 M 232196.285 -137041.38 232672.476 -137041.38 232672.476 -136041.38 232196.285 -136041.38 M 231815.333 -136755.666 231339.142 -136755.666 M 231910.571 -137041.38 231577.238 -136041.38 231243.904 -137041.38 M 230910.571 -137041.38 230910.571 -136041.38 M 230339.142 -137041.38 230767.714 -136469.952 M 230339.142 -136041.38 230910.571 -136612.809 M 229720.095 -136041.38 229529.619 -136041.38 229434.38 -136089 229339.142 -136184.238 229291.523 -136374.714 229291.523 -136708.047 229339.142 -136898.523 229434.38 -136993.761 229529.619 -137041.38 229720.095 -137041.38 229815.333 -136993.761 229910.571 -136898.523 229958.19 -136708.047 229958.19 -136374.714 229910.571 -136184.238 229815.333 -136089 229720.095 -136041.38 M 228862.952 -136041.38 228862.952 -136850.904 228815.333 -136946.142 228767.714 -136993.761 228672.476 -137041.38 228482 -137041.38 228386.761 -136993.761 228339.142 -136946.142 228291.523 -136850.904 228291.523 -136041.38 M 227958.19 -136041.38 227386.761 -136041.38 M 227672.476 -137041.38 227672.476 -136041.38 M 242648.666 -137691.38 242410.571 -138691.38 242220.095 -137977.095 242029.619 -138691.38 241791.523 -137691.38 M 241505.809 -137691.38 241267.714 -138691.38 241077.238 -137977.095 240886.761 -138691.38 240648.666 -137691.38 M 240362.952 -137691.38 240124.857 -138691.38 239934.38 -137977.095 239743.904 -138691.38 239505.809 -137691.38 M 239124.857 -138596.142 239077.238 -138643.761 239124.857 -138691.38 239172.476 -138643.761 239124.857 -138596.142 239124.857 -138691.38 M 238648.666 -138691.38 238648.666 -137691.38 238315.333 -138405.666 237982 -137691.38 237982 -138691.38 M 237505.809 -138691.38 237505.809 -137691.38 M 236934.38 -138691.38 237362.952 -138119.952 M 236934.38 -137691.38 237505.809 -138262.809 M 236505.809 -138691.38 236505.809 -137691.38 236172.476 -138405.666 235839.142 -137691.38 235839.142 -138691.38 M 235362.952 -138167.571 235029.619 -138167.571 M 234886.761 -138691.38 235362.952 -138691.38 235362.952 -137691.38 234886.761 -137691.38 M 234458.19 -138596.142 234410.571 -138643.761 234458.19 -138691.38 234505.809 -138643.761 234458.19 -138596.142 234458.19 -138691.38 M 233791.523 -137691.38 233601.047 -137691.38 233505.809 -137739 233410.571 -137834.238 233362.952 -138024.714 233362.952 -138358.047 233410.571 -138548.523 233505.809 -138643.761 233601.047 -138691.38 233791.523 -138691.38 233886.761 -138643.761 233982 -138548.523 234029.619 -138358.047 234029.619 -138024.714 233982 -137834.238 233886.761 -137739 233791.523 -137691.38 M 232362.952 -138691.38 232696.285 -138215.19 M 232934.38 -138691.38 232934.38 -137691.38 232553.428 -137691.38 232458.19 -137739 232410.571 -137786.619 232362.952 -137881.857 232362.952 -138024.714 232410.571 -138119.952 232458.19 -138167.571 232553.428 -138215.19 232934.38 -138215.19 M 231410.571 -137739 231505.809 -137691.38 231648.666 -137691.38 231791.523 -137739 231886.761 -137834.238 231934.38 -137929.476 231982 -138119.952 231982 -138262.809 231934.38 -138453.285 231886.761 -138548.523 231791.523 -138643.761 231648.666 -138691.38 231553.428 -138691.38 231410.571 -138643.761 231362.952 -138596.142 231362.952 -138262.809 231553.428 -138262.809" fill="none" stroke-width="150"/></g></svg>