<svg version="1.1" xmlns="http://www.w3.org/2000/svg" xmlns:xlink="http://www.w3.org/1999/xlink" stroke-linecap="round" stroke-linejoin="round" stroke-width="0" fill-rule="evenodd" width="54.560001mm" height="62.434mm" viewBox="209067 -141961 54560.001 62434" id="nOsSDlhz5BlDQ1nZlWsY"><defs><circle cx="0" cy="0" r="1000" id="nOsSDlhz5BlDQ1nZlWsY_pad-10"/><rect x="-1250" y="-1250" width="2500" height="2500" id="nOsSDlhz5BlDQ1nZlWsY_pad-11"/><circle cx="0" cy="0" r="1250" id="nOsSDlhz5BlDQ1nZlWsY_pad-12"/><rect x="-850" y="-850" width="1700" height="1700" id="nOsSDlhz5BlDQ1nZlWsY_pad-13"/><rect x="-850" y="-850" width="1700" height="1700" rx="850" ry="850" id="nOsSDlhz5BlDQ1nZlWsY_pad-14"/><rect x="-1000" y="-800" width="2000" height="1600" rx="800" ry="800" id="nOsSDlhz5BlDQ1nZlWsY_pad-15"/><rect x="-1000" y="-1000" width="2000" height="2000" id="nOsSDlhz5BlDQ1nZlWsY_pad-16"/><circle cx="0" cy="0" r="125" id="nOsSDlhz5BlDQ1nZlWsY_pad-17"/></defs><g transform="translate(0,-221488) scale(1,-1)" fill="currentColor" stroke="currentColor"><use xlink:href="#nOsSDlhz5BlDQ1nZlWsY_pad-10" x="247904" y="-102362"/><use xlink:href="#nOsSDlhz5BlDQ1nZlWsY_pad-10" x="245364" y="-102362"/><use xlink:href="#nOsSDlhz5BlDQ1nZlWsY_pad-10" x="242824" y="-102362"/><use xlink:href="#nOsSDlhz5BlDQ1nZlWsY_pad-10" x="240284" y="-102362"/><use xlink:href="#nOsSDlhz5BlDQ1nZlWsY_pad-10" x="237744" y="-102362"/><use xlink:href="#nOsSDlhz5BlDQ1nZlWsY_pad-10" x="235204" y="-102362"/><use xlink:href="#nOsSDlhz5BlDQ1nZlWsY_pad-10" x="232664" y="-102362"/><use xlink:href="#nOsSDlhz5BlDQ1nZlWsY_pad-10" x="230124" y="-102362"/><use xlink:href="#nOsSDlhz5BlDQ1nZlWsY_pad-10" x="227584" y="-102362"/><use xlink:href="#nOsSDlhz5BlDQ1nZlWsY_pad-10" x="225044" y="-102362"/><use xlink:href="#nOsSDlhz5BlDQ1nZlWsY_pad-10" x="247904" y="-99822"/><use xlink:href="#nOsSDlhz5BlDQ1nZlWsY_pad-10" x="245364" y="-99822"/><use xlink:href="#nOsSDlhz5BlDQ1nZlWsY_pad-10" x="242824" y="-99822"/><use xlink:href="#nOsSDlhz5BlDQ1nZlWsY_pad-10" x="240284" y="-99822"/><use xlink:href="#nOsSDlhz5BlDQ1nZlWsY_pad-10" x="237744" y="-99822"/><use xlink:href="#nOsSDlhz5BlDQ1nZlWsY_pad-10" x="235204" y="-99822"/><use xlink:href="#nOsSDlhz5BlDQ1nZlWsY_pad-10" x="232664" y="-99822"/><use xlink:href="#nOsSDlhz5BlDQ1nZlWsY_pad-10" x="230124" y="-99822"/><use xlink:href="#nOsSDlhz5BlDQ1nZlWsY_pad-10" x="227584" y="-99822"/><use xlink:href="#nOsSDlhz5BlDQ1nZlWsY_pad-10" x="225044" y="-99822"/><use xlink:href="#nOsSDlhz5BlDQ1nZlWsY_pad-10" x="247904" y="-97282"/><use xlink:href="#nOsSDlhz5BlDQ1nZlWsY_pad-10" x="245364" y="-97282"/><use xlink:href="#nOsSDlhz5BlDQ1nZlWsY_pad-10" x="242824" y="-97282"/><use xlink:href="#nOsSDlhz5BlDQ1nZlWsY_pad-10" x="240284" y="-97282"/><use xlink:href="#nOsSDlhz5BlDQ1nZlWsY_pad-10" x="237744" y="-97282"/><use xlink:href="#nOsSDlhz5BlDQ1nZlWsY_pad-10" x="235204" y="-97282"/><use xlink:href="#nOsSDlhz5BlDQ1nZlWsY_pad-10" x="232664" y="-97282"/><use xlink:href="#nOsSDlhz5BlDQ1nZlWsY_pad-10" x="230124" y="-97282"/><use xlink:href="#nOsSDlhz5BlDQ1nZlWsY_pad-10" x="227584" y="-97282"/><use xlink:href="#nOsSDlhz5BlDQ1nZlWsY_pad-10" x="225044" y="-97282"/><use xlink:href="#nOsSDlhz5BlDQ1nZlWsY_pad-10" x="247904" y="-94742"/><use xlink:href="#nOsSDlhz5BlDQ1nZlWsY_pad-10" x="245364" y="-94742"/><use xlink:href="#nOsSDlhz5BlDQ1nZlWsY_pad-10" x="242824" y="-94742"/><use xlink:href="#nOsSDlhz5BlDQ1nZlWsY_pad-10" x="240284" y="-94742"/><use xlink:href="#nOsSDlhz5BlDQ1nZlWsY_pad-10" x="237744" y="-94742"/><use xlink:href="#nOsSDlhz5BlDQ1nZlWsY_pad-10" x="235204" y="-94742"/><use xlink:href="#nOsSDlhz5BlDQ1nZlWsY_pad-10" x="232664" y="-94742"/><use xlink:href="#nOsSDlhz5BlDQ1nZlWsY_pad-10" x="230124" y="-94742"/><use xlink:href="#nOsSDlhz5BlDQ1nZlWsY_pad-10" x="227584" y="-94742"/><use xlink:href="#nOsSDlhz5BlDQ1nZlWsY_pad-10" x="225044" y="-94742"/><use xlink:href="#nOsSDlhz5BlDQ1nZlWsY_pad-10" x="247904" y="-92202"/><use xlink:href="#nOsSDlhz5BlDQ1nZlWsY_pad-10" x="245364" y="-92202"/><use xlink:href="#nOsSDlhz5BlDQ1nZlWsY_pad-10" x="242824" y="-92202"/><use xlink:href="#nOsSDlhz5BlDQ1nZlWsY_pad-10" x="240284" y="-92202"/><use xlink:href="#nOsSDlhz5BlDQ1nZlWsY_pad-10" x="237744" y="-92202"/><use xlink:href="#nOsSDlhz5BlDQ1nZlWsY_pad-10" x="235204" y="-92202"/><use xlink:href="#nOsSDlhz5BlDQ1nZlWsY_pad-10" x="232664" y="-92202"/><use xlink:href="#nOsSDlhz5BlDQ1nZlWsY_pad-10" x="230124" y="-92202"/><use xlink:href="#nOsSDlhz5BlDQ1nZlWsY_pad-10" x="227584" y="-92202"/><use xlink:href="#nOsSDlhz5BlDQ1nZlWsY_pad-10" x="225044" y="-92202"/><use xlink:href="#nOsSDlhz5BlDQ1nZlWsY_pad-10" x="247904" y="-89662"/><use xlink:href="#nOsSDlhz5BlDQ1nZlWsY_pad-10" x="245364" y="-89662"/><use xlink:href="#nOsSDlhz5BlDQ1nZlWsY_pad-10" x="242824" y="-89662"/><use xlink:href="#nOsSDlhz5BlDQ1nZlWsY_pad-10" x="240284" y="-89662"/><use xlink:href="#nOsSDlhz5BlDQ1nZlWsY_pad-10" x="237744" y="-89662"/><use xlink:href="#nOsSDlhz5BlDQ1nZlWsY_pad-10" x="235204" y="-89662"/><use xlink:href="#nOsSDlhz5BlDQ1nZlWsY_pad-10" x="232664" y="-89662"/><use xlink:href="#nOsSDlhz5BlDQ1nZlWsY_pad-10" x="230124" y="-89662"/><use xlink:href="#nOsSDlhz5BlDQ1nZlWsY_pad-10" x="227584" y="-89662"/><use xlink:href="#nOsSDlhz5BlDQ1nZlWsY_pad-10" x="225044" y="-89662"/><use xlink:href="#nOsSDlhz5BlDQ1nZlWsY_pad-10" x="247904" y="-87122"/><use xlink:href="#nOsSDlhz5BlDQ1nZlWsY_pad-10" x="245364" y="-87122"/><use xlink:href="#nOsSDlhz5BlDQ1nZlWsY_pad-10" x="242824" y="-87122"/><use xlink:href="#nOsSDlhz5BlDQ1nZlWsY_pad-10" x="240284" y="-87122"/><use xlink:href="#nOsSDlhz5BlDQ1nZlWsY_pad-10" x="237744" y="-87122"/><use xlink:href="#nOsSDlhz5BlDQ1nZlWsY_pad-10" x="235204" y="-87122"/><use xlink:href="#nOsSDlhz5BlDQ1nZlWsY_pad-10" x="232664" y="-87122"/><use xlink:href="#nOsSDlhz5BlDQ1nZlWsY_pad-10" x="230124" y="-87122"/><use xlink:href="#nOsSDlhz5BlDQ1nZlWsY_pad-10" x="227584" y="-87122"/><use xlink:href="#nOsSDlhz5BlDQ1nZlWsY_pad-10" x="225044" y="-87122"/><use xlink:href="#nOsSDlhz5BlDQ1nZlWsY_pad-10" x="247904" y="-84582"/><use xlink:href="#nOsSDlhz5BlDQ1nZlWsY_pad-10" x="245364" y="-84582"/><use xlink:href="#nOsSDlhz5BlDQ1nZlWsY_pad-10" x="242824" y="-84582"/><use xlink:href="#nOsSDlhz5BlDQ1nZlWsY_pad-10" x="240284" y="-84582"/><use xlink:href="#nOsSDlhz5BlDQ1nZlWsY_pad-10" x="237744" y="-84582"/><use xlink:href="#nOsSDlhz5BlDQ1nZlWsY_pad-10" x="235204" y="-84582"/><use xlink:href="#nOsSDlhz5BlDQ1nZlWsY_pad-10" x="232664" y="-84582"/><use xlink:href="#nOsSDlhz5BlDQ1nZlWsY_pad-10" x="230124" y="-84582"/><use xlink:href="#nOsSDlhz5BlDQ1nZlWsY_pad-10" x="227584" y="-84582"/><use xlink:href="#nOsSDlhz5BlDQ1nZlWsY_pad-10" x="225044" y="-84582"/><use xlink:href="#nOsSDlhz5BlDQ1nZlWsY_pad-11" x="216154" y="-137668"/><use xlink:href="#nOsSDlhz5BlDQ1nZlWsY_pad-12" x="216154" y="-132588"/><use xlink:href="#nOsSDlhz5BlDQ1nZlWsY_pad-12" x="216154" y="-127508"/><use xlink:href="#nOsSDlhz5BlDQ1nZlWsY_pad-12" x="216154" y="-122428"/><use xlink:href="#nOsSDlhz5BlDQ1nZlWsY_pad-12" x="216154" y="-117348"/><use xlink:href="#nOsSDlhz5BlDQ1nZlWsY_pad-12" x="216154" y="-112268"/><use xlink:href="#nOsSDlhz5BlDQ1nZlWsY_pad-12" x="216154" y="-107188"/><use xlink:href="#nOsSDlhz5BlDQ1nZlWsY_pad-12" x="216154" y="-102108"/><use xlink:href="#nOsSDlhz5BlDQ1nZlWsY_pad-13" x="229870" y="-114300"/><use xlink:href="#nOsSDlhz5BlDQ1nZlWsY_pad-14" x="229870" y="-116840"/><use xlink:href="#nOsSDlhz5BlDQ1nZlWsY_pad-14" x="229870" y="-119380"/><use xlink:href="#nOsSDlhz5BlDQ1nZlWsY_pad-14" x="229870" y="-121920"/><use xlink:href="#nOsSDlhz5BlDQ1nZlWsY_pad-14" x="229870" y="-124460"/><use xlink:href="#nOsSDlhz5BlDQ1nZlWsY_pad-14" x="229870" y="-127000"/><use xlink:href="#nOsSDlhz5BlDQ1nZlWsY_pad-14" x="229870" y="-129540"/><use xlink:href="#nOsSDlhz5BlDQ1nZlWsY_pad-14" x="229870" y="-132080"/><use xlink:href="#nOsSDlhz5BlDQ1nZlWsY_pad-11" x="257302" y="-88900"/><use xlink:href="#nOsSDlhz5BlDQ1nZlWsY_pad-12" x="257302" y="-93980"/><use xlink:href="#nOsSDlhz5BlDQ1nZlWsY_pad-14" x="243586" y="-131826"/><use xlink:href="#nOsSDlhz5BlDQ1nZlWsY_pad-14" x="243586" y="-129286"/><use xlink:href="#nOsSDlhz5BlDQ1nZlWsY_pad-14" x="243586" y="-126746"/><use xlink:href="#nOsSDlhz5BlDQ1nZlWsY_pad-14" x="243586" y="-126746"/><use xlink:href="#nOsSDlhz5BlDQ1nZlWsY_pad-14" x="243586" y="-124206"/><use xlink:href="#nOsSDlhz5BlDQ1nZlWsY_pad-14" x="243586" y="-121666"/><use xlink:href="#nOsSDlhz5BlDQ1nZlWsY_pad-14" x="243586" y="-119126"/><use xlink:href="#nOsSDlhz5BlDQ1nZlWsY_pad-14" x="243586" y="-116586"/><use xlink:href="#nOsSDlhz5BlDQ1nZlWsY_pad-13" x="243586" y="-114046"/><use xlink:href="#nOsSDlhz5BlDQ1nZlWsY_pad-12" x="257048" y="-137414"/><use xlink:href="#nOsSDlhz5BlDQ1nZlWsY_pad-12" x="257048" y="-132334"/><use xlink:href="#nOsSDlhz5BlDQ1nZlWsY_pad-12" x="257048" y="-127254"/><use xlink:href="#nOsSDlhz5BlDQ1nZlWsY_pad-12" x="257048" y="-127254"/><use xlink:href="#nOsSDlhz5BlDQ1nZlWsY_pad-12" x="257048" y="-122174"/><use xlink:href="#nOsSDlhz5BlDQ1nZlWsY_pad-12" x="257048" y="-117094"/><use xlink:href="#nOsSDlhz5BlDQ1nZlWsY_pad-12" x="257048" y="-112014"/><use xlink:href="#nOsSDlhz5BlDQ1nZlWsY_pad-12" x="257048" y="-106934"/><use xlink:href="#nOsSDlhz5BlDQ1nZlWsY_pad-11" x="257048" y="-101854"/><use xlink:href="#nOsSDlhz5BlDQ1nZlWsY_pad-15" x="225137.001" y="-116689.001"/><use xlink:href="#nOsSDlhz5BlDQ1nZlWsY_pad-16" x="225137.001" y="-114149.001"/><use xlink:href="#nOsSDlhz5BlDQ1nZlWsY_pad-15" x="225137.001" y="-119229.001"/><use xlink:href="#nOsSDlhz5BlDQ1nZlWsY_pad-15" x="225137.001" y="-121769.001"/><use xlink:href="#nOsSDlhz5BlDQ1nZlWsY_pad-15" x="225137.001" y="-124309.001"/><use xlink:href="#nOsSDlhz5BlDQ1nZlWsY_pad-15" x="225137.001" y="-126849.001"/><use xlink:href="#nOsSDlhz5BlDQ1nZlWsY_pad-15" x="225137.001" y="-129389.001"/><use xlink:href="#nOsSDlhz5BlDQ1nZlWsY_pad-15" x="225137.001" y="-131929.001"/><use xlink:href="#nOsSDlhz5BlDQ1nZlWsY_pad-15" x="247997.001" y="-131929.001"/><use xlink:href="#nOsSDlhz5BlDQ1nZlWsY_pad-15" x="247997.001" y="-129389.001"/><use xlink:href="#nOsSDlhz5BlDQ1nZlWsY_pad-15" x="247997.001" y="-126849.001"/><use xlink:href="#nOsSDlhz5BlDQ1nZlWsY_pad-15" x="247997.001" y="-126849.001"/><use xlink:href="#nOsSDlhz5BlDQ1nZlWsY_pad-15" x="247997.001" y="-124309.001"/><use xlink:href="#nOsSDlhz5BlDQ1nZlWsY_pad-15" x="247997.001" y="-121769.001"/><use xlink:href="#nOsSDlhz5BlDQ1nZlWsY_pad-15" x="247997.001" y="-119229.001"/><use xlink:href="#nOsSDlhz5BlDQ1nZlWsY_pad-15" x="247997.001" y="-116689.001"/><use xlink:href="#nOsSDlhz5BlDQ1nZlWsY_pad-15" x="247997.001" y="-114149.001"/><use xlink:href="#nOsSDlhz5BlDQ1nZlWsY_pad-13" x="218186" y="-83312"/><use xlink:href="#nOsSDlhz5BlDQ1nZlWsY_pad-14" x="218186" y="-85852"/><use xlink:href="#nOsSDlhz5BlDQ1nZlWsY_pad-14" x="218186" y="-88392"/><use xlink:href="#nOsSDlhz5BlDQ1nZlWsY_pad-14" x="218186" y="-90932"/><use xlink:href="#nOsSDlhz5BlDQ1nZlWsY_pad-13" x="213519.001" y="-83067.001"/><use xlink:href="#nOsSDlhz5BlDQ1nZlWsY_pad-14" x="213519.001" y="-85607.001"/><use xlink:href="#nOsSDlhz5BlDQ1nZlWsY_pad-14" x="213519.001" y="-88147.001"/><use xlink:href="#nOsSDlhz5BlDQ1nZlWsY_pad-14" x="213519.001" y="-90687.001"/><use xlink:href="#nOsSDlhz5BlDQ1nZlWsY_pad-14" x="213519.001" y="-93227.001"/><use xlink:href="#nOsSDlhz5BlDQ1nZlWsY_pad-14" x="213519.001" y="-95767.001"/><use xlink:href="#nOsSDlhz5BlDQ1nZlWsY_pad-17" x="256643.001" y="-126849.001"/><path d="M 225288 -114300 225137.001 -114149.001 M 229870 -114300 225288 -114300 M 225137.001 -111091.001 216154 -102108 M 225137.001 -114149.001 225137.001 -111091.001 M 225288 -116840 225137.001 -116689.001 M 229870 -116840 225288 -116840 M 216154 -107706 216154 -107188 M 225137.001 -116689.001 216154 -107706 M 225288 -119380 225137.001 -119229.001 M 229870 -119380 225288 -119380 M 223115.001 -119229.001 216154 -112268 M 225137.001 -119229.001 223115.001 -119229.001 M 225288 -121920 225137.001 -121769.001 M 229870 -121920 225288 -121920 M 225137.001 -121769.001 223162.999 -121769.001 M 218741.998 -117348 216154 -117348 M 223162.999 -121769.001 218741.998 -117348 M 213519.001 -90687.001 215900 -93068 215900 -98298 213614 -100584 M 213614 -114808 216154 -117348 M 213614 -100584 213614 -114808 M 225288 -124460 225137.001 -124309.001 M 229870 -124460 225288 -124460 M 216154 -122428 220472 -122428 M 222353.001 -124309.001 225137.001 -124309.001 M 220472 -122428 222353.001 -124309.001 M 216154 -122428 213868 -122428 212344 -120904 M 212344 -94402.002 213519.001 -93227.001 M 212344 -120904 212344 -94402.002 M 225288 -127000 225137.001 -126849.001 M 229870 -127000 225288 -127000 M 216812.999 -126849.001 216154 -127508 M 225137.001 -126849.001 216812.999 -126849.001 M 216154 -127508 211582 -127508 211582 -88646 M 212080.999 -88147.001 213519.001 -88147.001 M 211582 -88646 212080.999 -88147.001 M 219352.999 -129389.001 216154 -132588 M 225137.001 -129389.001 219352.999 -129389.001 M 225288 -129540 225137.001 -129389.001 M 229870 -129540 225288 -129540 M 213519.001 -85607.001 211826.999 -85607.001 210566 -86868 210566 -130302 M 212852 -132588 216154 -132588 M 210566 -130302 212852 -132588 M 215401.001 -83067.001 218186 -85852 M 213519.001 -83067.001 215401.001 -83067.001 M 225288 -132080 225137.001 -131929.001 M 229870 -132080 225288 -132080 M 225137.001 -131929.001 224686.999 -131929.001 M 218948 -137668 216154 -137668 M 224686.999 -131929.001 218948 -137668 M 257302 -88900 248920 -80518 M 220980 -80518 218186 -83312 M 248920 -80518 220980 -80518 M 243689.001 -129389.001 243586 -129286 M 247997.001 -129389.001 243689.001 -129389.001 M 254103.001 -129389.001 257048 -132334 M 247997.001 -129389.001 254103.001 -129389.001 M 257048 -132334 260350 -129032 M 260350 -91948 257302 -88900 M 260350 -129032 260350 -91948 M 243689.001 -131929.001 243586 -131826 M 247997.001 -131929.001 243689.001 -131929.001 M 251563.001 -131929.001 257048 -137414 M 247997.001 -131929.001 251563.001 -131929.001 M 243689.001 -126849.001 243586 -126746 M 247997.001 -126849.001 243689.001 -126849.001 M 256643.001 -126849.001 257048 -127254 M 247997.001 -126849.001 256643.001 -126849.001 M 243689.001 -124309.001 243586 -124206 M 247997.001 -124309.001 243689.001 -124309.001 M 254912.999 -124309.001 257048 -122174 M 247997.001 -124309.001 254912.999 -124309.001 M 243689.001 -121769.001 243586 -121666 M 247997.001 -121769.001 243689.001 -121769.001 M 257048 -117094 254508 -117094 M 249832.999 -121769.001 247997.001 -121769.001 M 254508 -117094 249832.999 -121769.001 M 243586 -121666 240030 -121666 M 218186 -99822 218186 -90932 M 240030 -121666 218186 -99822 M 243689.001 -119229.001 243586 -119126 M 247997.001 -119229.001 243689.001 -119229.001 M 249832.999 -119229.001 257048 -112014 M 247997.001 -119229.001 249832.999 -119229.001 M 218186 -88392 221996 -92202 221996 -102362 M 238760 -119126 243586 -119126 M 221996 -102362 238760 -119126 M 247894 -116586 247997.001 -116689.001 M 243586 -116586 247894 -116586 M 257048 -106934 257048 -108966 M 249324.999 -116689.001 247997.001 -116689.001 M 257048 -108966 249324.999 -116689.001 M 247894 -114046 247997.001 -114149.001 M 243586 -114046 247894 -114046 M 257048 -101854 255016 -101854 251714 -105156 M 251714 -110432.002 247997.001 -114149.001 M 251714 -105156 251714 -110432.002" fill="none" stroke-width="250"/><path d="M 263500 -141834 209194 -141834 209194 -86868 209802.324 -86868 209806 -86905.322 209806.001 -130264.667 209802.324 -130302 209806.001 -130339.333 209816.998 -130450.986 209827.811 -130486.632 209860.454 -130594.246 209931.026 -130726.276 209994.187 -130803.237 210026 -130842.001 210054.998 -130865.799 212288.201 -133099.003 212311.999 -133128.001 212427.724 -133222.974 212559.753 -133293.546 212703.014 -133337.003 212814.667 -133348 212814.676 -133348 212851.999 -133351.676 212889.322 -133348 214428.493 -133348 214483.534 -133480.882 214689.825 -133789.618 214952.382 -134052.175 215261.118 -134258.466 215604.166 -134400.561 215968.344 -134473 216339.656 -134473 216703.834 -134400.561 217046.882 -134258.466 217355.618 -134052.175 217618.175 -133789.618 217824.466 -133480.882 217966.561 -133137.834 218039 -132773.656 218039 -132402.344 217966.561 -132038.166 217911.519 -131905.282 219667.801 -130149.001 223716.1 -130149.001 223738.069 -130190.102 223917.393 -130408.609 224135.9 -130587.933 224268.859 -130659.001 224135.9 -130730.069 223917.393 -130909.393 223738.069 -131127.9 223604.819 -131377.193 223522.765 -131647.692 223495.058 -131929.001 223505.561 -132035.637 218633.199 -136908 218042.072 -136908 218042.072 -136418 218029.812 -136293.518 217993.502 -136173.82 217934.537 -136063.506 217855.185 -135966.815 217758.494 -135887.463 217648.18 -135828.498 217528.482 -135792.188 217404 -135779.928 214904 -135779.928 214779.518 -135792.188 214659.82 -135828.498 214549.506 -135887.463 214452.815 -135966.815 214373.463 -136063.506 214314.498 -136173.82 214278.188 -136293.518 214265.928 -136418 214265.928 -138918 214278.188 -139042.482 214314.498 -139162.18 214373.463 -139272.494 214452.815 -139369.185 214549.506 -139448.537 214659.82 -139507.502 214779.518 -139543.812 214904 -139556.072 217404 -139556.072 217528.482 -139543.812 217648.18 -139507.502 217758.494 -139448.537 217855.185 -139369.185 217934.537 -139272.494 217993.502 -139162.18 218029.812 -139042.482 218042.072 -138918 218042.072 -138428 218910.678 -138428 218948 -138431.676 218985.322 -138428 218985.333 -138428 219096.986 -138417.003 219240.247 -138373.546 219372.276 -138302.974 219488.001 -138208.001 219511.804 -138178.997 224419.279 -133271.523 224655.692 -133343.237 224866.509 -133364.001 225407.493 -133364.001 225618.31 -133343.237 225888.809 -133261.183 226138.102 -133127.933 226356.609 -132948.609 226445.742 -132840 228591.822 -132840 228716.525 -133026.632 228923.368 -133233.475 229166.589 -133395.99 229436.842 -133507.932 229723.74 -133565 230016.26 -133565 230303.158 -133507.932 230573.411 -133395.99 230816.632 -133233.475 231023.475 -133026.632 231185.99 -132783.411 231297.932 -132513.158 231355 -132226.26 231355 -131933.74 231304.476 -131679.74 242101 -131679.74 242101 -131972.26 242158.068 -132259.158 242270.01 -132529.411 242432.525 -132772.632 242639.368 -132979.475 242882.589 -133141.99 243152.842 -133253.932 243439.74 -133311 243732.26 -133311 244019.158 -133253.932 244289.411 -133141.99 244532.632 -132979.475 244739.475 -132772.632 244795.355 -132689.001 246576.1 -132689.001 246598.069 -132730.102 246777.393 -132948.609 246995.9 -133127.933 247245.193 -133261.183 247515.692 -133343.237 247726.509 -133364.001 248267.493 -133364.001 248478.31 -133343.237 248748.809 -133261.183 248998.102 -133127.933 249216.609 -132948.609 249395.933 -132730.102 249417.902 -132689.001 251248.2 -132689.001 255290.481 -136731.283 255235.439 -136864.166 255163 -137228.344 255163 -137599.656 255235.439 -137963.834 255377.534 -138306.882 255583.825 -138615.618 255846.382 -138878.175 256155.118 -139084.466 256498.166 -139226.561 256862.344 -139299 257233.656 -139299 257597.834 -139226.561 257940.882 -139084.466 258249.618 -138878.175 258512.175 -138615.618 258718.466 -138306.882 258860.561 -137963.834 258933 -137599.656 258933 -137228.344 258860.561 -136864.166 258718.466 -136521.118 258512.175 -136212.382 258249.618 -135949.825 257940.882 -135743.534 257597.834 -135601.439 257233.656 -135529 256862.344 -135529 256498.166 -135601.439 256365.283 -135656.481 254356.407 -133647.605 255914 -133647.605 256039.914 -133937.577 256372.126 -134103.433 256730.312 -134201.29 257100.706 -134227.389 257469.075 -134180.725 257821.262 -134063.094 258056.086 -133937.577 258182 -133647.605 257048 -132513.605 255914 -133647.605 254356.407 -133647.605 253095.508 -132386.706 255154.611 -132386.706 255201.275 -132755.075 255318.906 -133107.262 255444.423 -133342.086 255734.395 -133468 256868.395 -132334 257227.605 -132334 258361.605 -133468 258651.577 -133342.086 258817.433 -133009.874 258915.29 -132651.688 258941.389 -132281.294 258894.725 -131912.925 258777.094 -131560.738 258651.577 -131325.914 258361.605 -131200 257227.605 -132334 256868.395 -132334 255734.395 -131200 255444.423 -131325.914 255278.567 -131658.126 255180.71 -132016.312 255154.611 -132386.706 253095.508 -132386.706 252126.805 -131418.004 252103.002 -131389 251987.277 -131294.027 251855.248 -131223.455 251711.987 -131179.998 251600.334 -131169.001 251600.323 -131169.001 251563.001 -131165.325 251525.679 -131169.001 249417.902 -131169.001 249395.933 -131127.9 249307.706 -131020.395 255914 -131020.395 257048 -132154.395 258182 -131020.395 258056.086 -130730.423 257723.874 -130564.567 257365.688 -130466.71 256995.294 -130440.611 256626.925 -130487.275 256274.738 -130604.906 256039.914 -130730.423 255914 -131020.395 249307.706 -131020.395 249216.609 -130909.393 248998.102 -130730.069 248868.656 -130660.879 248886.228 -130653.431 249119.663 -130494.674 249317.64 -130293.426 249472.552 -130057.422 249578.445 -129795.731 249588.905 -129738.04 249466.916 -129516.001 248124.001 -129516.001 248124.001 -129536.001 247870.001 -129536.001 247870.001 -129516.001 246527.086 -129516.001 246405.097 -129738.04 246415.557 -129795.731 246521.45 -130057.422 246676.362 -130293.426 246874.339 -130494.674 247107.774 -130653.431 247125.346 -130660.879 246995.9 -130730.069 246777.393 -130909.393 246598.069 -131127.9 246576.1 -131169.001 244921.214 -131169.001 244901.99 -131122.589 244739.475 -130879.368 244532.632 -130672.525 244350.466 -130550.805 244467.355 -130481.178 244683.588 -130286.269 244857.641 -130052.92 244982.825 -129790.099 245027.476 -129642.89 244906.155 -129413 243713 -129413 243713 -129433 243459 -129433 243459 -129413 242265.845 -129413 242144.524 -129642.89 242189.175 -129790.099 242314.359 -130052.92 242488.412 -130286.269 242704.645 -130481.178 242821.534 -130550.805 242639.368 -130672.525 242432.525 -130879.368 242270.01 -131122.589 242158.068 -131392.842 242101 -131679.74 231304.476 -131679.74 231297.932 -131646.842 231185.99 -131376.589 231023.475 -131133.368 230816.632 -130926.525 230642.24 -130810 230816.632 -130693.475 231023.475 -130486.632 231185.99 -130243.411 231297.932 -129973.158 231355 -129686.26 231355 -129393.74 231297.932 -129106.842 231185.99 -128836.589 231023.475 -128593.368 230816.632 -128386.525 230642.24 -128270 230816.632 -128153.475 231023.475 -127946.632 231185.99 -127703.411 231297.932 -127433.158 231355 -127146.26 231355 -126853.74 231297.932 -126566.842 231185.99 -126296.589 231023.475 -126053.368 230816.632 -125846.525 230642.24 -125730 230816.632 -125613.475 231023.475 -125406.632 231185.99 -125163.411 231297.932 -124893.158 231355 -124606.26 231355 -124313.74 231297.932 -124026.842 231185.99 -123756.589 231023.475 -123513.368 230816.632 -123306.525 230642.24 -123190 230816.632 -123073.475 231023.475 -122866.632 231185.99 -122623.411 231297.932 -122353.158 231355 -122066.26 231355 -121773.74 231297.932 -121486.842 231185.99 -121216.589 231023.475 -120973.368 230816.632 -120766.525 230642.24 -120650 230816.632 -120533.475 231023.475 -120326.632 231185.99 -120083.411 231297.932 -119813.158 231355 -119526.26 231355 -119233.74 231297.932 -118946.842 231185.99 -118676.589 231023.475 -118433.368 230816.632 -118226.525 230642.24 -118110 230816.632 -117993.475 231023.475 -117786.632 231185.99 -117543.411 231297.932 -117273.158 231355 -116986.26 231355 -116693.74 231297.932 -116406.842 231185.99 -116136.589 231023.475 -115893.368 230891.62 -115761.513 230964.18 -115739.502 231074.494 -115680.537 231171.185 -115601.185 231250.537 -115504.494 231309.502 -115394.18 231345.812 -115274.482 231358.072 -115150 231358.072 -114068.874 239466.2 -122177.002 239489.999 -122206.001 239518.997 -122229.799 239605.723 -122300.974 239665.265 -122332.8 239737.753 -122371.546 239881.014 -122415.003 239992.667 -122426 239992.676 -122426 240029.999 -122429.676 240067.322 -122426 242307.822 -122426 242432.525 -122612.632 242639.368 -122819.475 242813.76 -122936 242639.368 -123052.525 242432.525 -123259.368 242270.01 -123502.589 242158.068 -123772.842 242101 -124059.74 242101 -124352.26 242158.068 -124639.158 242270.01 -124909.411 242432.525 -125152.632 242639.368 -125359.475 242813.76 -125476 242639.368 -125592.525 242432.525 -125799.368 242270.01 -126042.589 242158.068 -126312.842 242101 -126599.74 242101 -126892.26 242158.068 -127179.158 242270.01 -127449.411 242432.525 -127692.632 242639.368 -127899.475 242821.534 -128021.195 242704.645 -128090.822 242488.412 -128285.731 242314.359 -128519.08 242189.175 -128781.901 242144.524 -128929.11 242265.845 -129159 243459 -129159 243459 -129139 243713 -129139 243713 -129159 244906.155 -129159 245027.476 -128929.11 244982.825 -128781.901 244857.641 -128519.08 244683.588 -128285.731 244467.355 -128090.822 244350.466 -128021.195 244532.632 -127899.475 244739.475 -127692.632 244795.355 -127609.001 246576.1 -127609.001 246598.069 -127650.102 246777.393 -127868.609 246995.9 -128047.933 247125.346 -128117.123 247107.774 -128124.571 246874.339 -128283.328 246676.362 -128484.576 246521.45 -128720.58 246415.557 -128982.271 246405.097 -129039.962 246527.086 -129262.001 247870.001 -129262.001 247870.001 -129242.001 248124.001 -129242.001 248124.001 -129262.001 249466.916 -129262.001 249588.905 -129039.962 249578.445 -128982.271 249472.552 -128720.58 249317.64 -128484.576 249119.663 -128283.328 248886.228 -128124.571 248868.656 -128117.123 248998.102 -128047.933 249216.609 -127868.609 249395.933 -127650.102 249417.902 -127609.001 255196.685 -127609.001 255235.439 -127803.834 255377.534 -128146.882 255583.825 -128455.618 255846.382 -128718.175 256155.118 -128924.466 256498.166 -129066.561 256862.344 -129139 257233.656 -129139 257597.834 -129066.561 257940.882 -128924.466 258249.618 -128718.175 258512.175 -128455.618 258718.466 -128146.882 258860.561 -127803.834 258933 -127439.656 258933 -127068.344 258860.561 -126704.166 258718.466 -126361.118 258512.175 -126052.382 258249.618 -125789.825 257940.882 -125583.534 257597.834 -125441.439 257233.656 -125369 256862.344 -125369 256498.166 -125441.439 256155.118 -125583.534 255846.382 -125789.825 255583.825 -126052.382 255559.357 -126089.001 249417.902 -126089.001 249395.933 -126047.9 249216.609 -125829.393 248998.102 -125650.069 248865.143 -125579.001 248998.102 -125507.933 249216.609 -125328.609 249395.933 -125110.102 249417.902 -125069.001 254875.677 -125069.001 254912.999 -125072.677 254950.321 -125069.001 254950.332 -125069.001 255061.985 -125058.004 255205.246 -125014.547 255337.275 -124943.975 255453 -124849.002 255476.803 -124819.998 256365.283 -123931.519 256498.166 -123986.561 256862.344 -124059 257233.656 -124059 257597.834 -123986.561 257940.882 -123844.466 258249.618 -123638.175 258512.175 -123375.618 258718.466 -123066.882 258860.561 -122723.834 258933 -122359.656 258933 -121988.344 258860.561 -121624.166 258718.466 -121281.118 258512.175 -120972.382 258249.618 -120709.825 257940.882 -120503.534 257597.834 -120361.439 257233.656 -120289 256862.344 -120289 256498.166 -120361.439 256155.118 -120503.534 255846.382 -120709.825 255583.825 -120972.382 255377.534 -121281.118 255235.439 -121624.166 255163 -121988.344 255163 -122359.656 255235.439 -122723.834 255290.481 -122856.717 254598.198 -123549.001 249417.902 -123549.001 249395.933 -123507.9 249216.609 -123289.393 248998.102 -123110.069 248865.143 -123039.001 248998.102 -122967.933 249216.609 -122788.609 249395.933 -122570.102 249417.902 -122529.001 249795.677 -122529.001 249832.999 -122532.677 249870.321 -122529.001 249870.332 -122529.001 249981.985 -122518.004 250125.246 -122474.547 250257.275 -122403.975 250373 -122309.002 250396.803 -122279.998 254822.802 -117854 255322.493 -117854 255377.534 -117986.882 255583.825 -118295.618 255846.382 -118558.175 256155.118 -118764.466 256498.166 -118906.561 256862.344 -118979 257233.656 -118979 257597.834 -118906.561 257940.882 -118764.466 258249.618 -118558.175 258512.175 -118295.618 258718.466 -117986.882 258860.561 -117643.834 258933 -117279.656 258933 -116908.344 258860.561 -116544.166 258718.466 -116201.118 258512.175 -115892.382 258249.618 -115629.825 257940.882 -115423.534 257597.834 -115281.439 257233.656 -115209 256862.344 -115209 256498.166 -115281.439 256155.118 -115423.534 255846.382 -115629.825 255583.825 -115892.382 255377.534 -116201.118 255322.493 -116334 254545.323 -116334 254508 -116330.324 254470.677 -116334 254470.667 -116334 254359.014 -116344.997 254215.753 -116388.454 254083.724 -116459.026 253967.999 -116553.999 253944.201 -116582.997 249518.198 -121009.001 249417.902 -121009.001 249395.933 -120967.9 249216.609 -120749.393 248998.102 -120570.069 248865.143 -120499.001 248998.102 -120427.933 249216.609 -120248.609 249395.933 -120030.102 249417.902 -119989.001 249795.677 -119989.001 249832.999 -119992.677 249870.321 -119989.001 249870.332 -119989.001 249981.985 -119978.004 250125.246 -119934.547 250257.275 -119863.975 250373 -119769.002 250396.803 -119739.998 256365.283 -113771.519 256498.166 -113826.561 256862.344 -113899 257233.656 -113899 257597.834 -113826.561 257940.882 -113684.466 258249.618 -113478.175 258512.175 -113215.618 258718.466 -112906.882 258860.561 -112563.834 258933 -112199.656 258933 -111828.344 258860.561 -111464.166 258718.466 -111121.118 258512.175 -110812.382 258249.618 -110549.825 257940.882 -110343.534 257597.834 -110201.439 257233.656 -110129 256959.802 -110129 257559.003 -109529.799 257588.001 -109506.001 257682.974 -109390.276 257753.546 -109258.247 257797.003 -109114.986 257808 -109003.333 257808 -109003.325 257811.676 -108966 257808 -108928.675 257808 -108659.507 257940.882 -108604.466 258249.618 -108398.175 258512.175 -108135.618 258718.466 -107826.882 258860.561 -107483.834 258933 -107119.656 258933 -106748.344 258860.561 -106384.166 258718.466 -106041.118 258512.175 -105732.382 258249.618 -105469.825 257940.882 -105263.534 257597.834 -105121.439 257233.656 -105049 256862.344 -105049 256498.166 -105121.439 256155.118 -105263.534 255846.382 -105469.825 255583.825 -105732.382 255377.534 -106041.118 255235.439 -106384.166 255163 -106748.344 255163 -107119.656 255235.439 -107483.834 255377.534 -107826.882 255583.825 -108135.618 255846.382 -108398.175 256155.118 -108604.466 256282.124 -108657.074 249240.588 -115698.611 249216.609 -115669.393 248998.102 -115490.069 248865.143 -115419.001 248998.102 -115347.933 249216.609 -115168.609 249395.933 -114950.102 249529.183 -114700.809 249611.237 -114430.31 249638.944 -114149.001 249611.237 -113867.692 249551.16 -113669.643 252225.008 -110995.797 252254.001 -110972.003 252277.795 -110943.01 252277.799 -110943.006 252348.973 -110856.279 252372.437 -110812.382 252419.546 -110724.249 252463.003 -110580.988 252474 -110469.335 252474 -110469.326 252477.676 -110432.003 252474 -110394.68 252474 -105470.801 255159.928 -102784.874 255159.928 -103104 255172.188 -103228.482 255208.498 -103348.18 255267.463 -103458.494 255346.815 -103555.185 255443.506 -103634.537 255553.82 -103693.502 255673.518 -103729.812 255798 -103742.072 258298 -103742.072 258422.482 -103729.812 258542.18 -103693.502 258652.494 -103634.537 258749.185 -103555.185 258828.537 -103458.494 258887.502 -103348.18 258923.812 -103228.482 258936.072 -103104 258936.072 -100604 258923.812 -100479.518 258887.502 -100359.82 258828.537 -100249.506 258749.185 -100152.815 258652.494 -100073.463 258542.18 -100014.498 258422.482 -99978.188 258298 -99965.928 255798 -99965.928 255673.518 -99978.188 255553.82 -100014.498 255443.506 -100073.463 255346.815 -100152.815 255267.463 -100249.506 255208.498 -100359.82 255172.188 -100479.518 255159.928 -100604 255159.928 -101094 255053.322 -101094 255015.999 -101090.324 254978.676 -101094 254978.667 -101094 254867.014 -101104.997 254723.753 -101148.454 254591.724 -101219.026 254475.999 -101313.999 254452.201 -101342.997 251203.003 -104592.196 251173.999 -104615.999 251118.871 -104683.174 251079.026 -104731.724 251008.455 -104863.753 251008.454 -104863.754 250964.997 -105007.015 250954 -105118.668 250954 -105118.678 250950.324 -105156 250954 -105193.323 250954.001 -110117.198 248349.156 -112722.044 248267.493 -112714.001 247726.509 -112714.001 247515.692 -112734.765 247245.193 -112816.819 246995.9 -112950.069 246777.393 -113129.393 246648.869 -113286 245074.072 -113286 245074.072 -113196 245061.812 -113071.518 245025.502 -112951.82 244966.537 -112841.506 244887.185 -112744.815 244790.494 -112665.463 244680.18 -112606.498 244560.482 -112570.188 244436 -112557.928 242736 -112557.928 242611.518 -112570.188 242491.82 -112606.498 242381.506 -112665.463 242284.815 -112744.815 242205.463 -112841.506 242146.498 -112951.82 242110.188 -113071.518 242097.928 -113196 242097.928 -114896 242110.188 -115020.482 242146.498 -115140.18 242205.463 -115250.494 242284.815 -115347.185 242381.506 -115426.537 242491.82 -115485.502 242564.38 -115507.513 242432.525 -115639.368 242270.01 -115882.589 242158.068 -116152.842 242101 -116439.74 242101 -116732.26 242158.068 -117019.158 242270.01 -117289.411 242432.525 -117532.632 242639.368 -117739.475 242813.76 -117856 242639.368 -117972.525 242432.525 -118179.368 242307.822 -118366 239074.802 -118366 224661.811 -103953.009 224882.967 -103997 225205.033 -103997 225520.912 -103934.168 225818.463 -103810.918 226086.252 -103631.987 226313.987 -103404.252 226314 -103404.233 226314.013 -103404.252 226541.748 -103631.987 226809.537 -103810.918 227107.088 -103934.168 227422.967 -103997 227745.033 -103997 228060.912 -103934.168 228358.463 -103810.918 228626.252 -103631.987 228853.987 -103404.252 228854 -103404.233 228854.013 -103404.252 229081.748 -103631.987 229349.537 -103810.918 229647.088 -103934.168 229962.967 -103997 230285.033 -103997 230600.912 -103934.168 230898.463 -103810.918 231166.252 -103631.987 231393.987 -103404.252 231394 -103404.233 231394.013 -103404.252 231621.748 -103631.987 231889.537 -103810.918 232187.088 -103934.168 232502.967 -103997 232825.033 -103997 233140.912 -103934.168 233438.463 -103810.918 233706.252 -103631.987 233933.987 -103404.252 233934 -103404.233 233934.013 -103404.252 234161.748 -103631.987 234429.537 -103810.918 234727.088 -103934.168 235042.967 -103997 235365.033 -103997 235680.912 -103934.168 235978.463 -103810.918 236246.252 -103631.987 236473.987 -103404.252 236474 -103404.233 236474.013 -103404.252 236701.748 -103631.987 236969.537 -103810.918 237267.088 -103934.168 237582.967 -103997 237905.033 -103997 238220.912 -103934.168 238518.463 -103810.918 238786.252 -103631.987 239013.987 -103404.252 239014 -103404.233 239014.013 -103404.252 239241.748 -103631.987 239509.537 -103810.918 239807.088 -103934.168 240122.967 -103997 240445.033 -103997 240760.912 -103934.168 241058.463 -103810.918 241326.252 -103631.987 241553.987 -103404.252 241554 -103404.233 241554.013 -103404.252 241781.748 -103631.987 242049.537 -103810.918 242347.088 -103934.168 242662.967 -103997 242985.033 -103997 243300.912 -103934.168 243598.463 -103810.918 243866.252 -103631.987 244093.987 -103404.252 244094 -103404.233 244094.013 -103404.252 244321.748 -103631.987 244589.537 -103810.918 244887.088 -103934.168 245202.967 -103997 245525.033 -103997 245840.912 -103934.168 246138.463 -103810.918 246406.252 -103631.987 246633.987 -103404.252 246634 -103404.233 246634.013 -103404.252 246861.748 -103631.987 247129.537 -103810.918 247427.088 -103934.168 247742.967 -103997 248065.033 -103997 248380.912 -103934.168 248678.463 -103810.918 248946.252 -103631.987 249173.987 -103404.252 249352.918 -103136.463 249476.168 -102838.912 249539 -102523.033 249539 -102200.967 249476.168 -101885.088 249352.918 -101587.537 249173.987 -101319.748 248946.252 -101092.013 248946.233 -101092 248946.252 -101091.987 249173.987 -100864.252 249352.918 -100596.463 249476.168 -100298.912 249539 -99983.033 249539 -99660.967 249476.168 -99345.088 249352.918 -99047.537 249173.987 -98779.748 248946.252 -98552.013 248946.233 -98552 248946.252 -98551.987 249173.987 -98324.252 249352.918 -98056.463 249476.168 -97758.912 249539 -97443.033 249539 -97120.967 249476.168 -96805.088 249352.918 -96507.537 249173.987 -96239.748 248946.252 -96012.013 248946.233 -96012 248946.252 -96011.987 249173.987 -95784.252 249352.918 -95516.463 249476.168 -95218.912 249539 -94903.033 249539 -94580.967 249476.168 -94265.088 249352.918 -93967.537 249237.195 -93794.344 255417 -93794.344 255417 -94165.656 255489.439 -94529.834 255631.534 -94872.882 255837.825 -95181.618 256100.382 -95444.175 256409.118 -95650.466 256752.166 -95792.561 257116.344 -95865 257487.656 -95865 257851.834 -95792.561 258194.882 -95650.466 258503.618 -95444.175 258766.175 -95181.618 258972.466 -94872.882 259114.561 -94529.834 259187 -94165.656 259187 -93794.344 259114.561 -93430.166 258972.466 -93087.118 258766.175 -92778.382 258503.618 -92515.825 258194.882 -92309.534 257851.834 -92167.439 257487.656 -92095 257116.344 -92095 256752.166 -92167.439 256409.118 -92309.534 256100.382 -92515.825 255837.825 -92778.382 255631.534 -93087.118 255489.439 -93430.166 255417 -93794.344 249237.195 -93794.344 249173.987 -93699.748 248946.252 -93472.013 248946.233 -93472 248946.252 -93471.987 249173.987 -93244.252 249352.918 -92976.463 249476.168 -92678.912 249539 -92363.033 249539 -92040.967 249476.168 -91725.088 249352.918 -91427.537 249173.987 -91159.748 248946.252 -90932.013 248946.233 -90932 248946.252 -90931.987 249173.987 -90704.252 249352.918 -90436.463 249471.575 -90150 255413.928 -90150 255426.188 -90274.482 255462.498 -90394.18 255521.463 -90504.494 255600.815 -90601.185 255697.506 -90680.537 255807.82 -90739.502 255927.518 -90775.812 256052 -90788.072 257016.25 -90785 257175 -90626.25 257175 -89027 257429 -89027 257429 -90626.25 257587.75 -90785 258552 -90788.072 258676.482 -90775.812 258796.18 -90739.502 258906.494 -90680.537 259003.185 -90601.185 259082.537 -90504.494 259141.502 -90394.18 259177.812 -90274.482 259190.072 -90150 259187 -89185.75 259028.25 -89027 257429 -89027 257175 -89027 255575.75 -89027 255417 -89185.75 255413.928 -90150 249471.575 -90150 249476.168 -90138.912 249539 -89823.033 249539 -89500.967 249476.168 -89185.088 249352.918 -88887.537 249173.987 -88619.748 248946.252 -88392.013 248946.233 -88392 248946.252 -88391.987 249173.987 -88164.252 249352.918 -87896.463 249455.006 -87650 255413.928 -87650 255417 -88614.25 255575.75 -88773 257175 -88773 257175 -87173.75 257429 -87173.75 257429 -88773 259028.25 -88773 259187 -88614.25 259190.072 -87650 259177.812 -87525.518 259141.502 -87405.82 259082.537 -87295.506 259003.185 -87198.815 258906.494 -87119.463 258796.18 -87060.498 258676.482 -87024.188 258552 -87011.928 257587.75 -87015 257429 -87173.75 257175 -87173.75 257016.25 -87015 256052 -87011.928 255927.518 -87024.188 255807.82 -87060.498 255697.506 -87119.463 255600.815 -87198.815 255521.463 -87295.506 255462.498 -87405.82 255426.188 -87525.518 255413.928 -87650 249455.006 -87650 249476.168 -87598.912 249539 -87283.033 249539 -86960.967 249476.168 -86645.088 249352.918 -86347.537 249173.987 -86079.748 248946.252 -85852.013 248946.233 -85852 248946.252 -85851.987 249173.987 -85624.252 249352.918 -85356.463 249476.168 -85058.912 249539 -84743.033 249539 -84420.967 249476.168 -84105.088 249352.918 -83807.537 249173.987 -83539.748 248946.252 -83312.013 248678.463 -83133.082 248380.912 -83009.832 248065.033 -82947 247742.967 -82947 247427.088 -83009.832 247129.537 -83133.082 246861.748 -83312.013 246634.013 -83539.748 246634 -83539.767 246633.987 -83539.748 246406.252 -83312.013 246138.463 -83133.082 245840.912 -83009.832 245525.033 -82947 245202.967 -82947 244887.088 -83009.832 244589.537 -83133.082 244321.748 -83312.013 244094.013 -83539.748 244094 -83539.767 244093.987 -83539.748 243866.252 -83312.013 243598.463 -83133.082 243300.912 -83009.832 242985.033 -82947 242662.967 -82947 242347.088 -83009.832 242049.537 -83133.082 241781.748 -83312.013 241554.013 -83539.748 241554 -83539.767 241553.987 -83539.748 241326.252 -83312.013 241058.463 -83133.082 240760.912 -83009.832 240445.033 -82947 240122.967 -82947 239807.088 -83009.832 239509.537 -83133.082 239241.748 -83312.013 239014.013 -83539.748 239014 -83539.767 239013.987 -83539.748 238786.252 -83312.013 238518.463 -83133.082 238220.912 -83009.832 237905.033 -82947 237582.967 -82947 237267.088 -83009.832 236969.537 -83133.082 236701.748 -83312.013 236474.013 -83539.748 236474 -83539.767 236473.987 -83539.748 236246.252 -83312.013 235978.463 -83133.082 235680.912 -83009.832 235365.033 -82947 235042.967 -82947 234727.088 -83009.832 234429.537 -83133.082 234161.748 -83312.013 233934.013 -83539.748 233934 -83539.767 233933.987 -83539.748 233706.252 -83312.013 233438.463 -83133.082 233140.912 -83009.832 232825.033 -82947 232502.967 -82947 232187.088 -83009.832 231889.537 -83133.082 231621.748 -83312.013 231394.013 -83539.748 231394 -83539.767 231393.987 -83539.748 231166.252 -83312.013 230898.463 -83133.082 230600.912 -83009.832 230285.033 -82947 229962.967 -82947 229647.088 -83009.832 229349.537 -83133.082 229081.748 -83312.013 228854.013 -83539.748 228854 -83539.767 228853.987 -83539.748 228626.252 -83312.013 228358.463 -83133.082 228060.912 -83009.832 227745.033 -82947 227422.967 -82947 227107.088 -83009.832 226809.537 -83133.082 226541.748 -83312.013 226314.013 -83539.748 226314 -83539.767 226313.987 -83539.748 226086.252 -83312.013 225818.463 -83133.082 225520.912 -83009.832 225205.033 -82947 224882.967 -82947 224567.088 -83009.832 224269.537 -83133.082 224001.748 -83312.013 223774.013 -83539.748 223595.082 -83807.537 223471.832 -84105.088 223409 -84420.967 223409 -84743.033 223471.832 -85058.912 223595.082 -85356.463 223774.013 -85624.252 224001.748 -85851.987 224001.767 -85852 224001.748 -85852.013 223774.013 -86079.748 223595.082 -86347.537 223471.832 -86645.088 223409 -86960.967 223409 -87283.033 223471.832 -87598.912 223595.082 -87896.463 223774.013 -88164.252 224001.748 -88391.987 224001.767 -88392 224001.748 -88392.013 223774.013 -88619.748 223595.082 -88887.537 223471.832 -89185.088 223409 -89500.967 223409 -89823.033 223471.832 -90138.912 223595.082 -90436.463 223774.013 -90704.252 224001.748 -90931.987 224001.767 -90932 224001.748 -90932.013 223774.013 -91159.748 223595.082 -91427.537 223471.832 -91725.088 223409 -92040.967 223409 -92363.033 223471.832 -92678.912 223595.082 -92976.463 223774.013 -93244.252 224001.748 -93471.987 224001.767 -93472 224001.748 -93472.013 223774.013 -93699.748 223595.082 -93967.537 223471.832 -94265.088 223409 -94580.967 223409 -94903.033 223471.832 -95218.912 223595.082 -95516.463 223774.013 -95784.252 224001.748 -96011.987 224001.767 -96012 224001.748 -96012.013 223774.013 -96239.748 223595.082 -96507.537 223471.832 -96805.088 223409 -97120.967 223409 -97443.033 223471.832 -97758.912 223595.082 -98056.463 223774.013 -98324.252 224001.748 -98551.987 224001.767 -98552 224001.748 -98552.013 223774.013 -98779.748 223595.082 -99047.537 223471.832 -99345.088 223409 -99660.967 223409 -99983.033 223471.832 -100298.912 223595.082 -100596.463 223774.013 -100864.252 224001.748 -101091.987 224001.767 -101092 224001.748 -101092.013 223774.013 -101319.748 223595.082 -101587.537 223471.832 -101885.088 223409 -102200.967 223409 -102523.033 223452.991 -102744.19 222756 -102047.199 222756 -92239.325 222759.676 -92202 222756 -92164.675 222756 -92164.667 222745.003 -92053.014 222701.546 -91909.753 222630.974 -91777.724 222536.001 -91661.999 222507.004 -91638.202 219627.209 -88758.408 219671 -88538.26 219671 -88245.74 219613.932 -87958.842 219501.99 -87688.589 219339.475 -87445.368 219132.632 -87238.525 218958.24 -87122 219132.632 -87005.475 219339.475 -86798.632 219501.99 -86555.411 219613.932 -86285.158 219671 -85998.26 219671 -85705.74 219613.932 -85418.842 219501.99 -85148.589 219339.475 -84905.368 219207.62 -84773.513 219280.18 -84751.502 219390.494 -84692.537 219487.185 -84613.185 219566.537 -84516.494 219625.502 -84406.18 219661.812 -84286.482 219674.072 -84162 219671 -83597.75 219512.25 -83439 218313 -83439 218313 -83459 218059 -83459 218059 -83439 218039 -83439 218039 -83185 218059 -83185 218059 -81985.75 218313 -81985.75 218313 -83185 219512.25 -83185 219671 -83026.25 219674.072 -82462 219661.812 -82337.518 219625.502 -82217.82 219566.537 -82107.506 219487.185 -82010.815 219390.494 -81931.463 219280.18 -81872.498 219160.482 -81836.188 219036 -81823.928 218471.75 -81827 218313 -81985.75 218059 -81985.75 217900.25 -81827 217336 -81823.928 217211.518 -81836.188 217091.82 -81872.498 216981.506 -81931.463 216884.815 -82010.815 216805.463 -82107.506 216746.498 -82217.82 216710.188 -82337.518 216697.928 -82462 216701 -83026.25 216859.748 -83184.998 216701 -83184.998 216701 -83292.198 215964.805 -82556.004 215941.002 -82527 215825.277 -82432.027 215693.248 -82361.455 215549.987 -82317.998 215438.334 -82307.001 215438.323 -82307.001 215401.001 -82303.325 215363.679 -82307.001 215007.073 -82307.001 215007.073 -82217.001 214994.813 -82092.519 214958.503 -81972.821 214899.538 -81862.507 214820.186 -81765.816 214723.495 -81686.464 214613.181 -81627.499 214493.483 -81591.189 214369.001 -81578.929 212669.001 -81578.929 212544.519 -81591.189 212424.821 -81627.499 212314.507 -81686.464 212217.816 -81765.816 212138.464 -81862.507 212079.499 -81972.821 212043.189 -82092.519 212030.929 -82217.001 212030.929 -83917.001 212043.189 -84041.483 212079.499 -84161.181 212138.464 -84271.495 212217.816 -84368.186 212314.507 -84447.538 212424.821 -84506.503 212497.381 -84528.514 212365.526 -84660.369 212240.823 -84847.001 211864.322 -84847.001 211826.999 -84843.325 211789.676 -84847.001 211789.666 -84847.001 211678.013 -84857.998 211534.752 -84901.455 211402.722 -84972.027 211319.082 -85040.669 211286.998 -85067 211263.2 -85095.998 210055.003 -86304.196 210025.999 -86327.999 209973.475 -86392 209931.026 -86443.724 209907.909 -86486.973 209860.454 -86575.754 209816.997 -86719.015 209806 -86830.668 209806 -86830.678 209802.324 -86868 209194 -86868 209194 -79654 263500.001 -79654 263500 -141834"/><path d="M 263500 -141834 209194 -141834 209194 -86868 209802.324 -86868 209806 -86905.322 209806.001 -130264.667 209802.324 -130302 209806.001 -130339.333 209816.998 -130450.986 209827.811 -130486.632 209860.454 -130594.246 209931.026 -130726.276 209994.187 -130803.237 210026 -130842.001 210054.998 -130865.799 212288.201 -133099.003 212311.999 -133128.001 212427.724 -133222.974 212559.753 -133293.546 212703.014 -133337.003 212814.667 -133348 212814.676 -133348 212851.999 -133351.676 212889.322 -133348 214428.493 -133348 214483.534 -133480.882 214689.825 -133789.618 214952.382 -134052.175 215261.118 -134258.466 215604.166 -134400.561 215968.344 -134473 216339.656 -134473 216703.834 -134400.561 217046.882 -134258.466 217355.618 -134052.175 217618.175 -133789.618 217824.466 -133480.882 217966.561 -133137.834 218039 -132773.656 218039 -132402.344 217966.561 -132038.166 217911.519 -131905.282 219667.801 -130149.001 223716.1 -130149.001 223738.069 -130190.102 223917.393 -130408.609 224135.9 -130587.933 224268.859 -130659.001 224135.9 -130730.069 223917.393 -130909.393 223738.069 -131127.9 223604.819 -131377.193 223522.765 -131647.692 223495.058 -131929.001 223505.561 -132035.637 218633.199 -136908 218042.072 -136908 218042.072 -136418 218029.812 -136293.518 217993.502 -136173.82 217934.537 -136063.506 217855.185 -135966.815 217758.494 -135887.463 217648.18 -135828.498 217528.482 -135792.188 217404 -135779.928 214904 -135779.928 214779.518 -135792.188 214659.82 -135828.498 214549.506 -135887.463 214452.815 -135966.815 214373.463 -136063.506 214314.498 -136173.82 214278.188 -136293.518 214265.928 -136418 214265.928 -138918 214278.188 -139042.482 214314.498 -139162.18 214373.463 -139272.494 214452.815 -139369.185 214549.506 -139448.537 214659.82 -139507.502 214779.518 -139543.812 214904 -139556.072 217404 -139556.072 217528.482 -139543.812 217648.18 -139507.502 217758.494 -139448.537 217855.185 -139369.185 217934.537 -139272.494 217993.502 -139162.18 218029.812 -139042.482 218042.072 -138918 218042.072 -138428 218910.678 -138428 218948 -138431.676 218985.322 -138428 218985.333 -138428 219096.986 -138417.003 219240.247 -138373.546 219372.276 -138302.974 219488.001 -138208.001 219511.804 -138178.997 224419.279 -133271.523 224655.692 -133343.237 224866.509 -133364.001 225407.493 -133364.001 225618.31 -133343.237 225888.809 -133261.183 226138.102 -133127.933 226356.609 -132948.609 226445.742 -132840 228591.822 -132840 228716.525 -133026.632 228923.368 -133233.475 229166.589 -133395.99 229436.842 -133507.932 229723.74 -133565 230016.26 -133565 230303.158 -133507.932 230573.411 -133395.99 230816.632 -133233.475 231023.475 -133026.632 231185.99 -132783.411 231297.932 -132513.158 231355 -132226.26 231355 -131933.74 231304.476 -131679.74 242101 -131679.74 242101 -131972.26 242158.068 -132259.158 242270.01 -132529.411 242432.525 -132772.632 242639.368 -132979.475 242882.589 -133141.99 243152.842 -133253.932 243439.74 -133311 243732.26 -133311 244019.158 -133253.932 244289.411 -133141.99 244532.632 -132979.475 244739.475 -132772.632 244795.355 -132689.001 246576.1 -132689.001 246598.069 -132730.102 246777.393 -132948.609 246995.9 -133127.933 247245.193 -133261.183 247515.692 -133343.237 247726.509 -133364.001 248267.493 -133364.001 248478.31 -133343.237 248748.809 -133261.183 248998.102 -133127.933 249216.609 -132948.609 249395.933 -132730.102 249417.902 -132689.001 251248.2 -132689.001 255290.481 -136731.283 255235.439 -136864.166 255163 -137228.344 255163 -137599.656 255235.439 -137963.834 255377.534 -138306.882 255583.825 -138615.618 255846.382 -138878.175 256155.118 -139084.466 256498.166 -139226.561 256862.344 -139299 257233.656 -139299 257597.834 -139226.561 257940.882 -139084.466 258249.618 -138878.175 258512.175 -138615.618 258718.466 -138306.882 258860.561 -137963.834 258933 -137599.656 258933 -137228.344 258860.561 -136864.166 258718.466 -136521.118 258512.175 -136212.382 258249.618 -135949.825 257940.882 -135743.534 257597.834 -135601.439 257233.656 -135529 256862.344 -135529 256498.166 -135601.439 256365.283 -135656.481 254356.407 -133647.605 255914 -133647.605 256039.914 -133937.577 256372.126 -134103.433 256730.312 -134201.29 257100.706 -134227.389 257469.075 -134180.725 257821.262 -134063.094 258056.086 -133937.577 258182 -133647.605 257048 -132513.605 255914 -133647.605 254356.407 -133647.605 253095.508 -132386.706 255154.611 -132386.706 255201.275 -132755.075 255318.906 -133107.262 255444.423 -133342.086 255734.395 -133468 256868.395 -132334 257227.605 -132334 258361.605 -133468 258651.577 -133342.086 258817.433 -133009.874 258915.29 -132651.688 258941.389 -132281.294 258894.725 -131912.925 258777.094 -131560.738 258651.577 -131325.914 258361.605 -131200 257227.605 -132334 256868.395 -132334 255734.395 -131200 255444.423 -131325.914 255278.567 -131658.126 255180.71 -132016.312 255154.611 -132386.706 253095.508 -132386.706 252126.805 -131418.004 252103.002 -131389 251987.277 -131294.027 251855.248 -131223.455 251711.987 -131179.998 251600.334 -131169.001 251600.323 -131169.001 251563.001 -131165.325 251525.679 -131169.001 249417.902 -131169.001 249395.933 -131127.9 249307.706 -131020.395 255914 -131020.395 257048 -132154.395 258182 -131020.395 258056.086 -130730.423 257723.874 -130564.567 257365.688 -130466.71 256995.294 -130440.611 256626.925 -130487.275 256274.738 -130604.906 256039.914 -130730.423 255914 -131020.395 249307.706 -131020.395 249216.609 -130909.393 248998.102 -130730.069 248868.656 -130660.879 248886.228 -130653.431 249119.663 -130494.674 249317.64 -130293.426 249472.552 -130057.422 249578.445 -129795.731 249588.905 -129738.04 249466.916 -129516.001 248124.001 -129516.001 248124.001 -129536.001 247870.001 -129536.001 247870.001 -129516.001 246527.086 -129516.001 246405.097 -129738.04 246415.557 -129795.731 246521.45 -130057.422 246676.362 -130293.426 246874.339 -130494.674 247107.774 -130653.431 247125.346 -130660.879 246995.9 -130730.069 246777.393 -130909.393 246598.069 -131127.9 246576.1 -131169.001 244921.214 -131169.001 244901.99 -131122.589 244739.475 -130879.368 244532.632 -130672.525 244350.466 -130550.805 244467.355 -130481.178 244683.588 -130286.269 244857.641 -130052.92 244982.825 -129790.099 245027.476 -129642.89 244906.155 -129413 243713 -129413 243713 -129433 243459 -129433 243459 -129413 242265.845 -129413 242144.524 -129642.89 242189.175 -129790.099 242314.359 -130052.92 242488.412 -130286.269 242704.645 -130481.178 242821.534 -130550.805 242639.368 -130672.525 242432.525 -130879.368 242270.01 -131122.589 242158.068 -131392.842 242101 -131679.74 231304.476 -131679.74 231297.932 -131646.842 231185.99 -131376.589 231023.475 -131133.368 230816.632 -130926.525 230642.24 -130810 230816.632 -130693.475 231023.475 -130486.632 231185.99 -130243.411 231297.932 -129973.158 231355 -129686.26 231355 -129393.74 231297.932 -129106.842 231185.99 -128836.589 231023.475 -128593.368 230816.632 -128386.525 230642.24 -128270 230816.632 -128153.475 231023.475 -127946.632 231185.99 -127703.411 231297.932 -127433.158 231355 -127146.26 231355 -126853.74 231297.932 -126566.842 231185.99 -126296.589 231023.475 -126053.368 230816.632 -125846.525 230642.24 -125730 230816.632 -125613.475 231023.475 -125406.632 231185.99 -125163.411 231297.932 -124893.158 231355 -124606.26 231355 -124313.74 231297.932 -124026.842 231185.99 -123756.589 231023.475 -123513.368 230816.632 -123306.525 230642.24 -123190 230816.632 -123073.475 231023.475 -122866.632 231185.99 -122623.411 231297.932 -122353.158 231355 -122066.26 231355 -121773.74 231297.932 -121486.842 231185.99 -121216.589 231023.475 -120973.368 230816.632 -120766.525 230642.24 -120650 230816.632 -120533.475 231023.475 -120326.632 231185.99 -120083.411 231297.932 -119813.158 231355 -119526.26 231355 -119233.74 231297.932 -118946.842 231185.99 -118676.589 231023.475 -118433.368 230816.632 -118226.525 230642.24 -118110 230816.632 -117993.475 231023.475 -117786.632 231185.99 -117543.411 231297.932 -117273.158 231355 -116986.26 231355 -116693.74 231297.932 -116406.842 231185.99 -116136.589 231023.475 -115893.368 230891.62 -115761.513 230964.18 -115739.502 231074.494 -115680.537 231171.185 -115601.185 231250.537 -115504.494 231309.502 -115394.18 231345.812 -115274.482 231358.072 -115150 231358.072 -114068.874 239466.2 -122177.002 239489.999 -122206.001 239518.997 -122229.799 239605.723 -122300.974 239665.265 -122332.8 239737.753 -122371.546 239881.014 -122415.003 239992.667 -122426 239992.676 -122426 240029.999 -122429.676 240067.322 -122426 242307.822 -122426 242432.525 -122612.632 242639.368 -122819.475 242813.76 -122936 242639.368 -123052.525 242432.525 -123259.368 242270.01 -123502.589 242158.068 -123772.842 242101 -124059.74 242101 -124352.26 242158.068 -124639.158 242270.01 -124909.411 242432.525 -125152.632 242639.368 -125359.475 242813.76 -125476 242639.368 -125592.525 242432.525 -125799.368 242270.01 -126042.589 242158.068 -126312.842 242101 -126599.74 242101 -126892.26 242158.068 -127179.158 242270.01 -127449.411 242432.525 -127692.632 242639.368 -127899.475 242821.534 -128021.195 242704.645 -128090.822 242488.412 -128285.731 242314.359 -128519.08 242189.175 -128781.901 242144.524 -128929.11 242265.845 -129159 243459 -129159 243459 -129139 243713 -129139 243713 -129159 244906.155 -129159 245027.476 -128929.11 244982.825 -128781.901 244857.641 -128519.08 244683.588 -128285.731 244467.355 -128090.822 244350.466 -128021.195 244532.632 -127899.475 244739.475 -127692.632 244795.355 -127609.001 246576.1 -127609.001 246598.069 -127650.102 246777.393 -127868.609 246995.9 -128047.933 247125.346 -128117.123 247107.774 -128124.571 246874.339 -128283.328 246676.362 -128484.576 246521.45 -128720.58 246415.557 -128982.271 246405.097 -129039.962 246527.086 -129262.001 247870.001 -129262.001 247870.001 -129242.001 248124.001 -129242.001 248124.001 -129262.001 249466.916 -129262.001 249588.905 -129039.962 249578.445 -128982.271 249472.552 -128720.58 249317.64 -128484.576 249119.663 -128283.328 248886.228 -128124.571 248868.656 -128117.123 248998.102 -128047.933 249216.609 -127868.609 249395.933 -127650.102 249417.902 -127609.001 255196.685 -127609.001 255235.439 -127803.834 255377.534 -128146.882 255583.825 -128455.618 255846.382 -128718.175 256155.118 -128924.466 256498.166 -129066.561 256862.344 -129139 257233.656 -129139 257597.834 -129066.561 257940.882 -128924.466 258249.618 -128718.175 258512.175 -128455.618 258718.466 -128146.882 258860.561 -127803.834 258933 -127439.656 258933 -127068.344 258860.561 -126704.166 258718.466 -126361.118 258512.175 -126052.382 258249.618 -125789.825 257940.882 -125583.534 257597.834 -125441.439 257233.656 -125369 256862.344 -125369 256498.166 -125441.439 256155.118 -125583.534 255846.382 -125789.825 255583.825 -126052.382 255559.357 -126089.001 249417.902 -126089.001 249395.933 -126047.9 249216.609 -125829.393 248998.102 -125650.069 248865.143 -125579.001 248998.102 -125507.933 249216.609 -125328.609 249395.933 -125110.102 249417.902 -125069.001 254875.677 -125069.001 254912.999 -125072.677 254950.321 -125069.001 254950.332 -125069.001 255061.985 -125058.004 255205.246 -125014.547 255337.275 -124943.975 255453 -124849.002 255476.803 -124819.998 256365.283 -123931.519 256498.166 -123986.561 256862.344 -124059 257233.656 -124059 257597.834 -123986.561 257940.882 -123844.466 258249.618 -123638.175 258512.175 -123375.618 258718.466 -123066.882 258860.561 -122723.834 258933 -122359.656 258933 -121988.344 258860.561 -121624.166 258718.466 -121281.118 258512.175 -120972.382 258249.618 -120709.825 257940.882 -120503.534 257597.834 -120361.439 257233.656 -120289 256862.344 -120289 256498.166 -120361.439 256155.118 -120503.534 255846.382 -120709.825 255583.825 -120972.382 255377.534 -121281.118 255235.439 -121624.166 255163 -121988.344 255163 -122359.656 255235.439 -122723.834 255290.481 -122856.717 254598.198 -123549.001 249417.902 -123549.001 249395.933 -123507.9 249216.609 -123289.393 248998.102 -123110.069 248865.143 -123039.001 248998.102 -122967.933 249216.609 -122788.609 249395.933 -122570.102 249417.902 -122529.001 249795.677 -122529.001 249832.999 -122532.677 249870.321 -122529.001 249870.332 -122529.001 249981.985 -122518.004 250125.246 -122474.547 250257.275 -122403.975 250373 -122309.002 250396.803 -122279.998 254822.802 -117854 255322.493 -117854 255377.534 -117986.882 255583.825 -118295.618 255846.382 -118558.175 256155.118 -118764.466 256498.166 -118906.561 256862.344 -118979 257233.656 -118979 257597.834 -118906.561 257940.882 -118764.466 258249.618 -118558.175 258512.175 -118295.618 258718.466 -117986.882 258860.561 -117643.834 258933 -117279.656 258933 -116908.344 258860.561 -116544.166 258718.466 -116201.118 258512.175 -115892.382 258249.618 -115629.825 257940.882 -115423.534 257597.834 -115281.439 257233.656 -115209 256862.344 -115209 256498.166 -115281.439 256155.118 -115423.534 255846.382 -115629.825 255583.825 -115892.382 255377.534 -116201.118 255322.493 -116334 254545.323 -116334 254508 -116330.324 254470.677 -116334 254470.667 -116334 254359.014 -116344.997 254215.753 -116388.454 254083.724 -116459.026 253967.999 -116553.999 253944.201 -116582.997 249518.198 -121009.001 249417.902 -121009.001 249395.933 -120967.9 249216.609 -120749.393 248998.102 -120570.069 248865.143 -120499.001 248998.102 -120427.933 249216.609 -120248.609 249395.933 -120030.102 249417.902 -119989.001 249795.677 -119989.001 249832.999 -119992.677 249870.321 -119989.001 249870.332 -119989.001 249981.985 -119978.004 250125.246 -119934.547 250257.275 -119863.975 250373 -119769.002 250396.803 -119739.998 256365.283 -113771.519 256498.166 -113826.561 256862.344 -113899 257233.656 -113899 257597.834 -113826.561 257940.882 -113684.466 258249.618 -113478.175 258512.175 -113215.618 258718.466 -112906.882 258860.561 -112563.834 258933 -112199.656 258933 -111828.344 258860.561 -111464.166 258718.466 -111121.118 258512.175 -110812.382 258249.618 -110549.825 257940.882 -110343.534 257597.834 -110201.439 257233.656 -110129 256959.802 -110129 257559.003 -109529.799 257588.001 -109506.001 257682.974 -109390.276 257753.546 -109258.247 257797.003 -109114.986 257808 -109003.333 257808 -109003.325 257811.676 -108966 257808 -108928.675 257808 -108659.507 257940.882 -108604.466 258249.618 -108398.175 258512.175 -108135.618 258718.466 -107826.882 258860.561 -107483.834 258933 -107119.656 258933 -106748.344 258860.561 -106384.166 258718.466 -106041.118 258512.175 -105732.382 258249.618 -105469.825 257940.882 -105263.534 257597.834 -105121.439 257233.656 -105049 256862.344 -105049 256498.166 -105121.439 256155.118 -105263.534 255846.382 -105469.825 255583.825 -105732.382 255377.534 -106041.118 255235.439 -106384.166 255163 -106748.344 255163 -107119.656 255235.439 -107483.834 255377.534 -107826.882 255583.825 -108135.618 255846.382 -108398.175 256155.118 -108604.466 256282.124 -108657.074 249240.588 -115698.611 249216.609 -115669.393 248998.102 -115490.069 248865.143 -115419.001 248998.102 -115347.933 249216.609 -115168.609 249395.933 -114950.102 249529.183 -114700.809 249611.237 -114430.31 249638.944 -114149.001 249611.237 -113867.692 249551.16 -113669.643 252225.008 -110995.797 252254.001 -110972.003 252277.795 -110943.01 252277.799 -110943.006 252348.973 -110856.279 252372.437 -110812.382 252419.546 -110724.249 252463.003 -110580.988 252474 -110469.335 252474 -110469.326 252477.676 -110432.003 252474 -110394.68 252474 -105470.801 255159.928 -102784.874 255159.928 -103104 255172.188 -103228.482 255208.498 -103348.18 255267.463 -103458.494 255346.815 -103555.185 255443.506 -103634.537 255553.82 -103693.502 255673.518 -103729.812 255798 -103742.072 258298 -103742.072 258422.482 -103729.812 258542.18 -103693.502 258652.494 -103634.537 258749.185 -103555.185 258828.537 -103458.494 258887.502 -103348.18 258923.812 -103228.482 258936.072 -103104 258936.072 -100604 258923.812 -100479.518 258887.502 -100359.82 258828.537 -100249.506 258749.185 -100152.815 258652.494 -100073.463 258542.18 -100014.498 258422.482 -99978.188 258298 -99965.928 255798 -99965.928 255673.518 -99978.188 255553.82 -100014.498 255443.506 -100073.463 255346.815 -100152.815 255267.463 -100249.506 255208.498 -100359.82 255172.188 -100479.518 255159.928 -100604 255159.928 -101094 255053.322 -101094 255015.999 -101090.324 254978.676 -101094 254978.667 -101094 254867.014 -101104.997 254723.753 -101148.454 254591.724 -101219.026 254475.999 -101313.999 254452.201 -101342.997 251203.003 -104592.196 251173.999 -104615.999 251118.871 -104683.174 251079.026 -104731.724 251008.455 -104863.753 251008.454 -104863.754 250964.997 -105007.015 250954 -105118.668 250954 -105118.678 250950.324 -105156 250954 -105193.323 250954.001 -110117.198 248349.156 -112722.044 248267.493 -112714.001 247726.509 -112714.001 247515.692 -112734.765 247245.193 -112816.819 246995.9 -112950.069 246777.393 -113129.393 246648.869 -113286 245074.072 -113286 245074.072 -113196 245061.812 -113071.518 245025.502 -112951.82 244966.537 -112841.506 244887.185 -112744.815 244790.494 -112665.463 244680.18 -112606.498 244560.482 -112570.188 244436 -112557.928 242736 -112557.928 242611.518 -112570.188 242491.82 -112606.498 242381.506 -112665.463 242284.815 -112744.815 242205.463 -112841.506 242146.498 -112951.82 242110.188 -113071.518 242097.928 -113196 242097.928 -114896 242110.188 -115020.482 242146.498 -115140.18 242205.463 -115250.494 242284.815 -115347.185 242381.506 -115426.537 242491.82 -115485.502 242564.38 -115507.513 242432.525 -115639.368 242270.01 -115882.589 242158.068 -116152.842 242101 -116439.74 242101 -116732.26 242158.068 -117019.158 242270.01 -117289.411 242432.525 -117532.632 242639.368 -117739.475 242813.76 -117856 242639.368 -117972.525 242432.525 -118179.368 242307.822 -118366 239074.802 -118366 224661.811 -103953.009 224882.967 -103997 225205.033 -103997 225520.912 -103934.168 225818.463 -103810.918 226086.252 -103631.987 226313.987 -103404.252 226314 -103404.233 226314.013 -103404.252 226541.748 -103631.987 226809.537 -103810.918 227107.088 -103934.168 227422.967 -103997 227745.033 -103997 228060.912 -103934.168 228358.463 -103810.918 228626.252 -103631.987 228853.987 -103404.252 228854 -103404.233 228854.013 -103404.252 229081.748 -103631.987 229349.537 -103810.918 229647.088 -103934.168 229962.967 -103997 230285.033 -103997 230600.912 -103934.168 230898.463 -103810.918 231166.252 -103631.987 231393.987 -103404.252 231394 -103404.233 231394.013 -103404.252 231621.748 -103631.987 231889.537 -103810.918 232187.088 -103934.168 232502.967 -103997 232825.033 -103997 233140.912 -103934.168 233438.463 -103810.918 233706.252 -103631.987 233933.987 -103404.252 233934 -103404.233 233934.013 -103404.252 234161.748 -103631.987 234429.537 -103810.918 234727.088 -103934.168 235042.967 -103997 235365.033 -103997 235680.912 -103934.168 235978.463 -103810.918 236246.252 -103631.987 236473.987 -103404.252 236474 -103404.233 236474.013 -103404.252 236701.748 -103631.987 236969.537 -103810.918 237267.088 -103934.168 237582.967 -103997 237905.033 -103997 238220.912 -103934.168 238518.463 -103810.918 238786.252 -103631.987 239013.987 -103404.252 239014 -103404.233 239014.013 -103404.252 239241.748 -103631.987 239509.537 -103810.918 239807.088 -103934.168 240122.967 -103997 240445.033 -103997 240760.912 -103934.168 241058.463 -103810.918 241326.252 -103631.987 241553.987 -103404.252 241554 -103404.233 241554.013 -103404.252 241781.748 -103631.987 242049.537 -103810.918 242347.088 -103934.168 242662.967 -103997 242985.033 -103997 243300.912 -103934.168 243598.463 -103810.918 243866.252 -103631.987 244093.987 -103404.252 244094 -103404.233 244094.013 -103404.252 244321.748 -103631.987 244589.537 -103810.918 244887.088 -103934.168 245202.967 -103997 245525.033 -103997 245840.912 -103934.168 246138.463 -103810.918 246406.252 -103631.987 246633.987 -103404.252 246634 -103404.233 246634.013 -103404.252 246861.748 -103631.987 247129.537 -103810.918 247427.088 -103934.168 247742.967 -103997 248065.033 -103997 248380.912 -103934.168 248678.463 -103810.918 248946.252 -103631.987 249173.987 -103404.252 249352.918 -103136.463 249476.168 -102838.912 249539 -102523.033 249539 -102200.967 249476.168 -101885.088 249352.918 -101587.537 249173.987 -101319.748 248946.252 -101092.013 248946.233 -101092 248946.252 -101091.987 249173.987 -100864.252 249352.918 -100596.463 249476.168 -100298.912 249539 -99983.033 249539 -99660.967 249476.168 -99345.088 249352.918 -99047.537 249173.987 -98779.748 248946.252 -98552.013 248946.233 -98552 248946.252 -98551.987 249173.987 -98324.252 249352.918 -98056.463 249476.168 -97758.912 249539 -97443.033 249539 -97120.967 249476.168 -96805.088 249352.918 -96507.537 249173.987 -96239.748 248946.252 -96012.013 248946.233 -96012 248946.252 -96011.987 249173.987 -95784.252 249352.918 -95516.463 249476.168 -95218.912 249539 -94903.033 249539 -94580.967 249476.168 -94265.088 249352.918 -93967.537 249237.195 -93794.344 255417 -93794.344 255417 -94165.656 255489.439 -94529.834 255631.534 -94872.882 255837.825 -95181.618 256100.382 -95444.175 256409.118 -95650.466 256752.166 -95792.561 257116.344 -95865 257487.656 -95865 257851.834 -95792.561 258194.882 -95650.466 258503.618 -95444.175 258766.175 -95181.618 258972.466 -94872.882 259114.561 -94529.834 259187 -94165.656 259187 -93794.344 259114.561 -93430.166 258972.466 -93087.118 258766.175 -92778.382 258503.618 -92515.825 258194.882 -92309.534 257851.834 -92167.439 257487.656 -92095 257116.344 -92095 256752.166 -92167.439 256409.118 -92309.534 256100.382 -92515.825 255837.825 -92778.382 255631.534 -93087.118 255489.439 -93430.166 255417 -93794.344 249237.195 -93794.344 249173.987 -93699.748 248946.252 -93472.013 248946.233 -93472 248946.252 -93471.987 249173.987 -93244.252 249352.918 -92976.463 249476.168 -92678.912 249539 -92363.033 249539 -92040.967 249476.168 -91725.088 249352.918 -91427.537 249173.987 -91159.748 248946.252 -90932.013 248946.233 -90932 248946.252 -90931.987 249173.987 -90704.252 249352.918 -90436.463 249471.575 -90150 255413.928 -90150 255426.188 -90274.482 255462.498 -90394.18 255521.463 -90504.494 255600.815 -90601.185 255697.506 -90680.537 255807.82 -90739.502 255927.518 -90775.812 256052 -90788.072 257016.25 -90785 257175 -90626.25 257175 -89027 257429 -89027 257429 -90626.25 257587.75 -90785 258552 -90788.072 258676.482 -90775.812 258796.18 -90739.502 258906.494 -90680.537 259003.185 -90601.185 259082.537 -90504.494 259141.502 -90394.18 259177.812 -90274.482 259190.072 -90150 259187 -89185.75 259028.25 -89027 257429 -89027 257175 -89027 255575.75 -89027 255417 -89185.75 255413.928 -90150 249471.575 -90150 249476.168 -90138.912 249539 -89823.033 249539 -89500.967 249476.168 -89185.088 249352.918 -88887.537 249173.987 -88619.748 248946.252 -88392.013 248946.233 -88392 248946.252 -88391.987 249173.987 -88164.252 249352.918 -87896.463 249455.006 -87650 255413.928 -87650 255417 -88614.25 255575.75 -88773 257175 -88773 257175 -87173.75 257429 -87173.75 257429 -88773 259028.25 -88773 259187 -88614.25 259190.072 -87650 259177.812 -87525.518 259141.502 -87405.82 259082.537 -87295.506 259003.185 -87198.815 258906.494 -87119.463 258796.18 -87060.498 258676.482 -87024.188 258552 -87011.928 257587.75 -87015 257429 -87173.75 257175 -87173.75 257016.25 -87015 256052 -87011.928 255927.518 -87024.188 255807.82 -87060.498 255697.506 -87119.463 255600.815 -87198.815 255521.463 -87295.506 255462.498 -87405.82 255426.188 -87525.518 255413.928 -87650 249455.006 -87650 249476.168 -87598.912 249539 -87283.033 249539 -86960.967 249476.168 -86645.088 249352.918 -86347.537 249173.987 -86079.748 248946.252 -85852.013 248946.233 -85852 248946.252 -85851.987 249173.987 -85624.252 249352.918 -85356.463 249476.168 -85058.912 249539 -84743.033 249539 -84420.967 249476.168 -84105.088 249352.918 -83807.537 249173.987 -83539.748 248946.252 -83312.013 248678.463 -83133.082 248380.912 -83009.832 248065.033 -82947 247742.967 -82947 247427.088 -83009.832 247129.537 -83133.082 246861.748 -83312.013 246634.013 -83539.748 246634 -83539.767 246633.987 -83539.748 246406.252 -83312.013 246138.463 -83133.082 245840.912 -83009.832 245525.033 -82947 245202.967 -82947 244887.088 -83009.832 244589.537 -83133.082 244321.748 -83312.013 244094.013 -83539.748 244094 -83539.767 244093.987 -83539.748 243866.252 -83312.013 243598.463 -83133.082 243300.912 -83009.832 242985.033 -82947 242662.967 -82947 242347.088 -83009.832 242049.537 -83133.082 241781.748 -83312.013 241554.013 -83539.748 241554 -83539.767 241553.987 -83539.748 241326.252 -83312.013 241058.463 -83133.082 240760.912 -83009.832 240445.033 -82947 240122.967 -82947 239807.088 -83009.832 239509.537 -83133.082 239241.748 -83312.013 239014.013 -83539.748 239014 -83539.767 239013.987 -83539.748 238786.252 -83312.013 238518.463 -83133.082 238220.912 -83009.832 237905.033 -82947 237582.967 -82947 237267.088 -83009.832 236969.537 -83133.082 236701.748 -83312.013 236474.013 -83539.748 236474 -83539.767 236473.987 -83539.748 236246.252 -83312.013 235978.463 -83133.082 235680.912 -83009.832 235365.033 -82947 235042.967 -82947 234727.088 -83009.832 234429.537 -83133.082 234161.748 -83312.013 233934.013 -83539.748 233934 -83539.767 233933.987 -83539.748 233706.252 -83312.013 233438.463 -83133.082 233140.912 -83009.832 232825.033 -82947 232502.967 -82947 232187.088 -83009.832 231889.537 -83133.082 231621.748 -83312.013 231394.013 -83539.748 231394 -83539.767 231393.987 -83539.748 231166.252 -83312.013 230898.463 -83133.082 230600.912 -83009.832 230285.033 -82947 229962.967 -82947 229647.088 -83009.832 229349.537 -83133.082 229081.748 -83312.013 228854.013 -83539.748 228854 -83539.767 228853.987 -83539.748 228626.252 -83312.013 228358.463 -83133.082 228060.912 -83009.832 227745.033 -82947 227422.967 -82947 227107.088 -83009.832 226809.537 -83133.082 226541.748 -83312.013 226314.013 -83539.748 226314 -83539.767 226313.987 -83539.748 226086.252 -83312.013 225818.463 -83133.082 225520.912 -83009.832 225205.033 -82947 224882.967 -82947 224567.088 -83009.832 224269.537 -83133.082 224001.748 -83312.013 223774.013 -83539.748 223595.082 -83807.537 223471.832 -84105.088 223409 -84420.967 223409 -84743.033 223471.832 -85058.912 223595.082 -85356.463 223774.013 -85624.252 224001.748 -85851.987 224001.767 -85852 224001.748 -85852.013 223774.013 -86079.748 223595.082 -86347.537 223471.832 -86645.088 223409 -86960.967 223409 -87283.033 223471.832 -87598.912 223595.082 -87896.463 223774.013 -88164.252 224001.748 -88391.987 224001.767 -88392 224001.748 -88392.013 223774.013 -88619.748 223595.082 -88887.537 223471.832 -89185.088 223409 -89500.967 223409 -89823.033 223471.832 -90138.912 223595.082 -90436.463 223774.013 -90704.252 224001.748 -90931.987 224001.767 -90932 224001.748 -90932.013 223774.013 -91159.748 223595.082 -91427.537 223471.832 -91725.088 223409 -92040.967 223409 -92363.033 223471.832 -92678.912 223595.082 -92976.463 223774.013 -93244.252 224001.748 -93471.987 224001.767 -93472 224001.748 -93472.013 223774.013 -93699.748 223595.082 -93967.537 223471.832 -94265.088 223409 -94580.967 223409 -94903.033 223471.832 -95218.912 223595.082 -95516.463 223774.013 -95784.252 224001.748 -96011.987 224001.767 -96012 224001.748 -96012.013 223774.013 -96239.748 223595.082 -96507.537 223471.832 -96805.088 223409 -97120.967 223409 -97443.033 223471.832 -97758.912 223595.082 -98056.463 223774.013 -98324.252 224001.748 -98551.987 224001.767 -98552 224001.748 -98552.013 223774.013 -98779.748 223595.082 -99047.537 223471.832 -99345.088 223409 -99660.967 223409 -99983.033 223471.832 -100298.912 223595.082 -100596.463 223774.013 -100864.252 224001.748 -101091.987 224001.767 -101092 224001.748 -101092.013 223774.013 -101319.748 223595.082 -101587.537 223471.832 -101885.088 223409 -102200.967 223409 -102523.033 223452.991 -102744.19 222756 -102047.199 222756 -92239.325 222759.676 -92202 222756 -92164.675 222756 -92164.667 222745.003 -92053.014 222701.546 -91909.753 222630.974 -91777.724 222536.001 -91661.999 222507.004 -91638.202 219627.209 -88758.408 219671 -88538.26 219671 -88245.74 219613.932 -87958.842 219501.99 -87688.589 219339.475 -87445.368 219132.632 -87238.525 218958.24 -87122 219132.632 -87005.475 219339.475 -86798.632 219501.99 -86555.411 219613.932 -86285.158 219671 -85998.26 219671 -85705.74 219613.932 -85418.842 219501.99 -85148.589 219339.475 -84905.368 219207.62 -84773.513 219280.18 -84751.502 219390.494 -84692.537 219487.185 -84613.185 219566.537 -84516.494 219625.502 -84406.18 219661.812 -84286.482 219674.072 -84162 219671 -83597.75 219512.25 -83439 218313 -83439 218313 -83459 218059 -83459 218059 -83439 218039 -83439 218039 -83185 218059 -83185 218059 -81985.75 218313 -81985.75 218313 -83185 219512.25 -83185 219671 -83026.25 219674.072 -82462 219661.812 -82337.518 219625.502 -82217.82 219566.537 -82107.506 219487.185 -82010.815 219390.494 -81931.463 219280.18 -81872.498 219160.482 -81836.188 219036 -81823.928 218471.75 -81827 218313 -81985.75 218059 -81985.75 217900.25 -81827 217336 -81823.928 217211.518 -81836.188 217091.82 -81872.498 216981.506 -81931.463 216884.815 -82010.815 216805.463 -82107.506 216746.498 -82217.82 216710.188 -82337.518 216697.928 -82462 216701 -83026.25 216859.748 -83184.998 216701 -83184.998 216701 -83292.198 215964.805 -82556.004 215941.002 -82527 215825.277 -82432.027 215693.248 -82361.455 215549.987 -82317.998 215438.334 -82307.001 215438.323 -82307.001 215401.001 -82303.325 215363.679 -82307.001 215007.073 -82307.001 215007.073 -82217.001 214994.813 -82092.519 214958.503 -81972.821 214899.538 -81862.507 214820.186 -81765.816 214723.495 -81686.464 214613.181 -81627.499 214493.483 -81591.189 214369.001 -81578.929 212669.001 -81578.929 212544.519 -81591.189 212424.821 -81627.499 212314.507 -81686.464 212217.816 -81765.816 212138.464 -81862.507 212079.499 -81972.821 212043.189 -82092.519 212030.929 -82217.001 212030.929 -83917.001 212043.189 -84041.483 212079.499 -84161.181 212138.464 -84271.495 212217.816 -84368.186 212314.507 -84447.538 212424.821 -84506.503 212497.381 -84528.514 212365.526 -84660.369 212240.823 -84847.001 211864.322 -84847.001 211826.999 -84843.325 211789.676 -84847.001 211789.666 -84847.001 211678.013 -84857.998 211534.752 -84901.455 211402.722 -84972.027 211319.082 -85040.669 211286.998 -85067 211263.2 -85095.998 210055.003 -86304.196 210025.999 -86327.999 209973.475 -86392 209931.026 -86443.724 209907.909 -86486.973 209860.454 -86575.754 209816.997 -86719.015 209806 -86830.668 209806 -86830.678 209802.324 -86868 209194 -86868 209194 -79654 263500.001 -79654 263500 -141834" fill="none" stroke-width="254"/><path d="M 215140 -93382.802 215140.001 -97983.197 213104 -100019.199 213104 -97187.869 213162.11 -97208.482 213392.001 -97087.815 213392.001 -95894.001 213646.001 -95894.001 213646.001 -97087.815 213875.892 -97208.482 214150.253 -97111.158 214400.356 -96962.179 214616.589 -96767.27 214790.642 -96533.921 214915.826 -96271.1 214960.477 -96123.891 214839.156 -95894.001 213646.001 -95894.001 213392.001 -95894.001 213372.001 -95894.001 213372.001 -95640.001 213392.001 -95640.001 213392.001 -95620.001 213646.001 -95620.001 213646.001 -95640.001 214839.156 -95640.001 214960.477 -95410.111 214915.826 -95262.902 214790.642 -95000.081 214616.589 -94766.732 214400.356 -94571.823 214283.467 -94502.196 214465.633 -94380.476 214672.476 -94173.633 214834.991 -93930.412 214946.933 -93660.159 215004.001 -93373.261 215004.001 -93246.803 215140 -93382.802"/><path d="M 215140 -93382.802 215140.001 -97983.197 213104 -100019.199 213104 -97187.869 213162.11 -97208.482 213392.001 -97087.815 213392.001 -95894.001 213646.001 -95894.001 213646.001 -97087.815 213875.892 -97208.482 214150.253 -97111.158 214400.356 -96962.179 214616.589 -96767.27 214790.642 -96533.921 214915.826 -96271.1 214960.477 -96123.891 214839.156 -95894.001 213646.001 -95894.001 213392.001 -95894.001 213372.001 -95894.001 213372.001 -95640.001 213392.001 -95640.001 213392.001 -95620.001 213646.001 -95620.001 213646.001 -95640.001 214839.156 -95640.001 214960.477 -95410.111 214915.826 -95262.902 214790.642 -95000.081 214616.589 -94766.732 214400.356 -94571.823 214283.467 -94502.196 214465.633 -94380.476 214672.476 -94173.633 214834.991 -93930.412 214946.933 -93660.159 215004.001 -93373.261 215004.001 -93246.803 215140 -93382.802" fill="none" stroke-width="254"/></g></svg>